<?xml version="1.0" encoding="utf-8"?>
<!-- Generator: Adobe Illustrator 22.1.0, SVG Export Plug-In . SVG Version: 6.00 Build 0)  -->
<svg version="1.1" id="Слой_1" xmlns="http://www.w3.org/2000/svg" xmlns:xlink="http://www.w3.org/1999/xlink" x="0px" y="0px"
	 viewBox="0 0 510.2 516.2" style="enable-background:new 0 0 510.2 516.2;" xml:space="preserve">
<style type="text/css">
	.st0{fill:#FF78B0;}
	.st1{fill:#FFE260;stroke:#231F20;stroke-width:7;stroke-linejoin:round;stroke-miterlimit:10;}
</style>
<circle class="st0" cx="255.1" cy="258.5" r="240.7"/>
<path d="M255,3.3c29.1,0,57.5,4.8,85.1,14.4c4.1,1.4,7.9,3.3,10.2,7.3c2.8,5.4,2.4,11.6-1.4,16.3c-3.5,4.4-10,6.2-15.7,4.4
	c-6.4-2.1-12.9-4.4-19.4-6.1c-11.3-3-22.9-5.1-34.6-6.4c-11.9-1.3-23.6-1.7-35.5-1.1c-17.7,1-35.2,3.8-52.3,8.9
	c-21.9,6.5-42.5,16-61.5,28.7c-31.8,21.3-57,48.9-74.9,82.8c-12.4,23.3-20.5,48.1-24,74.3c-1.1,8.5-1.7,17.1-2.1,25.6
	c-0.4,7.5,0,14.8,0.4,22.3c1.1,15.8,3.8,31.4,8.3,46.5c9.5,32.8,25.7,61.8,48.2,87.3c1.3,1.6,2.7,3,4.1,4.5c4.2,4.4,5.2,10.6,2.8,16
	c-2.4,5.2-7.8,8.6-13.6,8.3c-3.8-0.1-7.2-1.7-9.9-4.5c-8.8-9.3-16.7-19.2-24-29.8c-9.9-14.3-18.2-29.4-25-45.4
	c-7.2-17-12.4-34.3-15.7-52.4C3,297,1.9,288.7,1.2,280.2C0.4,272-0.1,263.8,0,255.4c0.4-21.6,3.1-43,8.8-63.9
	c4.5-16.7,10.6-32.8,18.5-48.3c9.9-19.6,22.2-37.7,36.9-54.3c19.5-22,42.1-40.1,67.8-54.4c21.8-12,44.9-20.6,69.2-25.9
	c12-2.5,24.2-4.2,36.5-5.1C243.5,3.6,249.3,3.5,255,3.3z"/>
<path d="M510.2,258.4c0,36.7-7.5,71.9-22.6,105.4C477,387.3,463,408.5,446,427.7c-14.7,16.5-31.2,30.9-49.7,43.2
	c-27.8,18.5-58.4,31.1-91.2,37.6c-13,2.5-26,4.1-39.3,4.5c-4.7,0.1-9.5,0.4-14.3,0.3c-20.8-0.6-41.1-3-61.2-8.3
	c-7.2-1.8-14.3-4.1-21.3-6.6c-9.9-3.4-11.9-13.4-8.3-20.4c3.1-6.1,10-9.2,17.4-6.8c13.7,4.7,27.6,8.5,42,10.6
	c8.8,1.4,17.4,2.4,26.3,2.5c2.5,0,5.2,0.4,7.8,0.4c33.6-0.3,65.9-6.9,96.4-21.2c20.8-9.8,39.7-22.3,56.8-37.7
	c19.5-17.8,35.6-38.3,48.1-61.8c12.9-24.2,20.9-49.9,24.4-77c1.7-13.3,2.4-26.6,1.7-39.9c-1-18.9-4.2-37.6-9.9-55.8
	c-6.4-20.6-15.5-40-27.4-57.9c-6.4-9.6-13.3-18.8-21.2-27.3c-1.1-1.1-2.1-2.4-3.1-3.5c-4.9-5.2-4.9-13.6-0.1-19.2
	c4.4-5.2,12.7-6.2,18.5-2.5c2.7,1.7,4.5,4.1,6.5,6.4c13.1,14.7,24.6,30.7,34.1,47.9c12.6,22.9,21.5,47.2,26.6,72.9
	c2.1,11,3.7,22,4.2,33.2C509.9,247.1,510.1,252.8,510.2,258.4z"/>
<path d="M402.1,57.3c-0.3,7.1-5.1,14.4-14.4,14.3c-8.3,0-14.1-5.9-14.3-14.1c-0.1-8.9,6.5-14.4,14.3-14.6
	C395,42.9,401.5,48.3,402.1,57.3z"/>
<path d="M122.7,445.1c7.9,0,14.4,6.5,14.3,14.6c-0.1,7.8-6.5,14.1-14.4,14.1c-8.1,0-14.3-6.4-14.3-14.6
	C108.4,451.3,114.8,445.1,122.7,445.1z"/>
<g>
	<path d="M155.1,126.7v7.5h-30v18.7c2.2-0.3,6.3-0.5,8.6-0.5c6.6,0,13.1,1.4,17.9,4.6c5.3,3.4,8.9,8.9,8.9,17
		c0,6.5-2.2,11.4-5.8,15.1c-5.7,5.6-15.1,7.7-24.5,7.7c-6.3,0-11-0.4-14-0.8v-69.3H155.1z M125.1,189.3c2.1,0.4,4.4,0.5,7.5,0.5
		c5.6,0,11.2-1.8,14.6-5.4c2.4-2.5,3.8-5.9,3.8-10.2c0-5.4-2.3-9-5.7-11.3c-3.6-2.5-8.2-3.5-13.2-3.5c-2.1,0-4.8,0.2-7.1,0.4V189.3z
		"/>
	<path d="M230.6,160.7c0,23.9-14.5,36.6-32.3,36.6c-18.4,0-31.2-14.2-31.2-35.3c0-22.1,13.7-36.5,32.3-36.5
		C218.3,125.6,230.6,140.1,230.6,160.7z M176.6,161.9c0,14.8,8,28.1,22.2,28.1c14.2,0,22.3-13.1,22.3-28.9
		c0-13.8-7.2-28.3-22.2-28.3C184.1,132.9,176.6,146.6,176.6,161.9z"/>
	<path d="M287.5,126.7v69.5h-9.1v-62h-23v21c0,15.1-0.6,31.9-10.4,38.5c-2.6,1.6-6.6,3.3-10.6,3.3l-1.1-7.2c2.8-0.5,5.7-2.2,7.3-3.7
		c5.6-5.5,6.1-19,6.1-30.1v-29.3H287.5z"/>
	<path d="M339,163.6h-27v25.1h30.1v7.5H303v-69.5h37.5v7.5H312v22h27V163.6z"/>
	<path d="M389.8,163.6h-27v25.1h30.1v7.5h-39.1v-69.5h37.5v7.5h-28.6v22h27V163.6z"/>
</g>
<g>
	<g>
		<path class="st1" d="M164.3,310.2c0,10.2-3.7,18.7-11.2,25.4c-8.1,7.2-19,10.8-32.8,10.8c-6.6,0-13.3-0.8-20.2-2.5
			c-6.1-1.5-11-3.3-14.6-5.3l3.2-26.5c7.8,7.1,16.5,10.6,26.1,10.6c5.5,0,9.8-1.2,12.9-3.7c3-2.5,4.5-5.7,4.5-9.9
			c0-4-1.8-7.3-5.4-9.8c-3.7-2.6-8.8-3.9-15.2-3.9c-7.5,0-14.4,1.2-20.9,3.7l7-55.2h60.7v24.2h-39.4l-1,9.4
			c2.3-0.4,5.7-0.6,10.2-0.6c11,0,19.9,3.3,26.6,9.9C161.1,293,164.3,300.8,164.3,310.2z"/>
		<path class="st1" d="M257.4,294c0,18.2-5,32-15.1,41.4c-7.9,7.4-17.4,11-28.5,11c-11.1,0-20.6-3.7-28.5-11
			c-9.9-9.3-14.9-23.1-14.9-41.4c0-18.4,5-32.4,14.9-41.9c7.9-7.5,17.4-11.2,28.5-11.2c11.1,0,20.7,3.7,28.6,11.2
			C252.4,261.6,257.4,275.5,257.4,294z M226.7,294c0-18.1-4.3-27.2-12.8-27.2c-8.5,0-12.8,9.1-12.8,27.2c0,17.7,4.3,26.6,12.8,26.6
			C222.4,320.5,226.7,311.7,226.7,294z"/>
		<path class="st1" d="M346.2,294c0,18.2-5,32-15.1,41.4c-7.9,7.4-17.4,11-28.5,11c-11.1,0-20.6-3.7-28.5-11
			c-9.9-9.3-14.9-23.1-14.9-41.4c0-18.4,5-32.4,14.9-41.9c7.9-7.5,17.4-11.2,28.5-11.2s20.7,3.7,28.6,11.2
			C341.2,261.6,346.2,275.5,346.2,294z M315.4,294c0-18.1-4.3-27.2-12.8-27.2c-8.5,0-12.8,9.1-12.8,27.2c0,17.7,4.3,26.6,12.8,26.6
			C311.2,320.5,315.4,311.7,315.4,294z"/>
		<path class="st1" d="M435,294c0,18.2-5,32-15.1,41.4c-7.9,7.4-17.4,11-28.5,11c-11.1,0-20.6-3.7-28.5-11
			C352.9,326,348,312.2,348,294c0-18.4,5-32.4,14.9-41.9c7.9-7.5,17.4-11.2,28.5-11.2s20.7,3.7,28.6,11.2
			C430,261.6,435,275.5,435,294z M404.2,294c0-18.1-4.3-27.2-12.8-27.2c-8.5,0-12.8,9.1-12.8,27.2c0,17.7,4.3,26.6,12.8,26.6
			C399.9,320.5,404.2,311.7,404.2,294z"/>
	</g>
</g>
</svg>
