<?xml version="1.0" encoding="utf-8"?>
<!-- Generator: Adobe Illustrator 22.1.0, SVG Export Plug-In . SVG Version: 6.00 Build 0)  -->
<svg version="1.1" id="Слой_1" xmlns="http://www.w3.org/2000/svg" xmlns:xlink="http://www.w3.org/1999/xlink" x="0px" y="0px"
	 viewBox="0 0 510.2 516.2" style="enable-background:new 0 0 510.2 516.2;" xml:space="preserve">
<style type="text/css">
	.st0{fill:#FF78B0;}
	.st1{fill:#FFE260;}
</style>
<circle class="st0" cx="255.1" cy="258.5" r="240.7"/>
<path d="M255,3.3c29.1,0,57.5,4.8,85.1,14.4c4.1,1.4,7.9,3.3,10.2,7.3c2.8,5.4,2.4,11.6-1.4,16.3c-3.5,4.4-10,6.2-15.7,4.4
	c-6.4-2.1-12.9-4.4-19.4-6.1c-11.3-3-22.9-5.1-34.6-6.4c-11.9-1.3-23.6-1.7-35.5-1.1c-17.7,1-35.2,3.8-52.3,8.9
	c-21.9,6.5-42.5,16-61.5,28.7c-31.8,21.3-57,48.9-74.9,82.8c-12.4,23.3-20.5,48.1-24,74.3c-1.1,8.5-1.7,17.1-2.1,25.6
	c-0.4,7.5,0,14.8,0.4,22.3c1.1,15.8,3.8,31.4,8.3,46.5c9.5,32.8,25.7,61.8,48.2,87.3c1.3,1.6,2.7,3,4.1,4.5c4.2,4.4,5.2,10.6,2.8,16
	c-2.4,5.2-7.8,8.6-13.6,8.3c-3.8-0.1-7.2-1.7-9.9-4.5c-8.8-9.3-16.7-19.2-24-29.8c-9.9-14.3-18.2-29.4-25-45.4
	c-7.2-17-12.4-34.3-15.7-52.4C3,297,1.9,288.7,1.2,280.2C0.4,272-0.1,263.8,0,255.4c0.4-21.6,3.1-43,8.8-63.9
	c4.5-16.7,10.6-32.8,18.5-48.3c9.9-19.6,22.2-37.7,36.9-54.3c19.5-22,42.1-40.1,67.8-54.4c21.8-12,44.9-20.6,69.2-25.9
	c12-2.5,24.2-4.2,36.5-5.1C243.5,3.6,249.3,3.5,255,3.3z"/>
<path d="M510.2,258.4c0,36.7-7.5,71.9-22.6,105.4C477,387.3,463,408.5,446,427.7c-14.7,16.5-31.2,30.9-49.7,43.2
	c-27.8,18.5-58.4,31.1-91.2,37.6c-13,2.5-26,4.1-39.3,4.5c-4.7,0.1-9.5,0.4-14.3,0.3c-20.8-0.6-41.1-3-61.2-8.3
	c-7.2-1.8-14.3-4.1-21.3-6.6c-9.9-3.4-11.9-13.4-8.3-20.4c3.1-6.1,10-9.2,17.4-6.8c13.7,4.7,27.6,8.5,42,10.6
	c8.8,1.4,17.4,2.4,26.3,2.5c2.5,0,5.2,0.4,7.8,0.4c33.6-0.3,65.9-6.9,96.4-21.2c20.8-9.8,39.7-22.3,56.8-37.7
	c19.5-17.8,35.6-38.3,48.1-61.8c12.9-24.2,20.9-49.9,24.4-77c1.7-13.3,2.4-26.6,1.7-39.9c-1-18.9-4.2-37.6-9.9-55.8
	c-6.4-20.6-15.5-40-27.4-57.9c-6.4-9.6-13.3-18.8-21.2-27.3c-1.1-1.1-2.1-2.4-3.1-3.5c-4.9-5.2-4.9-13.6-0.1-19.2
	c4.4-5.2,12.7-6.2,18.5-2.5c2.7,1.7,4.5,4.1,6.5,6.4c13.1,14.7,24.6,30.7,34.1,47.9c12.6,22.9,21.5,47.2,26.6,72.9
	c2.1,11,3.7,22,4.2,33.2C509.9,247.1,510.1,252.8,510.2,258.4z"/>
<path d="M402.1,57.3c-0.3,7.1-5.1,14.4-14.4,14.3c-8.3,0-14.1-5.9-14.3-14.1c-0.1-8.9,6.5-14.4,14.3-14.6
	C395,42.9,401.5,48.3,402.1,57.3z"/>
<path d="M122.7,445.1c7.9,0,14.4,6.5,14.3,14.6c-0.1,7.8-6.5,14.1-14.4,14.1c-8.1,0-14.3-6.4-14.3-14.6
	C108.4,451.3,114.8,445.1,122.7,445.1z"/>
<g>
	<circle class="st1" cx="257" cy="256.2" r="84.3"/>
	<path d="M126.2,140.3c4.3,0.9,7.4,3.6,10.5,6.5c11.4,11.2,23,22.2,34.4,33.4c1.2,1.2,2,1.2,3.4,0.5c14.2-6.6,28.9-11.5,44.2-14.7
		c19.4-4.1,39-5.3,58.8-3.5c41,3.8,77.4,19.4,110.1,44c13.5,10.2,26,21.5,36.4,35c2.4,3,4.3,6.4,6.4,9.6c1.5,2.4,1.6,4.9,0,7.2
		c-3.4,5-6.5,10.3-10.5,14.8c-18,21-39.8,37.4-64.3,50.2c-7.3,3.8-15,6.9-22.6,10.3c-0.7,0.3-1.4,0.6-2.6,1.4c0.6,0.3,1.2,0.5,1.7,1
		c7.8,7.5,15.7,15,23.4,22.7c4.3,4.2,5.6,9.3,3.7,15.1c-3.3,9.8-15.5,12.8-23.1,5.7c-7.3-6.9-14.5-13.9-21.7-20.9
		c-52.6-50.8-105.1-101.7-157.7-152.5c-14.1-13.6-28.1-27.2-42.2-40.8c-7.4-7.2-5.9-18.7,3-23.3c1.4-0.7,2.9-1.1,4.4-1.6
		C123.4,140.3,124.8,140.3,126.2,140.3z M308,312.7c20.1-20.6,28.1-44.8,21-72.6c-7.5-29.4-26.9-48.3-56.6-55
		c-28.2-6.4-52.2,2.6-72.2,23.3c8.6,8.3,17,16.4,25.4,24.6c15.8-19.1,42.6-18.2,58-3.7c15.5,14.6,17.8,42.1-1.1,58.8
		C291.1,296.3,299.4,304.4,308,312.7z"/>
	<path d="M125.9,211.2c46.7,45.3,93.4,90.6,140.4,136.1c-1.9,0.1-3.4,0.4-4.9,0.3c-9.1-0.4-18.2-0.6-27.2-1.5
		c-14.6-1.4-28.9-4.7-42.8-9.4c-26.4-8.8-50.2-22-71.3-40.2c-9.5-8.2-18.3-17-25.3-27.5c-2.3-3.4-4-7.1-5.8-10.7
		c-1.1-2.3-0.8-4.6,0.3-6.9c2.8-5.7,6.7-10.7,10.8-15.5c7.6-9,16.1-17,25.2-24.5C125.5,211.4,125.6,211.3,125.9,211.2z"/>
</g>
</svg>
