<?xml version="1.0" encoding="utf-8"?>
<!-- Generator: Adobe Illustrator 22.1.0, SVG Export Plug-In . SVG Version: 6.00 Build 0)  -->
<svg version="1.1" id="Слой_1" xmlns="http://www.w3.org/2000/svg" xmlns:xlink="http://www.w3.org/1999/xlink" x="0px" y="0px"
	 viewBox="0 0 747.3 587.5" style="enable-background:new 0 0 747.3 587.5;" xml:space="preserve">
<style type="text/css">
	.st0{fill:#FF78B0;}
	.st1{fill:#FFE260;}
</style>
<path class="st0" d="M547.3,372.2c-72.9,93.2-206.9,113.9-304.3,43.1C140.6,340.8,124.8,203.4,191.3,109
	c75-106.3,216.2-122.2,311.5-52.6C604.8,130.8,624.2,273.6,547.3,372.2z M234.3,288.5c0.3,1.2,0.4,1.7,0.6,2.3
	c7.6,17.7,18.1,33.5,32,46.9c22.5,21.6,49.2,34.8,80.3,38.9c21.3,2.8,42.3,1,62.7-5.7c27.9-9.2,50.8-25.6,68.7-48.8
	c7.7-10,13.9-21,18.7-32.7c0.7-1.6,0.4-2.4-1.4-2.3c-4.3,0.1-8.6,0-12.9,0.2c-0.9,0-2.1,0.7-2.6,1.5c-3.4,5.8-6.3,11.9-10,17.5
	c-11.5,17.5-26.6,31.2-45.2,41c-30.3,16-62.1,19.2-95.1,9.8c-23.2-6.6-42.7-19.4-58.8-37.3c-7.2-8-13.4-16.8-17.8-26.5
	c-1.8-3.9-4-5-8-4.7C241.9,288.7,238.3,288.5,234.3,288.5z M493.4,174.8c-14.3-34-58.1-79.7-125.2-80.9c-64-1.2-112.7,40-130.7,82
	c0.7,0.1,1.3,0.3,1.9,0.3c4.2,0,8.5-0.1,12.7,0c2,0,3.1-0.9,4.1-2.5c3.2-5.1,6.4-10.3,10.1-15.1c8.6-11.2,18.9-20.7,30.7-28.4
	c15.6-10.1,32.5-16.6,50.8-19.2c21.7-3.1,42.8-0.7,63.3,7.1c17.8,6.8,33.2,17.3,46.3,31c6.9,7.3,13,15.2,17.9,24.1
	c0.4,0.7,1.5,1.6,2.2,1.6C482.7,174.9,487.9,174.9,493.4,174.8z M367.8,255c-2.1,1.7-3.9,3.4-5.9,4.8c-10.1,7.3-26.8,7.7-36.7-4.1
	c-9.1-10.9-8.6-27.6-0.9-37.5c8.6-11.1,23.9-14.2,35.6-6.8c7.6,4.8,11.3,12.3,12.3,20.9c0.7,6.2,0.7,12.4,0.7,18.6
	c0.1,7,0.3,14-0.4,20.9c-1.2,13.2-10.6,21.8-23.8,22.6c-6,0.3-11.7-1.2-17.3-2.8c-0.8-0.2-2.2-0.3-2.7,0.2c-2.1,2.1-1.4,4.5,1.3,5.3
	c7.2,2.1,14.6,3.3,22.1,2.3c5.9-0.7,11.3-2.8,15.7-6.8c6.4-5.7,9.9-13,10.1-21.5c0.3-12.4,0.2-24.7-0.1-37.1
	c-0.3-10.4-4.7-18.7-13-25.1c-16.8-12.9-45.5-6.6-51.2,18.5c-2.8,12.3-0.5,23.8,8.6,33c11.2,11.4,29,12.7,42.3,3.7
	C368.4,261.7,369.2,259.4,367.8,255z M539,254c-1.7,1.4-3.3,2.7-4.8,3.9c-7.1,5.6-15.3,7.3-23.9,5.2c-11.4-2.8-17.8-10.5-20.1-21.9
	c-2.6-13.4,3.5-26.7,15.1-32.2c11.9-5.6,28-2.5,34.9,11.6c2.9,5.8,3.8,12,3.9,18.3c0.1,8.7,0.1,17.4,0.2,26.1c0,0.8,0.4,2.2,1,2.5
	c2.4,1.2,4.4-0.1,4.4-2.8c0-8.9,0-17.8-0.2-26.6c-0.1-6.4-0.5-12.9-3.6-18.6c-5.6-10.5-14.4-16.7-26.4-17.8
	c-8.2-0.7-15.9,1-22.5,6.1c-9.2,7-13.1,16.6-12.9,28c0.2,10.8,4.3,20,12.9,26.6c11.4,8.8,27,8.8,39.1,0.6
	C539.7,260.4,540.2,259,539,254z M180.9,215.5c-11.4,13.7-10.2,35.4,4.6,47.6c14.4,11.9,35,9.8,46.5-5c11.1-14.3,9.6-35.4-5.1-47.5
	C212.1,198.4,191.5,201.8,180.9,215.5z M423.4,212.5c-3.5,4.4-5,10.3-5.1,16.5c-0.1,12.3,0,24.6,0,36.9c0,2,0.8,2.6,2.7,2.5
	c1.8,0,2.7-0.4,2.7-2.5c-0.2-9.9-0.2-19.8-0.2-29.6c0-4.3-0.2-8.7,0.6-12.9c1.6-8.7,8.4-15,16.8-16.3c9.3-1.4,17.8,2.5,22,10.2
	c2.5,4.6,2.9,9.6,2.9,14.7c0,11.2,0.1,22.4,0.1,33.6c0,2,0.9,2.6,2.7,2.5c1.5-0.1,2.6,0,2.6-2.1c-0.1-12.5,0-25.1-0.4-37.6
	c-0.4-14-9.1-25-22.6-26.4C438.5,201.1,430,203.5,423.4,212.5z M277.9,55.6c-2.1,1-3.9,2-5.7,2.9c-2.8,1.4-5.6,2.8-8.4,4.4
	c-0.7,0.4-1.1,1.5-1.3,2.4c-0.1,0.2,1.2,1.2,1.6,1.1c3.3-0.9,4.2,1.4,5.2,3.7c4.3,9.6,8.6,19.2,13.1,28.7c1,2.1,1.3,3.9-0.8,5.5
	c-0.4,0.3-0.8,1.5-0.5,1.9c0.4,0.6,1.3,0.9,2,1c0.6,0.1,1.3-0.3,1.9-0.5c4.6-2.1,9.2-4.1,13.8-6.2c0.6-0.3,1.3-0.6,1.7-1
	c0.4-0.6,1-1.5,0.8-2.1c-0.2-0.5-1.3-1.1-1.9-1c-2.4,0.4-3.5-0.9-4.3-2.8c-2.4-5.3-4.8-10.6-7.2-15.8
	C284.6,70.5,281.3,63.3,277.9,55.6z M457.2,364.3c0.4,0,0.8,0,1.2,0c0.1-0.9,0.6-2.5,0.2-2.7c-0.8-0.5-2.2-0.8-3-0.4
	c-5.2,2.4-10.3,5-15.3,7.7c-0.7,0.4-1,1.5-1.4,2.3c0.8,0.4,1.7,1.2,2.4,1.1c2.2-0.3,3.4,0.7,4.2,2.5c1.9,4,3.8,7.9,5.8,11.8
	c3.8,7.7,7.6,15.5,11.4,23.2c0.7,1.3,1.4,2.5,3.2,1.5c3.9-2.2,7.8-4.4,11.6-6.7c0.8-0.5,1.1-1.6,1.6-2.5c-0.9-0.4-1.8-1.1-2.7-1
	c-1.9,0.2-2.9-0.4-3.8-2.1c-5-10.3-10.2-20.4-15.1-30.7C456.9,367.2,457.2,365.6,457.2,364.3z M387.7,78.4c0.8-1.4,1.7-2.7,2.3-4.1
	c3.4-7.5,3.6-15.3,1.8-23.1c-1.9-8-6.4-14.2-14.9-16.3c-0.8-0.2-1.8,0.2-2.7,0.3c0.3,1,0.3,2.6,1,3c2.3,1.6,2.8,3.8,2.8,6.3
	c0.1,10,0.2,20.1,0.4,30.1c0,2.8-0.2,5.4-2.8,7.3c-0.6,0.4-0.4,1.9-0.6,2.9c0.8,0.1,1.7,0.5,2.4,0.3C381.5,83.9,385,81.8,387.7,78.4
	z M407.3,379.3c-7.3,3.3-11.1,8.3-12.2,15.4c-1.3,8.5,0.7,16.6,5,23.9c4,6.7,9.9,10.6,17.9,10.6c0.8,0,1.5-0.7,2.3-1
	c-0.5-0.9-0.8-2.3-1.4-2.5c-2.5-0.8-3.7-2.7-4.4-5c-1.7-6.1-3.4-12.3-5.1-18.4c-1-3.7-2.1-7.5-3.1-11.3c-0.7-2.7-1.2-5.3,1-7.7
	C407.9,382.5,407.4,380.9,407.3,379.3z M384.1,429.7c0.9-1.7,2-3.2,2.7-5c3.2-8.2,2.9-16.7,0.2-24.9c-2.4-7.3-7.4-12.3-15.2-13.8
	c-0.7-0.1-1.6,0.4-2.4,0.6c0.2,0.9,0.2,2.4,0.8,2.7c3.1,1.7,3.3,4.5,3.5,7.5c0.5,9.8,1,19.6,1.5,29.3c0.1,2.8-0.1,5.3-2.7,7.1
	c-0.6,0.4-0.7,1.8-0.5,2.6c0.1,0.3,1.6,0.7,2.3,0.5C378.1,435,381.5,433.1,384.1,429.7z M425.3,382.4c-3.6-2.8-7.7-4.3-12.3-4.1
	c-0.8,0-1.6,0.5-2.4,0.8c0.4,0.9,0.7,2.4,1.4,2.6c3.6,1.2,4.3,4.3,5.2,7.3c2.5,8.8,4.9,17.7,7.3,26.6c0.8,3,1.6,6-1,8.7
	c-0.4,0.5,0.1,1.8,0.2,2.7c0.8-0.1,1.7,0.1,2.4-0.3c3.3-1.8,5.8-4.4,7.5-7.7c2.9-5.5,3-11.3,1.9-17.2
	C434.2,394.4,431.6,387.4,425.3,382.4z M333.7,90.3c5.9-2.3,9.9-6.4,11.6-12.2c2.8-10,0.8-19.4-4.5-28.1c-3.6-5.9-9.1-9.3-16.2-9.6
	c-0.8,0-1.7,0.6-2.5,1c0.5,0.9,0.8,2.3,1.6,2.7c2.2,1,3.3,2.7,3.8,4.9c0.7,2.6,1.3,5.1,1.9,7.7c1.9,8,3.9,15.9,5.5,24
	c0.3,1.6-0.2,3.7-1,5.1C332.9,87.2,332.6,88.4,333.7,90.3z M318.8,41.8c-1-0.1-1.2-0.1-1.5-0.1c-0.3,0-0.7,0.1-0.9,0.3
	c-4.8,2.6-8.4,6.3-9.9,11.6c-2.8,9.5-0.8,18.5,3.9,27.1c3.6,6.6,9.2,10.3,16.8,10.7c0.8,0,1.7-0.6,2.6-0.9c-0.5-0.9-0.8-2.3-1.6-2.7
	c-2.6-1.2-3.6-3.2-4.2-5.7c-2.4-10.2-4.8-20.3-7.2-30.5c-0.5-2.1-0.1-3.8,1.1-5.7C318.5,44.7,318.5,43.3,318.8,41.8z M357.4,433.2
	c2.7,1.1,5.4,2.3,8.2,3.2c0.8,0.3,1.8-0.2,2.7-0.3c-0.4-1-0.5-2.5-1.2-3c-2.1-1.5-2.8-3.4-2.9-5.7c-0.5-10.5-1.1-21-1.6-31.6
	c-0.1-2.5,0.5-4.7,2.6-6.4c0.6-0.5,0.4-1.9,0.6-2.9c-0.8-0.1-1.7-0.5-2.5-0.3c-5.9,1.8-10,5.8-12.4,11.4c-2.9,6.7-2.7,13.8-1.4,20.8
	C350.6,424.1,353,429.1,357.4,433.2z M360.7,81.7c2.8,1.2,5.5,2.5,8.3,3.6c0.6,0.2,2.1-0.3,2.1-0.5c0-1,0-2.6-0.5-2.9
	c-2.8-1.7-3.1-4.3-3.2-7.1c-0.1-9.6-0.3-19.3-0.4-28.9c0-3,0-6,3-7.9c0.6-0.4,0.4-1.9,0.6-2.9c-0.7-0.1-1.6-0.5-2.2-0.3
	c-6.1,1.5-10.5,5.3-13.1,10.9c-3.1,6.7-3.3,13.9-2.1,21C354.2,72.4,356.4,77.5,360.7,81.7z M572,171.2c-2,0-3.5-0.1-4.8,0.2
	c-0.5,0.1-0.8,1.5-0.8,2.3c0.1,30.5,0.3,60.9,0.4,91.4c0,2.3,1.1,2.5,2.9,2.6c2,0,2.6-0.7,2.6-2.6c-0.1-6.8-0.1-13.6-0.2-20.4
	c-0.1-23.7-0.2-47.3-0.4-71C571.8,172.9,571.9,172.1,572,171.2z M258.1,216c0-3.6-0.2-6.4,0-9.3c0.1-2.1-0.6-2.7-2.7-2.8
	c-2.7-0.1-2.6,1.6-2.6,3.4c0.1,19.7,0.3,39.3,0.3,59c0,1.9,0.2,3.1,2.6,3.1c2.3,0,3-0.9,2.7-3c-0.1-0.6,0-1.2,0-1.7
	c0-11.1-0.4-22.2,0.1-33.3c0.6-12.4,10.3-23.4,24.1-22c1.5,0.1,2.3-0.4,2.1-1.9c-0.1-1.4,0.7-3.5-1.9-3.5c-6.8-0.2-13,1.2-18.2,5.8
	C262.5,211.5,260.5,213.5,258.1,216z M372.2,313.3c-2.6,1.4-4.7,2.3-6.5,3.4c-2.1,1.3-3.9,1.4-6,0c-1.4-0.9-2.9-1.6-4.4-2.3
	c-0.5-0.2-1.1-0.2-1.6-0.4c-0.1,0.6-0.3,1.2-0.2,1.8c0.2,1.6,0.4,3.1,0.9,4.6c0.9,2.7,0,4.6-2.2,6.2c-1.6,1.2-2.8,2.8-4.2,4.2
	c0.1,0.2,0.2,0.5,0.4,0.7c2.2,0.3,4.4,0.6,6.6,0.8c2.1,0.2,3.5,1,4.4,3.1c0.9,2.2,2.1,4.3,3.5,7.1c1-1.9,1.8-3.2,2.3-4.6
	c1.3-3.7,3.5-6.1,7.8-5.9c0.9,0,1.8-0.2,2.7-0.4c0.5-0.1,1.4-0.5,1.4-0.7c0-0.6-0.3-1.3-0.7-1.7c-1.1-1.1-2.3-2.2-3.5-3.2
	c-1.8-1.5-2.4-3.2-1.8-5.5C371.6,318.6,371.8,316.3,372.2,313.3z M347.3,135.6c1.9,1.9,3.3,3.4,4.8,4.7c1.9,1.7,3.1,3.5,2.3,6.3
	c-0.6,2.1-0.7,4.3-1.1,7.1c2.3-1.2,4.1-1.8,5.6-2.9c2.8-2,5.3-1.7,8,0c1.5,1,3.2,1.6,5.4,2.7c-0.4-2.4-0.4-4.2-1-5.8
	c-1.1-3.3-0.5-5.9,2.5-8c1.5-1,2.5-2.6,4.1-4.3c-3.2-0.5-5.6-1.1-8.1-1.3c-2-0.2-2.9-1.1-3.7-2.8c-1-2.1-2.1-4.2-3.5-7
	c-1.5,2.9-2.7,5.1-3.7,7.3c-0.8,1.7-2,2.5-3.9,2.6C352.7,134.7,350.5,135.1,347.3,135.6z M395.8,268.4c1.3,0,2.2,0,3.1,0.1
	c1.8,0.2,2.2-0.7,2.2-2.4c-0.2-20.1-0.3-40.2-0.3-60.3c0-2-0.6-2.8-2.7-2.8c-2,0.1-2.7,0.6-2.7,2.8c0.2,16.6,0.2,33.2,0.3,49.8
	C395.7,259.8,395.8,264,395.8,268.4z M293.8,269c1.5,0,2.5,0,3.4,0c1.4,0.1,1.9-0.5,1.9-1.9c-0.1-20.3-0.3-40.7-0.3-61
	c0-2.1-1-2.4-2.8-2.4c-1.9,0-2.6,0.6-2.6,2.6c0.2,18.1,0.2,36.2,0.3,54.3C293.7,263.3,293.8,266.1,293.8,269z M407.9,86.9
	c1.8,1.4,3.1,0.8,4.5-0.7c4.8-5.4,9.6-10.8,14.4-16.2C432.8,63,439,56,445.1,49c0.5-0.5,0.5-1.5,0.7-2.3c-1,0-2.3-0.4-3.1,0.1
	c-1.3,0.8-2.3,2.2-3.3,3.3c-8,9-16,18-23.9,27C412.8,80.2,410.5,83.5,407.9,86.9z M333,385.9c-2.1-1.6-3.4-1-4.7,0.6
	c-4.2,5.1-8.5,10.2-12.7,15.3c-6.3,7.7-12.6,15.4-18.8,23.2c-0.4,0.5-0.2,1.4-0.3,2.1c0.9,0.1,1.7,0.3,2.6,0.1
	c0.5-0.1,0.8-0.8,1.2-1.2c8.6-10.5,17.3-21,25.9-31.5C328.5,391.8,330.7,388.9,333,385.9z M429.5,56.2c0.3-0.8,1-2.1,1.5-3.5
	c1.9-5.6-1.4-11.7-7-13.1c-0.5-0.1-1.3,0-1.7,0.4c-0.2,0.2-0.1,1,0.1,1.5c0.2,0.9,1.1,1.8,0.9,2.5c-1.4,4.6-0.8,10-5.3,13.4
	c-1.2,0.9-1.1,2.2,0.5,2.5C422.4,60.6,426.1,59.9,429.5,56.2z M438.4,73.7c-3.8-0.9-7.1-1.2-10.1,0.8c-3.8,2.4-5.1,6.2-4.8,10.3
	c0.3,4.3,3.1,7,7,8.6c0.6,0.3,1.5,0,2.2,0c-0.1-0.8-0.1-1.6-0.2-2.3c-0.1-1.3-0.6-2.7-0.4-4c0.3-2,1.1-3.8,1.6-5.8
	c0.6-2.2,1.1-4.3,3.4-5.5C437.5,75.5,437.8,74.6,438.4,73.7z M315,396.8c4.7-6.1,2.2-14.7-4.9-16.8c-0.6-0.2-1.7-0.2-2,0.1
	c-0.4,0.4-0.2,1.3-0.1,2c0.2,1.7,0.7,3.3,0.5,4.9c-0.2,1.9-0.9,3.7-1.3,5.5c-0.4,2.1-1,4-3.1,5.1c-0.4,0.2-0.7,1.1-0.6,1.6
	c0.1,0.4,0.8,0.8,1.3,0.9C308.7,400.9,312.4,400.2,315,396.8z M295,396.8c1.2,0.6,2.3,1.4,3.5,1.9c0.6,0.3,1.4,0.1,2.1,0.1
	c0-0.8,0.1-1.5,0-2.3c-0.1-1.5-0.6-3-0.4-4.5c0.3-2.3,1-4.5,1.5-6.8c0.4-1.8,0.9-3.3,2.7-4.2c0.5-0.2,1-1.1,1-1.5
	c0-0.4-0.8-0.9-1.4-1.1c-4.1-1.2-9.4,1.1-11.3,4.8C290.1,388.6,291,393.8,295,396.8z M322.4,434c0.3,0.3,0.4,0.5,0.6,0.5
	c5.7,2,11.4-0.9,13.2-6.7c1.9-6.1-1.2-11.9-7.2-13.4c-0.5-0.1-1.3,0-1.5,0.3c-0.3,0.5-0.3,1.2-0.1,1.8c0.2,0.9,1.1,1.8,0.9,2.5
	c-1.5,4.6-0.4,10.3-5.1,13.7C322.8,432.9,322.7,433.4,322.4,434z M445.7,76.7c-0.8-0.4-1.9-1.2-3.1-1.7c-0.6-0.3-1.5,0-2.2,0
	c0,0.7,0,1.4,0.1,2.1c0.1,1.5,0.6,3,0.4,4.5c-0.4,2.4-1.2,4.8-2,7.2c-0.3,1-0.9,1.9-1.5,2.8c-0.6,0.9-1.4,1.8-2.1,2.6
	c1.3,0.4,2.5,0.8,3.8,1.1c0.7,0.1,1.5,0,2.2-0.1c3.7-0.5,6.9-3.5,7.9-7.4C450.1,83.6,449.5,79.9,445.7,76.7z M312.8,416.7
	c-0.3,0.5-0.8,1.3-1.3,2.2c-2.7,5.6,0.4,12.8,6.4,14.5c0.6,0.2,1.5,0,2.1-0.3c0.3-0.2,0.5-1.3,0.2-1.5c-2-2-1.2-4.2-0.5-6.3
	c1.1-3.5,0.6-7.7,4.5-10.1c1.1-0.7,0.5-1.7-0.8-2.1C320.1,412,315.4,413.5,312.8,416.7z M408.7,56.1c1.2,0.7,2.4,1.4,3.7,2
	c0.6,0.3,1.4,0.1,2,0.1c0-0.7,0-1.5-0.1-2.2c-0.1-1.1-0.7-2.3-0.5-3.3c0.7-3.1,1.5-6.1,2.5-9.1c0.3-0.9,1.3-1.7,1.9-2.5
	c0.5-0.7,0.9-1.4,1.4-2.1c-0.8-0.4-1.5-1-2.3-1.2c-4.7-0.8-8.7,1.4-10.9,5.9C404.3,48.2,405.1,52.6,408.7,56.1z M298.3,182
	c-1.5-1.1-4.3-0.7-5.4,0.7c-1.2,1.6-0.8,4.2,0.8,5.5c1.6,1.2,4.3,0.8,5.5-0.9C300.4,185.7,299.9,183.2,298.3,182z M401.1,187.1
	c1.3-1.5,0.9-4.2-0.7-5.6c-1.3-1.1-4.3-0.8-5.4,0.6c-1.3,1.5-1,3.9,0.6,5.3C397.2,188.9,399.8,188.7,401.1,187.1z"/>
<circle class="st1" cx="363.4" cy="235.5" r="134.7"/>
<path d="M558.3,381.2c-84.4,106.3-231.8,117.9-330.1,40.7c-108.3-85-118.5-236.3-38.1-334.7C273.8-15.3,422-28.4,521.6,53.2
	C624.3,137.2,635.1,283.5,558.3,381.2z M547.3,372.2c76.9-98.6,57.5-241.4-44.5-315.8C407.5-13.2,266.3,2.7,191.3,109
	c-66.6,94.4-50.7,231.8,51.6,306.3C340.4,486.2,474.4,465.5,547.3,372.2z"/>
<path d="M234.3,288.5c4,0,7.7,0.2,11.2-0.1c4-0.4,6.2,0.7,8,4.7c4.5,9.8,10.7,18.5,17.8,26.5c16.1,17.9,35.6,30.7,58.8,37.3
	c32.9,9.4,64.7,6.2,95.1-9.8c18.6-9.8,33.7-23.5,45.2-41c3.7-5.6,6.6-11.7,10-17.5c0.4-0.7,1.7-1.4,2.6-1.5
	c4.3-0.2,8.6-0.1,12.9-0.2c1.9,0,2.1,0.7,1.4,2.3c-4.8,11.7-11,22.7-18.7,32.7c-17.9,23.2-40.8,39.6-68.7,48.8
	c-20.4,6.7-41.4,8.5-62.7,5.7c-31-4.1-57.7-17.3-80.3-38.9c-13.9-13.3-24.4-29.2-32-46.9C234.6,290.2,234.6,289.6,234.3,288.5z"/>
<path d="M493.4,174.8c-5.5,0-10.7,0.1-15.9,0c-0.8,0-1.8-0.9-2.2-1.6c-4.8-8.9-10.9-16.8-17.9-24.1c-13.1-13.7-28.5-24.2-46.3-31
	c-20.5-7.8-41.6-10.2-63.3-7.1c-18.3,2.6-35.2,9.1-50.8,19.2c-11.9,7.7-22.1,17.2-30.7,28.4c-3.7,4.8-6.8,10-10.1,15.1
	c-1,1.7-2.1,2.6-4.1,2.5c-4.2-0.1-8.5,0-12.7,0c-0.6,0-1.2-0.2-1.9-0.3c18-42,66.7-83.2,130.7-82
	C435.3,95.2,479.1,140.9,493.4,174.8z"/>
<path d="M367.8,255c1.4,4.5,0.6,6.7-3,9.1c-13.3,9-31.1,7.6-42.3-3.7c-9.1-9.2-11.4-20.7-8.6-33c5.7-25.1,34.4-31.4,51.2-18.5
	c8.4,6.4,12.8,14.8,13,25.1c0.3,12.4,0.4,24.7,0.1,37.1c-0.2,8.5-3.8,15.8-10.1,21.5c-4.5,4-9.9,6.1-15.7,6.8
	c-7.5,1-14.9-0.2-22.1-2.3c-2.8-0.8-3.4-3.3-1.3-5.3c0.5-0.5,1.8-0.5,2.7-0.2c5.7,1.6,11.3,3.2,17.3,2.8
	c13.3-0.7,22.6-9.3,23.8-22.6c0.6-6.9,0.4-13.9,0.4-20.9c0-6.2,0-12.5-0.7-18.6c-1-8.6-4.7-16.1-12.3-20.9
	c-11.8-7.4-27.1-4.2-35.6,6.8c-7.7,9.9-8.2,26.6,0.9,37.5c9.9,11.9,26.6,11.5,36.7,4.1C363.9,258.3,365.7,256.7,367.8,255z"/>
<path d="M539,254c1.2,5,0.7,6.4-3,8.9c-12,8.2-27.7,8.2-39.1-0.6c-8.6-6.6-12.7-15.8-12.9-26.6c-0.2-11.4,3.7-21,12.9-28
	c6.6-5.1,14.3-6.8,22.5-6.1c12,1.1,20.8,7.3,26.4,17.8c3.1,5.8,3.5,12.2,3.6,18.6c0.2,8.9,0.1,17.8,0.2,26.6c0,2.7-1.9,4-4.4,2.8
	c-0.6-0.3-1-1.6-1-2.5c-0.1-8.7-0.1-17.4-0.2-26.1c-0.1-6.3-1-12.5-3.9-18.3c-6.9-14-23-17.1-34.9-11.6
	c-11.6,5.5-17.8,18.8-15.1,32.2c2.2,11.4,8.7,19.1,20.1,21.9c8.6,2.1,16.8,0.4,23.9-5.2C535.8,256.7,537.3,255.5,539,254z"/>
<path d="M180.9,215.5c10.5-13.7,31.1-17.1,45.9-4.9c14.7,12.1,16.2,33.2,5.1,47.5c-11.5,14.8-32,16.9-46.5,5
	C170.8,250.9,169.6,229.2,180.9,215.5z M185.6,218.2c-9.2,10.4-9.8,30.8,4.7,42.2c9.3,7.3,26,8.6,36.9-4.9
	c9.4-11.7,8.5-30.4-3.9-41.1C212.4,205,194.9,206.3,185.6,218.2z"/>
<path d="M423.4,212.5c6.6-9,15.1-11.4,24.9-10.4c13.5,1.4,22.2,12.3,22.6,26.4c0.4,12.5,0.2,25.1,0.4,37.6c0,2-1.1,2-2.6,2.1
	c-1.9,0.1-2.7-0.4-2.7-2.5c0-11.2-0.1-22.4-0.1-33.6c0-5.1-0.3-10.1-2.9-14.7c-4.3-7.7-12.7-11.6-22-10.2
	c-8.3,1.3-15.1,7.5-16.8,16.3c-0.8,4.2-0.6,8.6-0.6,12.9c0,9.9,0,19.8,0.2,29.6c0,2.1-0.9,2.5-2.7,2.5c-1.9,0-2.7-0.6-2.7-2.5
	c0-12.3-0.1-24.6,0-36.9C418.4,222.7,419.9,216.9,423.4,212.5z"/>
<path d="M277.9,55.6c3.5,7.7,6.7,14.8,9.9,22c2.4,5.3,4.8,10.5,7.2,15.8c0.8,1.9,1.9,3.2,4.3,2.8c0.6-0.1,1.8,0.5,1.9,1
	c0.2,0.6-0.3,1.5-0.8,2.1c-0.4,0.5-1.1,0.8-1.7,1c-4.6,2.1-9.2,4.2-13.8,6.2c-0.6,0.3-1.3,0.6-1.9,0.5c-0.7-0.1-1.6-0.5-2-1
	c-0.3-0.4,0.1-1.5,0.5-1.9c2.1-1.6,1.7-3.4,0.8-5.5c-4.4-9.6-8.7-19.2-13.1-28.7c-1-2.2-1.9-4.6-5.2-3.7c-0.4,0.1-1.7-0.8-1.6-1.1
	c0.2-0.9,0.6-2,1.3-2.4c2.7-1.6,5.6-2.9,8.4-4.4C274,57.6,275.8,56.7,277.9,55.6z"/>
<path d="M457.2,364.3c0.1,1.3-0.3,2.9,0.2,4c5,10.3,10.1,20.5,15.1,30.7c0.8,1.7,1.9,2.3,3.8,2.1c0.9-0.1,1.8,0.6,2.7,1
	c-0.5,0.8-0.8,2-1.6,2.5c-3.8,2.3-7.8,4.4-11.6,6.7c-1.8,1.1-2.5-0.1-3.2-1.5c-3.8-7.7-7.6-15.5-11.4-23.2
	c-1.9-3.9-3.9-7.9-5.8-11.8c-0.9-1.9-2-2.8-4.2-2.5c-0.7,0.1-1.6-0.7-2.4-1.1c0.5-0.8,0.8-1.9,1.4-2.3c5.1-2.7,10.2-5.2,15.3-7.7
	c0.8-0.4,2.2-0.1,3,0.4c0.4,0.2-0.1,1.8-0.2,2.7C458,364.3,457.6,364.3,457.2,364.3z"/>
<path d="M387.7,78.4c-2.7,3.4-6.2,5.5-10.3,6.6c-0.7,0.2-1.6-0.2-2.4-0.3c0.2-1,0-2.5,0.6-2.9c2.7-1.9,2.9-4.5,2.8-7.3
	c-0.1-10-0.2-20.1-0.4-30.1c0-2.5-0.5-4.7-2.8-6.3c-0.7-0.5-0.7-2-1-3c0.9-0.1,1.8-0.5,2.7-0.3c8.6,2.1,13,8.3,14.9,16.3
	c1.8,7.8,1.6,15.6-1.8,23.1C389.4,75.8,388.5,77.1,387.7,78.4z"/>
<path d="M407.3,379.3c0,1.6,0.5,3.2,0,3.9c-2.2,2.4-1.7,5.1-1,7.7c1,3.8,2,7.5,3.1,11.3c1.7,6.1,3.4,12.3,5.1,18.4
	c0.7,2.3,1.9,4.1,4.4,5c0.7,0.2,1,1.6,1.4,2.5c-0.8,0.4-1.5,1-2.3,1c-8,0-14-3.9-17.9-10.6c-4.3-7.3-6.3-15.3-5-23.9
	C396.2,387.6,400,382.5,407.3,379.3z"/>
<path d="M384.1,429.7c-2.5,3.4-6,5.3-9.9,6.5c-0.7,0.2-2.2-0.2-2.3-0.5c-0.2-0.8-0.1-2.2,0.5-2.6c2.6-1.8,2.8-4.3,2.7-7.1
	c-0.5-9.8-1-19.6-1.5-29.3c-0.1-3-0.4-5.8-3.5-7.5c-0.6-0.3-0.5-1.7-0.8-2.7c0.8-0.2,1.6-0.7,2.4-0.6c7.8,1.6,12.8,6.5,15.2,13.8
	c2.7,8.2,3,16.6-0.2,24.9C386.1,426.4,385,428,384.1,429.7z"/>
<path d="M425.3,382.4c6.2,5,8.9,11.9,10.3,19.5c1.1,5.9,1,11.7-1.9,17.2c-1.8,3.3-4.2,5.9-7.5,7.7c-0.7,0.4-1.6,0.2-2.4,0.3
	c-0.1-0.9-0.6-2.3-0.2-2.7c2.5-2.7,1.7-5.7,1-8.7c-2.4-8.9-4.8-17.7-7.3-26.6c-0.8-3-1.6-6.1-5.2-7.3c-0.7-0.2-0.9-1.7-1.4-2.6
	c0.8-0.3,1.6-0.8,2.4-0.8C417.7,378.1,421.7,379.6,425.3,382.4z"/>
<path d="M333.7,90.3c-1.1-1.9-0.8-3.1,0.2-4.6c0.9-1.4,1.4-3.5,1-5.1c-1.7-8-3.6-16-5.5-24c-0.6-2.6-1.2-5.2-1.9-7.7
	c-0.6-2.2-1.6-3.9-3.8-4.9c-0.8-0.3-1.1-1.8-1.6-2.7c0.8-0.3,1.7-1,2.5-1c7.1,0.3,12.6,3.7,16.2,9.6c5.3,8.7,7.3,18.1,4.5,28.1
	C343.6,83.9,339.6,88,333.7,90.3z"/>
<path d="M318.8,41.8c-0.3,1.4-0.3,2.9-1,4c-1.2,1.8-1.6,3.6-1.1,5.7c2.4,10.2,4.8,20.3,7.2,30.5c0.6,2.6,1.6,4.6,4.2,5.7
	c0.8,0.3,1.1,1.8,1.6,2.7c-0.9,0.3-1.7,1-2.6,0.9c-7.6-0.3-13.2-4.1-16.8-10.7c-4.7-8.5-6.6-17.5-3.9-27.1c1.5-5.3,5.2-9,9.9-11.6
	c0.3-0.2,0.6-0.2,0.9-0.3C317.6,41.7,317.8,41.8,318.8,41.8z"/>
<path d="M357.4,433.2c-4.4-4.1-6.8-9.1-7.8-14.7c-1.3-7-1.5-14.1,1.4-20.8c2.4-5.6,6.4-9.6,12.4-11.4c0.7-0.2,1.6,0.2,2.5,0.3
	c-0.2,1,0,2.4-0.6,2.9c-2.2,1.7-2.7,3.9-2.6,6.4c0.5,10.5,1.1,21,1.6,31.6c0.1,2.4,0.8,4.3,2.9,5.7c0.7,0.5,0.8,2,1.2,3
	c-0.9,0.1-1.9,0.6-2.7,0.3C362.8,435.5,360.1,434.3,357.4,433.2z"/>
<path d="M360.7,81.7c-4.4-4.2-6.6-9.3-7.5-14.9c-1.2-7.1-1-14.3,2.1-21c2.6-5.6,6.9-9.4,13.1-10.9c0.7-0.2,1.5,0.2,2.2,0.3
	c-0.2,1,0,2.5-0.6,2.9c-3.1,1.9-3.1,4.9-3,7.9c0.2,9.6,0.3,19.3,0.4,28.9c0,2.8,0.3,5.4,3.2,7.1c0.6,0.3,0.6,1.9,0.5,2.9
	c0,0.2-1.5,0.7-2.1,0.5C366.3,84.2,363.5,82.9,360.7,81.7z"/>
<path d="M572,171.2c-0.1,1-0.2,1.7-0.2,2.4c0.1,23.7,0.2,47.3,0.4,71c0,6.8,0,13.6,0.2,20.4c0,2-0.6,2.7-2.6,2.6
	c-1.8,0-2.9-0.2-2.9-2.6c-0.1-30.5-0.3-60.9-0.4-91.4c0-0.8,0.4-2.2,0.8-2.3C568.6,171,570,171.2,572,171.2z"/>
<path d="M258.1,216c2.5-2.4,4.4-4.4,6.5-6.3c5.2-4.7,11.5-6,18.2-5.8c2.6,0.1,1.8,2.1,1.9,3.5c0.1,1.5-0.6,2-2.1,1.9
	c-13.8-1.3-23.5,9.7-24.1,22c-0.5,11.1-0.1,22.2-0.1,33.3c0,0.6-0.1,1.2,0,1.7c0.3,2.1-0.4,2.9-2.7,3c-2.4,0-2.6-1.1-2.6-3.1
	c-0.1-19.7-0.2-39.3-0.3-59c0-1.8-0.1-3.5,2.6-3.4c2.1,0.1,2.8,0.7,2.7,2.8C257.9,209.6,258,212.4,258.1,216z"/>
<path d="M372.2,313.3c-0.5,3-0.6,5.3-1.2,7.4c-0.6,2.3,0.1,4,1.8,5.5c1.2,1,2.4,2.1,3.5,3.2c0.4,0.4,0.7,1.1,0.7,1.7
	c0,0.3-0.9,0.6-1.4,0.7c-0.9,0.2-1.8,0.4-2.7,0.4c-4.3-0.2-6.5,2.2-7.8,5.9c-0.5,1.4-1.3,2.7-2.3,4.6c-1.4-2.9-2.7-4.9-3.5-7.1
	c-0.8-2.1-2.3-2.9-4.4-3.1c-2.2-0.2-4.4-0.6-6.6-0.8c-0.1-0.2-0.2-0.5-0.4-0.7c1.4-1.4,2.7-3,4.2-4.2c2.2-1.7,3.1-3.5,2.2-6.2
	c-0.5-1.5-0.7-3.1-0.9-4.6c-0.1-0.6,0.1-1.2,0.2-1.8c0.5,0.1,1.1,0.1,1.6,0.4c1.5,0.7,3,1.4,4.4,2.3c2.1,1.4,3.9,1.3,6,0
	C367.6,315.6,369.6,314.6,372.2,313.3z"/>
<path d="M347.3,135.6c3.1-0.5,5.4-0.9,7.7-1.2c1.8-0.2,3.1-1,3.9-2.6c1-2.2,2.2-4.4,3.7-7.3c1.4,2.8,2.5,4.9,3.5,7
	c0.8,1.6,1.7,2.6,3.7,2.8c2.5,0.2,4.9,0.7,8.1,1.3c-1.6,1.7-2.6,3.3-4.1,4.3c-3,2.1-3.6,4.6-2.5,8c0.5,1.6,0.6,3.4,1,5.8
	c-2.2-1.1-3.9-1.8-5.4-2.7c-2.7-1.8-5.2-2.1-8,0c-1.5,1.1-3.3,1.8-5.6,2.9c0.4-2.8,0.5-5,1.1-7.1c0.8-2.8-0.4-4.6-2.3-6.3
	C350.6,139,349.2,137.5,347.3,135.6z"/>
<path d="M395.8,268.4c0-4.4-0.1-8.6-0.1-12.7c-0.1-16.6-0.1-33.2-0.3-49.8c0-2.1,0.7-2.7,2.7-2.8c2.1-0.1,2.7,0.8,2.7,2.8
	c0.1,20.1,0.2,40.2,0.3,60.3c0,1.7-0.4,2.5-2.2,2.4C398.1,268.4,397.2,268.4,395.8,268.4z"/>
<path d="M293.8,269c0-3-0.1-5.7-0.1-8.4c-0.1-18.1-0.2-36.2-0.3-54.3c0-2,0.7-2.6,2.6-2.6c1.8,0,2.8,0.3,2.8,2.4
	c0.1,20.3,0.2,40.7,0.3,61c0,1.4-0.5,2-1.9,1.9C296.3,269,295.3,269,293.8,269z"/>
<path d="M407.9,86.9c2.6-3.4,4.9-6.7,7.6-9.7c7.9-9.1,15.9-18,23.9-27c1-1.2,2-2.5,3.3-3.3c0.7-0.5,2-0.1,3.1-0.1
	c-0.2,0.8-0.2,1.8-0.7,2.3c-6.1,7-12.3,14-18.4,20.9c-4.8,5.4-9.6,10.8-14.4,16.2C411,87.7,409.7,88.3,407.9,86.9z"/>
<path d="M333,385.9c-2.3,3-4.5,5.9-6.8,8.7c-8.6,10.5-17.3,21-25.9,31.5c-0.4,0.4-0.7,1.1-1.2,1.2c-0.8,0.1-1.7-0.1-2.6-0.1
	c0.1-0.7-0.1-1.6,0.3-2.1c6.2-7.8,12.5-15.5,18.8-23.2c4.2-5.1,8.5-10.2,12.7-15.3C329.6,384.9,330.9,384.3,333,385.9z"/>
<path d="M429.5,56.2c-3.3,3.8-7.1,4.4-11.1,3.7c-1.7-0.3-1.8-1.6-0.5-2.5c4.5-3.4,3.9-8.8,5.3-13.4c0.2-0.7-0.6-1.6-0.9-2.5
	c-0.1-0.5-0.3-1.3-0.1-1.5c0.4-0.3,1.2-0.5,1.7-0.4c5.6,1.4,8.9,7.5,7,13.1C430.5,54.1,429.8,55.4,429.5,56.2z"/>
<path d="M438.4,73.7c-0.6,1-0.8,1.8-1.4,2.1c-2.3,1.2-2.8,3.3-3.4,5.5c-0.5,1.9-1.3,3.8-1.6,5.8c-0.2,1.3,0.2,2.6,0.4,4
	c0.1,0.8,0.1,1.6,0.2,2.3c-0.7,0-1.6,0.2-2.2,0c-3.9-1.6-6.7-4.3-7-8.6c-0.3-4.1,1-7.9,4.8-10.3C431.3,72.5,434.5,72.8,438.4,73.7z"
	/>
<path d="M315,396.8c-2.6,3.4-6.2,4.1-10.2,3.6c-0.5-0.1-1.2-0.5-1.3-0.9c-0.1-0.5,0.2-1.4,0.6-1.6c2-1.2,2.6-3,3.1-5.1
	c0.4-1.9,1.1-3.7,1.3-5.5c0.1-1.6-0.4-3.3-0.5-4.9c-0.1-0.7-0.2-1.7,0.1-2c0.4-0.4,1.4-0.3,2-0.1C317.2,382.1,319.7,390.7,315,396.8
	z"/>
<path d="M295,396.8c-4-3.1-4.9-8.3-2.3-13.5c1.9-3.7,7.2-6,11.3-4.8c0.6,0.2,1.3,0.7,1.4,1.1c0.1,0.5-0.5,1.3-1,1.5
	c-1.9,0.8-2.4,2.4-2.7,4.2c-0.5,2.3-1.2,4.5-1.5,6.8c-0.2,1.4,0.3,3,0.4,4.5c0.1,0.8,0,1.5,0,2.3c-0.7,0-1.5,0.1-2.1-0.1
	C297.2,398.2,296.1,397.5,295,396.8z"/>
<path d="M322.4,434c0.3-0.5,0.4-1.1,0.7-1.3c4.8-3.4,3.7-9.1,5.1-13.7c0.2-0.7-0.7-1.6-0.9-2.5c-0.1-0.6-0.1-1.3,0.1-1.8
	c0.2-0.3,1-0.4,1.5-0.3c6,1.5,9.1,7.3,7.2,13.4c-1.8,5.8-7.5,8.7-13.2,6.7C322.8,434.4,322.7,434.3,322.4,434z"/>
<path d="M445.7,76.7c3.8,3.2,4.5,6.9,3.4,11.1c-1,3.9-4.1,6.8-7.9,7.4c-0.7,0.1-1.5,0.3-2.2,0.1c-1.3-0.3-2.5-0.7-3.8-1.1
	c0.7-0.9,1.5-1.7,2.1-2.6c0.6-0.9,1.2-1.8,1.5-2.8c0.8-2.4,1.5-4.7,2-7.2c0.2-1.4-0.2-3-0.4-4.5c-0.1-0.7,0-1.4-0.1-2.1
	c0.7,0,1.6-0.3,2.2,0C443.8,75.5,444.9,76.3,445.7,76.7z"/>
<path d="M312.8,416.7c2.6-3.2,7.3-4.7,10.6-3.7c1.3,0.4,1.8,1.5,0.8,2.1c-3.9,2.4-3.4,6.6-4.5,10.1c-0.7,2.1-1.5,4.3,0.5,6.3
	c0.2,0.2,0,1.4-0.2,1.5c-0.6,0.3-1.4,0.5-2.1,0.3c-5.9-1.7-9.1-8.8-6.4-14.5C312,418,312.5,417.2,312.8,416.7z"/>
<path d="M408.7,56.1c-3.5-3.5-4.4-7.9-2.2-12.3c2.2-4.5,6.1-6.8,10.9-5.9c0.8,0.1,1.5,0.8,2.3,1.2c-0.5,0.7-0.9,1.4-1.4,2.1
	c-0.6,0.9-1.6,1.6-1.9,2.5c-1,3-1.8,6-2.5,9.1c-0.2,1,0.4,2.2,0.5,3.3c0.1,0.7,0.1,1.5,0.1,2.2c-0.7,0-1.5,0.1-2-0.1
	C411.1,57.5,409.9,56.7,408.7,56.1z"/>
<path d="M298.3,182c1.6,1.2,2.1,3.7,0.9,5.3c-1.2,1.7-3.9,2.1-5.5,0.9c-1.7-1.3-2.1-3.9-0.8-5.5C294,181.3,296.8,181,298.3,182z"/>
<path d="M401.1,187.1c-1.3,1.6-4,1.8-5.5,0.4c-1.6-1.4-1.9-3.8-0.6-5.3c1.1-1.4,4.1-1.7,5.4-0.6
	C402.1,182.9,402.4,185.6,401.1,187.1z"/>
<path class="st0" d="M185.6,218.2c9.3-11.9,26.8-13.2,37.7-3.9c12.4,10.7,13.3,29.4,3.9,41.1c-10.9,13.5-27.6,12.2-36.9,4.9
	C175.7,249,176.4,228.6,185.6,218.2z"/>
<path d="M-440.7,1235.5c-13.9,46.5-27.6,92.5-41.8,139.9c-31-71.2-61.4-141.3-92.4-212.5c65.8-6.8,124-31.4,175.8-72.5
	c29.7,69,59,137.3,88.9,206.8C-354.2,1276.3-397.1,1256.1-440.7,1235.5z"/>
<path d="M128.5,457.3c-38.3-1.1-76.2-2.2-115.1-3.3c45.1-36.4,89.5-72.2,134.2-108.2c11.2,23,24.4,44.2,41.5,63
	c17,18.6,36.9,33.6,57.8,48.2c-46.4,38.2-92.4,76.1-139.2,114.8C114.7,533.1,121.6,495.5,128.5,457.3z"/>
<path d="M616.5,456.1c38.3-1.1,76.2-2.2,115.1-3.3c-45.1-36.4-89.5-72.2-134.2-108.2c-11.2,23-24.4,44.2-41.5,63
	c-17,18.6-36.9,33.6-57.8,48.2c46.4,38.2,92.4,76.1,139.2,114.8C630.3,531.9,623.5,494.3,616.5,456.1z"/>
</svg>
