<?xml version="1.0" encoding="utf-8"?>
<!-- Generator: Adobe Illustrator 22.1.0, SVG Export Plug-In . SVG Version: 6.00 Build 0)  -->
<svg version="1.1" id="Слой_1" xmlns="http://www.w3.org/2000/svg" xmlns:xlink="http://www.w3.org/1999/xlink" x="0px" y="0px"
	 viewBox="0 0 510.2 516.2" style="enable-background:new 0 0 510.2 516.2;" xml:space="preserve">
<style type="text/css">
	.st0{fill:#FFE260;}
	.st1{fill:#FF78B0;}
</style>
<g>
	<path class="st0" d="M255.3,504.1c-4.4,0-7.5-2.1-9.5-3.7c-4-3.2-7.2-6.8-10-10.1l-1.4-1.6c-3.3-3.8-6.5-7.4-9.9-10.3
		c-3.6-3-6.7-4.5-10-4.7c-0.3,0-0.5,0-0.8,0c-2.1,0-4.4,0.5-7,1.4c-4.1,1.5-8.2,3.7-12.5,6.1l-3.3,1.8c-2.7,1.5-5.5,3.1-8.7,4.4
		c-2.4,1.1-5.1,2-8.1,2c-8.7,0-12-7.5-13.3-10.3c-1.6-3.6-2.9-7.2-4.1-10.7c-0.7-1.9-1.3-3.6-1.9-5.3c-1.9-4.9-3.5-8.8-5.9-12
		c-2.5-3.2-5.5-4.9-9.7-5.4c-1-0.1-2-0.2-3.1-0.2c-3.4,0-7,0.6-10.8,1.2l-1.6,0.3c-1.3,0.2-2.7,0.4-4,0.7c-3.8,0.7-7.7,1.4-12,1.6
		c-0.3,0-0.6,0-0.9,0c-0.7,0-1.3,0-2-0.1c-5.7-0.3-10.2-4-11.7-9.5c-0.7-2.7-1.1-5.6-1.2-9c0-2.3,0-4.4,0-6.9c0-1.1,0-2.3,0-3.6
		c0-3.6,0-8.3-0.7-12.8c-1.1-6.9-4.5-10.7-11.6-12.9c-4.4-1.3-9.1-2.1-14-3l-2.6-0.4c-3-0.5-6.3-1.1-9.7-2.1
		c-0.7-0.2-1.5-0.4-2.5-0.8c-7.4-2.9-10.4-8.3-8.8-16.2c0.9-4.6,2.4-8.7,3.8-12.7c0.4-1.1,0.8-2.1,1.1-3.2l0.1-0.2
		c1.4-4.1,2.8-8,3.4-11.8c0.6-3.3,0.6-5.7,0.1-7.8c-0.7-3-2.4-5.5-5.2-8c-3.6-3.1-8-5.7-12.6-8.4l-1.8-1.1c-2.9-1.7-5.8-3.4-8.7-5.4
		c-1.6-1.1-2.9-2.3-4.2-3.5c-4.4-4-5.6-9.9-3.2-15.5c1.4-3.2,3.2-5.8,5-8.2c1.6-2.1,3.2-4.1,4.8-6.2c2.1-2.8,4.3-5.6,6.4-8.4
		c2.3-3.1,3.8-5.9,4.7-8.7c1.3-4.1,0.9-8-1.1-12.1c-2.2-4.5-5.5-8.8-8.7-12.9c-0.5-0.7-1.1-1.4-1.6-2c-2.3-2.9-4.8-6-7-9.4
		c-6.1-9.3-4.6-16.9,4.6-23.2c3.3-2.3,6.7-4.3,10-6.2c0.8-0.4,1.5-0.9,2.3-1.3c5.4-3.2,9.4-5.7,12.7-9c3-3.1,4.3-6.5,4.1-10.8
		c-0.2-3.2-0.9-6.8-2.4-11.3L47,160c-1.3-3.7-2.5-7.3-3.7-11c-0.6-1.7-1-3.5-1.4-5.6c-1.2-6.6,1.7-12,7.8-14.7c3.9-1.7,7.6-2.4,11-3
		l1.3-0.2c1.5-0.3,3-0.5,4.5-0.8c4.6-0.8,8.9-1.5,12.9-2.7c5-1.5,7.9-3.5,9.7-6.5c1.3-2.1,2.1-4.7,2.6-8.5c0.4-3.2,0.4-6.6,0.4-10.2
		c0-0.8,0-1.6,0-2.4c0-1,0-2.1,0-3.1c0-3.1-0.1-6.7,0.4-10.4v-0.1c0-0.4,0.1-1,0.2-1.8c1.8-10.4,9.4-12,13.8-12c0.5,0,1,0,1.6,0
		c4.7,0.3,9.1,1.1,13.4,1.8c2.3,0.4,4.4,0.8,6.6,1.1c2.5,0.3,5.5,0.7,8.3,0.7c1.5,0,2.9-0.1,4.3-0.3c4.1-0.7,7.1-2.8,9.7-6.8
		c2.6-4,4.3-8.9,6.2-14c0,0,1-2.8,1.2-3.4c1.1-3,2.1-6,3.6-9.1c0.5-1,1-2.1,1.7-3.3c2.9-4.7,6.7-7.1,11.4-7.1c2.3,0,4.2,0.6,5.7,1.1
		c4.5,1.6,8.3,3.8,12.1,5.9c1,0.6,2,1.1,2.9,1.6c4,2.2,7.9,4.2,11.9,5.8c2.4,0.9,4.7,1.4,6.8,1.4c3.8,0,7.4-1.5,11-4.7
		c4-3.5,7.7-7.7,11.2-11.8c3.1-3.6,5.7-6.3,8.3-8.7c2.1-1.9,5.9-5.3,11.4-5.3c5.5,0,9.3,3.4,11.4,5.2c3.6,3.3,6.7,6.8,9.6,10.2
		c0.6,0.7,1.2,1.4,1.8,2.1c3.2,3.6,6.6,7.4,10.5,10.1c2.6,1.8,5.2,2.7,8.1,2.9c0.2,0,0.3,0,0.4,0c1.3,0,3-0.3,5-0.9
		c4.7-1.4,9.3-3.9,14.2-6.6l1.6-0.9c0.6-0.3,1.2-0.7,1.9-1c2.7-1.5,5.5-3.1,8.6-4.4l0.4-0.2c0.9-0.4,2.1-0.9,3.4-1.3
		c1.6-0.5,3-0.7,4.4-0.7c3.3,0,7.9,1.2,11.3,6.9c2.5,4.1,4,8.4,5.3,12.1c0.2,0.7,0.5,1.3,0.7,2l0.5,1.3c1.6,4.5,3.2,8.8,5.2,12.7
		c2.4,4.4,5,6.9,8.4,8.1c1.8,0.6,3.8,0.9,6.4,0.9c0.8,0,1.7,0,2.8-0.1c3.9-0.2,7.9-1,12.2-1.7c1.4-0.2,2.7-0.5,4.1-0.7l0.7-0.1
		c2.9-0.5,6.2-1,9.7-1.1h0.2c7.7,0,12.4,3.8,14,11.2c0.6,3,0.7,5.7,0.7,7.7c0,1.7,0,3.3,0,5c0,3,0,5.8,0,8.7c0.1,3.4,0.3,7,1,10.5
		c1.2,6,4.4,9.5,10.6,11.5c4.5,1.5,9.5,2.3,14.7,3.2l2.2,0.4c3.3,0.5,6.6,1.1,10.2,2.2c6.7,2,14,6,10.9,18.7
		c-1,4.3-2.5,8.3-3.9,12.1c-0.7,2-1.4,4-2.1,5.9c-1.2,3.6-2.3,7.5-2.6,11.3c-0.4,5.2,1.3,9.2,5.6,12.9c3.5,3.1,7.8,5.6,12.3,8.2
		l1.7,1c2.4,1.4,4.7,2.9,7,4.3l1.6,1c1.7,1.1,3.1,2.3,4.2,3.3l0.3,0.3c4.7,4.2,5.9,10.3,3.1,16.1c-1.9,4-4.5,7.3-6.7,10.2l-0.7,0.9
		c-1,1.3-2,2.5-3,3.8c-3,3.8-5.8,7.3-8,11.1c-2.2,3.9-3.2,7.1-3.1,10.2c0.1,2.8,1.1,5.7,3.1,9.4c1.9,3.4,4.4,6.6,7.1,10l1.7,2.2
		c2.4,3,4.8,6,7,9.4c0.6,1,1.2,1.9,1.6,2.7c3.9,7.5,2.7,13.5-3.8,18.9c-3.3,2.7-6.9,4.8-10,6.6l-2.9,1.7c-4.6,2.7-9,5.3-12.7,8.4
		c-4.7,4.1-6.4,8.5-5.4,14.7c0.7,4.8,2.4,9.5,4.2,14.6c0.3,1,0.7,1.9,1,2.9l0.4,1.1c1,2.9,2.1,5.9,2.8,9.2v0.1
		c0.1,0.5,0.2,0.9,0.3,1.4c1.4,8.1-1.7,13.6-9.5,16.2c-4.3,1.5-8.5,2.2-12.3,2.8c-0.8,0.1-1.6,0.3-2.4,0.4l-1.1,0.2
		c-5.3,0.9-10.2,1.8-14.6,3.5c-5.7,2.2-8.5,5.9-9.5,12.5c-0.5,3.6-0.8,7.5-0.8,12.4c0,1.2,0,2.3,0,3.5c0,3.4,0.1,6.8-0.2,10.4
		c-0.1,1.3-0.3,2.6-0.5,3.8c-2,9.9-9.3,11.4-13.5,11.4c-0.3,0-0.6,0-1,0c-4.3-0.2-8.4-0.9-12.2-1.6l-2.8-0.5
		c-4.9-0.8-9.5-1.6-13.9-1.7h-0.4c-7.1,0-11.5,2.8-14.8,9.3c-2.1,4.2-3.8,8.8-5.5,13.7c-0.4,1-0.7,2-1.1,3c-1.1,3-2.2,5.9-3.6,8.8
		c-1.1,2.3-4.5,9.2-12.7,9.2c-2.8,0-5.2-0.9-7.3-1.7c-3.5-1.5-6.6-3.2-9.6-4.8l-3-1.6c-4.4-2.4-8.5-4.7-12.7-6.2
		c-2.6-1-4.9-1.4-7-1.4c-1.4,0-2.6,0.2-3.9,0.6c-2.8,0.9-5.5,2.7-8.8,5.8c-2.7,2.6-5.3,5.5-8,8.6c-1.2,1.4-2.4,2.7-3.6,4.1
		c-2.1,2.3-4.7,5.2-8,7.7C262.7,502,259.6,504.1,255.3,504.1z"/>
	<path d="M255.3,22.3c1.3,0,2.7,0.9,4.7,2.7c3.9,3.5,7.2,7.5,10.6,11.4c3.8,4.3,7.6,8.4,12.3,11.7c4,2.8,8.5,4.4,13.4,4.7
		c0.3,0,0.6,0,0.9,0c2.6,0,5.2-0.5,7.8-1.3c6.4-1.9,12-5.1,17.8-8.3c3.2-1.7,6.2-3.6,9.6-5c0.9-0.4,1.8-0.8,2.7-1
		c0.6-0.2,1.2-0.3,1.7-0.3c1.1,0,1.9,0.6,2.7,2c2.3,3.9,3.6,8.2,5.2,12.4c1.9,5.2,3.7,10.4,6.3,15.3c3.2,5.9,7.5,10.5,14,12.8
		c3.2,1.1,6.4,1.4,9.7,1.4c1.1,0,2.2,0,3.4-0.1c5.8-0.4,11.5-1.6,17.3-2.5c2.9-0.5,5.8-1,8.8-1c0.1,0,0.1,0,0.2,0
		c2.7,0,3.6,0.3,4.2,3.2c0.4,1.9,0.5,3.8,0.5,5.7c0,4.6-0.1,9.3,0,13.9c0.1,4.1,0.4,8.1,1.2,12.1c2,9.8,7.9,15.9,17.3,19.1
		c5.6,1.9,11.5,2.8,17.3,3.8c3.4,0.6,6.8,1.1,10.1,2.1c4.5,1.4,5.3,1.7,4.1,6.8c-1.4,5.9-3.9,11.5-5.7,17.3c-1.4,4.4-2.6,8.9-3,13.5
		c-0.7,8.6,2.5,15.6,9,21.2c4.7,4.1,10.2,7.1,15.6,10.3c2.8,1.7,5.6,3.4,8.4,5.2c1.2,0.7,2.1,1.7,3.2,2.6c1.4,1.3,1.6,2.7,0.8,4.3
		c-1.6,3.4-4,6.3-6.3,9.3c-4,5.3-8.4,10.3-11.7,16.1c-2.7,4.8-4.5,9.8-4.4,15.5c0.2,5.1,2,9.7,4.4,14c2.4,4.2,5.4,7.9,8.3,11.7
		c2.7,3.5,5.5,6.9,7.9,10.5c0.4,0.6,0.8,1.2,1.1,1.9c1.7,3.3,1.6,4.2-1.3,6.5c-3.2,2.6-6.8,4.6-10.3,6.6
		c-5.4,3.2-10.8,6.2-15.6,10.3c-7.3,6.3-10.2,14.2-8.8,23.8c1,6.7,3.4,13,5.6,19.3c1.1,3.1,2.2,6.2,2.9,9.4c0.1,0.3,0.2,0.6,0.2,0.9
		c0.6,3.2,0.2,4-2.9,5c-4.2,1.5-8.7,2-13.1,2.8c-6,1-12,2-17.7,4.2c-9.3,3.6-14.3,10.6-15.7,20.3c-0.7,4.6-0.9,9.2-0.9,13.8
		c0,4.4,0.2,8.8-0.1,13.2c-0.1,0.9-0.2,1.7-0.4,2.6c-0.5,2.6-1.3,3.4-3.7,3.4c-0.2,0-0.4,0-0.6,0c-4.2-0.2-8.4-1-12.6-1.7
		c-5.5-0.9-11-2-16.6-2.1c-0.2,0-0.4,0-0.6,0c-10.9,0-18.7,5-23.7,14.8c-2.9,5.7-4.9,11.8-7.1,17.8c-1,2.6-1.9,5.3-3.2,7.8
		c-1.3,2.5-2.2,3.6-3.7,3.6c-0.9,0-2-0.3-3.4-1c-3.6-1.5-6.9-3.4-10.2-5.3c-5-2.8-10-5.6-15.5-7.6c-3.4-1.2-6.9-2-10.4-2
		c-2.3,0-4.6,0.3-7,1.1c-4.9,1.6-8.9,4.5-12.6,8c-4.3,4.1-8.1,8.8-12.2,13.2c-2.1,2.3-4.2,4.6-6.7,6.5c-1.3,1-2.3,1.5-3.3,1.5
		c-1,0-2-0.5-3.3-1.5c-3.3-2.6-6-5.7-8.8-8.9c-4-4.5-7.8-9.1-12.4-13s-9.8-6.7-15.9-7c-0.4,0-0.9,0-1.3,0c-3.6,0-7,0.8-10.4,2
		c-5.4,2-10.4,4.8-15.5,7.6c-3.2,1.7-6.3,3.5-9.6,5c-1.8,0.8-3,1.2-4.1,1.2c-1.8,0-2.8-1.3-4.2-4.4c-2.3-5-3.9-10.3-5.9-15.5
		c-2-5.1-4-10.1-7.3-14.5c-4.2-5.4-9.6-8.4-16.4-9.2c-1.4-0.2-2.9-0.3-4.3-0.3c-4.7,0-9.4,0.8-14,1.6c-5,0.8-9.9,1.9-14.9,2.1
		c-0.2,0-0.3,0-0.5,0c-0.5,0-0.9,0-1.4-0.1c-1.4-0.1-2.2-0.8-2.6-2.1c-0.6-2.2-0.8-4.4-0.8-6.6c-0.1-3.1,0-6.2,0-10.4
		c0-4.1-0.1-9.2-0.9-14.3c-1.7-11-8.1-17.7-18.6-20.9c-5.8-1.8-11.8-2.7-17.8-3.7c-2.9-0.5-5.8-1-8.7-1.8c-0.5-0.2-1.1-0.3-1.6-0.5
		c-2.9-1.1-3.3-1.8-2.6-4.9c1-5,3-9.8,4.6-14.6c1.5-4.5,3.1-8.9,3.9-13.6c0.7-4,0.9-7.9,0-11.9c-1.3-5.3-4.3-9.6-8.3-13.2
		c-4.8-4.2-10.3-7.3-15.8-10.5c-2.8-1.7-5.7-3.3-8.4-5.2c-1.1-0.8-2.1-1.7-3.1-2.6c-1.3-1.2-1.4-2.6-0.8-4.1c1-2.2,2.3-4.2,3.8-6.1
		c3.7-4.9,7.5-9.7,11.2-14.7c2.7-3.6,4.9-7.5,6.2-11.8c2-6.6,1.4-13.1-1.6-19.3c-2.6-5.4-6.2-10-9.9-14.7c-2.8-3.5-5.6-7-8.1-10.7
		c-3.1-4.8-2.9-6.3,1.9-9.6c3.8-2.6,7.7-4.8,11.7-7.1c5.2-3.1,10.5-6.2,14.8-10.6c5-5.1,7.3-11.2,7-18.3c-0.2-4.8-1.4-9.5-3-14
		c-1.8-5.2-3.6-10.4-5.3-15.7c-0.5-1.4-0.8-2.8-1-4.2c-0.4-2.1,0-2.9,2-3.8c3.2-1.4,6.6-1.9,10-2.5c6.2-1.1,12.5-1.9,18.5-3.8
		c6.3-1.9,11.8-5,15.3-10.8c2.4-3.8,3.4-8.1,4-12.5c0.6-4.6,0.5-9.2,0.5-13.9c0-4.1-0.2-8.2,0.3-12.2c0.1-0.5,0.1-1,0.2-1.4
		c0.5-2.9,1.3-3.7,3.9-3.7c0.3,0,0.6,0,1,0c6.5,0.4,12.8,1.9,19.2,2.8c3.2,0.4,6.4,0.8,9.6,0.8c1.9,0,3.9-0.1,5.9-0.4
		c7.3-1.2,12.6-5.2,16.5-11.2c3.5-5.4,5.5-11.5,7.7-17.5c1.2-3.4,2.4-6.8,3.9-10c0.4-0.8,0.8-1.6,1.2-2.3c1-1.6,1.7-2.3,2.9-2.3
		c0.6,0,1.3,0.2,2.3,0.5c4.8,1.8,9.2,4.5,13.7,6.9c4.3,2.3,8.6,4.6,13.2,6.3c3.6,1.4,7,2,10.3,2c6.3,0,12.1-2.4,17.5-7.1
		c4.5-3.9,8.4-8.4,12.2-12.8c2.4-2.7,4.8-5.4,7.5-7.8C252.6,23.2,254,22.3,255.3,22.3 M255.3,2.3c-9.4,0-15.5,5.5-18.1,7.9
		c-3.8,3.5-7.1,7.1-9.2,9.5c-3.5,4-6.7,7.8-10.2,10.8c-2.6,2.2-3.9,2.2-4.5,2.2c-0.9,0-2-0.3-3.3-0.7c-3.4-1.3-7-3.2-10.7-5.2
		c-0.9-0.5-1.9-1-2.8-1.6c-3.9-2.2-8.3-4.7-13.5-6.6c-2-0.7-5.2-1.7-9.1-1.7c-4.7,0-13.6,1.5-20,11.8c-1,1.6-1.7,3-2.3,4.2
		c-1.7,3.6-2.9,7-4,10.1c-0.2,0.6-0.4,1.2-0.6,1.8l-0.6,1.6c-1.7,4.8-3.2,8.9-5.2,12c-1.3,2-2,2.1-2.8,2.3c-0.8,0.1-1.7,0.2-2.7,0.2
		c-2.2,0-4.7-0.3-6.9-0.6c-1.9-0.3-4-0.6-6.2-1c-4.3-0.8-9.3-1.6-14.6-1.9c-0.8,0-1.5-0.1-2.1-0.1c-12.3,0-21.4,7.7-23.6,20.2
		c-0.2,1.1-0.3,2-0.3,2.6c-0.6,4.3-0.5,8.1-0.5,11.5c0,1,0,1.9,0,2.9c0,0.8,0,1.7,0,2.5c0,3.3,0,6.4-0.3,9c-0.4,2.8-0.8,4-1.2,4.6
		c-0.5,0.9-2.6,1.6-4.2,2.1c-3.4,1-7.4,1.7-11.6,2.4c-1.5,0.3-3.1,0.5-4.6,0.8c-0.4,0.1-0.8,0.1-1.2,0.2c-3.7,0.7-8.3,1.5-13.3,3.7
		c-10.4,4.6-15.6,14.4-13.6,25.6c0.4,2.5,1,4.8,1.7,6.9c1.2,3.8,2.5,7.5,3.8,11.2c0.5,1.5,1.1,3.1,1.6,4.6c1.2,3.6,1.8,6.3,1.9,8.5
		c0.1,1.5-0.2,2.2-1.3,3.3c-2.4,2.4-5.9,4.6-10.6,7.4c-0.7,0.4-1.5,0.9-2.2,1.3c-3.4,2-7,4.1-10.7,6.6c-3.1,2.1-10.2,7.1-12.2,16.7
		c-1.9,9.7,3,17.3,4.9,20.2c2.5,3.8,5.2,7.2,7.5,10.2c0.5,0.7,1,1.3,1.6,2c2.9,3.7,5.9,7.5,7.6,11c1,2.1,0.9,3.4,0.5,4.8
		c-0.5,1.7-1.5,3.5-3.1,5.7c-2.1,2.8-4.1,5.5-6.3,8.3c-1.6,2.1-3.2,4.2-4.8,6.2c-2.1,2.7-4.4,6.1-6.2,10.2c-4.1,9.4-1.9,20,5.6,26.8
		c1.4,1.3,3.2,2.9,5.4,4.3c3.2,2.2,6.3,4,9.3,5.7l0.2,0.1l1.6,1c4.2,2.5,8.2,4.8,11.1,7.3c1.8,1.5,2,2.4,2.1,2.8
		c0.1,0.4,0.2,1.4-0.2,3.8c-0.5,3-1.7,6.5-3,10.2l-0.1,0.2c-0.4,1-0.7,2.1-1.1,3.1c-1.5,4.1-3.2,8.8-4.2,14.2
		c-2.5,12.7,2.9,22.7,15,27.4c1.4,0.5,2.5,0.9,3.3,1.1c4,1.2,7.8,1.8,10.8,2.3c0.9,0.1,1.7,0.3,2.6,0.4c4.6,0.8,9,1.5,12.8,2.7
		c3.9,1.2,4.2,2.3,4.6,4.9c0.6,3.7,0.6,7.9,0.6,11.1v0.1v0.1c0,1.3,0,2.4,0,3.6c0,2.5,0,4.8,0,7.2c0.1,4.3,0.6,7.9,1.5,11.4
		c2.6,9.7,10.8,16.3,20.8,16.9c0.6,0,1.5,0.1,2.5,0.1c0.5,0,0.9,0,1.4,0c4.9-0.2,9.4-1,13.3-1.7c1.3-0.2,2.6-0.5,3.8-0.7l1.7-0.3
		c3.4-0.5,6.7-1.1,9.3-1.1c0.7,0,1.3,0,1.9,0.1c1.8,0.2,2.3,0.7,3,1.6c1.6,2.1,2.9,5.4,4.5,9.5c0.6,1.6,1.2,3.3,1.9,5.1
		c1.3,3.7,2.6,7.4,4.4,11.4c1.2,2.6,2.7,5.7,5.3,8.6c4.5,5,10.5,7.7,17.1,7.7c4.8,0,8.8-1.4,12-2.9c3.6-1.6,6.7-3.3,9.5-4.9
		c0.6-0.3,1.1-0.6,1.7-0.9l1.6-0.9c3.9-2.2,7.6-4.2,11-5.4c1.5-0.5,2.7-0.8,3.6-0.8c0.1,0,0.2,0,0.2,0c1,0.1,2.4,0.8,4.1,2.3
		c2.9,2.4,5.8,5.8,8.8,9.3c0.5,0.5,0.9,1.1,1.4,1.6c3.1,3.6,6.7,7.6,11.3,11.3c4.9,3.9,10.2,5.9,15.8,5.9c8.2,0,13.8-4.3,15.6-5.7
		c3.9-3,7-6.4,9.2-8.9c1.3-1.4,2.5-2.8,3.7-4.2c2.6-2.9,5-5.7,7.4-8c2-1.9,3.6-3.1,4.9-3.5c0.3-0.1,0.5-0.1,0.9-0.1
		c0.6,0,1.8,0.1,3.6,0.8c3.5,1.2,7.2,3.3,11.2,5.5l1.4,0.8c0.5,0.3,1,0.6,1.6,0.9c3.1,1.7,6.6,3.7,10.7,5.3
		c2.8,1.2,6.6,2.5,11.1,2.5c6.6,0,15.6-2.6,21.7-14.7c1.7-3.4,2.9-6.6,4-9.8c0.4-1,0.7-2,1.1-3c1.6-4.6,3.2-8.9,5-12.5
		c1.8-3.5,3-3.9,5.9-3.9h0.3c3.7,0.1,7.9,0.8,12.4,1.6l1.2,0.2l1.6,0.3c4,0.7,8.6,1.5,13.6,1.7c0.5,0,0.9,0,1.4,0
		c12,0,20.9-7.5,23.3-19.5c0.3-1.7,0.6-3.4,0.7-5.1c0.3-4,0.3-7.9,0.2-11.3c0-1.1,0-2.2,0-3.4c0-4.4,0.2-7.9,0.7-11
		c0.5-3.5,1.5-3.9,3.2-4.6c3.5-1.4,7.8-2.1,12.7-3l1.1-0.2c0.8-0.1,1.5-0.3,2.3-0.4c4.1-0.7,8.8-1.5,13.9-3.2
		c12.4-4.3,18.4-14.5,16.1-27.4c-0.2-0.9-0.4-1.7-0.5-2.1c-0.9-3.8-2.1-7.1-3.1-10.1l-0.4-1.1c-0.3-1-0.7-2-1-3
		c-1.6-4.6-3.1-8.9-3.7-12.8c-0.4-2.8,0-3.8,2-5.6c3-2.6,7-4.9,11.2-7.4l1.5-0.9c0.5-0.3,1-0.6,1.5-0.9c3.5-2,7.4-4.3,11.4-7.5
		c2.1-1.7,7.8-6.4,9.3-14.7c1.5-8-1.8-14.2-3-16.6c-0.6-1.2-1.3-2.4-2.2-3.6c-2.5-3.8-5.2-7.2-7.5-10.1c-0.5-0.6-0.9-1.1-1.3-1.7
		l-0.4-0.5c-2.4-3.1-4.8-6-6.3-8.7c-1.2-2.1-1.8-3.7-1.8-4.8c0-0.8,0.1-2.1,1.8-5c1.8-3.1,4.3-6.4,7.1-9.8c1-1.3,2-2.6,3.1-3.9
		l0.7-0.9c2.4-3.1,5.4-7,7.8-12c4.7-9.8,2.5-20.7-5.5-27.8l-0.3-0.3c-1.2-1.1-3.1-2.7-5.5-4.3l-1.6-1c-2.3-1.5-4.7-3-7.3-4.5
		c-0.6-0.3-1.2-0.7-1.8-1c-4.1-2.4-8-4.7-10.8-7.1c-2.2-1.9-2.3-2.9-2.1-4.5c0.2-2.8,1.2-6,2.1-9c0.6-1.8,1.2-3.6,1.9-5.6
		c1.4-3.9,3-8.3,4.2-13.2c0.8-3.4,2.9-12.3-2.8-20.7c-4.6-6.8-11.4-8.8-15-9.9c-4.1-1.2-8-1.9-11.4-2.4l-1.1-0.2l-1.1-0.2
		c-4.8-0.8-9.4-1.6-13.2-2.8c-3.4-1.1-3.6-2.2-4-4c-0.5-2.7-0.7-5.8-0.8-8.8c-0.1-2.6-0.1-5.4,0-8.3c0-1.7,0-3.4,0-5.1
		c0-2.3-0.1-5.8-0.9-9.7c-1.4-6.6-4.5-11.6-9.4-15c-5.9-4.1-12.1-4.1-14.4-4.1h-0.3c-4.3,0-8.2,0.7-11.3,1.2l-0.7,0.1
		c-1.4,0.2-2.8,0.5-4.2,0.7c-4,0.7-7.7,1.4-11,1.6c-0.8,0-1.5,0.1-2.1,0.1c-1.4,0-2.5-0.1-3.1-0.4c-0.4-0.1-1.3-0.5-2.9-3.3
		c-1.7-3.2-3.1-7.1-4.6-11.3l-0.5-1.3c-0.2-0.6-0.5-1.3-0.7-1.9c-1.4-4-3.2-9-6.1-13.9c-6.4-10.6-16-11.8-19.9-11.8
		c-2.3,0-4.7,0.3-7.2,1.1c-2,0.6-3.6,1.2-4.6,1.7l-0.3,0.1c-3.6,1.5-6.8,3.3-9.6,4.9c-0.6,0.3-1.2,0.7-1.8,1l-1.6,0.9
		c-4.6,2.5-8.5,4.7-12.2,5.8c-1.6,0.5-2.2,0.5-2.2,0.5c-0.7,0-1.6-0.2-2.8-1.1c-3-2.1-6-5.4-8.8-8.5c-0.6-0.7-1.2-1.3-1.8-2
		c-3-3.5-6.4-7.4-10.5-11C270.7,7.7,264.6,2.3,255.3,2.3L255.3,2.3z"/>
</g>
<circle class="st1" cx="255.3" cy="258.3" r="170.3"/>
<path d="M255.2,77.7c20.6,0,40.7,3.4,60.2,10.2c2.9,1,5.6,2.3,7.2,5.2c2,3.8,1.7,8.2-1,11.5c-2.5,3.1-7.1,4.4-11.1,3.1
	c-4.5-1.5-9.1-3.1-13.7-4.3c-8-2.1-16.2-3.6-24.5-4.5c-8.4-0.9-16.7-1.2-25.1-0.8c-12.5,0.7-24.9,2.7-37,6.3
	c-15.5,4.6-30.1,11.3-43.5,20.3c-22.5,15.1-40.3,34.6-53,58.6c-8.8,16.5-14.5,34-17,52.6c-0.8,6-1.2,12.1-1.5,18.1
	c-0.3,5.3,0,10.5,0.3,15.8c0.8,11.2,2.7,22.2,5.9,32.9c6.7,23.2,18.2,43.7,34.1,61.8c0.9,1.1,1.9,2.1,2.9,3.2c3,3.1,3.7,7.5,2,11.3
	c-1.7,3.7-5.5,6.1-9.6,5.9c-2.7-0.1-5.1-1.2-7-3.2c-6.2-6.6-11.8-13.6-17-21.1c-7-10.1-12.9-20.8-17.7-32.1
	c-5.1-12-8.8-24.3-11.1-37.1c-1.1-5.9-1.9-11.8-2.4-17.8c-0.5-5.8-0.9-11.6-0.8-17.5c0.3-15.3,2.2-30.4,6.2-45.2
	c3.2-11.8,7.5-23.2,13.1-34.2c7-13.9,15.7-26.7,26.1-38.4c13.8-15.6,29.8-28.4,48-38.5c15.4-8.5,31.8-14.6,49-18.3
	c8.5-1.8,17.1-3,25.8-3.6C247.1,77.9,251.2,77.8,255.2,77.7z"/>
<path d="M435.8,258.2c0,26-5.3,50.9-16,74.6c-7.5,16.6-17.4,31.6-29.4,45.2c-10.4,11.7-22.1,21.9-35.2,30.6
	c-19.7,13.1-41.3,22-64.5,26.6c-9.2,1.8-18.4,2.9-27.8,3.2c-3.3,0.1-6.7,0.3-10.1,0.2c-14.7-0.4-29.1-2.1-43.3-5.9
	c-5.1-1.3-10.1-2.9-15.1-4.7c-7-2.4-8.4-9.5-5.9-14.4c2.2-4.3,7.1-6.5,12.3-4.8c9.7,3.3,19.5,6,29.7,7.5c6.2,1,12.3,1.7,18.6,1.8
	c1.8,0,3.7,0.3,5.5,0.3c23.8-0.2,46.6-4.9,68.2-15c14.7-6.9,28.1-15.8,40.2-26.7c13.8-12.6,25.2-27.1,34-43.7
	c9.1-17.1,14.8-35.3,17.3-54.5c1.2-9.4,1.7-18.8,1.2-28.2c-0.7-13.4-3-26.6-7-39.5c-4.5-14.6-11-28.3-19.4-41
	c-4.5-6.8-9.4-13.3-15-19.3c-0.8-0.8-1.5-1.7-2.2-2.5c-3.5-3.7-3.5-9.6-0.1-13.6c3.1-3.7,9-4.4,13.1-1.8c1.9,1.2,3.2,2.9,4.6,4.5
	c9.3,10.4,17.4,21.7,24.1,33.9c8.9,16.2,15.2,33.4,18.8,51.6c1.5,7.8,2.6,15.6,3,23.5C435.6,250.2,435.7,254.2,435.8,258.2z"/>
<path d="M314.4,159.8c6.6-0.1,11.1,7.5,8.4,13.9c-0.4,0.9-0.9,1.7-1.4,2.5c-10.7,16.3-21.5,32.6-32.2,48.8
	c-9.7,14.7-19.4,29.4-29.1,44c-9.1,13.7-18.1,27.5-27.2,41.3c-9,13.6-17.9,27.2-26.9,40.9c-1.7,2.6-3.8,4.4-6.9,5.1
	c-7.4,1.6-13.9-5.3-11.7-12.7c0.4-1.3,1-2.5,1.8-3.6c8.1-12.3,16.2-24.5,24.3-36.8c10-15.1,19.9-30.2,29.8-45.2
	c9.5-14.3,18.9-28.7,28.4-43c9.6-14.5,19.2-29.1,28.8-43.7c1.5-2.3,2.9-4.6,4.5-6.8C307.1,161.5,309.8,159.8,314.4,159.8z"/>
<path d="M197.4,159.8c21.3-0.2,41.3,17.1,41.3,41.6c0,24.2-19.9,41.8-42.1,41.6c-22.3-0.2-41.7-18.6-41.2-42.6
	C155.9,177.4,175.2,159.3,197.4,159.8z"/>
<path d="M355.1,315.1c0.3,22.1-18,41.7-41.8,41.6c-23-0.1-41.5-18.9-41.4-41.9c0.1-22.2,17.9-41.6,42-41.4
	C338,273.5,355.5,293.5,355.1,315.1z"/>
<path d="M359.3,115.9c-0.2,5-3.6,10.2-10.2,10.1c-5.9,0-10-4.2-10.1-10c-0.1-6.3,4.6-10.2,10.1-10.3
	C354.3,105.7,358.9,109.5,359.3,115.9z"/>
<path d="M161.6,390.3c5.6,0,10.2,4.6,10.1,10.3c-0.1,5.5-4.6,10-10.2,10c-5.7,0-10.1-4.5-10.1-10.3
	C151.5,394.7,156,390.3,161.6,390.3z"/>
<path class="st1" d="M197.2,180c10.9,0,21.3,8.6,21.3,21.4c0,12.7-10.2,21.5-21.6,21.4c-11.7-0.1-21.3-9.4-21.3-21.4
	C175.7,188.7,186,179.9,197.2,180z"/>
<path class="st1" d="M334.9,315.1c0,10.8-8.4,21.3-21.4,21.3c-12.2,0-21.5-9.8-21.4-21.5c0-11,8.6-21.3,21.4-21.3
	C326.6,293.6,335.1,304.3,334.9,315.1z"/>
</svg>
