<svg width="42" height="36" viewBox="0 0 42 36" fill="none" xmlns="http://www.w3.org/2000/svg">
<path d="M22.5815 4.5815L21.5208 3.52084L22.5815 4.5815C26.6901 0.472833 33.3515 0.472833 37.4602 4.5815C41.506 8.6274 41.4902 14.5651 37.3638 19.5662C35.2053 22.1823 30.9316 25.9682 27.1038 29.1636C25.2083 30.746 23.4521 32.1592 22.1695 33.1769C21.715 33.5376 21.3202 33.8483 21.0001 34.0991C20.6802 33.8484 20.2856 33.5377 19.8314 33.1771C18.5496 32.1595 16.7949 30.7465 14.9022 29.1643C11.0791 25.9684 6.81819 22.1844 4.68215 19.5715C0.586499 14.5615 0.540711 8.6223 4.58149 4.5815C8.69013 0.472833 15.3515 0.472833 19.4602 4.5815L20.5208 3.52084L19.4602 4.5815L19.9602 5.0815L21.0208 6.14216L22.0815 5.0815L22.5815 4.5815Z" stroke="#c4c4c4" stroke-width="3"/>
</svg>
