<?xml version="1.0" encoding="utf-8"?>
<!-- Generator: Adobe Illustrator 15.1.0, SVG Export Plug-In . SVG Version: 6.00 Build 0)  -->
<!DOCTYPE svg PUBLIC "-//W3C//DTD SVG 1.1//EN" "http://www.w3.org/Graphics/SVG/1.1/DTD/svg11.dtd">
<svg version="1.1" id="Layer_1" xmlns="http://www.w3.org/2000/svg" xmlns:xlink="http://www.w3.org/1999/xlink" x="0px" y="0px"
	 width="15.095px" height="14.919px" viewBox="517.393 72.664 15.095 14.919" enable-background="new 517.393 72.664 15.095 14.919"
	 xml:space="preserve">
<path fill-rule="evenodd" clip-rule="evenodd" fill="#FFFFFF" d="M532.173,85.369l-0.368-0.348c-0.02-0.021-0.027-0.048-0.049-0.068
	l-3.215-3.031c0.589-0.933,0.936-2.033,0.936-3.216c0-3.332-2.71-6.042-6.042-6.042s-6.042,2.71-6.042,6.042s2.71,6.042,6.042,6.042
	c1.185,0,2.287-0.348,3.22-0.938l0.244,0.23c0.02,0.021,0.027,0.048,0.049,0.068l3.396,3.201c0.401,0.381,1.034,0.361,1.413-0.04
	l0.458-0.486C532.594,86.381,532.575,85.749,532.173,85.369z M519.393,78.706c0-2.229,1.813-4.042,4.042-4.042
	s4.042,1.813,4.042,4.042s-1.813,4.042-4.042,4.042S519.393,80.934,519.393,78.706z"/>
</svg>
