<svg width="50" height="50" viewBox="0 0 50 50" fill="none" xmlns="http://www.w3.org/2000/svg">
<circle cx="25" cy="25" r="25" fill="#103052"/>
<path fill-rule="evenodd" clip-rule="evenodd" d="M16.1612 19.5711L24.1161 11.6161C24.6043 11.128 25.3957 11.128 25.8839 11.6161L33.8388 19.5711C34.327 20.0592 34.327 20.8507 33.8388 21.3388C33.3507 21.827 32.5592 21.827 32.0711 21.3388L26.25 15.5178V35.75C26.25 36.4404 25.6903 37 25 37V37C24.3096 37 23.75 36.4404 23.75 35.75V15.5178L17.9289 21.3388C17.4408 21.827 16.6493 21.827 16.1612 21.3388C15.673 20.8507 15.673 20.0592 16.1612 19.5711Z" fill="white"/>
</svg>
