<?xml version="1.0" encoding="UTF-8" standalone="no"?>
<!-- Generator: Adobe Illustrator 18.1.0, SVG Export Plug-In . SVG Version: 6.00 Build 0)  -->

<svg
   xmlns:dc="http://purl.org/dc/elements/1.1/"
   xmlns:cc="http://creativecommons.org/ns#"
   xmlns:rdf="http://www.w3.org/1999/02/22-rdf-syntax-ns#"
   xmlns:svg="http://www.w3.org/2000/svg"
   xmlns="http://www.w3.org/2000/svg"
   xmlns:sodipodi="http://sodipodi.sourceforge.net/DTD/sodipodi-0.dtd"
   xmlns:inkscape="http://www.inkscape.org/namespaces/inkscape"
   version="1.1"
   id="Layer_1"
   x="0px"
   y="0px"
   viewBox="0 0 500 500"
   enable-background="new 0 0 500 500"
   xml:space="preserve"
   inkscape:version="0.48.4 r9939"
   width="100%"
   height="100%"
   sodipodi:docname="bonus_gift-green.svg"><metadata
     id="metadata40"><rdf:RDF><cc:Work
         rdf:about=""><dc:format>image/svg+xml</dc:format><dc:type
           rdf:resource="http://purl.org/dc/dcmitype/StillImage" /><dc:title></dc:title></cc:Work></rdf:RDF></metadata><defs
     id="defs38" /><sodipodi:namedview
     pagecolor="#ffffff"
     bordercolor="#666666"
     borderopacity="1"
     objecttolerance="10"
     gridtolerance="10"
     guidetolerance="10"
     inkscape:pageopacity="0"
     inkscape:pageshadow="2"
     inkscape:window-width="1855"
     inkscape:window-height="1056"
     id="namedview36"
     showgrid="false"
     inkscape:snap-bbox="true"
     inkscape:snap-global="false"
     inkscape:zoom="0.472"
     inkscape:cx="250"
     inkscape:cy="250"
     inkscape:window-x="65"
     inkscape:window-y="24"
     inkscape:window-maximized="1"
     inkscape:current-layer="Layer_1" /><g
     display="none"
     id="g3"><g
       display="inline"
       id="g5"><path
         fill="#C41718"
         d="M443.1,269.1l33-18.9l-33-19.2l28.5-25l-36.2-12.2l23.1-30.1l-37.8-5.1l17-34.3l-37.8,2.6l9.9-36.9    l-36.9,9.9l2.6-38.1l-34.3,17L336.1,41l-30.2,23l-12.2-36.2l-25,28.5l-19.2-32.7l-18.9,33l-25-28.5l-12.2,36.2l-30.1-23.1    L158.2,79l-34.3-17l2.6,38.1L89.3,89.9l9.9,36.9l-38.1-2.6l17,34.3l-37.8,5.1l23.1,30.1l-36,12.3l28.5,25l-33,19.2l33,18.9    l-28.5,25l36.2,12.2l-23.1,30.1l37.8,5.1l-17,34.3l38.1-2.6l-10.3,37.2l36.9-9.9l-2.6,38.1l34.3-17l5.1,37.8l30.1-23.1l12.2,36.2    l25-28.5l18.9,33l19.2-33l25,28.5l12.2-36.2l30.1,23.1l5.1-37.8l34.3,17l-2.6-38.1l36.9,9.9l-9.9-36.9l38.1,2.6l-17-34.3l37.8-5.1    l-23.1-30.1l36.2-12.2L443.1,269.1z"
         id="path7" /></g></g><linearGradient
     id="SVGID_1_"
     gradientUnits="userSpaceOnUse"
     x1="130.6"
     y1="221.15"
     x2="378"
     y2="221.15"
     gradientTransform="matrix(1.9163093,0,0,1.8819117,-231.95813,-198.92823)"><stop
       offset="0.5"
       style="stop-color:#414141"
       id="stop10" /><stop
       offset="0.51"
       style="stop-color:#35A936"
       id="stop12" /></linearGradient><path
     d="M 18.311864,155.43575 H 492.40678 V 279.07734 H 18.311864 V 155.43575 z"
     id="path14"
     style="fill:url(#SVGID_1_)"
     inkscape:connector-curvature="0" /><linearGradient
     id="SVGID_2_"
     gradientUnits="userSpaceOnUse"
     x1="221.3"
     y1="183.55"
     x2="292.1"
     y2="183.55"
     gradientTransform="matrix(1.9163093,0,0,1.8819117,-231.95813,-198.92823)"><stop
       offset="0.5"
       style="stop-color:#414141"
       id="stop17" /><stop
       offset="0.51"
       style="stop-color:#35A936"
       id="stop19" /></linearGradient><path
     d="m 192.12112,136.80482 h 135.6747 v 19.38368 h -135.6747 v -19.38368 z"
     id="path21"
     style="fill:url(#SVGID_2_)"
     inkscape:connector-curvature="0" /><linearGradient
     id="SVGID_3_"
     gradientUnits="userSpaceOnUse"
     x1="150.8"
     y1="317"
     x2="357.9"
     y2="317"
     gradientTransform="matrix(1.9163093,0,0,1.8819117,-231.95813,-198.92823)"><stop
       offset="0.5"
       style="stop-color:#414141"
       id="stop24" /><stop
       offset="0.51"
       style="stop-color:#35A936"
       id="stop26" /></linearGradient><path
     d="M 57.021316,307.4942 H 453.88897 V 487.78135 H 57.021316 V 307.4942 z"
     id="path28"
     style="fill:url(#SVGID_3_)"
     inkscape:connector-curvature="0" /><path
     d="m 237.72927,123.06686 c -5.36566,36.50909 -23.95386,36.32089 -61.13026,33.30984 C 139.42261,153.55382 94.580972,120.43218 94.964238,83.35852 95.730755,43.461991 136.73977,8.6466247 178.32368,13.539596 215.88335,18.620757 244.628,76.395447 237.72927,123.06686 z M 176.59901,42.144653 c -24.52876,-1.881911 -50.2073,19.760073 -52.12361,43.660352 -1.91632,24.088465 30.85258,38.014615 54.99808,42.343015 20.12124,3.38744 30.08605,0.37638 30.46932,-17.1254 -0.19164,-23.523894 -9.00667,-66.996054 -33.34379,-68.877967 z"
     id="path30"
     inkscape:connector-curvature="0"
     style="fill:#414141" /><path
     d="m 269.54001,117.60931 c 2.49121,36.88547 20.88778,38.01462 58.25581,38.01462 37.55965,0 84.70086,-29.54601 87.19207,-66.431484 2.49119,-39.896528 -35.64336,-77.722954 -77.41891,-76.029233 -37.36802,1.881911 -70.52017,57.398307 -68.02897,104.446097 z m 68.22061,-76.02923 c 24.52875,0 48.48263,23.523896 48.48263,47.612366 0,24.088474 -33.72705,35.568134 -58.25581,38.014614 -20.31287,1.88191 -30.08605,-1.88191 -28.93627,-19.38369 1.14979,-23.523894 14.18069,-66.24329 38.70945,-66.24329 z"
     id="path32"
     inkscape:connector-curvature="0"
     style="fill:#35a936" /><rect
     x="241.37027"
     y="155.43575"
     width="28.93627"
     height="332.34561"
     id="rect34"
     style="fill:#ffffff" /></svg>