<?xml version="1.0" encoding="utf-8"?>
<!-- Generator: Adobe Illustrator 18.1.0, SVG Export Plug-In . SVG Version: 6.00 Build 0)  -->
<svg version="1.1" id="Layer_1" xmlns="http://www.w3.org/2000/svg" xmlns:xlink="http://www.w3.org/1999/xlink" x="0px" y="0px"
	 viewBox="0 0 500 500" enable-background="new 0 0 500 500" xml:space="preserve">
<linearGradient id="SVGID_1_" gradientUnits="userSpaceOnUse" x1="19.9061" y1="265.7118" x2="488.0939" y2="265.7118" gradientTransform="matrix(0.9986 -5.236861e-002 5.236861e-002 0.9986 -12.8642 13.3775)">
	<stop  offset="0.5" style="stop-color:#414141"/>
	<stop  offset="0.51" style="stop-color:#2BAC1E"/>
</linearGradient>
<path fill="url(#SVGID_1_)" d="M46.3,162.6l59.7-18.6l27.4-52.2l119.3-37.3l52.2,27.4l59.7-18.6c21.9-6.8,45.4,5.5,52.2,27.4
	l74.5,238.6c6.8,21.9-5.5,45.4-27.4,52.2l-318.2,99.3c-21.9,6.8-45.4-5.5-52.2-27.4L18.9,214.8C12.1,193,24.4,169.5,46.3,162.6
	 M224,172.6c-55.7,17.4-85.8,74.8-68.4,130.5s74.8,85.8,130.5,68.4c55.7-17.4,85.8-74.8,68.4-130.5
	C337.1,185.3,279.7,155.2,224,172.6 M236.4,212.4c33.8-10.6,67.7,7.2,78.3,41c10.6,33.8-7.2,67.7-41,78.3
	c-33.8,10.6-67.7-7.2-78.3-41C184.8,256.9,202.6,222.9,236.4,212.4z"/>
</svg>
