<?xml version="1.0" encoding="UTF-8" standalone="no"?>
<!-- Generator: Adobe Illustrator 18.1.0, SVG Export Plug-In . SVG Version: 6.00 Build 0)  -->

<svg
   xmlns:dc="http://purl.org/dc/elements/1.1/"
   xmlns:cc="http://creativecommons.org/ns#"
   xmlns:rdf="http://www.w3.org/1999/02/22-rdf-syntax-ns#"
   xmlns:svg="http://www.w3.org/2000/svg"
   xmlns="http://www.w3.org/2000/svg"
   xmlns:xlink="http://www.w3.org/1999/xlink"
   xmlns:sodipodi="http://sodipodi.sourceforge.net/DTD/sodipodi-0.dtd"
   xmlns:inkscape="http://www.inkscape.org/namespaces/inkscape"
   version="1.1"
   id="Layer_1"
   x="0px"
   y="0px"
   viewBox="0 0 500 500"
   enable-background="new 0 0 500 500"
   xml:space="preserve"
   inkscape:version="0.48.4 r9939"
   width="100%"
   height="100%"
   sodipodi:docname="logout.svg"><metadata
     id="metadata9"><rdf:RDF><cc:Work
         rdf:about=""><dc:format>image/svg+xml</dc:format><dc:type
           rdf:resource="http://purl.org/dc/dcmitype/StillImage" /><dc:title></dc:title></cc:Work></rdf:RDF></metadata><defs
     id="defs7"><linearGradient
       id="linearGradient3754"><stop
         style="stop-color:#414141;stop-opacity:1;"
         offset="0"
         id="stop3756" /><stop
         id="stop3764"
         offset="0.5"
         style="stop-color:#414141;stop-opacity:1;" /><stop
         id="stop3762"
         offset="0.5"
         style="stop-color:#35a936;stop-opacity:1;" /><stop
         style="stop-color:#35a936;stop-opacity:1;"
         offset="1"
         id="stop3758" /></linearGradient><linearGradient
       inkscape:collect="always"
       xlink:href="#linearGradient3754"
       id="linearGradient3760"
       x1="38.5"
       y1="249.95"
       x2="461.5"
       y2="249.95"
       gradientUnits="userSpaceOnUse" /></defs><sodipodi:namedview
     pagecolor="#ffffff"
     bordercolor="#666666"
     borderopacity="1"
     objecttolerance="10"
     gridtolerance="10"
     guidetolerance="10"
     inkscape:pageopacity="0"
     inkscape:pageshadow="2"
     inkscape:window-width="1855"
     inkscape:window-height="1056"
     id="namedview5"
     showgrid="false"
     inkscape:zoom="0.472"
     inkscape:cx="-159.95763"
     inkscape:cy="250"
     inkscape:window-x="65"
     inkscape:window-y="24"
     inkscape:window-maximized="1"
     inkscape:current-layer="Layer_1" /><path
     fill="#C3060E"
     d="M149,139.6l0,68.7l145.8,0l0,83.3l-145.8,0l0,68.8L38.5,250L149,139.6 M232.2,458.3  c-22.9,0-41.7-18.8-41.7-41.7l0-83.3l41.7,0l0,83.3l187.5,0l0.1-333.3l-187.5,0l0,83.3l-41.7,0l0-83.3c0-22.9,18.8-41.7,41.7-41.7  l187.5,0c22.9,0,41.7,18.8,41.7,41.7l-0.1,333.3c0,22.9-18.8,41.7-41.7,41.7L232.2,458.3z"
     id="path3"
     style="fill-opacity:1;fill:url(#linearGradient3760)" /></svg>