<?xml version="1.0" encoding="UTF-8" standalone="no"?>
<!-- Generator: Adobe Illustrator 18.1.0, SVG Export Plug-In . SVG Version: 6.00 Build 0)  -->

<svg
   xmlns:dc="http://purl.org/dc/elements/1.1/"
   xmlns:cc="http://creativecommons.org/ns#"
   xmlns:rdf="http://www.w3.org/1999/02/22-rdf-syntax-ns#"
   xmlns:svg="http://www.w3.org/2000/svg"
   xmlns="http://www.w3.org/2000/svg"
   xmlns:xlink="http://www.w3.org/1999/xlink"
   xmlns:sodipodi="http://sodipodi.sourceforge.net/DTD/sodipodi-0.dtd"
   xmlns:inkscape="http://www.inkscape.org/namespaces/inkscape"
   version="1.1"
   id="Layer_1"
   x="0px"
   y="0px"
   viewBox="0 0 500 500"
   enable-background="new 0 0 500 500"
   xml:space="preserve"
   inkscape:version="0.48.4 r9939"
   width="100%"
   height="100%"
   sodipodi:docname="lock.svg"><metadata
     id="metadata9"><rdf:RDF><cc:Work
         rdf:about=""><dc:format>image/svg+xml</dc:format><dc:type
           rdf:resource="http://purl.org/dc/dcmitype/StillImage" /><dc:title></dc:title></cc:Work></rdf:RDF></metadata><defs
     id="defs7"><linearGradient
       id="linearGradient3754"><stop
         id="stop3764"
         offset="0"
         style="stop-color:#414141;stop-opacity:1;" /><stop
         style="stop-color:#414141;stop-opacity:1;"
         offset="0.5"
         id="stop3768" /><stop
         id="stop3770"
         offset="0.5"
         style="stop-color:#35a936;stop-opacity:1;" /><stop
         style="stop-color:#35a936;stop-opacity:1;"
         offset="1"
         id="stop3766" /></linearGradient><linearGradient
       inkscape:collect="always"
       xlink:href="#linearGradient3754"
       id="linearGradient3760"
       x1="89.4"
       y1="244.79567"
       x2="424"
       y2="244.79567"
       gradientUnits="userSpaceOnUse" /></defs><sodipodi:namedview
     pagecolor="#ffffff"
     bordercolor="#666666"
     borderopacity="1"
     objecttolerance="10"
     gridtolerance="10"
     guidetolerance="10"
     inkscape:pageopacity="0"
     inkscape:pageshadow="2"
     inkscape:window-width="1855"
     inkscape:window-height="1056"
     id="namedview5"
     showgrid="false"
     inkscape:zoom="0.472"
     inkscape:cx="-159.95763"
     inkscape:cy="250"
     inkscape:window-x="65"
     inkscape:window-y="24"
     inkscape:window-maximized="1"
     inkscape:current-layer="Layer_1" /><path
     fill="#C3060E"
     d="M422.7,460.7c0,1.6-1.3,2.9-2.9,2.9H95.3c-3.2,0-5.9-2.6-5.9-5.9V177.7c0-3.2,2.6-5.9,5.9-5.9h53.6  c1.7,0,3-1.3,3-3v-61.2c2.2-17.6,11.5-45.1,30.9-57.9c88-58.1,177.4-1,177.4,80.4v38.7c0,1.6,1.3,3,2.9,3L424,173 M424,173   M224.9,74.4c-19.1,8.2-31.3,27.2-31.3,48v46.4c0,1.7,1.3,3,3,3h119c1.7,0,3-1.3,3-3v-38.7C318.6,84.9,274.3,53.2,224.9,74.4z"
     id="path3"
     style="fill-opacity:1;fill:url(#linearGradient3760)" /></svg>