<?xml version="1.0" encoding="UTF-8" standalone="no"?>
<!-- Generator: Adobe Illustrator 18.1.0, SVG Export Plug-In . SVG Version: 6.00 Build 0)  -->

<svg
   xmlns:dc="http://purl.org/dc/elements/1.1/"
   xmlns:cc="http://creativecommons.org/ns#"
   xmlns:rdf="http://www.w3.org/1999/02/22-rdf-syntax-ns#"
   xmlns:svg="http://www.w3.org/2000/svg"
   xmlns="http://www.w3.org/2000/svg"
   xmlns:xlink="http://www.w3.org/1999/xlink"
   xmlns:sodipodi="http://sodipodi.sourceforge.net/DTD/sodipodi-0.dtd"
   xmlns:inkscape="http://www.inkscape.org/namespaces/inkscape"
   version="1.1"
   id="Layer_1"
   x="0px"
   y="0px"
   viewBox="-237 239 24 24"
   enable-background="new -237 239 24 24"
   xml:space="preserve"
   inkscape:version="0.48.4 r9939"
   width="100%"
   height="100%"
   sodipodi:docname="ic_notifications_red.svg"><metadata
     id="metadata11"><rdf:RDF><cc:Work
         rdf:about=""><dc:format>image/svg+xml</dc:format><dc:type
           rdf:resource="http://purl.org/dc/dcmitype/StillImage" /><dc:title></dc:title></cc:Work></rdf:RDF></metadata><defs
     id="defs9"><linearGradient
       id="linearGradient3756"><stop
         style="stop-color:#414141;stop-opacity:1;"
         offset="0"
         id="stop3758" /><stop
         id="stop3766"
         offset="0.5"
         style="stop-color:#414141;stop-opacity:1;" /><stop
         id="stop3764"
         offset="0.5"
         style="stop-color:#35a936;stop-opacity:1;" /><stop
         style="stop-color:#35a936;stop-opacity:1;"
         offset="1"
         id="stop3760" /></linearGradient><linearGradient
       inkscape:collect="always"
       xlink:href="#linearGradient3756"
       id="linearGradient3762"
       x1="-234.7"
       y1="251.07154"
       x2="-217.13082"
       y2="251.07154"
       gradientUnits="userSpaceOnUse" /></defs><sodipodi:namedview
     pagecolor="#ffffff"
     bordercolor="#666666"
     borderopacity="1"
     objecttolerance="10"
     gridtolerance="10"
     guidetolerance="10"
     inkscape:pageopacity="0"
     inkscape:pageshadow="2"
     inkscape:window-width="1855"
     inkscape:window-height="1056"
     id="namedview7"
     showgrid="false"
     inkscape:zoom="9.8333333"
     inkscape:cx="-7.6779661"
     inkscape:cy="12"
     inkscape:window-x="65"
     inkscape:window-y="24"
     inkscape:window-maximized="1"
     inkscape:current-layer="Layer_1" /><path
     fill="#C3060E"
     d="M-229.8,260.1c0.8,0.5,2,0,2.7-1l-3.1-1.8C-230.8,258.3-230.6,259.6-229.8,260.1z M-221.4,257.3l3.1-5.2  c1.7-2.9,1.5-6.3-0.3-8.3l0.4-0.6c0.5-0.8,0.3-1.7-0.3-2.1c-0.6-0.4-1.5,0-2,0.8l-0.4,0.6c-2.6-0.6-5.7,0.8-7.4,3.8l-3.1,5.2l-2.7,1  l-0.6,1l13.1,7.7l0.6-1L-221.4,257.3z"
     id="path3"
     style="fill-opacity:1;fill:url(#linearGradient3762)" /><path
     fill="none"
     d="M-237,239h24v24h-24V239z"
     id="path5" /></svg>