<svg width="30" height="30" viewBox="0 0 30 30" fill="none" xmlns="http://www.w3.org/2000/svg">
<path d="M11.0581 8.91737H10.3116C8.84052 8.91737 7.65 10.1247 7.65 11.6019V25.6652V25.6653C7.65038 27.1427 8.8408 28.35 10.3119 28.35H19.9825C21.4536 28.35 22.6441 27.1427 22.6441 25.6652V11.6019C22.6441 10.1247 21.4536 8.91737 19.9825 8.91737H19.236V7.64796C19.236 6.6305 18.5805 5.76379 17.6702 5.45736V2.45581C17.6702 1.45456 16.845 0.65 15.8413 0.65H14.4528C13.4495 0.65 12.6239 1.45451 12.6239 2.45581V5.45736C11.7136 5.76379 11.0581 6.6305 11.0581 7.64796V8.91737ZM14.4528 2.02461H15.8413C16.1076 2.02461 16.3022 2.23056 16.3022 2.45581V5.33822H13.9919V2.45608C13.9921 2.23047 14.187 2.02461 14.4528 2.02461ZM12.4264 7.64796C12.4264 7.12908 12.8437 6.71283 13.348 6.71283H16.9468C17.4511 6.71283 17.8683 7.12908 17.8683 7.64796V8.91737H12.4264V7.64796ZM9.01833 11.6019C9.01833 10.8765 9.6023 10.292 10.3119 10.292H19.9825C20.6924 10.292 21.2761 10.8767 21.2761 11.6019V25.6652C21.2761 26.3906 20.6921 26.9754 19.9825 26.9754H10.3119C9.6021 26.9754 9.01833 26.3907 9.01833 25.6652V11.6019Z" fill="#2D2841" stroke="#2D2841" stroke-width="0.7"/>
</svg>
