<svg width="30" height="30" viewBox="0 0 30 30" fill="none" xmlns="http://www.w3.org/2000/svg">
<path fill-rule="evenodd" clip-rule="evenodd" d="M8 10.4967C8 14.2451 10.7656 17.3598 14.3638 17.9075V21.3172H10.8295V23.5823H14.3638V27H16.6289V23.5823H20.1633V21.3172H16.6289V17.9076C20.2271 17.3601 22.993 14.2453 22.9934 10.4967C22.9934 6.36282 19.6306 3 15.4967 3C11.3628 3 8 6.36282 8 10.4967ZM15.4967 5.26513C12.6118 5.26513 10.2651 7.61181 10.2651 10.4967C10.2651 13.3811 12.6118 15.7282 15.4967 15.7282C18.3816 15.7282 20.7282 13.3816 20.7282 10.4967C20.7278 7.61181 18.3811 5.26513 15.4967 5.26513Z" fill="#2D2841"/>
</svg>
