<svg width="30" height="30" viewBox="0 0 30 30" fill="none" xmlns="http://www.w3.org/2000/svg">
<path d="M5.7 25.5072V25.5073C5.70045 27.0745 7.09639 28.3 8.74958 28.3H20.2508C21.904 28.3 23.3 27.0745 23.3 25.5072V10.4924C23.3 8.92551 21.9039 7.7 20.2508 7.7H18.9467H18.1527H10.8481H10.0533H8.74919C7.09605 7.7 5.7 8.92551 5.7 10.4924V25.5072ZM7.09485 10.4924C7.09485 9.70777 7.80921 9.02025 8.74958 9.02025H20.2508C21.1915 9.02025 21.9056 9.70806 21.9056 10.4924V25.5072C21.9056 26.2919 21.1911 26.9797 20.2508 26.9797H8.74958C7.80893 26.9797 7.09485 26.292 7.09485 25.5072V10.4924Z" fill="#2D2841" stroke="#2D2841" stroke-width="0.6"/>
<path d="M9.5 6.5H19.5C19.763 6.5 19.9783 6.21875 19.9783 5.875L20 1.625C20 1.28125 19.7848 1 19.5217 1H9.47826C9.21522 1 9 1.28125 9 1.625L9.02174 5.875C9.02174 6.21875 9.23696 6.5 9.5 6.5ZM9.95652 2.25H19.0435V5.5H9.95652V2.25Z" fill="#2D2841" stroke="#2D2841" stroke-width="0.6"/>
<path d="M13.0609 19.9206L15.5849 22.424C15.9834 22.8228 16.4926 23 17.0018 23C17.5111 23 18.0203 22.8006 18.4188 22.424C19.1937 21.6486 19.1937 20.3858 18.4188 19.6105L15.8948 17.0849L13.393 14.5815C12.6181 13.8062 11.3561 13.8062 10.5812 14.5815C9.80627 15.3569 9.80627 16.6197 10.5812 17.3951L13.0609 19.9206ZM17.7546 21.7815C17.3118 22.2025 16.6255 22.2025 16.1827 21.7815L13.9908 19.5883L15.5627 18.0154L17.7546 20.2086C18.1974 20.6517 18.1974 21.3606 17.7546 21.7815ZM11.2011 15.224C11.4225 15.0025 11.7103 14.8917 11.976 14.8917C12.2638 14.8917 12.5517 15.0025 12.7509 15.224L14.9428 17.4172L13.3708 18.9902L11.179 16.7969C10.7583 16.3538 10.7583 15.6449 11.2011 15.224Z" fill="#2D2841" stroke="#2D2841" stroke-width="0.7"/>
</svg>
