<svg width="30" height="30" viewBox="0 0 30 30" fill="none" xmlns="http://www.w3.org/2000/svg">
<path fill-rule="evenodd" clip-rule="evenodd" d="M26.7749 17.2317C26.4682 16.4855 26.2349 16.0122 25.8149 15.4024V5.64634C25.8149 4.73171 25.0349 4 24.0149 4C22.9949 4 22.2149 4.73171 22.2149 5.64634V14.7317C19.2749 15.2195 16.5749 16.0244 15.0749 18.6464H13.7549C12.2549 16.0854 9.85489 15.2805 6.97489 14.7927V5.70732C6.97489 4.79268 6.19489 4.06098 5.17489 4.06098C4.15489 4.06098 3.37489 4.79268 3.37489 5.70732V15.2805C2.89489 15.8902 2.59489 16.5 2.35489 17.2317C1.80605 18.6464 1.93104 20.2902 2.47489 21.7439C3.43489 24.1829 5.77489 25.8902 8.47489 25.8902C10.7549 25.8902 12.8549 25.2318 13.9949 23.2196H15.0749C16.2149 25.2318 18.3149 25.8902 20.5949 25.8902C23.2949 25.8902 25.6349 24.1829 26.5949 21.7439C27.3467 19.8902 27.0282 17.9634 26.7749 17.2317ZM15.9749 22.3659C16.8749 24.1342 18.6749 24.6707 20.6549 24.6707C23.5349 24.6707 25.8749 22.2927 25.8749 19.3659C25.8749 18.2073 25.5149 17.0488 24.7349 16.0732C24.6749 15.9512 24.6149 15.7683 24.6149 15.6463V15.5854V5.70732C24.6149 5.46341 24.3149 5.28049 24.0149 5.28049C23.7149 5.28049 23.4149 5.46341 23.4149 5.70732V15.2805C23.4149 15.5854 23.1749 15.8293 22.8749 15.8902C19.9949 16.2561 17.3549 16.9391 15.9749 19.561C15.8549 19.744 15.6749 19.8659 15.4349 19.8659H13.3949C13.1549 19.8659 12.9749 19.744 12.8549 19.561C11.4749 17.0001 9.07489 16.3171 6.25489 15.9512C5.95489 15.8902 5.71489 15.6463 5.71489 15.3415V5.70732C5.71489 5.46341 5.41489 5.28049 5.11489 5.28049C4.81489 5.28049 4.51489 5.46341 4.51489 5.70732V15.5244C4.51489 15.6463 4.51489 15.7683 4.39489 15.8902C3.55489 16.8659 3.13489 18.0854 3.13489 19.3049C3.13489 22.2927 5.53489 24.6707 8.41489 24.6707C10.3949 24.6707 12.1949 24.1342 13.0949 22.3659C13.2149 22.183 13.3949 22.061 13.6349 22.061H15.4349C15.6749 22.061 15.8549 22.183 15.9749 22.3659Z" fill="#2D2841" stroke="#2D2841" stroke-width="0.5"/>
</svg>
