<svg width="30" height="30" viewBox="0 0 30 30" fill="none" xmlns="http://www.w3.org/2000/svg">
<path fill-rule="evenodd" clip-rule="evenodd" d="M18.6471 1.67814C19.5523 1.2318 20.5506 0.999616 21.5627 1C22.6741 0.999897 23.7671 1.27984 24.7378 1.81324C25.7086 2.34665 26.5249 3.11581 27.1094 4.04769C27.5617 4.76902 27.8635 5.56932 28 6.40174H26.6743C26.5739 5.91641 26.4025 5.44592 26.1638 5.00549C25.7391 4.22201 25.1157 3.56037 24.3544 3.08504C23.5931 2.60972 22.7199 2.33692 21.8198 2.29326C20.9198 2.24959 20.0236 2.43653 19.2186 2.83587C18.4137 3.2352 17.7274 3.8333 17.2267 4.57188C17.1671 4.65965 17.0865 4.73157 16.9919 4.78128C16.8974 4.83099 16.7919 4.85695 16.6848 4.85687H15.0418V9.99937H16.6848C16.7919 9.99929 16.8974 10.0253 16.9919 10.075C17.0865 10.1247 17.1671 10.1966 17.2267 10.2844C17.7027 10.9878 18.3475 11.5645 19.1039 11.9634C19.8603 12.3622 20.7049 12.5708 21.5627 12.5706C22.4638 12.5707 23.3497 12.3407 24.1338 11.903C24.9179 11.4652 25.5736 10.8347 26.037 10.0728C26.3422 9.57103 26.557 9.0236 26.6746 8.45463L28 8.45321C27.895 9.09329 27.692 9.71657 27.3956 10.3011C26.8987 11.2811 26.156 12.1196 25.2379 12.737C24.3198 13.3545 23.2569 13.7303 22.15 13.8289C21.0431 13.9275 19.929 13.7455 18.9136 13.3003C17.8981 12.855 17.0149 12.1613 16.3479 11.285H14.3897C14.3041 11.285 14.2192 11.2685 14.1401 11.2362C14.061 11.2039 13.9891 11.1565 13.9285 11.0968C13.8679 11.0371 13.8199 10.9662 13.7871 10.8882C13.7544 10.8102 13.7376 10.7266 13.7376 10.6422V8.45463C12.4711 8.81859 11.2795 8.24073 10.2829 7.74387C9.03028 7.11864 8.28517 6.79604 7.4994 7.40993C6.26278 8.37546 6.63659 9.18644 7.85479 10.9435C8.46964 11.8291 9.13901 12.8105 9.21247 13.8562H11.7813C11.867 13.8562 11.9518 13.8728 12.031 13.9051C12.1101 13.9374 12.182 13.9847 12.2426 14.0444C12.3031 14.1041 12.3512 14.175 12.3839 14.253C12.4167 14.331 12.4335 14.4146 12.4334 14.4991V16.4294C13.5283 17.2389 14.3371 18.3674 14.7452 19.6552C15.1533 20.943 15.14 22.3247 14.7072 23.6046C14.2744 24.8845 13.444 25.9978 12.3337 26.7866C11.2235 27.5755 9.88952 28 8.5209 28C7.15228 28 5.81835 27.5755 4.70806 26.7866C3.59778 25.9978 2.76743 24.8845 2.33463 23.6046C1.90183 22.3247 1.88853 20.943 2.29661 19.6552C2.70469 18.3674 3.51346 17.2389 4.60836 16.4294V14.4991C4.60831 14.4146 4.62514 14.331 4.65789 14.253C4.69064 14.175 4.73867 14.1041 4.79924 14.0444C4.8598 13.9847 4.93171 13.9374 5.01084 13.9051C5.08998 13.8728 5.1748 13.8562 5.26045 13.8562H7.90673C7.82496 13.1871 7.3174 12.4461 6.77861 11.6692L6.7781 11.6684C5.76496 10.2077 4.37758 8.20749 6.68944 6.40174C8.168 5.24728 9.66693 5.99548 10.8702 6.59611L10.872 6.597C12.0671 7.19375 12.8827 7.54212 13.7376 7.07335V4.21406C13.7376 4.12963 13.7544 4.04602 13.7871 3.96801C13.8199 3.89 13.8679 3.81911 13.9285 3.75941C13.9891 3.69971 14.061 3.65236 14.1401 3.62008C14.2192 3.58779 14.3041 3.5712 14.3897 3.57125H16.3479C16.9546 2.77265 17.7418 2.12447 18.6471 1.67814ZM11.4184 17.2957C12.3491 17.9085 13.0552 18.8001 13.4324 19.8389C13.8096 20.8777 13.8379 22.0085 13.5131 23.0644C13.1883 24.1202 12.5276 25.0451 11.6287 25.7024C10.7297 26.3597 9.64015 26.7145 8.5209 26.7145C7.40165 26.7145 6.31207 26.3597 5.41311 25.7024C4.51415 25.0451 3.85348 24.1202 3.52867 23.0644C3.20387 22.0085 3.23216 20.8777 3.60937 19.8389C3.98658 18.8001 4.6927 17.9085 5.62344 17.2957C5.71247 17.2369 5.78542 17.1574 5.83585 17.0643C5.88628 16.9711 5.91262 16.8671 5.91254 16.7615V15.1419H11.1293V16.7615C11.1292 16.8671 11.1555 16.9711 11.2059 17.0643C11.2564 17.1574 11.3293 17.2369 11.4184 17.2957ZM21.5627 4.57446C21.0099 4.57446 20.4696 4.73853 20.01 5.04591C19.5504 5.3533 19.1922 5.79019 18.9807 6.30136C18.7692 6.81252 18.7139 7.37499 18.8217 7.91763C18.9295 8.46028 19.1957 8.95873 19.5865 9.34996C19.9774 9.74118 20.4753 10.0076 21.0174 10.1155C21.5596 10.2235 22.1215 10.1681 22.6321 9.95636C23.1428 9.74463 23.5793 9.38608 23.8863 8.92604C24.1934 8.46601 24.3573 7.92516 24.3573 7.37188C24.3565 6.63021 24.0618 5.91914 23.5379 5.3947C23.014 4.87026 22.3036 4.57527 21.5627 4.57446ZM21.5627 9.23683C21.1942 9.23683 20.834 9.12745 20.5276 8.92253C20.2212 8.7176 19.9824 8.42634 19.8414 8.08557C19.7004 7.74479 19.6635 7.36981 19.7353 7.00805C19.8072 6.64629 19.9847 6.31398 20.2452 6.05317C20.5058 5.79235 20.8378 5.61473 21.1992 5.54277C21.5606 5.47081 21.9352 5.50774 22.2756 5.6489C22.6161 5.79005 22.9071 6.02909 23.1118 6.33577C23.3165 6.64246 23.4258 7.00303 23.4258 7.37188C23.4253 7.86635 23.2288 8.34042 22.8795 8.69006C22.5302 9.0397 22.0566 9.23634 21.5627 9.23683ZM5.72606 21.3589C5.72606 21.9122 5.88996 22.4531 6.19705 22.9131C6.50413 23.3731 6.94059 23.7317 7.45125 23.9434C7.96191 24.1551 8.52383 24.2105 9.06594 24.1026C9.60805 23.9947 10.106 23.7282 10.4969 23.337C10.8877 22.9458 11.1539 22.4473 11.2617 21.9047C11.3695 21.362 11.3142 20.7996 11.1027 20.2884C10.8911 19.7773 10.5329 19.3404 10.0734 19.033C9.61378 18.7256 9.07346 18.5615 8.52073 18.5615C7.77978 18.5623 7.06942 18.8573 6.54549 19.3818C6.02156 19.9062 5.72687 20.6173 5.72606 21.3589ZM10.3838 21.3589C10.3838 21.7278 10.2746 22.0884 10.0698 22.3951C9.86512 22.7017 9.57415 22.9408 9.23371 23.0819C8.89327 23.2231 8.51866 23.26 8.15725 23.1881C7.79584 23.1161 7.46387 22.9385 7.20331 22.6777C6.94275 22.4168 6.7653 22.0845 6.69341 21.7228C6.62152 21.361 6.65842 20.986 6.79944 20.6453C6.94045 20.3045 7.17925 20.0132 7.48564 19.8083C7.79202 19.6034 8.15224 19.494 8.52073 19.494C9.0147 19.4945 9.48831 19.6911 9.83761 20.0408C10.1869 20.3904 10.3833 20.8645 10.3838 21.3589Z" fill="#2D2841"/>
<path d="M21.5627 1L21.5626 1.3H21.5627L21.5627 1ZM18.6471 1.67814L18.5144 1.40907V1.40907L18.6471 1.67814ZM24.7378 1.81324L24.5934 2.07617V2.07617L24.7378 1.81324ZM27.1094 4.04769L27.3635 3.8883V3.8883L27.1094 4.04769ZM28 6.40174V6.70174H28.3532L28.296 6.35319L28 6.40174ZM26.6743 6.40174L26.3805 6.4625L26.43 6.70174H26.6743V6.40174ZM26.1638 5.00549L26.4275 4.86252V4.86252L26.1638 5.00549ZM24.3544 3.08504L24.1955 3.33951L24.3544 3.08504ZM21.8198 2.29326L21.8344 1.99361L21.8198 2.29326ZM19.2186 2.83587L19.0853 2.56712V2.56712L19.2186 2.83587ZM17.2267 4.57188L17.4749 4.74042L17.475 4.74022L17.2267 4.57188ZM16.9919 4.78128L16.8523 4.51576V4.51576L16.9919 4.78128ZM16.6848 4.85687L16.685 4.55687H16.6848V4.85687ZM15.0418 4.85687V4.55687H14.7418V4.85687H15.0418ZM15.0418 9.99937H14.7418V10.2994H15.0418V9.99937ZM16.6848 9.99937V10.2994H16.685L16.6848 9.99937ZM16.9919 10.075L16.8523 10.3405L16.8523 10.3405L16.9919 10.075ZM17.2267 10.2844L17.4751 10.1162L17.4749 10.1158L17.2267 10.2844ZM21.5627 12.5706L21.5627 12.2706H21.5626L21.5627 12.5706ZM26.037 10.0728L26.2933 10.2287V10.2287L26.037 10.0728ZM26.6746 8.45463L26.6742 8.15463L26.4301 8.15489L26.3808 8.39395L26.6746 8.45463ZM28 8.45321L28.296 8.50176L28.3533 8.15283L27.9997 8.15321L28 8.45321ZM27.3956 10.3011L27.6632 10.4368L27.6632 10.4368L27.3956 10.3011ZM25.2379 12.737L25.0705 12.4881V12.4881L25.2379 12.737ZM16.3479 11.285L16.5866 11.1033L16.4966 10.985H16.3479V11.285ZM14.3897 11.285V10.985H14.3895L14.3897 11.285ZM14.1401 11.2362L14.2534 10.9584L14.2534 10.9584L14.1401 11.2362ZM13.9285 11.0968L13.7179 11.3105L13.7179 11.3105L13.9285 11.0968ZM13.7871 10.8882L13.5105 11.0044L13.5105 11.0044L13.7871 10.8882ZM13.7376 10.6422L14.0376 10.6424V10.6422H13.7376ZM13.7376 8.45463H14.0376V8.05627L13.6548 8.1663L13.7376 8.45463ZM10.2829 7.74387L10.1489 8.01229L10.149 8.01235L10.2829 7.74387ZM7.4994 7.40993L7.68402 7.64639L7.68409 7.64634L7.4994 7.40993ZM7.85479 10.9435L7.60825 11.1144L7.60836 11.1146L7.85479 10.9435ZM9.21247 13.8562L8.91321 13.8773L8.93281 14.1562H9.21247V13.8562ZM11.7813 13.8562V14.1562H11.7815L11.7813 13.8562ZM12.031 13.9051L11.9176 14.1828L11.9176 14.1828L12.031 13.9051ZM12.2426 14.0444L12.4532 13.8308L12.4532 13.8308L12.2426 14.0444ZM12.3839 14.253L12.1073 14.3691L12.1073 14.3691L12.3839 14.253ZM12.4334 14.4991L12.1334 14.4989V14.4991H12.4334ZM12.4334 16.4294H12.1334V16.5807L12.2551 16.6706L12.4334 16.4294ZM14.7452 19.6552L14.4592 19.7458L14.7452 19.6552ZM14.7072 23.6046L14.423 23.5085L14.7072 23.6046ZM12.3337 26.7866L12.5075 27.0312L12.3337 26.7866ZM4.70806 26.7866L4.5343 27.0312H4.5343L4.70806 26.7866ZM2.33463 23.6046L2.61882 23.5085H2.61882L2.33463 23.6046ZM2.29661 19.6552L2.5826 19.7458L2.29661 19.6552ZM4.60836 16.4294L4.78671 16.6706L4.90836 16.5807V16.4294H4.60836ZM4.60836 14.4991H4.90836V14.4989L4.60836 14.4991ZM4.79924 14.0444L4.58863 13.8308L4.58863 13.8308L4.79924 14.0444ZM5.01084 13.9051L5.12417 14.1828L5.12417 14.1828L5.01084 13.9051ZM5.26045 13.8562L5.26027 14.1562H5.26045V13.8562ZM7.90673 13.8562V14.1562H8.24562L8.20451 13.8198L7.90673 13.8562ZM6.77861 11.6692L6.53199 11.84L6.53209 11.8401L6.77861 11.6692ZM6.7781 11.6684L7.02473 11.4976L7.02461 11.4975L6.7781 11.6684ZM6.68944 6.40174L6.50481 6.16528L6.50477 6.16532L6.68944 6.40174ZM10.8702 6.59611L11.0042 6.32772L11.0042 6.32769L10.8702 6.59611ZM10.872 6.597L10.7379 6.86538L10.738 6.8654L10.872 6.597ZM13.7376 7.07335L13.8819 7.3364L14.0376 7.251V7.07335H13.7376ZM13.7376 4.21406H14.0376V4.21388L13.7376 4.21406ZM13.7871 3.96801L13.5105 3.85187L13.5105 3.85188L13.7871 3.96801ZM14.1401 3.62008L14.0268 3.3423L14.0268 3.3423L14.1401 3.62008ZM14.3897 3.57125L14.3895 3.87125H14.3897V3.57125ZM16.3479 3.57125V3.87125H16.4967L16.5868 3.75274L16.3479 3.57125ZM13.4324 19.8389L13.7144 19.7365L13.4324 19.8389ZM11.4184 17.2957L11.2531 17.5461L11.2534 17.5462L11.4184 17.2957ZM13.5131 23.0644L13.7999 23.1526L13.5131 23.0644ZM11.6287 25.7024L11.8058 25.9445L11.6287 25.7024ZM5.41311 25.7024L5.23604 25.9445H5.23604L5.41311 25.7024ZM3.52867 23.0644L3.81541 22.9762L3.52867 23.0644ZM3.60937 19.8389L3.32738 19.7365L3.60937 19.8389ZM5.62344 17.2957L5.78841 17.5462L5.78867 17.5461L5.62344 17.2957ZM5.83585 17.0643L5.57201 16.9215L5.57201 16.9215L5.83585 17.0643ZM5.91254 16.7615H5.61254L5.61254 16.7617L5.91254 16.7615ZM5.91254 15.1419V14.8419H5.61254V15.1419H5.91254ZM11.1293 15.1419H11.4293V14.8419H11.1293V15.1419ZM11.1293 16.7615L11.4293 16.7617V16.7615H11.1293ZM11.2059 17.0643L11.4698 16.9215L11.4698 16.9215L11.2059 17.0643ZM20.01 5.04591L20.1768 5.29528V5.29528L20.01 5.04591ZM21.5627 4.57446L21.563 4.27446H21.5627V4.57446ZM18.8217 7.91763L18.5274 7.9761V7.9761L18.8217 7.91763ZM19.5865 9.34996L19.7988 9.13793V9.13793L19.5865 9.34996ZM21.0174 10.1155L20.9589 10.4098L21.0174 10.1155ZM22.6321 9.95636L22.5172 9.67924H22.5172L22.6321 9.95636ZM24.3573 7.37188H24.6573V7.37156L24.3573 7.37188ZM23.5379 5.3947L23.3257 5.60673V5.60673L23.5379 5.3947ZM20.5276 8.92253L20.3608 9.17189L20.5276 8.92253ZM21.5627 9.23683V9.53683H21.563L21.5627 9.23683ZM19.8414 8.08557L19.5642 8.20027L19.8414 8.08557ZM19.7353 7.00805L19.4411 6.94958L19.7353 7.00805ZM20.2452 6.05317L20.033 5.84114V5.84114L20.2452 6.05317ZM21.1992 5.54277L21.1406 5.24855L21.1992 5.54277ZM23.4258 7.37188L23.7258 7.37218V7.37188H23.4258ZM22.8795 8.69006L22.6673 8.47803V8.47803L22.8795 8.69006ZM6.19705 22.9131L6.44656 22.7465L6.19705 22.9131ZM5.72606 21.3589L5.42606 21.3586V21.3589H5.72606ZM7.45125 23.9434L7.33635 24.2205H7.33635L7.45125 23.9434ZM9.06594 24.1026L9.12452 24.3968L9.06594 24.1026ZM10.4969 23.337L10.7091 23.549L10.7091 23.549L10.4969 23.337ZM11.2617 21.9047L11.5559 21.9632L11.2617 21.9047ZM11.1027 20.2884L11.3799 20.1737L11.1027 20.2884ZM10.0734 19.033L10.2401 18.7836L10.0734 19.033ZM8.52073 18.5615V18.2615H8.5204L8.52073 18.5615ZM10.0698 22.3951L10.3194 22.5616L10.0698 22.3951ZM10.3838 21.3589H10.6838V21.3586L10.3838 21.3589ZM9.23371 23.0819L9.34861 23.3591L9.23371 23.0819ZM8.15725 23.1881L8.21583 22.8938H8.21583L8.15725 23.1881ZM7.20331 22.6777L6.99107 22.8897H6.99107L7.20331 22.6777ZM6.69341 21.7228L6.39917 21.7812L6.69341 21.7228ZM7.48564 19.8083L7.31885 19.5589H7.31885L7.48564 19.8083ZM8.52073 19.494L8.52102 19.194H8.52073V19.494ZM9.83761 20.0408L10.0498 19.8287V19.8287L9.83761 20.0408ZM21.5628 0.7C20.5048 0.699599 19.461 0.94231 18.5144 1.40907L18.7797 1.94721C19.6435 1.5213 20.5964 1.29963 21.5626 1.3L21.5628 0.7ZM24.8823 1.55032C23.8671 0.9925 22.7244 0.699892 21.5627 0.7L21.5627 1.3C22.6238 1.2999 23.667 1.56718 24.5934 2.07617L24.8823 1.55032ZM27.3635 3.8883C26.7518 2.91281 25.8975 2.10815 24.8823 1.55032L24.5934 2.07617C25.5197 2.58514 26.2981 3.3188 26.8552 4.20708L27.3635 3.8883ZM28.296 6.35319C28.1531 5.48138 27.837 4.6434 27.3635 3.8883L26.8552 4.20708C27.2864 4.89465 27.5739 5.65727 27.704 6.45029L28.296 6.35319ZM26.6743 6.70174H28V6.10174H26.6743V6.70174ZM25.9 5.14846C26.1248 5.56307 26.2861 6.00585 26.3805 6.4625L26.9681 6.34099C26.8618 5.82697 26.6803 5.32878 26.4275 4.86252L25.9 5.14846ZM24.1955 3.33951C24.9131 3.78757 25.5002 4.41093 25.9 5.14846L26.4275 4.86252C25.9779 4.0331 25.3183 3.33317 24.5133 2.83057L24.1955 3.33951ZM21.8053 2.5929C22.6544 2.6341 23.4779 2.89144 24.1955 3.33951L24.5133 2.83057C23.7083 2.32799 22.7854 2.03975 21.8344 1.99361L21.8053 2.5929ZM19.352 3.10461C20.1109 2.72809 20.9562 2.55171 21.8053 2.5929L21.8344 1.99361C20.8833 1.94747 19.9362 2.14497 19.0853 2.56712L19.352 3.10461ZM17.475 4.74022C17.9465 4.04479 18.593 3.48112 19.352 3.10461L19.0853 2.56712C18.2343 2.98928 17.5083 3.62182 16.9784 4.40354L17.475 4.74022ZM17.1316 5.0468C17.2694 4.97432 17.3874 4.86922 17.4749 4.74042L16.9785 4.40335C16.9468 4.45008 16.9035 4.48881 16.8523 4.51576L17.1316 5.0468ZM16.6845 5.15687C16.8403 5.15699 16.9938 5.11926 17.1316 5.0468L16.8523 4.51576C16.801 4.54271 16.7436 4.55692 16.685 4.55687L16.6845 5.15687ZM15.0418 5.15687H16.6848V4.55687H15.0418V5.15687ZM15.3418 9.99937V4.85687H14.7418V9.99937H15.3418ZM16.6848 9.69937H15.0418V10.2994H16.6848V9.69937ZM17.1316 9.80944C16.9938 9.73698 16.8403 9.69925 16.6845 9.69937L16.685 10.2994C16.7436 10.2993 16.801 10.3135 16.8523 10.3405L17.1316 9.80944ZM17.4749 10.1158C17.3874 9.98703 17.2694 9.88192 17.1316 9.80944L16.8523 10.3405C16.9035 10.3674 16.9468 10.4062 16.9785 10.4529L17.4749 10.1158ZM19.2438 11.698C18.5308 11.322 17.9233 10.7786 17.4751 10.1162L16.9782 10.4525C17.4821 11.1971 18.1643 11.8071 18.964 12.2287L19.2438 11.698ZM21.5626 12.2706C20.7535 12.2708 19.9569 12.074 19.2438 11.698L18.964 12.2287C19.7637 12.6504 20.6563 12.8708 21.5628 12.8706L21.5626 12.2706ZM23.9876 11.641C23.2483 12.0537 22.4129 12.2707 21.5627 12.2706L21.5627 12.8706C22.5148 12.8707 23.451 12.6277 24.28 12.1649L23.9876 11.641ZM25.7807 9.91689C25.3444 10.6342 24.7268 11.2283 23.9876 11.641L24.28 12.1649C25.1091 11.7021 25.8028 11.0351 26.2933 10.2287L25.7807 9.91689ZM26.3808 8.39395C26.2702 8.92929 26.068 9.44451 25.7807 9.91689L26.2933 10.2287C26.6163 9.69756 26.8439 9.11792 26.9684 8.51531L26.3808 8.39395ZM27.9997 8.15321L26.6742 8.15463L26.6749 8.75463L28.0003 8.75321L27.9997 8.15321ZM27.6632 10.4368C27.9735 9.82479 28.1861 9.17213 28.296 8.50176L27.704 8.40466C27.604 9.01446 27.4105 9.60835 27.1281 10.1654L27.6632 10.4368ZM25.4053 12.986C26.3656 12.3402 27.143 11.4628 27.6632 10.4368L27.1281 10.1654C26.6545 11.0994 25.9464 11.899 25.0705 12.4881L25.4053 12.986ZM22.1766 14.1277C23.3337 14.0247 24.4451 13.6318 25.4053 12.986L25.0705 12.4881C24.1946 13.0772 23.1801 13.436 22.1234 13.5301L22.1766 14.1277ZM18.7931 13.575C19.8549 14.0406 21.0196 14.2307 22.1766 14.1277L22.1234 13.5301C21.0667 13.6242 20.0032 13.4504 19.034 13.0255L18.7931 13.575ZM16.1092 11.4667C16.8073 12.3839 17.7313 13.1095 18.7931 13.575L19.034 13.0255C18.0649 12.6006 17.2225 11.9388 16.5866 11.1033L16.1092 11.4667ZM14.3897 11.585H16.3479V10.985H14.3897V11.585ZM14.0268 11.5139C14.142 11.561 14.2654 11.5851 14.3899 11.585L14.3895 10.985C14.3427 10.985 14.2965 10.9759 14.2534 10.9584L14.0268 11.5139ZM13.7179 11.3105C13.8065 11.3979 13.9115 11.4669 14.0268 11.5139L14.2534 10.9584C14.2104 10.9408 14.1716 10.9152 14.1391 10.8832L13.7179 11.3105ZM13.5105 11.0044C13.5587 11.1191 13.6292 11.2231 13.7179 11.3105L14.1391 10.8832C14.1066 10.8512 14.0811 10.8134 14.0638 10.7721L13.5105 11.0044ZM13.4376 10.642C13.4375 10.7665 13.4624 10.8896 13.5105 11.0044L14.0638 10.7721C14.0464 10.7308 14.0376 10.6868 14.0376 10.6424L13.4376 10.642ZM13.4376 8.45463V10.6422H14.0376V8.45463H13.4376ZM10.149 8.01235C11.1285 8.5007 12.4252 9.14391 13.8205 8.74296L13.6548 8.1663C12.517 8.49326 11.4304 7.98076 10.4167 7.47539L10.149 8.01235ZM7.68409 7.64634C8.00512 7.39553 8.29945 7.33986 8.6612 7.40717C9.05309 7.48009 9.51357 7.69517 10.1489 8.01229L10.4169 7.47545C9.79959 7.16734 9.26121 6.90851 8.77095 6.81729C8.25056 6.72047 7.77945 6.81044 7.31471 7.17352L7.68409 7.64634ZM8.10133 10.7726C7.79749 10.3343 7.55315 9.96473 7.37396 9.64071C7.19408 9.31545 7.08987 9.05349 7.0524 8.83023C7.01636 8.61552 7.04138 8.43392 7.13016 8.25663C7.22267 8.07192 7.39416 7.87271 7.68402 7.64639L7.31478 7.17347C6.98633 7.42991 6.74081 7.69416 6.59368 7.98796C6.44282 8.2892 6.40556 8.6012 6.46067 8.92955C6.51435 9.24936 6.65472 9.57994 6.8489 9.93108C7.04378 10.2835 7.30298 10.6741 7.60825 11.1144L8.10133 10.7726ZM9.51173 13.8352C9.43145 12.6923 8.70493 11.642 8.10122 10.7724L7.60836 11.1146C8.23436 12.0162 8.84658 12.9287 8.91321 13.8773L9.51173 13.8352ZM11.7813 13.5562H9.21247V14.1562H11.7813V13.5562ZM12.1443 13.6273C12.029 13.5803 11.9057 13.5562 11.7812 13.5562L11.7815 14.1562C11.8283 14.1562 11.8746 14.1653 11.9176 14.1828L12.1443 13.6273ZM12.4532 13.8308C12.3645 13.7434 12.2595 13.6743 12.1443 13.6273L11.9176 14.1828C11.9607 14.2004 11.9995 14.226 12.032 14.258L12.4532 13.8308ZM12.6605 14.1369C12.6123 14.0221 12.5418 13.9181 12.4532 13.8308L12.032 14.258C12.0644 14.2901 12.09 14.3279 12.1073 14.3691L12.6605 14.1369ZM12.7334 14.4992C12.7335 14.3748 12.7087 14.2516 12.6605 14.1369L12.1073 14.3691C12.1246 14.4104 12.1335 14.4545 12.1334 14.4989L12.7334 14.4992ZM12.7334 16.4294V14.4991H12.1334V16.4294H12.7334ZM15.0312 19.5646C14.6038 18.216 13.7571 17.0349 12.6118 16.1882L12.2551 16.6706C13.2996 17.4428 14.0704 18.5189 14.4592 19.7458L15.0312 19.5646ZM14.9914 23.7007C15.4446 22.3604 15.4585 20.9132 15.0312 19.5646L14.4592 19.7458C14.848 20.9728 14.8353 22.2891 14.423 23.5085L14.9914 23.7007ZM12.5075 27.0312C13.6689 26.206 14.5381 25.041 14.9914 23.7007L14.423 23.5085C14.0106 24.728 13.2192 25.7895 12.16 26.5421L12.5075 27.0312ZM8.5209 28.3C9.95147 28.3 11.3462 27.8563 12.5075 27.0312L12.16 26.5421C11.1007 27.2947 9.82758 27.7 8.5209 27.7V28.3ZM4.5343 27.0312C5.69561 27.8563 7.09033 28.3 8.5209 28.3V27.7C7.21422 27.7 5.94108 27.2947 4.88182 26.5421L4.5343 27.0312ZM2.05044 23.7007C2.50366 25.041 3.37293 26.206 4.5343 27.0312L4.88182 26.5421C3.82262 25.7895 3.03119 24.728 2.61882 23.5085L2.05044 23.7007ZM2.01063 19.5646C1.58326 20.9132 1.5972 22.3604 2.05044 23.7007L2.61882 23.5085C2.20647 22.2891 2.1938 20.9728 2.5826 19.7458L2.01063 19.5646ZM4.43001 16.1882C3.28469 17.0349 2.43798 18.216 2.01063 19.5646L2.5826 19.7458C2.97141 18.5189 3.74223 17.4428 4.78671 16.6706L4.43001 16.1882ZM4.30836 14.4991V16.4294H4.90836V14.4991H4.30836ZM4.38128 14.1369C4.3331 14.2516 4.30828 14.3748 4.30836 14.4992L4.90836 14.4989C4.90833 14.4545 4.91718 14.4104 4.9345 14.3691L4.38128 14.1369ZM4.58863 13.8308C4.49999 13.9181 4.42946 14.0221 4.38128 14.1369L4.9345 14.3691C4.95183 14.3279 4.97736 14.2901 5.00984 14.258L4.58863 13.8308ZM4.89752 13.6273C4.78226 13.6743 4.67726 13.7434 4.58863 13.8308L5.00984 14.258C5.04234 14.226 5.08115 14.2004 5.12417 14.1828L4.89752 13.6273ZM5.26063 13.5562C5.13614 13.5562 5.01277 13.5803 4.89752 13.6273L5.12417 14.1828C5.1672 14.1653 5.21346 14.1562 5.26027 14.1562L5.26063 13.5562ZM7.90673 13.5562H5.26045V14.1562H7.90673V13.5562ZM6.53209 11.8401C6.80301 12.2308 7.056 12.5983 7.25214 12.9494C7.44915 13.3021 7.57498 13.6147 7.60894 13.8926L8.20451 13.8198C8.1567 13.4287 7.98787 13.0362 7.77596 12.6568C7.56318 12.2759 7.293 11.8845 7.02513 11.4982L6.53209 11.8401ZM6.53148 11.8392L6.53199 11.84L7.02524 11.4984L7.02473 11.4976L6.53148 11.8392ZM6.50477 6.16532C5.89397 6.6424 5.50846 7.14754 5.30563 7.67302C5.10229 8.19982 5.09136 8.72428 5.1929 9.2242C5.39198 10.2043 6.03352 11.1213 6.53159 11.8394L7.02461 11.4975C6.50954 10.7549 5.95082 9.94137 5.78089 9.10477C5.69793 8.69631 5.7103 8.29085 5.86538 7.88908C6.02096 7.486 6.32898 7.06395 6.87411 6.63817L6.50477 6.16532ZM11.0042 6.32769C10.41 6.03111 9.6942 5.67128 8.93217 5.54481C8.1516 5.41528 7.31941 5.52925 6.50481 6.16528L6.87407 6.6382C7.53804 6.11977 8.19459 6.03062 8.83394 6.13672C9.49183 6.2459 10.1271 6.56048 10.7362 6.86452L11.0042 6.32769ZM11.006 6.32861L11.0042 6.32772L10.7361 6.86449L10.7379 6.86538L11.006 6.32861ZM13.5934 6.8103C13.2407 7.0037 12.8999 7.03204 12.498 6.942C12.0791 6.84816 11.6082 6.6293 11.006 6.3286L10.738 6.8654C11.3309 7.16145 11.8654 7.41515 12.3668 7.52749C12.8852 7.64363 13.3796 7.61178 13.8819 7.3364L13.5934 6.8103ZM13.4376 4.21406V7.07335H14.0376V4.21406H13.4376ZM13.5105 3.85188C13.4624 3.96664 13.4375 4.08979 13.4376 4.21424L14.0376 4.21388C14.0376 4.16948 14.0464 4.1254 14.0638 4.08414L13.5105 3.85188ZM13.7179 3.54577C13.6292 3.63314 13.5587 3.73713 13.5105 3.85187L14.0638 4.08414C14.0811 4.04287 14.1066 4.00508 14.1391 3.97306L13.7179 3.54577ZM14.0268 3.3423C13.9115 3.38933 13.8065 3.45839 13.7179 3.54577L14.1391 3.97306C14.1716 3.94103 14.2104 3.9154 14.2534 3.89785L14.0268 3.3423ZM14.3899 3.27125C14.2654 3.27118 14.142 3.29529 14.0268 3.3423L14.2534 3.89785C14.2965 3.8803 14.3427 3.87122 14.3895 3.87125L14.3899 3.27125ZM16.3479 3.27125H14.3897V3.87125H16.3479V3.27125ZM18.5144 1.40907C17.5677 1.87583 16.7441 2.55389 16.109 3.38976L16.5868 3.75274C17.1652 2.99142 17.916 2.37311 18.7797 1.94721L18.5144 1.40907ZM13.7144 19.7365C13.315 18.6365 12.5675 17.6931 11.5833 17.0451L11.2534 17.5462C12.1307 18.1239 12.7955 18.9638 13.1504 19.9413L13.7144 19.7365ZM13.7999 23.1526C14.1439 22.0343 14.1139 20.8366 13.7144 19.7365L13.1504 19.9413C13.5054 20.9188 13.532 21.9827 13.2264 22.9762L13.7999 23.1526ZM11.8058 25.9445C12.7564 25.2494 13.4559 24.2708 13.7999 23.1526L13.2264 22.9762C12.9208 23.9697 12.2988 24.8407 11.4516 25.4602L11.8058 25.9445ZM8.5209 27.0145C9.70347 27.0145 10.8551 26.6396 11.8058 25.9445L11.4516 25.4602C10.6043 26.0797 9.57683 26.4145 8.5209 26.4145V27.0145ZM5.23604 25.9445C6.18668 26.6396 7.33833 27.0145 8.5209 27.0145V26.4145C7.46496 26.4145 6.43747 26.0797 5.59018 25.4602L5.23604 25.9445ZM3.24193 23.1526C3.58591 24.2708 4.28535 25.2494 5.23604 25.9445L5.59018 25.4602C4.74296 24.8407 4.12104 23.9697 3.81541 22.9762L3.24193 23.1526ZM3.32738 19.7365C2.92792 20.8366 2.89794 22.0343 3.24193 23.1526L3.81541 22.9762C3.5098 21.9827 3.5364 20.9188 3.89135 19.9413L3.32738 19.7365ZM5.45846 17.0451C4.47428 17.6931 3.72683 18.6365 3.32738 19.7365L3.89135 19.9413C4.24632 18.9638 4.91112 18.1239 5.78841 17.5462L5.45846 17.0451ZM5.57201 16.9215C5.54526 16.9709 5.5063 17.0135 5.45821 17.0453L5.78867 17.5461C5.91863 17.4603 6.02559 17.344 6.09969 17.207L5.57201 16.9215ZM5.61254 16.7617C5.61258 16.8172 5.59875 16.8721 5.57201 16.9215L6.09969 17.207C6.17381 17.0701 6.21266 16.9169 6.21254 16.7612L5.61254 16.7617ZM5.61254 15.1419V16.7615H6.21254V15.1419H5.61254ZM11.1293 14.8419H5.91254V15.4419H11.1293V14.8419ZM11.4293 16.7615V15.1419H10.8293V16.7615H11.4293ZM11.4698 16.9215C11.443 16.8721 11.4292 16.8172 11.4293 16.7617L10.8293 16.7612C10.8291 16.9169 10.868 17.0701 10.9421 17.207L11.4698 16.9215ZM11.5836 17.0453C11.5355 17.0135 11.4965 16.9709 11.4698 16.9215L10.9421 17.207C11.0162 17.344 11.1232 17.4603 11.2531 17.5461L11.5836 17.0453ZM20.1768 5.29528C20.587 5.0209 21.0693 4.87446 21.5627 4.87446V4.27446C20.9505 4.27446 20.3522 4.45616 19.8432 4.79655L20.1768 5.29528ZM19.2579 6.41606C19.4468 5.95969 19.7666 5.56966 20.1768 5.29528L19.8432 4.79655C19.3343 5.13693 18.9377 5.6207 18.7035 6.18665L19.2579 6.41606ZM19.1159 7.85916C19.0197 7.37465 19.0691 6.87244 19.2579 6.41606L18.7035 6.18665C18.4693 6.75259 18.4081 7.37532 18.5274 7.9761L19.1159 7.85916ZM19.7988 9.13793C19.4499 8.78868 19.2122 8.34367 19.1159 7.85916L18.5274 7.9761C18.6468 8.57689 18.9415 9.12878 19.3743 9.56198L19.7988 9.13793ZM21.076 9.82133C20.5922 9.72498 20.1477 9.48718 19.7988 9.13793L19.3743 9.56198C19.8071 9.99519 20.3585 10.2902 20.9589 10.4098L21.076 9.82133ZM22.5172 9.67924C22.0614 9.86822 21.5599 9.91767 21.076 9.82133L20.9589 10.4098C21.5592 10.5293 22.1815 10.468 22.747 10.2335L22.5172 9.67924ZM23.6368 8.75949C23.3627 9.17019 22.973 9.49025 22.5172 9.67924L22.747 10.2335C23.3125 9.99901 23.7958 9.60197 24.1359 9.0926L23.6368 8.75949ZM24.0573 7.37188C24.0573 7.86589 23.911 8.34878 23.6368 8.75949L24.1359 9.0926C24.4759 8.58324 24.6573 7.98443 24.6573 7.37188H24.0573ZM23.3257 5.60673C23.7934 6.07497 24.0566 6.70989 24.0573 7.37221L24.6573 7.37156C24.6564 6.55053 24.3302 5.76332 23.7501 5.18267L23.3257 5.60673ZM21.5623 4.87446C22.2237 4.87518 22.8579 5.1385 23.3257 5.60673L23.7501 5.18267C23.17 4.60202 22.3835 4.27536 21.563 4.27446L21.5623 4.87446ZM20.3608 9.17189C20.7165 9.40982 21.1348 9.53683 21.5627 9.53683V8.93683C21.2536 8.93683 20.9514 8.84508 20.6944 8.67316L20.3608 9.17189ZM19.5642 8.20027C19.7279 8.59583 20.0051 8.93397 20.3608 9.17189L20.6944 8.67316C20.4373 8.50124 20.2369 8.25685 20.1186 7.97086L19.5642 8.20027ZM19.4411 6.94958C19.3577 7.36948 19.4005 7.80472 19.5642 8.20027L20.1186 7.97086C20.0002 7.68486 19.9693 7.37015 20.0296 7.06652L19.4411 6.94958ZM20.033 5.84114C19.7305 6.14393 19.5245 6.52967 19.4411 6.94958L20.0296 7.06652C20.0899 6.7629 20.2389 6.48404 20.4575 6.26519L20.033 5.84114ZM21.1406 5.24855C20.7209 5.3321 20.3355 5.53834 20.033 5.84114L20.4575 6.26519C20.6761 6.04635 20.9546 5.89736 21.2578 5.837L21.1406 5.24855ZM22.3905 5.37177C21.9953 5.20788 21.5603 5.16499 21.1406 5.24855L21.2578 5.837C21.5609 5.77663 21.8752 5.80761 22.1607 5.92602L22.3905 5.37177ZM23.3613 6.16922C23.1236 5.8132 22.7858 5.53567 22.3905 5.37177L22.1607 5.92602C22.4463 6.04443 22.6905 6.24497 22.8623 6.50233L23.3613 6.16922ZM23.7258 7.37188C23.7258 6.94376 23.5989 6.52523 23.3613 6.16922L22.8623 6.50233C23.0341 6.75969 23.1258 7.0623 23.1258 7.37188H23.7258ZM23.0918 8.90209C23.4972 8.49624 23.7252 7.94601 23.7258 7.37218L23.1258 7.37159C23.1254 7.78668 22.9604 8.1846 22.6673 8.47803L23.0918 8.90209ZM21.563 9.53683C22.1365 9.53626 22.6863 9.30795 23.0918 8.90209L22.6673 8.47803C22.3742 8.77145 21.9768 8.93642 21.5624 8.93683L21.563 9.53683ZM6.44656 22.7465C6.17241 22.3358 6.02606 21.853 6.02606 21.3589H5.42606C5.42606 21.9715 5.60752 22.5703 5.94753 23.0797L6.44656 22.7465ZM7.56615 23.6663C7.11035 23.4773 6.72072 23.1572 6.44656 22.7465L5.94753 23.0797C6.28754 23.589 6.77084 23.9861 7.33635 24.2205L7.56615 23.6663ZM9.00736 23.8084C8.5235 23.9047 8.02196 23.8553 7.56615 23.6663L7.33635 24.2205C7.90186 24.455 8.52416 24.5164 9.12452 24.3968L9.00736 23.8084ZM10.2846 23.125C9.93571 23.4742 9.49122 23.712 9.00736 23.8084L9.12452 24.3968C9.72488 24.2773 10.2763 23.9822 10.7091 23.549L10.2846 23.125ZM10.9674 21.8462C10.8712 22.3307 10.6335 22.7757 10.2846 23.125L10.7091 23.549C11.1419 23.1158 11.4366 22.5639 11.5559 21.9632L10.9674 21.8462ZM10.8255 20.4031C11.0143 20.8595 11.0637 21.3617 10.9674 21.8462L11.5559 21.9632C11.6753 21.3624 11.6141 20.7397 11.3799 20.1737L10.8255 20.4031ZM9.90657 19.2823C10.3168 19.5567 10.6366 19.9467 10.8255 20.4031L11.3799 20.1737C11.1457 19.6078 10.7491 19.124 10.2401 18.7836L9.90657 19.2823ZM8.52073 18.8615C9.01406 18.8615 9.49634 19.008 9.90658 19.2823L10.2401 18.7836C9.73122 18.4432 9.13286 18.2615 8.52073 18.2615V18.8615ZM6.75773 19.5938C7.22549 19.1256 7.85966 18.8622 8.52105 18.8615L8.5204 18.2615C7.69991 18.2624 6.91334 18.5891 6.33325 19.1697L6.75773 19.5938ZM6.02606 21.3593C6.02678 20.697 6.28995 20.062 6.75773 19.5938L6.33325 19.1697C5.75318 19.7504 5.42695 20.5376 5.42606 21.3586L6.02606 21.3593ZM10.3194 22.5616C10.557 22.2056 10.6838 21.7871 10.6838 21.3589H10.0838C10.0838 21.6685 9.99212 21.9711 9.82033 22.2285L10.3194 22.5616ZM9.34861 23.3591C9.7439 23.1952 10.0817 22.9176 10.3194 22.5616L9.82033 22.2285C9.64854 22.4859 9.40439 22.6864 9.11881 22.8048L9.34861 23.3591ZM8.09867 23.4823C8.51833 23.5658 8.95332 23.5229 9.34861 23.3591L9.11881 22.8048C8.83322 22.9232 8.51899 22.9542 8.21583 22.8938L8.09867 23.4823ZM6.99107 22.8897C7.29357 23.1925 7.67901 23.3987 8.09867 23.4823L8.21583 22.8938C7.91268 22.8335 7.63417 22.6845 7.41554 22.4656L6.99107 22.8897ZM6.39917 21.7812C6.48261 22.2011 6.68858 22.5869 6.99107 22.8897L7.41554 22.4656C7.19692 22.2468 7.048 21.9679 6.98766 21.6643L6.39917 21.7812ZM6.52223 20.5306C6.35855 20.9261 6.31573 21.3613 6.39917 21.7812L6.98766 21.6643C6.92732 21.3607 6.95829 21.046 7.07664 20.76L6.52223 20.5306ZM7.31885 19.5589C6.96313 19.7969 6.68592 20.135 6.52223 20.5306L7.07664 20.76C7.19498 20.474 7.39537 20.2296 7.65242 20.0577L7.31885 19.5589ZM8.52073 19.194C8.09284 19.194 7.67458 19.321 7.31885 19.5589L7.65242 20.0577C7.90947 19.8857 8.21164 19.794 8.52073 19.794V19.194ZM10.0498 19.8287C9.64438 19.4229 9.09456 19.1946 8.52102 19.194L8.52043 19.794C8.93485 19.7944 9.33224 19.9594 9.62537 20.2528L10.0498 19.8287ZM10.6838 21.3586C10.6833 20.7848 10.4553 20.2346 10.0498 19.8287L9.62537 20.2528C9.91851 20.5462 10.0834 20.9441 10.0838 21.3592L10.6838 21.3586Z" fill="#2D2841"/>
</svg>
