<svg width="30" height="30" viewBox="0 0 30 30" fill="none" xmlns="http://www.w3.org/2000/svg">
<path fill-rule="evenodd" clip-rule="evenodd" d="M22.7651 11.8846H24.9969V5H18.1128V7.23179H21.1864L16.7576 11.6606C15.497 10.73 13.9786 10.2274 12.3828 10.2274C10.4099 10.2274 8.55479 10.996 7.15993 12.3909C4.28002 15.2708 4.28002 19.9567 7.15993 22.8366C8.55524 24.2319 10.4099 25.0001 12.3828 25.0001C14.3557 25.0001 16.2107 24.2319 17.6056 22.8366C20.2174 20.2248 20.4605 16.1276 18.335 13.2393L22.7651 8.8092V11.8846ZM12.3828 12.4596C11.0062 12.4596 9.71175 12.9957 8.73825 13.9692C6.72874 15.9787 6.72874 19.2487 8.73825 21.2587C9.71175 22.2322 11.0062 22.7683 12.3828 22.7683C13.7593 22.7683 15.0538 22.2322 16.0273 21.2587C18.0368 19.2492 18.0368 15.9792 16.0273 13.9692C15.0542 12.9962 13.7598 12.4596 12.3828 12.4596Z" fill="#2D2841"/>
</svg>
