<svg width="30" height="30" viewBox="0 0 30 30" fill="none" xmlns="http://www.w3.org/2000/svg">
<path d="M26.2099 5.50537L24.9099 4.19224C24.7879 4.06907 24.6226 4 24.4502 4H4.95019C4.77781 4 4.61246 4.06907 4.49052 4.19224L3.19051 5.50537C2.9365 5.7617 2.9365 6.17743 3.19051 6.43376L4.0311 7.28283L3.19077 8.13164C2.93676 8.38796 2.93676 8.8037 3.19077 9.06002L4.0311 9.90909L3.19077 10.7579C3.06883 10.8811 3.0002 11.0481 3.0002 11.2222C3.0002 11.3963 3.06884 11.5634 3.19051 11.6865L4.0311 12.5354L3.19077 13.3842C2.93676 13.6405 2.93676 14.0562 3.19077 14.3125L4.0311 15.1616L3.19077 16.0107C2.93676 16.267 2.93676 16.6827 3.19077 16.9391L4.0311 17.7879L3.19077 18.6364C3.06883 18.7596 3.0002 18.9266 3.0002 19.101C3.0002 19.2754 3.06884 19.4422 3.19051 19.5653L4.0311 20.4141L3.19077 21.2632C2.93676 21.5195 2.93676 21.9353 3.19077 22.1916L4.0311 23.0404L3.19077 23.8892C2.93676 24.1455 2.93676 24.5613 3.19077 24.8176L4.49077 26.1307C4.61271 26.2539 4.77782 26.323 4.95046 26.323H24.4505C24.6228 26.323 24.7882 26.2539 24.9101 26.1307L26.2101 24.8176C26.4642 24.5613 26.4642 24.1455 26.2101 23.8892L25.3693 23.0404L26.2096 22.1916C26.4636 21.9353 26.4636 21.5195 26.2096 21.2632L25.3693 20.4141L26.2096 19.5653C26.3316 19.4422 26.4002 19.2751 26.4002 19.101C26.4002 18.9269 26.3316 18.7599 26.2099 18.6367L25.3693 17.7879L26.2096 16.9391C26.4636 16.6827 26.4636 16.267 26.2096 16.0107L25.3693 15.1616L26.2096 14.3125C26.4636 14.0562 26.4636 13.6405 26.2096 13.3842L25.3693 12.5354L26.2096 11.6868C26.3316 11.5636 26.4002 11.3966 26.4002 11.2222C26.4002 11.0478 26.3316 10.8811 26.2099 10.7579L25.3693 9.90909L26.2096 9.06002C26.4636 8.8037 26.4636 8.38796 26.2096 8.13164L25.3693 7.28283L26.2096 6.43402C26.4636 6.1777 26.4636 5.7617 26.2099 5.50537ZM23.9905 7.74715L24.8311 8.59596L23.9908 9.44503C23.7368 9.70135 23.7368 10.1171 23.9908 10.3734L24.8308 11.2222L23.9908 12.0708C23.8688 12.1939 23.8002 12.361 23.8002 12.5354C23.8002 12.7097 23.8688 12.8765 23.9905 12.9997L24.8311 13.8485L23.9908 14.6976C23.7368 14.9539 23.7368 15.3696 23.9908 15.6259L24.8311 16.4747L23.9908 17.3236C23.8688 17.447 23.8002 17.6138 23.8002 17.7879C23.8002 17.962 23.8688 18.129 23.9905 18.2522L24.8311 19.101L23.9908 19.9498C23.7368 20.2061 23.7368 20.6219 23.9908 20.8782L24.8311 21.7273L23.9908 22.5761C23.7368 22.8324 23.7368 23.2481 23.9908 23.5045L24.8311 24.3535L24.1811 25.0101H5.2193L4.56929 24.3535L5.40962 23.5047C5.66364 23.2484 5.66364 22.8327 5.40962 22.5763L4.56929 21.7273L5.40962 20.8782C5.66364 20.6219 5.66364 20.2061 5.40962 19.9498L4.56956 19.101L5.40962 18.2525C5.53155 18.1293 5.60019 17.9623 5.60019 17.7879C5.60019 17.6135 5.53155 17.4467 5.40987 17.3236L4.56929 16.4747L5.40962 15.6257C5.66364 15.3694 5.66364 14.9536 5.40962 14.6973L4.56929 13.8485L5.40962 12.9997C5.53155 12.8762 5.60019 12.7095 5.60019 12.5354C5.60019 12.3612 5.53155 12.1942 5.40987 12.071L4.56929 11.2222L5.40962 10.3734C5.66364 10.1171 5.66364 9.70135 5.40962 9.44503L4.56929 8.59596L5.40962 7.74715C5.66364 7.49083 5.66364 7.07509 5.40962 6.81877L4.56929 5.9697L5.2193 5.31313H24.1811L24.8311 5.9697L23.9908 6.81851C23.7368 7.07483 23.7368 7.49083 23.9905 7.74715Z" fill="#2D2841" stroke="#2D2841" stroke-width="0.6"/>
<path d="M14.7002 8.03027C10.8404 8.03027 7.7002 11.1705 7.7002 15.0303C7.7002 18.8901 10.8404 22.0303 14.7002 22.0303C18.56 22.0303 21.7002 18.8901 21.7002 15.0303C21.7002 11.1705 18.56 8.03027 14.7002 8.03027ZM14.7002 20.8636C11.4837 20.8636 8.86686 18.2468 8.86686 15.0303C8.86686 11.8138 11.4837 9.19694 14.7002 9.19694C17.9167 9.19694 20.5335 11.8138 20.5335 15.0303C20.5335 18.2468 17.9167 20.8636 14.7002 20.8636Z" fill="#2D2841" stroke="#2D2841" stroke-width="0.6"/>
</svg>
