<svg width="30" height="30" viewBox="0 0 30 30" fill="none" xmlns="http://www.w3.org/2000/svg">
<path fill-rule="evenodd" clip-rule="evenodd" d="M19.7193 3.16421V1H26.3959V7.67615H24.2316V4.69474L19.9331 8.9933C20.8079 10.181 21.326 11.6475 21.326 13.2326C21.326 15.2072 20.5222 16.9978 19.2254 18.2946L19.2245 18.2938C18.1689 19.349 16.7869 20.0778 15.2448 20.3124V23.5699H18.6218V25.7342H15.2448V28.9999H14.1627H13.0806V25.7342H9.70353V23.5699H13.0806V20.3124C9.6425 19.7891 7 16.8133 7 13.2315C7 11.2569 7.80336 9.46621 9.10015 8.16941L9.10077 8.17003C10.3976 6.87324 12.1882 6.06988 14.1629 6.06988C15.7479 6.06988 17.2144 6.58756 18.4021 7.46277L22.7007 3.16421H19.7193ZM10.6298 9.69907C9.72474 10.6041 9.16421 11.8538 9.16421 13.2319C9.16421 15.9883 11.4068 18.2304 14.1627 18.2304C15.5408 18.2304 16.7905 17.6699 17.6955 16.7644L17.6964 16.7652C18.6013 15.8601 19.1618 14.6106 19.1618 13.2326C19.1618 10.4762 16.9192 8.23409 14.1633 8.23409C12.7851 8.23409 11.5355 8.79462 10.6304 9.69969L10.6298 9.69907Z" fill="#2D2841"/>
</svg>
