<svg width="30" height="32" viewBox="0 0 30 32" fill="none" xmlns="http://www.w3.org/2000/svg">
<mask id="path-1-outside-1_1520_35490" maskUnits="userSpaceOnUse" x="7" y="0" width="18" height="32" fill="black">
<rect fill="white" x="7" width="18" height="32"/>
<path fill-rule="evenodd" clip-rule="evenodd" d="M14.5799 10.4636C14.0223 9.90601 13.2934 9.51966 12.4849 9.38424V6.47664C12.4849 5.31758 12.9588 4.26209 13.7236 3.49735C14.4883 2.73262 15.5438 2.25863 16.7029 2.25863C17.8619 2.25863 18.9174 2.73262 19.6822 3.49735C20.4469 4.26209 20.9209 5.31758 20.9209 6.47664V13.5544H20.9846C20.5106 13.8213 20.1004 14.4188 19.7817 15.2432C19.3595 16.3426 19.1006 17.8521 19.1006 19.517C19.1006 21.1819 19.3595 22.6954 19.7817 23.7908C20.2238 24.9339 20.8452 25.6389 21.5502 25.6389C22.2552 25.6389 22.8805 24.9339 23.3186 23.7908C23.7369 22.6915 23.9997 21.1819 23.9997 19.517C23.9997 17.8521 23.7408 16.3386 23.3186 15.2432C23 14.4188 22.5858 13.8213 22.1158 13.5544H22.1795V6.47664C22.1795 4.97106 21.5621 3.60091 20.5704 2.60914C19.5786 1.61737 18.2084 1 16.7029 1C15.1973 1 13.8271 1.61737 12.8354 2.60914C11.8436 3.60091 11.2262 4.97106 11.2262 6.47664V9.38424C10.4137 9.51568 9.68879 9.90601 9.13117 10.4636C8.43415 11.1607 8 12.1285 8 13.188V29.586C8 29.9764 8.15931 30.3269 8.41422 30.5858C8.67312 30.8407 9.02761 31 9.41396 31H14.2931C14.6835 31 15.038 30.8407 15.2929 30.5858C15.5518 30.3269 15.7111 29.9764 15.7111 29.586V13.188C15.7111 12.1285 15.277 11.1607 14.5799 10.4636ZM14.5287 29.6657H9.19037V13.4304C9.19037 12.6298 9.27456 12.1474 9.8043 11.6176C10.3301 11.0879 10.9582 10.6969 11.7588 10.6969C12.5594 10.6969 13.385 11.0879 13.9148 11.6176C14.4445 12.1434 14.5287 12.6298 14.5287 13.4304V29.6657ZM21.5769 24.1512C22.3802 24.1512 23.0314 22.0891 23.0314 19.5452C23.0314 17.0014 22.3802 14.9392 21.5769 14.9392C20.7736 14.9392 20.1224 17.0014 20.1224 19.5452C20.1224 22.0891 20.7736 24.1512 21.5769 24.1512Z"/>
</mask>
<path fill-rule="evenodd" clip-rule="evenodd" d="M14.5799 10.4636C14.0223 9.90601 13.2934 9.51966 12.4849 9.38424V6.47664C12.4849 5.31758 12.9588 4.26209 13.7236 3.49735C14.4883 2.73262 15.5438 2.25863 16.7029 2.25863C17.8619 2.25863 18.9174 2.73262 19.6822 3.49735C20.4469 4.26209 20.9209 5.31758 20.9209 6.47664V13.5544H20.9846C20.5106 13.8213 20.1004 14.4188 19.7817 15.2432C19.3595 16.3426 19.1006 17.8521 19.1006 19.517C19.1006 21.1819 19.3595 22.6954 19.7817 23.7908C20.2238 24.9339 20.8452 25.6389 21.5502 25.6389C22.2552 25.6389 22.8805 24.9339 23.3186 23.7908C23.7369 22.6915 23.9997 21.1819 23.9997 19.517C23.9997 17.8521 23.7408 16.3386 23.3186 15.2432C23 14.4188 22.5858 13.8213 22.1158 13.5544H22.1795V6.47664C22.1795 4.97106 21.5621 3.60091 20.5704 2.60914C19.5786 1.61737 18.2084 1 16.7029 1C15.1973 1 13.8271 1.61737 12.8354 2.60914C11.8436 3.60091 11.2262 4.97106 11.2262 6.47664V9.38424C10.4137 9.51568 9.68879 9.90601 9.13117 10.4636C8.43415 11.1607 8 12.1285 8 13.188V29.586C8 29.9764 8.15931 30.3269 8.41422 30.5858C8.67312 30.8407 9.02761 31 9.41396 31H14.2931C14.6835 31 15.038 30.8407 15.2929 30.5858C15.5518 30.3269 15.7111 29.9764 15.7111 29.586V13.188C15.7111 12.1285 15.277 11.1607 14.5799 10.4636ZM14.5287 29.6657H9.19037V13.4304C9.19037 12.6298 9.27456 12.1474 9.8043 11.6176C10.3301 11.0879 10.9582 10.6969 11.7588 10.6969C12.5594 10.6969 13.385 11.0879 13.9148 11.6176C14.4445 12.1434 14.5287 12.6298 14.5287 13.4304V29.6657ZM21.5769 24.1512C22.3802 24.1512 23.0314 22.0891 23.0314 19.5452C23.0314 17.0014 22.3802 14.9392 21.5769 14.9392C20.7736 14.9392 20.1224 17.0014 20.1224 19.5452C20.1224 22.0891 20.7736 24.1512 21.5769 24.1512Z" fill="#2D2841"/>
<path d="M12.4849 9.38424H12.0849V9.72282L12.4188 9.77874L12.4849 9.38424ZM14.5799 10.4636L14.8628 10.1808L14.5799 10.4636ZM13.7236 3.49735L13.4407 3.21451L13.7236 3.49735ZM19.6822 3.49735L19.965 3.21451V3.21451L19.6822 3.49735ZM20.9209 13.5544H20.5209V13.9544H20.9209V13.5544ZM20.9846 13.5544L21.1808 13.903L22.5104 13.1544H20.9846V13.5544ZM19.7817 15.2432L19.4086 15.099L19.4083 15.0998L19.7817 15.2432ZM19.7817 23.7908L19.4085 23.9346L19.4087 23.9351L19.7817 23.7908ZM23.3186 23.7908L23.6922 23.9339L23.6925 23.933L23.3186 23.7908ZM23.3186 15.2432L23.6919 15.0994L23.6918 15.099L23.3186 15.2432ZM22.1158 13.5544V13.1544H20.6012L21.9183 13.9023L22.1158 13.5544ZM22.1795 13.5544V13.9544H22.5795V13.5544H22.1795ZM12.8354 2.60914L13.1182 2.89198L12.8354 2.60914ZM11.2262 9.38424L11.2901 9.77911L11.6262 9.72473V9.38424H11.2262ZM9.13117 10.4636L9.41402 10.7465L9.13117 10.4636ZM8.41422 30.5858L8.12916 30.8665L8.13358 30.8708L8.41422 30.5858ZM15.2929 30.5858L15.01 30.3029L15.2929 30.5858ZM9.19037 29.6657H8.79037V30.0657H9.19037V29.6657ZM14.5287 29.6657V30.0657H14.9287V29.6657H14.5287ZM9.8043 11.6176L10.0871 11.9005L10.0882 11.8994L9.8043 11.6176ZM13.9148 11.6176L13.6319 11.9005L13.633 11.9015L13.9148 11.6176ZM12.4188 9.77874C13.1435 9.90013 13.7971 10.2465 14.2971 10.7465L14.8628 10.1808C14.2475 9.56552 13.4433 9.13919 12.5509 8.98973L12.4188 9.77874ZM12.0849 6.47664V9.38424H12.8849V6.47664H12.0849ZM13.4407 3.21451C12.6046 4.05066 12.0849 5.2065 12.0849 6.47664H12.8849C12.8849 5.42866 13.3131 4.47352 14.0064 3.7802L13.4407 3.21451ZM16.7029 1.85863C15.4327 1.85863 14.2769 2.37836 13.4407 3.21451L14.0064 3.7802C14.6998 3.08687 15.6549 2.65863 16.7029 2.65863V1.85863ZM19.965 3.21451C19.1289 2.37836 17.973 1.85863 16.7029 1.85863V2.65863C17.7508 2.65863 18.706 3.08687 19.3993 3.7802L19.965 3.21451ZM21.3209 6.47664C21.3209 5.2065 20.8011 4.05066 19.965 3.21451L19.3993 3.7802C20.0926 4.47352 20.5209 5.42866 20.5209 6.47664H21.3209ZM21.3209 13.5544V6.47664H20.5209V13.5544H21.3209ZM20.9846 13.1544H20.9209V13.9544H20.9846V13.1544ZM20.1548 15.3874C20.463 14.5901 20.8298 14.1007 21.1808 13.903L20.7884 13.2059C20.1915 13.542 19.7378 14.2474 19.4086 15.099L20.1548 15.3874ZM19.5006 19.517C19.5006 17.8884 19.7546 16.4296 20.1551 15.3867L19.4083 15.0998C18.9645 16.2555 18.7006 17.8159 18.7006 19.517H19.5006ZM20.155 23.6469C19.7547 22.6084 19.5006 21.1459 19.5006 19.517H18.7006C18.7006 21.2179 18.9644 22.7825 19.4085 23.9346L20.155 23.6469ZM21.5502 25.2389C21.3424 25.2389 21.1094 25.1373 20.8594 24.8702C20.6077 24.6013 20.365 24.1899 20.1548 23.6465L19.4087 23.9351C19.6406 24.5348 19.9296 25.0475 20.2754 25.4169C20.6228 25.788 21.053 26.0389 21.5502 26.0389V25.2389ZM22.9451 23.6476C22.7372 24.1902 22.4946 24.6012 22.2427 24.8699C21.9923 25.137 21.7583 25.2389 21.5502 25.2389V26.0389C22.0471 26.0389 22.4782 25.7883 22.8263 25.4171C23.1728 25.0475 23.462 24.5345 23.6922 23.9339L22.9451 23.6476ZM23.5997 19.517C23.5997 21.1447 23.3421 22.6042 22.9448 23.6485L23.6925 23.933C24.1316 22.7787 24.3997 21.2191 24.3997 19.517H23.5997ZM22.9454 15.3871C23.3457 16.4256 23.5997 17.8881 23.5997 19.517H24.3997C24.3997 17.8161 24.136 16.2515 23.6919 15.0994L22.9454 15.3871ZM21.9183 13.9023C22.2672 14.1004 22.638 14.5916 22.9455 15.3874L23.6918 15.099C23.362 14.2459 22.9044 13.5422 22.3133 13.2066L21.9183 13.9023ZM22.1795 13.1544H22.1158V13.9544H22.1795V13.1544ZM21.7795 6.47664V13.5544H22.5795V6.47664H21.7795ZM20.2875 2.89198C21.2081 3.81255 21.7795 5.08243 21.7795 6.47664H22.5795C22.5795 4.85969 21.9162 3.38926 20.8532 2.3263L20.2875 2.89198ZM16.7029 1.4C18.0971 1.4 19.367 1.97141 20.2875 2.89198L20.8532 2.3263C19.7903 1.26333 18.3198 0.6 16.7029 0.6V1.4ZM13.1182 2.89198C14.0388 1.97141 15.3087 1.4 16.7029 1.4V0.6C15.0859 0.6 13.6155 1.26333 12.5525 2.3263L13.1182 2.89198ZM11.6262 6.47664C11.6262 5.08243 12.1976 3.81256 13.1182 2.89198L12.5525 2.3263C11.4896 3.38926 10.8262 4.85969 10.8262 6.47664H11.6262ZM11.6262 9.38424V6.47664H10.8262V9.38424H11.6262ZM9.41402 10.7465C9.91526 10.2452 10.5646 9.89646 11.2901 9.77911L11.1624 8.98937C10.2627 9.1349 9.46233 9.56679 8.84833 10.1808L9.41402 10.7465ZM8.4 13.188C8.4 12.2393 8.78859 11.3719 9.41402 10.7465L8.84833 10.1808C8.0797 10.9494 7.6 12.0177 7.6 13.188H8.4ZM8.4 29.586V13.188H7.6V29.586H8.4ZM8.69925 30.3051C8.51274 30.1157 8.4 29.8641 8.4 29.586H7.6C7.6 30.0887 7.80588 30.5381 8.1292 30.8664L8.69925 30.3051ZM9.41396 30.6C9.13932 30.6 8.88384 30.4868 8.69487 30.3008L8.13358 30.8708C8.4624 31.1946 8.9159 31.4 9.41396 31.4V30.6ZM14.2931 30.6H9.41396V31.4H14.2931V30.6ZM15.01 30.3029C14.8269 30.4861 14.5729 30.6 14.2931 30.6V31.4C14.7941 31.4 15.2491 31.1953 15.5757 30.8686L15.01 30.3029ZM15.3111 29.586C15.3111 29.8638 15.1987 30.1143 15.01 30.3029L15.5757 30.8686C15.9049 30.5395 16.1111 30.089 16.1111 29.586H15.3111ZM15.3111 13.188V29.586H16.1111V13.188H15.3111ZM14.2971 10.7465C14.9225 11.3719 15.3111 12.2393 15.3111 13.188H16.1111C16.1111 12.0177 15.6314 10.9494 14.8628 10.1808L14.2971 10.7465ZM9.19037 30.0657H14.5287V29.2657H9.19037V30.0657ZM8.79037 13.4304V29.6657H9.59037V13.4304H8.79037ZM9.52146 11.3348C9.21692 11.6393 9.02498 11.9477 8.91599 12.3061C8.81067 12.6523 8.79037 13.0226 8.79037 13.4304H9.59037C9.59037 13.0377 9.61217 12.7664 9.68137 12.5389C9.74692 12.3233 9.86195 12.1257 10.0871 11.9005L9.52146 11.3348ZM11.7588 10.2969C10.8121 10.2969 10.0878 10.7641 9.52039 11.3358L10.0882 11.8994C10.5723 11.4116 11.1044 11.0969 11.7588 11.0969V10.2969ZM14.1976 11.3348C13.602 10.7391 12.6777 10.2969 11.7588 10.2969V11.0969C12.4411 11.0969 13.1681 11.4366 13.6319 11.9005L14.1976 11.3348ZM14.9287 13.4304C14.9287 13.0226 14.9084 12.6515 14.8031 12.3047C14.6942 11.9459 14.502 11.6369 14.1965 11.3337L13.633 11.9015C13.8572 12.1241 13.9721 12.3212 14.0376 12.5372C14.1069 12.7653 14.1287 13.0377 14.1287 13.4304H14.9287ZM14.9287 29.6657V13.4304H14.1287V29.6657H14.9287ZM22.6314 19.5452C22.6314 20.7879 22.4718 21.8969 22.224 22.6817C22.0993 23.0765 21.9592 23.3669 21.8225 23.55C21.6804 23.7403 21.5931 23.7512 21.5769 23.7512V24.5512C21.9623 24.5512 22.2576 24.3044 22.4636 24.0286C22.6749 23.7455 22.8483 23.3614 22.9868 22.9226C23.2654 22.0404 23.4314 20.8464 23.4314 19.5452H22.6314ZM21.5769 15.3392C21.5931 15.3392 21.6804 15.3502 21.8225 15.5405C21.9592 15.7236 22.0993 16.014 22.224 16.4087C22.4718 17.1936 22.6314 18.3026 22.6314 19.5452H23.4314C23.4314 18.244 23.2654 17.05 22.9868 16.1678C22.8483 15.7291 22.6749 15.3449 22.4636 15.0619C22.2576 14.7861 21.9623 14.5392 21.5769 14.5392V15.3392ZM20.5224 19.5452C20.5224 18.3026 20.682 17.1936 20.9298 16.4087C21.0545 16.014 21.1946 15.7236 21.3313 15.5405C21.4733 15.3502 21.5607 15.3392 21.5769 15.3392V14.5392C21.1915 14.5392 20.8961 14.7861 20.6902 15.0619C20.4789 15.3449 20.3055 15.7291 20.167 16.1678C19.8884 17.05 19.7224 18.244 19.7224 19.5452H20.5224ZM21.5769 23.7512C21.5607 23.7512 21.4733 23.7403 21.3313 23.55C21.1946 23.3669 21.0545 23.0765 20.9298 22.6817C20.682 21.8969 20.5224 20.7879 20.5224 19.5452H19.7224C19.7224 20.8464 19.8884 22.0404 20.167 22.9226C20.3055 23.3614 20.4789 23.7455 20.6902 24.0286C20.8961 24.3044 21.1915 24.5512 21.5769 24.5512V23.7512Z" fill="#2D2841" mask="url(#path-1-outside-1_1520_35490)"/>
</svg>
