<?xml version="1.0" standalone="no"?>
<!DOCTYPE svg PUBLIC "-//W3C//DTD SVG 1.1//EN" "http://www.w3.org/Graphics/SVG/1.1/DTD/svg11.dtd" >
<svg xmlns="http://www.w3.org/2000/svg" xmlns:xlink="http://www.w3.org/1999/xlink" version="1.1">
<metadata></metadata>
<defs>
<font id="a_futuricablackregular" horiz-adv-x="1493" >
<font-face units-per-em="2048" ascent="1638" descent="-410" />
<missing-glyph horiz-adv-x="590" />
<glyph horiz-adv-x="0" />
<glyph unicode="&#xd;" horiz-adv-x="590" />
<glyph unicode=" "  horiz-adv-x="590" />
<glyph unicode="&#x09;" horiz-adv-x="590" />
<glyph unicode="&#xa0;" horiz-adv-x="590" />
<glyph unicode="!" horiz-adv-x="811" d="M147 201q0 105 80 173q75 64 179 64t179 -64q79 -68 79 -173q0 -107 -79 -175q-75 -65 -179 -65q-105 0 -179 65q-80 68 -80 175zM182 524v1020h449v-1020h-449z" />
<glyph unicode="&#x22;" horiz-adv-x="1024" d="M82 1544h377l-86 -614h-205zM567 1544h375l-84 -614h-205z" />
<glyph unicode="#" d="M55 365l37 219h273l63 377h-272l39 219h270l49 276h176l-49 -276h346l49 276h176l-47 -276h271l-37 -219h-273l-63 -377h272l-39 -219h-270l-49 -277h-176l49 277h-348l-47 -277h-176l47 277h-271zM541 584h346l63 377h-346z" />
<glyph unicode="$" d="M147 190l201 324q202 -174 377 -174q162 0 162 88q0 87 -103 141q-33 17 -178 64q-373 120 -373 432q0 217 128 350q116 120 307 148v243h233v-243q214 -17 385 -133l-166 -320q-150 102 -278 102q-55 0 -98 -23q-54 -29 -54 -85q0 -60 60 -91q30 -15 198 -67 q189 -58 273 -136q122 -113 122 -323q0 -220 -127 -350q-114 -118 -315 -149v-242h-233v231q-260 10 -521 213z" />
<glyph unicode="%" horiz-adv-x="1915" d="M51 1176q0 171 113 286t282 115q172 0 285 -114.5t113 -286.5q0 -173 -113.5 -288.5t-284.5 -115.5q-170 0 -282.5 115t-112.5 289zM293 1176q0 -75 44.5 -125t108.5 -50q65 0 109.5 51t44.5 126q0 72 -44.5 122t-109.5 50q-63 0 -108 -50.5t-45 -123.5zM391 -23 l934 1590h197l-934 -1590h-197zM1071 371q0 172 114 287.5t283 115.5q172 0 284 -114.5t112 -288.5q0 -173 -112.5 -288.5t-283.5 -115.5q-172 0 -284.5 115t-112.5 289zM1315 371q0 -75 44 -124.5t109 -49.5q64 0 109 50.5t45 125.5q0 73 -45 122.5t-109 49.5 q-65 0 -109 -49.5t-44 -124.5z" />
<glyph unicode="&#x26;" horiz-adv-x="1716" d="M76 399q0 304 362 441q-135 168 -135 307q0 181 132 301q137 125 360 125q232 0 367 -130q122 -117 122 -290q0 -151 -100 -256q-70 -74 -183 -137q62 -78 138 -150q159 135 221 219l244 -251q-58 -79 -218 -224q169 -198 338 -354h-538q-51 42 -113 117 q-211 -158 -471 -158q-266 0 -407 140q-119 119 -119 300zM532 426q0 -111 130 -111q65 0 165 72q-62 57 -184 209q-111 -67 -111 -170zM723 1151q0 -74 86 -164q115 69 115 162q0 57 -35 90q-31 29 -74 29q-92 0 -92 -117z" />
<glyph unicode="'" horiz-adv-x="512" d="M68 1544h376l-79 -614h-218z" />
<glyph unicode="(" horiz-adv-x="745" d="M106 575q0 329 101 630q86 258 225 442l244 -138q-113 -173 -180 -417q-70 -254 -70 -517t70 -516q67 -244 180 -417l-244 -138q-139 184 -225 441q-101 301 -101 630z" />
<glyph unicode=")" horiz-adv-x="745" d="M70 -358q113 172 179 417q68 252 68 516t-68 517q-66 245 -179 417l239 138q141 -182 229 -442q101 -300 101 -630t-101 -630q-88 -259 -229 -441z" />
<glyph unicode="*" horiz-adv-x="1024" d="M123 1079l217 109l-217 108l98 177l205 -134l-12 240h198l-14 -240l205 134l100 -177l-217 -108l217 -109l-100 -174l-205 133l14 -241h-198l12 241l-205 -133z" />
<glyph unicode="+" d="M195 502v266h419v412h267v-412h417v-266h-417v-416h-267v416h-419z" />
<glyph unicode="," horiz-adv-x="770" d="M-8 -299l192 686h486l-389 -686h-289z" />
<glyph unicode="-" horiz-adv-x="922" d="M92 463v340h737v-340h-737z" />
<glyph unicode="." horiz-adv-x="770" d="M127 201q0 105 78 173q74 64 180 64q104 0 179 -64q79 -68 79 -173q0 -107 -79 -175q-75 -65 -179 -65q-106 0 -180 65q-78 68 -78 175z" />
<glyph unicode="/" horiz-adv-x="1051" d="M0 -319l766 1986h285l-766 -1986h-285z" />
<glyph unicode="0" d="M72 768q0 429 231 649q183 174 442 174t443 -174q233 -220 233 -649q0 -424 -234 -642q-184 -171 -442 -171q-259 0 -442 171q-231 217 -231 642zM547 768q0 -412 198 -412q199 0 199 412q0 422 -199 422q-198 0 -198 -422z" />
<glyph unicode="1" d="M287 0v379h266v782h-215l76 383h614v-1165h244v-379h-985z" />
<glyph unicode="2" d="M68 0l673 752q138 154 138 282q0 170 -138 170q-70 0 -111.5 -49t-41.5 -131v-31h-486q0 233 142 398q172 200 495 200q282 0 455.5 -145.5t173.5 -384.5q0 -166 -109 -327q-96 -143 -333 -355h452v-379h-1310z" />
<glyph unicode="3" d="M82 522h473q0 -77 41 -130q48 -62 137 -62q73 0 120.5 48.5t47.5 121.5q0 170 -180 170h-92v276h76q147 0 147 146q0 62 -37.5 97.5t-95.5 35.5q-63 0 -98 -42.5t-35 -107.5h-447q13 218 165 360q166 156 444 156q249 0 404 -111q165 -118 165 -325q0 -228 -209 -321 q127 -34 204 -140t77 -250q0 -213 -166 -347q-177 -142 -488 -142q-330 0 -503 175q-150 152 -150 392z" />
<glyph unicode="4" d="M35 305v348l616 891h584v-882h203v-357h-203v-305h-465v305h-735zM477 662h309v479z" />
<glyph unicode="5" d="M131 76l49 411q182 -165 404 -165q127 0 200 57q70 57 70 153q0 94 -83 152q-87 61 -236 61q-174 0 -324 -57l108 856h941v-375h-611l-16 -145q53 10 158 10q256 0 413 -154q148 -145 148 -364q0 -238 -174 -393q-188 -168 -508 -168q-153 0 -313 39q-143 35 -226 82z " />
<glyph unicode="6" d="M72 514q0 276 237 590l334 442h545l-330 -405q-59 -73 -86 -113q64 16 150 16q223 0 361 -142t138 -380q0 -254 -187 -410.5t-493 -156.5q-294 0 -475 140q-194 150 -194 419zM551 518q0 -88 56 -146.5t134 -58.5q89 0 145 63q52 58 52 140q0 83 -51 141q-56 62 -144 62 q-79 0 -134 -53q-58 -56 -58 -148z" />
<glyph unicode="7" d="M133 1169v375h1290l-641 -1544h-522l543 1169h-670z" />
<glyph unicode="8" d="M102 416q0 153 106 266q85 90 222 141q-106 40 -177 127q-81 97 -81 217q0 191 164 309q159 115 409 115q249 0 410 -112q168 -118 168 -312q0 -120 -81 -217q-71 -87 -177 -127q326 -122 326 -407q0 -182 -143 -308q-174 -153 -503 -153q-327 0 -500 154 q-143 126 -143 307zM586 467q0 -75 49 -120q45 -42 113 -42q66 0 111.5 43.5t45.5 120.5t-47 125q-44 45 -110 45q-70 0 -116 -46t-46 -126zM608 1122q0 -65 39 -108t96 -43q59 0 99.5 43t40.5 108q0 73 -45 114q-40 36 -95 36q-50 0 -90 -37q-45 -43 -45 -113z" />
<glyph unicode="9" d="M72 1024q0 254 187 410.5t493 156.5q294 0 475 -140q194 -150 194 -419q0 -276 -237 -590l-334 -442h-545l330 406q63 77 86 112q-64 -16 -150 -16q-223 0 -361 142t-138 380zM555 1030q0 -83 51 -141q56 -62 144 -62q79 0 135.5 54.5t56.5 146.5q0 88 -56 146.5 t-134 58.5q-89 0 -145 -63q-52 -58 -52 -140z" />
<glyph unicode=":" horiz-adv-x="770" d="M125 201q0 105 79 173q75 64 179 64t179 -64q79 -68 79 -173q0 -107 -78 -175q-74 -65 -178 -65q-106 0 -181 65q-79 68 -79 175zM125 877q0 107 79 175q74 64 179 64t179 -64q79 -68 79 -175q0 -105 -78 -174q-74 -64 -178 -64q-106 0 -181 64q-79 69 -79 174z" />
<glyph unicode=";" horiz-adv-x="770" d="M-18 -299l194 686h486l-390 -686h-290zM152 877q0 107 79 175q74 64 179 64q106 0 180 -64q78 -68 78 -175q0 -106 -78 -174q-75 -64 -180 -64q-104 0 -179 64q-79 69 -79 174z" />
<glyph unicode="&#x3c;" d="M227 537v229l1039 408v-297l-643 -228l643 -225v-297z" />
<glyph unicode="=" d="M209 283v272h1075v-272h-1075zM209 739v271h1075v-271h-1075z" />
<glyph unicode="&#x3e;" d="M227 127v297l643 225l-643 228v297l1041 -408v-229z" />
<glyph unicode="?" horiz-adv-x="1300" d="M45 1085v13q0 212 146 343q158 142 444 142q267 0 430 -139q158 -134 158 -344q0 -165 -96 -281q-99 -119 -275 -157v-142h-453v391h150q194 0 194 174q0 61 -28.5 102.5t-77.5 41.5q-43 0 -69.5 -39.5t-26.5 -91.5v-13h-496zM369 201q0 105 78 173q74 64 180 64 q107 0 181 -64q79 -67 79 -173q0 -107 -79 -175q-75 -65 -179 -65q-107 0 -181 65q-79 68 -79 175z" />
<glyph unicode="@" horiz-adv-x="1769" d="M51 731q0 363 259.5 618t625.5 255q324 0 543 -188q223 -193 223 -490q0 -308 -217 -502q-135 -121 -283 -121q-154 0 -180 135q-99 -131 -260 -131q-150 0 -238 93q-92 98 -92 272q0 205 122 356q130 160 329 160q158 0 217 -115l30 80h216l-132 -575q-6 -26 -6 -43 q0 -39 43 -39q101 0 178 140q74 134 74 294q0 212 -166 348q-160 131 -399 131q-288 0 -486 -195t-198 -485q0 -278 191 -452q182 -166 450 -166q295 0 481 135l137 -146q-235 -180 -616 -180q-363 0 -604.5 232.5t-241.5 578.5zM686 682q0 -80 36 -124t89 -44 q67 0 119 42.5t67 113.5q11 9 24 77q12 61 11 84q-2 68 -40 110t-99 42q-88 0 -151 -105q-56 -94 -56 -196z" />
<glyph unicode="A" horiz-adv-x="1622" d="M-23 0l519 1544h630l519 -1544h-506l-84 289h-488l-84 -289h-506zM664 627h292l-147 491z" />
<glyph unicode="B" horiz-adv-x="1481" d="M135 0v1544h672q247 0 377 -122q112 -105 112 -265q0 -207 -206 -303q157 -36 244 -137q89 -104 89 -262q0 -204 -137 -323q-152 -132 -448 -132h-703zM606 338h123q89 0 145 34q62 37 62 107q0 154 -188 154h-142v-295zM606 928h53q205 0 205 141t-172 141h-86v-282z " />
<glyph unicode="C" horiz-adv-x="1380" d="M61 772q0 365 255 598q240 219 575 219q202 0 389 -86v-479q-143 143 -348 143q-170 0 -276 -120q-101 -114 -101 -283q0 -168 106.5 -277.5t270.5 -109.5q211 0 348 137v-477q-207 -82 -385 -82q-364 0 -599 229.5t-235 587.5z" />
<glyph unicode="D" horiz-adv-x="1628" d="M135 0v1544h621q389 0 611 -240q198 -214 198 -532q0 -333 -216 -547q-227 -225 -606 -225h-608zM612 395h80q155 0 254 79q121 98 121 298q0 182 -102 282q-98 97 -269 97h-84v-756z" />
<glyph unicode="E" horiz-adv-x="1204" d="M135 0v1544h975v-385h-498v-201h461v-364h-461v-209h498v-385h-975z" />
<glyph unicode="F" horiz-adv-x="1149" d="M137 0v1544h948v-385h-471v-203h428v-364h-428v-592h-477z" />
<glyph unicode="G" horiz-adv-x="1794" d="M61 768q0 369 235 595t628 226q505 0 710 -401l-401 -191q-94 197 -307 197q-160 0 -263.5 -119t-103.5 -307q0 -184 99 -303q104 -123 272 -123q124 0 211.5 63.5t87.5 159.5h-297v318h805v-138q0 -372 -230 -585q-221 -205 -587 -205q-394 0 -628 227 q-231 222 -231 586z" />
<glyph unicode="H" horiz-adv-x="1712" d="M135 0v1544h477v-579h488v579h477v-1544h-477v612h-488v-612h-477z" />
<glyph unicode="I" horiz-adv-x="756" d="M139 0v1544h477v-1544h-477z" />
<glyph unicode="J" horiz-adv-x="915" d="M-80 72l158 327q49 -49 117 -49q102 0 102 168v1026h475v-1071q0 -516 -475 -516q-249 0 -377 115z" />
<glyph unicode="K" horiz-adv-x="1622" d="M135 0v1544h477v-647l439 647h546l-546 -745l583 -799h-577l-445 686v-686h-477z" />
<glyph unicode="L" horiz-adv-x="1118" d="M137 0v1544h477v-1159h484v-385h-961z" />
<glyph unicode="M" horiz-adv-x="2028" d="M18 0l228 1544h516l254 -786l260 786h518l215 -1544h-473l-98 788l-295 -788h-260l-289 788l-102 -788h-474z" />
<glyph unicode="N" horiz-adv-x="1767" d="M135 0v1546h531l520 -813v813h446v-1546h-497l-553 813v-813h-447z" />
<glyph unicode="O" horiz-adv-x="1851" d="M61 772q0 345 227 574q241 243 638 243t637 -243q227 -229 227 -574t-227 -574q-240 -243 -637 -243t-638 243q-227 229 -227 574zM557 772q0 -167 109 -277q106 -106 260 -106t259 106q109 110 109 277t-109 277q-105 106 -259 106t-260 -106q-109 -110 -109 -277z" />
<glyph unicode="P" horiz-adv-x="1442" d="M135 0v1544h641q307 0 466 -148q147 -136 147 -376q0 -239 -148 -369.5t-426 -130.5h-203v-520h-477zM612 866h84q205 0 205 166t-201 166h-88v-332z" />
<glyph unicode="Q" horiz-adv-x="1853" d="M61 772q0 345 227 574q241 243 638 243t637 -243q227 -229 227 -574q0 -319 -188 -534l223 -242l-379 -105l-127 144q-177 -80 -393 -80q-397 0 -638 243q-227 229 -227 574zM555 772q0 -167 110 -277q107 -106 261 -106q47 0 94 10l-174 193l354 67q1 3 29 -18t28 -18 q37 65 37 149q0 167 -109 277q-105 106 -259 106t-261 -106q-110 -110 -110 -277z" />
<glyph unicode="R" horiz-adv-x="1462" d="M135 0v1544h649q271 0 422 -126q160 -133 160 -386q0 -144 -76 -253q-81 -115 -225 -154l418 -625h-572l-288 555l-13 4v-559h-475zM610 852h64q207 0 207 172q0 166 -205 166h-66v-338z" />
<glyph unicode="S" horiz-adv-x="1300" d="M41 127l166 369q199 -156 366 -156q84 0 131 32q41 29 41 72q0 61 -64.5 104.5t-244.5 104.5q-164 55 -242 146q-90 105 -90 278q0 237 164 377q159 135 416 135t496 -135l-148 -367q-147 119 -299 119q-61 0 -100 -24.5t-39 -63.5q0 -44 48 -75q53 -34 240.5 -107.5 t272 -177t84.5 -256.5q0 -260 -169 -406q-165 -141 -449 -141q-310 0 -580 172z" />
<glyph unicode="T" horiz-adv-x="1176" d="M18 1151v393h1139v-393h-330v-1151h-477v1151h-332z" />
<glyph unicode="U" horiz-adv-x="1655" d="M129 627v917h477v-864q0 -309 219 -309q224 0 224 309v864h477v-917q0 -672 -699 -672q-698 0 -698 672z" />
<glyph unicode="V" horiz-adv-x="1581" d="M-37 1544h510l315 -930l318 930h512l-610 -1544h-443z" />
<glyph unicode="W" horiz-adv-x="2216" d="M-25 1544h488l213 -878l252 878h362l242 -878l223 878h486l-441 -1544h-461l-231 848l-246 -848h-459z" />
<glyph unicode="X" horiz-adv-x="1614" d="M-37 0l567 821l-487 723h578l192 -405l197 405h571l-481 -723l551 -821h-572l-266 494l-281 -494h-569z" />
<glyph unicode="Y" horiz-adv-x="1485" d="M-43 1544h553l231 -424l234 424h553l-547 -829v-715h-477v713z" />
<glyph unicode="Z" horiz-adv-x="1470" d="M0 0l694 1159h-592v385h1356l-680 -1159h611v-385h-1389z" />
<glyph unicode="[" horiz-adv-x="743" d="M109 -471v2097h555v-256h-228v-1585h228v-256h-555z" />
<glyph unicode="\" horiz-adv-x="1053" d="M0 1667h285l768 -1892h-285z" />
<glyph unicode="]" horiz-adv-x="743" d="M82 -215h225v1585h-225v256h553v-2097h-553v256z" />
<glyph unicode="^" horiz-adv-x="1024" d="M98 1069l287 506h252l289 -506h-283l-133 219l-133 -219h-279z" />
<glyph unicode="_" horiz-adv-x="1024" d="M-12 -233h1048v-191h-1048v191z" />
<glyph unicode="`" horiz-adv-x="748" d="M74 1530l344 82l280 -352l-215 -64z" />
<glyph unicode="a" horiz-adv-x="1466" d="M53 537q0 263 150 422q142 151 360 151q223 0 344 -170v129h434v-1069h-423v137q-111 -178 -351 -178q-216 0 -363 159q-151 164 -151 419zM494 535q0 -100 57.5 -160t155.5 -60q96 0 155.5 60t59.5 162q0 98 -60.5 158.5t-152.5 60.5q-100 0 -157.5 -59.5t-57.5 -161.5z " />
<glyph unicode="b" horiz-adv-x="1466" d="M125 0v1618h440v-483q0 -19 -8 -195q131 170 342 170q218 0 362 -152q152 -161 152 -426q0 -252 -153 -416q-147 -157 -363 -157q-232 0 -352 180v-139h-420zM545 530q0 -100 57.5 -157.5t153.5 -57.5q101 0 158 58.5t57 163.5q0 100 -57.5 158.5t-157.5 58.5 q-89 0 -150 -58.5t-61 -146.5v-19z" />
<glyph unicode="c" horiz-adv-x="1020" d="M55 537q0 246 164 408q168 165 432 165q135 0 271 -63v-365q-95 72 -197 72q-96 0 -157 -60q-64 -62 -64 -166q0 -98 64 -155.5t167 -57.5q108 0 187 64v-361q-124 -58 -275 -59h-3q-255 0 -420 159q-169 162 -169 419z" />
<glyph unicode="d" horiz-adv-x="1466" d="M53 532q0 265 152 426q144 152 362 152q211 0 342 -170q-8 176 -8 195v483h440v-1618h-419v139q-120 -180 -353 -180q-216 0 -363 157q-153 164 -153 416zM496 537q0 -105 57 -163.5t158 -58.5q96 0 153.5 57.5t57.5 157.5v19q0 88 -61 146.5t-150 58.5 q-100 0 -157.5 -58.5t-57.5 -158.5z" />
<glyph unicode="e" horiz-adv-x="1323" d="M57 537q0 257 165.5 415t439.5 158q313 0 472 -198q132 -164 132 -412v-47h-793q0 -87 45 -148q54 -72 154 -72q134 0 174 103l379 -72q-146 -305 -568 -305q-282 0 -446 168q-154 159 -154 410zM483 672h379q-7 72 -55 122q-53 54 -131 54q-161 0 -193 -176z" />
<glyph unicode="f" horiz-adv-x="774" d="M12 725v344h138v141q0 447 446 447q92 0 192 -39v-344q-48 24 -108 24q-92 0 -92 -131v-98h200v-344h-200v-725h-438v725h-138z" />
<glyph unicode="g" horiz-adv-x="1466" d="M53 539q0 259 152 418q147 153 373 153t331 -172v131h432v-1028q0 -295 -157 -455q-166 -170 -490 -170q-197 0 -364 82q-154 77 -228 195l265 217q46 -60 123 -100q81 -41 163 -41q256 0 256 278v86q-127 -143 -342 -143q-226 0 -370 154t-144 395zM496 543 q0 -103 65 -163q60 -56 152 -56q87 0 144 51q65 58 65 166q0 110 -65 169q-57 50 -144 50q-90 0 -151 -55q-66 -60 -66 -162z" />
<glyph unicode="h" horiz-adv-x="1411" d="M125 0v1618h440v-539q0 -91 -8 -151q122 182 338 182q176 0 280 -108q115 -120 115 -351v-651h-438v598q0 170 -133 170q-154 0 -154 -221v-547h-440z" />
<glyph unicode="i" horiz-adv-x="690" d="M115 1423q0 96 65 160t164 64t165 -64t66 -160q0 -97 -65.5 -161t-165.5 -64t-164.5 64t-64.5 161zM125 0v1069h440v-1069h-440z" />
<glyph unicode="j" horiz-adv-x="690" d="M115 1423q0 96 65 160t164 64t165 -64t66 -160q0 -97 -65.5 -161t-165.5 -64t-164.5 64t-64.5 161zM125 -545v1614h440v-1614h-440z" />
<glyph unicode="k" horiz-adv-x="1446" d="M125 0v1626h438v-977l334 420h541l-457 -508l492 -561h-560l-350 463v-463h-438z" />
<glyph unicode="l" horiz-adv-x="696" d="M129 0v1618h440v-1618h-440z" />
<glyph unicode="m" horiz-adv-x="2046" d="M125 0v1069h432v-127q120 168 320 168q222 0 329 -184q125 184 344 184q375 0 375 -469v-641h-432v598q0 174 -111 174q-63 0 -102 -56t-39 -159v-557h-432v598q0 174 -115 174q-137 0 -137 -225v-547h-432z" />
<glyph unicode="n" horiz-adv-x="1407" d="M125 0v1069h430v-141q122 182 338 182q176 0 279 -108q114 -120 114 -351v-651h-438v598q0 170 -129 170q-154 0 -154 -221v-547h-440z" />
<glyph unicode="o" horiz-adv-x="1399" d="M53 537q0 245 176 406q182 167 471 167q288 0 470 -167q176 -161 176 -406q0 -246 -176 -410q-182 -168 -470 -168q-289 0 -471 168q-176 164 -176 410zM502 537q0 -84 52 -145q57 -66 146 -66t144 66q51 61 51 145h2q0 82 -52 142q-56 66 -145 66t-146 -66 q-52 -60 -52 -142z" />
<glyph unicode="p" horiz-adv-x="1466" d="M125 -553v1622h420v-127q112 168 352 168q217 0 363 -151q153 -159 153 -410q0 -266 -152 -432q-145 -158 -362 -158q-202 0 -342 182q8 -176 8 -194v-500h-440zM545 532q0 -89 63 -153t148 -64q101 0 158 57.5t57 162.5q0 103 -58.5 161t-156.5 58q-96 0 -153.5 -55 t-57.5 -148v-19z" />
<glyph unicode="q" horiz-adv-x="1466" d="M53 549q0 251 153 410q146 151 363 151q241 0 353 -168v127h419v-1622h-440v500q0 18 8 194q-140 -182 -342 -182q-217 0 -362 158q-152 166 -152 432zM496 535q0 -105 57 -162.5t158 -57.5q85 0 148 64t63 153v19q0 93 -57.5 148t-153.5 55q-98 0 -156.5 -58t-58.5 -161 z" />
<glyph unicode="r" horiz-adv-x="971" d="M127 0v1069h432v-164q106 187 301 187q50 0 111 -23l-33 -358q-57 24 -133 24q-117 0 -177.5 -76.5t-60.5 -207.5v-451h-440z" />
<glyph unicode="s" horiz-adv-x="1087" d="M49 74l127 288q143 -98 291 -98q113 0 113 60q0 41 -33.5 61t-122.5 35q-318 54 -318 309q0 171 130 274q134 107 366 107q209 0 377 -84l-115 -258q-110 57 -213 57q-123 0 -123 -61q0 -39 51 -60q36 -15 136 -30q156 -24 234 -121q67 -82 67 -201q0 -151 -106 -256 q-138 -137 -418 -137q-261 0 -443 115z" />
<glyph unicode="t" horiz-adv-x="743" d="M12 725v344h129v365h439v-365h188v-344h-188v-725h-439v725h-129z" />
<glyph unicode="u" horiz-adv-x="1405" d="M119 471v598h438v-561q0 -106 33.5 -149.5t111.5 -43.5q79 0 112.5 43.5t33.5 149.5v561h438v-612q0 -202 -110 -329q-147 -169 -471 -169q-586 0 -586 512z" />
<glyph unicode="v" horiz-adv-x="1257" d="M-43 1071h469l203 -573l205 573h466l-466 -1071h-410z" />
<glyph unicode="w" horiz-adv-x="1880" d="M-31 1069h455l172 -528l192 528h304l190 -528l172 528h457l-400 -1069h-376l-195 535l-197 -535h-372z" />
<glyph unicode="x" horiz-adv-x="1440" d="M-41 0l485 573l-407 496h532l150 -227l149 227h539l-412 -496l486 -573h-543l-219 289l-217 -289h-543z" />
<glyph unicode="y" horiz-adv-x="1382" d="M-12 1069h499l252 -567l238 567h444l-753 -1622h-453l305 614z" />
<glyph unicode="z" horiz-adv-x="1143" d="M14 0l447 725h-391v344h1065l-445 -725h389v-344h-1065z" />
<glyph unicode="{" horiz-adv-x="872" d="M92 432v246h25q98 0 136 44t38 152v381q0 178 83 250q87 76 308 76h98v-270h-55q-67 0 -92 -29.5t-25 -112.5v-364q0 -204 -180 -250q180 -46 180 -250v-364q0 -83 25 -112.5t92 -29.5h55v-270h-98q-221 0 -308 77q-83 73 -83 251v381q0 194 -174 194h-25z" />
<glyph unicode="|" horiz-adv-x="768" d="M236 -266v1933h296v-1933h-296z" />
<glyph unicode="}" horiz-adv-x="872" d="M92 -201h55q67 0 92 29.5t25 112.5v364q0 204 180 250q-180 46 -180 250v364q0 83 -25 112.5t-92 29.5h-55v270h98q221 0 309 -76q83 -73 83 -250v-381q0 -108 38 -152t136 -44h24v-246h-24q-174 0 -174 -194v-381q0 -178 -83 -251q-88 -77 -309 -77h-98v270z" />
<glyph unicode="~" d="M55 543q23 177 127.5 286t241.5 109q102 0 295 -100q262 -136 350 -136q110 0 231 170l136 -247q-73 -123 -177 -194q-97 -66 -190 -66q-154 0 -389 131q-183 102 -258 102t-156 -117z" />
<glyph unicode="&#xa9;" horiz-adv-x="1720" d="M59 774q0 334 240 574q229 229 559 229q335 0 569 -236t234 -567q0 -330 -231 -559q-242 -240 -572 -240q-327 0 -563 236t-236 563zM236 776q0 -256 182 -440t442 -184q257 0 445 186q182 180 182 438q0 259 -182 441q-186 186 -445 186q-260 0 -438 -180 q-186 -188 -186 -447zM436 776q0 206 115 336q119 135 319 135q164 0 271.5 -84.5t122.5 -228.5h-217q-17 145 -170 145q-98 0 -153.5 -80.5t-55.5 -216.5q0 -290 215 -290q152 0 166 149h223q-12 -149 -117.5 -238.5t-275.5 -89.5q-199 0 -321 126.5t-122 336.5z" />
<glyph unicode="&#xab;" horiz-adv-x="1212" d="M57 604l365 508l211 -135l-271 -373l271 -368l-211 -136zM551 604l364 508l209 -135l-270 -373l270 -368l-209 -136z" />
<glyph unicode="&#xad;" horiz-adv-x="922" d="M92 463v340h737v-340h-737z" />
<glyph unicode="&#xae;" horiz-adv-x="1720" d="M59 776q0 338 240 576q229 227 561 227q337 0 571 -234t234 -569q0 -330 -233 -561q-242 -240 -572 -240q-329 0 -565 236t-236 565zM236 778q0 -255 182.5 -440.5t441.5 -185.5q257 0 447 188q182 180 182 438q0 259 -182 441q-186 186 -447 186q-260 0 -438 -180 q-186 -188 -186 -447zM528 365v852h381q351 0 351 -250q0 -199 -201 -236l194 -366h-247l-172 344h-78v-344h-228zM756 850h139q135 0 135 108q0 101 -145 101h-129v-209z" />
<glyph unicode="&#xbb;" horiz-adv-x="1212" d="M88 236l268 368l-268 373l209 135l365 -508l-365 -504zM582 236l268 368l-268 373l209 135l362 -508l-362 -504z" />
<glyph unicode="&#x401;" horiz-adv-x="1204" d="M135 0v1544h975v-385h-498v-201h461v-364h-461v-209h498v-385h-975zM178 1825q0 73 55.5 128.5t145.5 55.5q91 0 148 -57q53 -53 53 -127t-53 -127q-57 -58 -148 -58q-90 0 -147 58q-54 54 -54 127zM680 1825q0 74 53 127q57 57 148 57q90 0 147 -57q53 -54 53 -127 t-53 -127q-58 -58 -147 -58q-91 0 -148 58q-53 53 -53 127z" />
<glyph unicode="&#x410;" horiz-adv-x="1622" d="M-23 0l519 1544h630l519 -1544h-506l-84 289h-488l-84 -289h-506zM664 627h292l-147 491z" />
<glyph unicode="&#x411;" horiz-adv-x="1450" d="M135 0v1544h1125v-385h-648v-192h185q240 0 397 -98q199 -125 199 -380q0 -253 -200 -382q-166 -107 -425 -107h-633zM612 338h105q198 0 198 147q0 148 -204 148h-99v-295z" />
<glyph unicode="&#x412;" horiz-adv-x="1481" d="M135 0v1544h672q247 0 377 -122q112 -105 112 -265q0 -207 -206 -303q157 -36 244 -137q89 -104 89 -262q0 -204 -137 -323q-152 -132 -448 -132h-703zM606 338h123q89 0 145 34q62 37 62 107q0 154 -188 154h-142v-295zM606 928h53q205 0 205 141t-172 141h-86v-282z " />
<glyph unicode="&#x413;" horiz-adv-x="1128" d="M135 0v1544h948v-385h-471v-1159h-477z" />
<glyph unicode="&#x414;" horiz-adv-x="1716" d="M0 -309v692q148 0 209 156q47 123 47 370v635h1247v-1159h172v-694h-438v309h-801v-309h-436zM565 385h461v774h-319v-362q0 -313 -142 -412z" />
<glyph unicode="&#x415;" horiz-adv-x="1204" d="M135 0v1544h975v-385h-498v-201h461v-364h-461v-209h498v-385h-975z" />
<glyph unicode="&#x416;" horiz-adv-x="2335" d="M-12 0l512 784l-490 760h535l389 -667v667h467v-667l387 667h536l-489 -760l512 -784h-565l-381 688v-688h-467v688l-381 -688h-565z" />
<glyph unicode="&#x417;" horiz-adv-x="1352" d="M49 137l166 326q160 -135 348 -135q96 0 153 47q54 43 54 106q0 142 -207 142h-155v338h149q205 0 205 139q0 129 -209 129q-153 0 -328 -99l-129 322q260 147 539 147q271 0 443 -126q169 -123 169 -314q0 -119 -68.5 -214t-179.5 -134q0 -2 2 -4q277 -100 277 -371 q0 -212 -182 -347q-177 -132 -447 -132q-349 0 -600 180z" />
<glyph unicode="&#x418;" horiz-adv-x="1774" d="M135 0v1546h473v-882l580 882h450v-1546h-475v868l-575 -868h-453z" />
<glyph unicode="&#x419;" horiz-adv-x="1774" d="M135 0v1546h473v-882l580 882h450v-1546h-475v868l-575 -868h-453zM449 2025h290q0 -77 46 -120q40 -39 102 -39q61 0 102 39q45 43 45 120h289q0 -172 -134 -283q-127 -104 -302 -104q-177 0 -303 104q-135 111 -135 283z" />
<glyph unicode="&#x41a;" horiz-adv-x="1616" d="M135 0v1544h477v-647l439 647h546l-546 -745l583 -799h-577l-445 686v-686h-477z" />
<glyph unicode="&#x41b;" horiz-adv-x="1610" d="M-29 2l29 391q55 -24 117 -24q61 0 85 46q27 51 27 189v940h1239v-1544h-477v1159h-303v-590q0 -287 -103 -425q-125 -167 -425 -167q-93 0 -189 25z" />
<glyph unicode="&#x41c;" horiz-adv-x="2028" d="M18 0l228 1544h516l254 -786l260 786h518l215 -1544h-473l-98 788l-295 -788h-260l-289 788l-102 -788h-474z" />
<glyph unicode="&#x41d;" horiz-adv-x="1712" d="M135 0v1544h477v-579h488v579h477v-1544h-477v612h-488v-612h-477z" />
<glyph unicode="&#x41e;" horiz-adv-x="1851" d="M61 772q0 345 227 574q241 243 638 243t637 -243q227 -229 227 -574t-227 -574q-240 -243 -637 -243t-638 243q-227 229 -227 574zM557 772q0 -167 109 -277q106 -106 260 -106t259 106q109 110 109 277t-109 277q-105 106 -259 106t-260 -106q-109 -110 -109 -277z" />
<glyph unicode="&#x41f;" horiz-adv-x="1704" d="M135 0v1544h1434v-1544h-477v1159h-480v-1159h-477z" />
<glyph unicode="&#x420;" horiz-adv-x="1444" d="M137 0v1544h641q307 0 466 -148q147 -136 147 -376q0 -239 -148 -369.5t-426 -130.5h-203v-520h-477zM614 866h84q205 0 205 166t-201 166h-88v-332z" />
<glyph unicode="&#x421;" horiz-adv-x="1380" d="M61 772q0 365 255 598q240 219 575 219q202 0 389 -86v-479q-143 143 -348 143q-170 0 -276 -120q-101 -114 -101 -283q0 -168 106.5 -277.5t270.5 -109.5q211 0 348 137v-477q-207 -82 -385 -82q-364 0 -599 229.5t-235 587.5z" />
<glyph unicode="&#x422;" horiz-adv-x="1176" d="M18 1151v393h1139v-393h-330v-1151h-477v1151h-332z" />
<glyph unicode="&#x423;" horiz-adv-x="1503" d="M-12 1544h549l262 -573l225 573h516l-666 -1544h-514l195 428z" />
<glyph unicode="&#x424;" horiz-adv-x="2046" d="M59 840q0 349 244 505q177 113 457 113h26v176h474v-176h26q281 0 458 -113q243 -156 243 -505q0 -351 -243 -507q-177 -114 -458 -114h-26v-219h-474v219h-26q-280 0 -457 114q-244 156 -244 507zM516 840q0 -129 80 -198q68 -58 170 -58h35v512h-35q-102 0 -170 -57 q-80 -67 -80 -199zM1247 584h35q102 0 170 58q80 69 80 198q0 132 -80 199q-68 57 -170 57h-35v-512z" />
<glyph unicode="&#x425;" horiz-adv-x="1614" d="M-37 0l567 821l-487 723h578l192 -405l197 405h571l-481 -723l551 -821h-572l-266 494l-281 -494h-569z" />
<glyph unicode="&#x426;" horiz-adv-x="1724" d="M141 0v1544h477v-1161h465v1161h478v-1159h163v-696h-436v311h-1147z" />
<glyph unicode="&#x427;" horiz-adv-x="1536" d="M98 1067v477h473v-422q0 -106 39 -151t133 -45q104 0 179 28v590h477v-1544h-477v600q-118 -51 -297 -51q-281 0 -406 125q-121 121 -121 393z" />
<glyph unicode="&#x428;" horiz-adv-x="2324" d="M137 0v1544h467v-1161h326v1161h467v-1161h323v1161h467v-1544h-2050z" />
<glyph unicode="&#x429;" horiz-adv-x="2358" d="M141 0v1544h467v-1161h326v1161h467v-1161h323v1161h467v-1159h164v-696h-436v311h-1778z" />
<glyph unicode="&#x42a;" horiz-adv-x="1628" d="M25 1159v385h770v-553h184q233 0 391 -99q203 -126 203 -380q0 -263 -199 -398q-167 -114 -426 -114h-631v1159h-292zM795 338h102q201 0 201 160q0 159 -207 159h-96v-319z" />
<glyph unicode="&#x42b;" horiz-adv-x="2060" d="M135 0v1544h477v-553h146q233 0 392 -99q204 -126 204 -380q0 -263 -200 -398q-168 -114 -427 -114h-592zM612 338h66q209 0 209 160q0 159 -209 159h-66v-319zM1448 0v1544h477v-1544h-477z" />
<glyph unicode="&#x42c;" horiz-adv-x="1448" d="M135 0v1544h477v-553h185q233 0 392 -99q204 -126 204 -380q0 -262 -200 -398q-167 -114 -425 -114h-633zM612 338h105q198 0 198 160q0 159 -204 159h-99v-319z" />
<glyph unicode="&#x42d;" horiz-adv-x="1419" d="M104 63v418q183 -139 402 -139q166 0 261 92q79 75 93 191h-475v317h469q-23 117 -127 189q-102 69 -240 69q-217 0 -383 -135v412q217 110 469 110q346 0 564.5 -220.5t218.5 -569.5q0 -382 -222 -614q-217 -226 -563 -226q-259 0 -467 106z" />
<glyph unicode="&#x42e;" horiz-adv-x="2445" d="M135 0v1544h475v-573h164q52 273 261 441q217 173 530 173q354 0 585 -225q234 -228 234 -590q0 -364 -234 -592q-229 -223 -587 -223q-314 0 -534 179t-257 468h-162v-602h-475zM1227 770q0 -167 99 -272q96 -101 241 -101q144 0 239 100q99 105 99 273q0 167 -99 273 q-96 102 -239 102q-144 0 -241 -102q-99 -106 -99 -273z" />
<glyph unicode="&#x42f;" horiz-adv-x="1468" d="M33 0l350 575q-307 92 -307 447q0 271 210 411q167 111 406 111h641v-1544h-475v539h-27l-284 -539h-514zM553 1024q0 -176 207 -176h98v346h-98q-207 0 -207 -170z" />
<glyph unicode="&#x430;" horiz-adv-x="1466" d="M53 537q0 263 150 422q142 151 360 151q223 0 344 -170v129h434v-1069h-423v137q-111 -178 -351 -178q-216 0 -363 159q-151 164 -151 419zM494 535q0 -100 57.5 -160t155.5 -60q96 0 155.5 60t59.5 162q0 98 -60.5 158.5t-152.5 60.5q-100 0 -157.5 -59.5t-57.5 -161.5z " />
<glyph unicode="&#x431;" horiz-adv-x="1389" d="M74 672q0 450 197 671q160 179 411 179q166 0 230 30q51 23 51 74h337q0 -195 -107 -286q-111 -95 -355 -95q-198 0 -284.5 -75.5t-119.5 -272.5l2 -45q129 190 383 190q243 0 382 -154q128 -140 128 -356q0 -251 -142 -402q-160 -171 -466 -171q-337 0 -506 224 q-141 187 -141 489zM520 520q0 -87 49 -147q52 -64 138 -64q90 0 140 63q44 57 44 148q0 95 -46 153q-49 62 -138 62q-86 0 -138 -65q-49 -61 -49 -150z" />
<glyph unicode="&#x432;" horiz-adv-x="1288" d="M135 0v1069h578q465 0 465 -254q0 -79 -55 -137q-59 -63 -167 -84q289 -67 289 -293q0 -131 -113 -213q-123 -88 -341 -88h-656zM559 254h98q134 0 134 96q0 103 -134 103h-98v-199zM559 639h88q125 0 125 98q0 92 -129 92h-84v-190z" />
<glyph unicode="&#x433;" horiz-adv-x="952" d="M137 0v1069h791v-332h-353v-737h-438z" />
<glyph unicode="&#x434;" horiz-adv-x="1389" d="M0 -240v572q166 0 166 270v467h1075v-737h129v-572h-366v240h-635v-240h-369zM481 332h336v405h-246v-164q0 -172 -90 -241z" />
<glyph unicode="&#x435;" horiz-adv-x="1323" d="M57 537q0 257 165.5 415t439.5 158q313 0 472 -198q132 -164 132 -412v-47h-793q0 -87 45 -148q54 -72 154 -72q134 0 174 103l379 -72q-146 -305 -568 -305q-282 0 -446 168q-154 159 -154 410zM483 672h379q-7 72 -55 122q-53 54 -131 54q-161 0 -193 -176z" />
<glyph unicode="&#x436;" horiz-adv-x="1954" d="M-8 0l391 563l-338 506h477l250 -471v471h412v-471l248 471h479l-338 -506l389 -563h-500l-278 502v-502h-412v502l-278 -502h-502z" />
<glyph unicode="&#x437;" horiz-adv-x="1149" d="M39 82l115 266q171 -102 331 -102q146 0 146 96q0 86 -142 86h-161v240h168q135 0 135 90q0 84 -154 84q-157 0 -313 -78l-94 252q219 94 475 94q234 0 358 -78q121 -77 121 -217q0 -181 -156 -252q211 -78 211 -270q0 -142 -122 -231q-140 -103 -410 -103 q-283 0 -508 123z" />
<glyph unicode="&#x438;" horiz-adv-x="1430" d="M125 0v1069h426v-526l342 526h412v-1069h-428v537l-342 -537h-410z" />
<glyph unicode="&#x439;" horiz-adv-x="1430" d="M125 0v1069h426v-526l342 526h412v-1069h-428v537l-342 -537h-410zM340 1499h244q0 -133 131 -133q129 0 129 133h243q0 -146 -101 -235.5t-271 -89.5q-172 0 -273.5 89.5t-101.5 235.5z" />
<glyph unicode="&#x43a;" horiz-adv-x="1376" d="M125 0v1069h434v-461l305 461h508l-409 -502l432 -567h-525l-311 504v-504h-434z" />
<glyph unicode="&#x43b;" horiz-adv-x="1370" d="M-18 2l22 338q30 -12 70 -12q52 0 73 34q23 38 23 144v563h1069v-1069h-438v737h-230v-352q0 -414 -407 -414q-85 0 -182 31z" />
<glyph unicode="&#x43c;" horiz-adv-x="1726" d="M35 0l166 1069h485l176 -604l178 604h486l166 -1069h-422l-74 520l-174 -520h-315l-177 520l-73 -520h-422z" />
<glyph unicode="&#x43d;" horiz-adv-x="1413" d="M125 0v1069h438v-371h287v371h438v-1069h-438v399h-287v-399h-438z" />
<glyph unicode="&#x43e;" horiz-adv-x="1399" d="M53 537q0 245 176 406q182 167 471 167q288 0 470 -167q176 -161 176 -406q0 -246 -176 -410q-182 -168 -470 -168q-289 0 -471 168q-176 164 -176 410zM502 537q0 -84 52 -145q57 -66 146 -66t144 66q51 61 51 145h2q0 82 -52 142q-56 66 -145 66t-146 -66 q-52 -60 -52 -142z" />
<glyph unicode="&#x43f;" horiz-adv-x="1403" d="M125 0v1069h1153v-1069h-438v737h-277v-737h-438z" />
<glyph unicode="&#x440;" horiz-adv-x="1466" d="M125 -553v1622h420v-127q112 168 352 168q217 0 363 -151q153 -159 153 -410q0 -266 -152 -432q-145 -158 -362 -158q-202 0 -342 182q8 -176 8 -194v-500h-440zM545 532q0 -89 63 -153t148 -64q101 0 158 57.5t57 162.5q0 103 -58.5 161t-156.5 58q-96 0 -153.5 -55 t-57.5 -148v-19z" />
<glyph unicode="&#x441;" horiz-adv-x="1020" d="M55 537q0 246 164 408q168 165 432 165q135 0 271 -63v-365q-95 72 -197 72q-96 0 -157 -60q-64 -62 -64 -166q0 -98 64 -155.5t167 -57.5q108 0 187 64v-361q-124 -58 -275 -59q-257 -1 -423 159q-169 162 -169 419z" />
<glyph unicode="&#x442;" horiz-adv-x="1008" d="M20 737v332h967v-332h-264v-737h-438v737h-265z" />
<glyph unicode="&#x443;" horiz-adv-x="1382" d="M-12 1069h499l252 -567l238 567h444l-753 -1622h-453l305 614z" />
<glyph unicode="&#x444;" horiz-adv-x="1974" d="M55 537q0 274 127 426q122 147 334 147q137 0 256 -90v598h430v-598q122 90 256 90q213 0 335 -147q126 -151 126 -426t-126 -429q-123 -149 -335 -149q-61 0 -138 25q-83 27 -118 63v-600h-430v600q-35 -37 -117 -63q-77 -25 -139 -25q-211 0 -334 149 q-127 154 -127 429zM481 528q0 -99 45.5 -156t124.5 -57q81 0 135 39v353q-67 47 -145 47q-160 0 -160 -226zM1190 354q54 -39 135 -39q78 0 123 56.5t45 156.5q0 106 -42 166t-116 60q-78 0 -145 -47v-353z" />
<glyph unicode="&#x445;" horiz-adv-x="1440" d="M-41 0l485 573l-407 496h532l150 -227l149 227h539l-412 -496l486 -573h-543l-219 289l-217 -289h-543z" />
<glyph unicode="&#x446;" horiz-adv-x="1407" d="M127 0v1069h438v-737h266v737h439v-737h127v-572h-369v240h-901z" />
<glyph unicode="&#x447;" horiz-adv-x="1327" d="M98 698v371h426v-315q0 -133 127 -133q49 0 109 20v428h438v-1069h-438v356q-126 -41 -240 -41q-240 0 -338 101q-84 87 -84 282z" />
<glyph unicode="&#x448;" horiz-adv-x="1966" d="M125 0v1069h420v-737h239v737h398v-737h239v737h420v-1069h-1716z" />
<glyph unicode="&#x449;" horiz-adv-x="1985" d="M127 0v1069h420v-737h239v737h398v-737h239v737h420v-737h127v-572h-366v240h-1477z" />
<glyph unicode="&#x44a;" horiz-adv-x="1346" d="M25 737v332h655v-354h137q253 0 375 -110q104 -94 104 -255q0 -164 -123 -255q-129 -95 -374 -95h-555v737h-219zM680 258h78q116 0 116 107q0 100 -116 100h-78v-207z" />
<glyph unicode="&#x44b;" horiz-adv-x="1817" d="M125 0v1069h430v-354h133q240 0 364 -110q109 -97 109 -255q0 -164 -121 -255q-128 -95 -372 -95h-543zM555 258h72q118 0 118 107q0 100 -118 100h-72v-207zM1262 0v1069h430v-1069h-430z" />
<glyph unicode="&#x44c;" horiz-adv-x="1229" d="M127 0v1069h436v-354h139q252 0 374 -110q104 -94 104 -255q0 -164 -124 -255q-129 -95 -374 -95h-555zM563 258h78q119 0 119 107q0 100 -119 100h-78v-207z" />
<glyph unicode="&#x44d;" horiz-adv-x="1106" d="M100 8v307q127 -75 271 -75q108 0 180 46q76 49 88 134h-346v242h344q-21 81 -95.5 126.5t-172.5 45.5q-143 0 -269 -80v295q153 65 326 65q283 0 454 -156t171 -415q0 -265 -159 -422q-167 -166 -466 -166q-179 0 -326 53z" />
<glyph unicode="&#x44e;" horiz-adv-x="1896" d="M125 0v1069h424v-377h86q50 187 205 300q161 118 387 118q272 0 445 -167q169 -162 169 -406q0 -246 -169 -410q-173 -168 -445 -168q-232 0 -396 126q-158 121 -202 318h-80v-403h-424zM1042 537q0 -103 49.5 -165.5t135.5 -62.5q87 0 136 63q46 61 46 165 q0 101 -46 161q-49 62 -136 62q-86 0 -135.5 -61.5t-49.5 -161.5z" />
<glyph unicode="&#x44f;" horiz-adv-x="1286" d="M43 0l258 377q-225 71 -225 317q0 181 131 278t375 97h579v-1069h-434v358l-29 -6l-184 -352h-471zM504 686q0 -115 125 -115h98v238h-98q-125 0 -125 -123z" />
<glyph unicode="&#x451;" horiz-adv-x="1323" d="M57 537q0 257 165.5 415t439.5 158q326 0 479 -206q125 -168 125 -451h-793q0 -220 205 -220q128 0 168 103l379 -72q-146 -305 -568 -305q-282 0 -446 168q-154 159 -154 410zM180 1413q0 85 59.5 144t143.5 59q85 0 144 -58.5t59 -144.5t-59 -144.5t-144 -58.5 q-84 0 -143.5 59t-59.5 144zM483 672h379q-7 72 -55 122q-53 54 -131 54q-161 0 -193 -176zM743 1413q0 85 59.5 144t143.5 59q85 0 144 -58.5t59 -144.5t-59 -144.5t-144 -58.5q-84 0 -143.5 59t-59.5 144z" />
<glyph unicode="&#x2000;" horiz-adv-x="1012" />
<glyph unicode="&#x2001;" horiz-adv-x="2025" />
<glyph unicode="&#x2002;" horiz-adv-x="1012" />
<glyph unicode="&#x2003;" horiz-adv-x="2025" />
<glyph unicode="&#x2004;" horiz-adv-x="675" />
<glyph unicode="&#x2005;" horiz-adv-x="506" />
<glyph unicode="&#x2006;" horiz-adv-x="337" />
<glyph unicode="&#x2007;" horiz-adv-x="337" />
<glyph unicode="&#x2008;" horiz-adv-x="253" />
<glyph unicode="&#x2009;" horiz-adv-x="405" />
<glyph unicode="&#x200a;" horiz-adv-x="112" />
<glyph unicode="&#x2010;" horiz-adv-x="922" d="M92 463v340h737v-340h-737z" />
<glyph unicode="&#x2011;" horiz-adv-x="922" d="M92 463v340h737v-340h-737z" />
<glyph unicode="&#x2012;" horiz-adv-x="922" d="M92 463v340h737v-340h-737z" />
<glyph unicode="&#x2013;" horiz-adv-x="1024" d="M-12 481v299h1048v-299h-1048z" />
<glyph unicode="&#x2014;" horiz-adv-x="2048" d="M-12 471v338h2072v-338h-2072z" />
<glyph unicode="&#x2018;" horiz-adv-x="813" d="M49 895l391 686h287l-240 -686h-438z" />
<glyph unicode="&#x2019;" horiz-adv-x="813" d="M86 895l240 686h438l-391 -686h-287z" />
<glyph unicode="&#x201a;" horiz-adv-x="778" d="M51 -299l242 686h436l-389 -686h-289z" />
<glyph unicode="&#x201c;" horiz-adv-x="1370" d="M49 895l375 686h289l-242 -686h-422zM621 895l374 686h287l-240 -686h-421z" />
<glyph unicode="&#x201d;" horiz-adv-x="1370" d="M86 895l240 686h422l-375 -686h-287zM655 895l240 686h424l-377 -686h-287z" />
<glyph unicode="&#x201e;" horiz-adv-x="1335" d="M51 -299l242 686h422l-375 -686h-289zM623 -299l239 686h424l-375 -686h-288z" />
<glyph unicode="&#x2022;" d="M352 772q0 164 115 278.5t278 114.5t278.5 -114.5t115.5 -278.5q0 -163 -115.5 -277t-278.5 -114t-278 114t-115 277z" />
<glyph unicode="&#x2026;" horiz-adv-x="2048" d="M113 193q0 95 68 163t163 68q96 0 165 -68t69 -163t-69.5 -164.5t-164.5 -69.5t-163 69t-68 165zM793 193q0 95 68 163t163 68t164 -68t69 -163t-69 -164.5t-164 -69.5t-163 69t-68 165zM1473 193q0 95 68 163t163 68t164 -68t69 -163t-69 -164.5t-164 -69.5t-163 69 t-68 165z" />
<glyph unicode="&#x202f;" horiz-adv-x="405" />
<glyph unicode="&#x2039;" horiz-adv-x="719" d="M57 604l365 508l211 -135l-271 -373l271 -368l-211 -136z" />
<glyph unicode="&#x203a;" horiz-adv-x="719" d="M88 236l268 368l-268 373l209 135l365 -508l-365 -504z" />
<glyph unicode="&#x205f;" horiz-adv-x="506" />
<glyph unicode="&#x2122;" horiz-adv-x="1987" d="M106 1368v176h682v-176h-231v-592h-219v592h-232zM907 776v768h307l158 -414l152 414h307v-768h-207v500l-205 -500h-96l-207 500v-500h-209z" />
<glyph unicode="&#x25fc;" horiz-adv-x="1070" d="M0 0v1070h1070v-1070h-1070z" />
</font>
</defs>
</svg>
