<svg width="32" height="32" viewBox="0 0 32 32" fill="none" xmlns="http://www.w3.org/2000/svg">
<rect width="32" height="32" rx="5" fill="black"/>
<path d="M25 14.5V11.5H23.5V14.5H20.5V16H23.5V19H25V16H28V14.5H25Z" fill="white"/>
<path d="M11.5 14.5V17.5H15.7435C15.124 19.246 13.456 20.5 11.5 20.5C9.019 20.5 7 18.481 7 16C7 13.519 9.019 11.5 11.5 11.5C12.5755 11.5 13.6105 11.8855 14.4145 12.586L16.3855 10.324C15.0355 9.148 13.3015 8.5 11.5 8.5C7.3645 8.5 4 11.8645 4 16C4 20.1355 7.3645 23.5 11.5 23.5C15.6355 23.5 19 20.1355 19 16V14.5H11.5Z" fill="white"/>
</svg>
