<svg width="32" height="32" viewBox="0 0 32 32" fill="none" xmlns="http://www.w3.org/2000/svg">
<rect width="32" height="32" rx="5" fill="black"/>
<path d="M20.5 4H11.5C7.3585 4 4 7.3585 4 11.5V20.5C4 24.6415 7.3585 28 11.5 28H20.5C24.6415 28 28 24.6415 28 20.5V11.5C28 7.3585 24.6415 4 20.5 4ZM25.75 20.5C25.75 23.395 23.395 25.75 20.5 25.75H11.5C8.605 25.75 6.25 23.395 6.25 20.5V11.5C6.25 8.605 8.605 6.25 11.5 6.25H20.5C23.395 6.25 25.75 8.605 25.75 11.5V20.5Z" fill="white"/>
<path d="M16 10C12.6865 10 10 12.6865 10 16C10 19.3135 12.6865 22 16 22C19.3135 22 22 19.3135 22 16C22 12.6865 19.3135 10 16 10ZM16 19.75C13.933 19.75 12.25 18.067 12.25 16C12.25 13.9315 13.933 12.25 16 12.25C18.067 12.25 19.75 13.9315 19.75 16C19.75 18.067 18.067 19.75 16 19.75Z" fill="white"/>
<path d="M22.45 10.3495C22.8916 10.3495 23.2495 9.99154 23.2495 9.54999C23.2495 9.10844 22.8916 8.75049 22.45 8.75049C22.0085 8.75049 21.6505 9.10844 21.6505 9.54999C21.6505 9.99154 22.0085 10.3495 22.45 10.3495Z" fill="white"/>
</svg>
