<svg width="32" height="32" viewBox="0 0 32 32" fill="none" xmlns="http://www.w3.org/2000/svg">
<rect width="32" height="32" rx="5" fill="black"/>
<path d="M20.3515 24.088C19.6855 24.088 19.0615 23.932 18.5455 23.617C18.133 23.377 17.77 22.969 17.626 22.5805C17.482 22.1845 17.497 21.3745 17.497 19.9885V14.4925H23.5015V10.0015H17.497V4H13.6285C13.4725 5.2345 13.192 6.259 12.7795 7.051C12.385 7.858 11.83 8.5405 11.1745 9.118C10.4965 9.6895 9.44654 10.126 8.49854 10.4365V13.837H11.719V22.2475C11.719 23.35 11.83 24.1915 12.067 24.766C12.2995 25.345 12.697 25.8895 13.3045 26.3995C13.9015 26.9155 14.6155 27.3115 15.469 27.5905C16.3 27.865 16.954 28 18.0535 28C19.018 28 19.9195 27.9085 20.7445 27.706C21.571 27.5185 22.4695 27.2335 23.5015 26.752V23.1445C22.2955 23.932 21.568 24.088 20.3515 24.088Z" fill="white"/>
</svg>
