<svg width="32" height="32" viewBox="0 0 32 32" fill="none" xmlns="http://www.w3.org/2000/svg">
<rect width="32" height="32" rx="5" fill="black"/>
<g clip-path="url(#clip0)">
<path d="M28 8.5585C27.1075 8.95 26.1565 9.2095 25.165 9.3355C26.185 8.7265 26.9635 7.7695 27.3295 6.616C26.3785 7.183 25.3285 7.5835 24.2095 7.807C23.3065 6.8455 22.0195 6.25 20.6155 6.25C17.8915 6.25 15.6985 8.461 15.6985 11.1715C15.6985 11.5615 15.7315 11.9365 15.8125 12.2935C11.722 12.094 8.1025 10.1335 5.671 7.147C5.2465 7.8835 4.9975 8.7265 4.9975 9.634C4.9975 11.338 5.875 12.8485 7.183 13.723C6.3925 13.708 5.617 13.4785 4.96 13.117C4.96 13.132 4.96 13.1515 4.96 13.171C4.96 15.562 6.6655 17.548 8.902 18.0055C8.5015 18.115 8.065 18.1675 7.612 18.1675C7.297 18.1675 6.979 18.1495 6.6805 18.0835C7.318 20.032 9.127 21.4645 11.278 21.511C9.604 22.8205 7.4785 23.6095 5.1775 23.6095C4.774 23.6095 4.387 23.5915 4 23.542C6.1795 24.9475 8.7625 25.75 11.548 25.75C20.602 25.75 25.552 18.25 25.552 11.749C25.552 11.5315 25.5445 11.3215 25.534 11.113C26.5105 10.42 27.331 9.5545 28 8.5585Z" fill="white"/>
</g>
<defs>
<clipPath id="clip0">
<rect width="24" height="24" fill="white" transform="translate(4 4)"/>
</clipPath>
</defs>
</svg>
