<svg width="32" height="32" viewBox="0 0 32 32" fill="none" xmlns="http://www.w3.org/2000/svg">
<rect width="32" height="32" rx="5" fill="black"/>
<path d="M26.8833 21.3358C26.8567 21.2784 26.8319 21.2308 26.8088 21.1926C26.4271 20.5052 25.6977 19.6614 24.621 18.661L24.5982 18.6381L24.5868 18.6268L24.5753 18.6153H24.5638C24.0751 18.1495 23.7657 17.8363 23.6361 17.6759C23.399 17.3705 23.3459 17.0612 23.4754 16.748C23.567 16.5112 23.9109 16.0114 24.5064 15.2476C24.8196 14.8428 25.0676 14.5184 25.2508 14.274C26.572 12.5176 27.1448 11.3952 26.9691 10.9064L26.9008 10.7922C26.855 10.7234 26.7366 10.6605 26.5459 10.6031C26.3548 10.5459 26.1105 10.5364 25.8126 10.5746L22.5138 10.5974C22.4604 10.5784 22.3841 10.5802 22.2846 10.6031C22.1853 10.6261 22.1357 10.6376 22.1357 10.6376L22.0783 10.6663L22.0327 10.7008C21.9945 10.7235 21.9525 10.7636 21.9066 10.8209C21.861 10.878 21.8229 10.945 21.7924 11.0214C21.4332 11.9453 21.0249 12.8044 20.5666 13.5986C20.284 14.0721 20.0245 14.4825 19.7876 14.83C19.5509 15.1773 19.3523 15.4332 19.1921 15.5973C19.0316 15.7615 18.8868 15.893 18.7567 15.9924C18.6269 16.0918 18.5277 16.1338 18.4591 16.1185C18.3903 16.1031 18.3255 16.0879 18.2641 16.0726C18.1573 16.0039 18.0714 15.9103 18.0066 15.792C17.9415 15.6736 17.8977 15.5247 17.8748 15.3452C17.852 15.1656 17.8385 15.0112 17.8346 14.8813C17.8311 14.7516 17.8327 14.5681 17.8405 14.3314C17.8484 14.0946 17.852 13.9344 17.852 13.8504C17.852 13.5601 17.8576 13.2451 17.869 12.9053C17.8805 12.5655 17.8899 12.2963 17.8977 12.0979C17.9055 11.8994 17.9091 11.6893 17.9091 11.4678C17.9091 11.2464 17.8956 11.0727 17.869 10.9466C17.8427 10.8208 17.8023 10.6985 17.749 10.5801C17.6955 10.4617 17.6171 10.3702 17.5142 10.3052C17.4111 10.2403 17.283 10.1887 17.1305 10.1505C16.7257 10.0589 16.2103 10.0093 15.584 10.0016C14.1637 9.98638 13.2511 10.0781 12.8464 10.2767C12.686 10.3605 12.5409 10.4752 12.4112 10.6202C12.2737 10.7882 12.2545 10.8799 12.3538 10.895C12.812 10.9637 13.1364 11.1279 13.3274 11.3875L13.3962 11.5251C13.4497 11.6243 13.5031 11.8 13.5566 12.052C13.61 12.3039 13.6445 12.5826 13.6596 12.888C13.6977 13.4455 13.6977 13.9228 13.6596 14.3198C13.6214 14.717 13.5853 15.0262 13.5508 15.2476C13.5164 15.4691 13.4649 15.6486 13.3962 15.786C13.3274 15.9234 13.2816 16.0074 13.2586 16.0379C13.2357 16.0684 13.2166 16.0876 13.2015 16.0952C13.1022 16.1332 12.999 16.1526 12.8921 16.1526C12.7851 16.1526 12.6554 16.0991 12.5027 15.9921C12.35 15.8851 12.1916 15.7382 12.0274 15.5511C11.8632 15.3639 11.678 15.1024 11.4717 14.7664C11.2657 14.4305 11.0518 14.0334 10.8304 13.5753L10.6471 13.243C10.5326 13.0292 10.3761 12.718 10.1776 12.3095C9.97889 11.9009 9.80329 11.5056 9.65063 11.1238C9.58961 10.9635 9.49794 10.8414 9.37577 10.7574L9.31844 10.7229C9.28033 10.6924 9.21915 10.66 9.13522 10.6255C9.05117 10.5911 8.96346 10.5664 8.87175 10.5511L5.73323 10.5739C5.41251 10.5739 5.1949 10.6466 5.08032 10.7917L5.03446 10.8604C5.01155 10.8986 5 10.9596 5 11.0437C5 11.1277 5.02291 11.2308 5.06877 11.3529C5.52693 12.4297 6.02518 13.4682 6.5635 14.4686C7.10183 15.4689 7.56963 16.2747 7.96661 16.8852C8.36367 17.4962 8.7684 18.0729 9.18079 18.6149C9.59318 19.1571 9.86616 19.5046 9.99972 19.6572C10.1334 19.8102 10.2385 19.9245 10.3148 20.0009L10.6012 20.2757C10.7845 20.459 11.0536 20.6786 11.4087 20.9343C11.7639 21.1902 12.1571 21.4422 12.5886 21.6906C13.0201 21.9386 13.5221 22.1409 14.0949 22.2974C14.6676 22.4541 15.225 22.517 15.7672 22.4866H17.0845C17.3517 22.4636 17.5541 22.3796 17.6917 22.2346L17.7372 22.1772C17.7679 22.1316 17.7966 22.0608 17.8231 21.9655C17.8499 21.87 17.8632 21.7649 17.8632 21.6505C17.8554 21.3222 17.8803 21.0263 17.9375 20.7629C17.9946 20.4995 18.0596 20.301 18.1324 20.1673C18.2052 20.0337 18.2872 19.9209 18.3786 19.8295C18.4701 19.738 18.5354 19.6825 18.5737 19.6634C18.6117 19.6442 18.6421 19.6311 18.665 19.6233C18.8482 19.5622 19.0639 19.6214 19.3123 19.801C19.5606 19.9804 19.7934 20.202 20.0111 20.4654C20.2288 20.729 20.4903 21.0247 20.7957 21.353C21.1013 21.6814 21.3685 21.9255 21.5975 22.0861L21.8265 22.2236C21.9794 22.3153 22.178 22.3993 22.4224 22.4756C22.6663 22.552 22.8801 22.571 23.0636 22.5329L25.9959 22.4872C26.2859 22.4872 26.5116 22.4391 26.6717 22.3438C26.8321 22.2484 26.9273 22.1433 26.9581 22.0289C26.9887 21.9144 26.9904 21.7845 26.9639 21.6392C26.9367 21.4944 26.91 21.3931 26.8833 21.3358Z" fill="white"/>
</svg>
