<svg width="32" height="32" viewBox="0 0 32 32" fill="none" xmlns="http://www.w3.org/2000/svg">
<rect width="32" height="32" rx="5" fill="black"/>
<path d="M25.5005 16.4015C25.3846 15.8746 25.1276 15.4327 24.7304 15.0756C24.3329 14.7186 23.8754 14.5088 23.3574 14.4462C21.7147 14.2677 19.2371 14.1785 15.9243 14.1785C12.6117 14.1785 10.1385 14.2677 8.50457 14.4462C7.97792 14.5088 7.51812 14.7186 7.12511 15.0756C6.7322 15.4328 6.47326 15.8747 6.34821 16.4015C6.1161 17.4374 6 18.9998 6 21.0891C6 23.2141 6.1161 24.7767 6.34821 25.7768C6.46445 26.3033 6.72118 26.7456 7.1185 27.1025C7.51582 27.4596 7.97341 27.6649 8.4912 27.7186C10.1342 27.9061 12.612 27.9998 15.9244 27.9998C19.2366 27.9998 21.7149 27.9061 23.3573 27.7186C23.8753 27.6649 24.3306 27.4596 24.7236 27.1025C25.1165 26.7456 25.3755 26.3033 25.5004 25.7768C25.7325 24.7409 25.8487 23.1784 25.8487 21.0891C25.8487 18.9642 25.7325 17.4015 25.5005 16.4015ZM11.6657 17.7544H10.2326V25.3748H8.89344V17.7544H7.48711V16.4955H11.6657V17.7544H11.6657ZM15.2816 25.3748H14.0897V24.6514C13.6076 25.1963 13.152 25.4685 12.7235 25.4685C12.3128 25.4685 12.0538 25.3032 11.9468 24.973C11.8755 24.7587 11.8396 24.4326 11.8396 23.9952V18.7587H13.0316V23.6337C13.0316 23.9193 13.0361 24.0756 13.0451 24.1024C13.0719 24.2899 13.1655 24.3837 13.3263 24.3837C13.5674 24.3837 13.822 24.1962 14.0897 23.8212V18.7587H15.2817V25.3748H15.2816ZM19.8352 23.3926C19.8352 24.0443 19.7951 24.491 19.7152 24.7322C19.563 25.223 19.2463 25.4685 18.7642 25.4685C18.3356 25.4685 17.9205 25.223 17.5185 24.7322V25.3749H16.3267V16.4955H17.5185V19.4018C17.9026 18.9199 18.3176 18.6788 18.7642 18.6788C19.2463 18.6788 19.563 18.9288 19.7152 19.4288C19.7951 19.6609 19.8352 20.1028 19.8352 20.7546V23.3926ZM24.3621 22.2945H21.9648V23.4597C21.9648 24.0758 22.17 24.3837 22.5808 24.3837C22.8753 24.3837 23.054 24.2231 23.1165 23.9014C23.1341 23.8122 23.1433 23.54 23.1433 23.0847H24.362V23.2587C24.362 23.6963 24.3529 23.9551 24.3352 24.0356C24.3086 24.2764 24.2151 24.5175 24.054 24.7586C23.7325 25.2319 23.25 25.4685 22.6072 25.4685C21.9915 25.4685 21.5092 25.2408 21.1609 24.7856C20.9021 24.4552 20.7727 23.9374 20.7727 23.232V20.9149C20.7727 20.2096 20.8976 19.6917 21.1474 19.3613C21.4958 18.906 21.9735 18.6784 22.5808 18.6784C23.1791 18.6784 23.6527 18.906 24.0004 19.3613C24.2418 19.6917 24.3621 20.2096 24.3621 20.9149V22.2945Z" fill="white"/>
<path d="M18.1208 19.7634C17.9153 19.7634 17.7146 19.862 17.5181 20.0582V24.0892C17.7146 24.2856 17.9153 24.3838 18.1208 24.3838C18.4688 24.3838 18.6433 24.0849 18.6433 23.4864V20.6608C18.6433 20.0625 18.4692 19.7634 18.1208 19.7634Z" fill="white"/>
<path d="M22.5675 19.7634C22.1657 19.7634 21.9648 20.0672 21.9648 20.6739V21.29H23.1701V20.6739C23.1701 20.0668 22.9691 19.7634 22.5675 19.7634Z" fill="white"/>
<path d="M10.8893 9.34373V12.9733H12.2285V9.34373L13.8487 4H12.4827L11.5722 7.52235L10.6212 4H9.20166C9.45169 4.75007 9.74186 5.58482 10.0722 6.50452C10.4919 7.73658 10.7641 8.68316 10.8893 9.34373Z" fill="white"/>
<path d="M15.6434 13.067C16.2595 13.067 16.7325 12.8393 17.0629 12.384C17.313 12.0536 17.4379 11.5268 17.4379 10.8037V8.4598C17.4379 7.74561 17.3127 7.22314 17.0629 6.89276C16.7325 6.43741 16.2595 6.20972 15.6434 6.20972C15.045 6.20972 14.5762 6.43741 14.237 6.89276C13.9871 7.22314 13.8621 7.74561 13.8621 8.4598V10.8036C13.8621 11.5178 13.987 12.0447 14.237 12.3839C14.5763 12.8393 15.0449 13.067 15.6434 13.067ZM15.0674 8.21869C15.0674 7.60259 15.2594 7.29453 15.6434 7.29453C16.0273 7.29453 16.2192 7.60259 16.2192 8.21869V11.0311C16.2192 11.6563 16.0273 11.9686 15.6434 11.9686C15.2594 11.9686 15.0674 11.6561 15.0674 11.0311V8.21869Z" fill="white"/>
<path d="M19.3261 13.0669C19.7728 13.0669 20.2327 12.7901 20.7058 12.2364V12.973H21.9246V6.29004H20.7058V11.3927C20.4379 11.7767 20.1836 11.9685 19.9422 11.9685C19.7813 11.9685 19.6876 11.8703 19.6609 11.6739C19.652 11.656 19.6475 11.4996 19.6475 11.2051V6.29004H18.4287V11.5669C18.4287 12.0222 18.4647 12.3569 18.5359 12.5713C18.6521 12.9017 18.9154 13.0669 19.3261 13.0669Z" fill="white"/>
</svg>
