<?xml version="1.0" encoding="utf-8"?>
<!-- Generator: Adobe Illustrator 15.1.0, SVG Export Plug-In . SVG Version: 6.00 Build 0)  -->
<!DOCTYPE svg PUBLIC "-//W3C//DTD SVG 1.1//EN" "http://www.w3.org/Graphics/SVG/1.1/DTD/svg11.dtd">
<svg version="1.1" id="Слой_1" xmlns="http://www.w3.org/2000/svg" xmlns:xlink="http://www.w3.org/1999/xlink" x="0px" y="0px"
	 width="32.839px" height="29.064px" viewBox="0 0 32.839 29.064" enable-background="new 0 0 32.839 29.064" xml:space="preserve">
<g>
	<path fill="#6F6F6F" d="M16.375,2.136c6.873,0,12.464,5.591,12.464,12.463c0,6.873-5.591,12.465-12.464,12.465
		c-6.872,0-12.463-5.592-12.463-12.465C3.913,7.728,9.503,2.136,16.375,2.136 M16.375,0.136C8.388,0.136,1.913,6.612,1.913,14.6
		c0,7.988,6.476,14.465,14.463,14.465c7.988,0,14.464-6.477,14.464-14.465C30.839,6.612,24.364,0.136,16.375,0.136L16.375,0.136z"/>
</g>
<g>
	<g>
		<path fill="#6F6F6F" d="M9.958,10.395H9.05c-0.035,0.473-0.194,0.794-0.478,0.964s-0.724,0.255-1.321,0.255v0.797h1.582v5.848
			H7.251v0.891h4.254v-0.891H9.958V10.395z M17.048,14.537v-0.035c0.43-0.215,0.759-0.514,0.987-0.896s0.343-0.77,0.343-1.16
			c0-0.648-0.239-1.181-0.718-1.597s-1.114-0.624-1.907-0.624c-0.762,0-1.391,0.219-1.887,0.656s-0.744,0.984-0.744,1.641
			c0,0.445,0.104,0.816,0.311,1.113s0.525,0.57,0.955,0.82v0.035c-0.48,0.234-0.847,0.55-1.099,0.946s-0.378,0.831-0.378,1.304
			c0,0.359,0.063,0.7,0.19,1.022s0.313,0.601,0.56,0.835c0.25,0.242,0.553,0.428,0.908,0.557s0.75,0.193,1.184,0.193
			c0.813,0,1.489-0.252,2.03-0.756s0.812-1.129,0.812-1.875c0-0.535-0.131-0.973-0.393-1.313S17.556,14.776,17.048,14.537z
			 M14.294,12.387c0-0.398,0.136-0.715,0.407-0.949s0.62-0.352,1.046-0.352c0.465,0,0.828,0.131,1.09,0.393s0.393,0.588,0.393,0.979
			c0,0.355-0.061,0.671-0.182,0.946s-0.352,0.544-0.691,0.806c-0.203-0.066-0.429-0.158-0.677-0.275s-0.433-0.209-0.554-0.275
			c-0.277-0.16-0.485-0.34-0.624-0.539S14.294,12.676,14.294,12.387z M16.949,18.032c-0.297,0.295-0.691,0.442-1.184,0.442
			c-0.48,0-0.88-0.172-1.198-0.516s-0.478-0.779-0.478-1.307c0-0.402,0.086-0.761,0.258-1.075s0.42-0.579,0.744-0.794
			c0.277,0.117,0.526,0.219,0.747,0.305s0.397,0.166,0.53,0.24c0.402,0.219,0.674,0.434,0.814,0.645s0.211,0.496,0.211,0.855
			C17.394,17.336,17.246,17.738,16.949,18.032z M23.88,14.86v-2.959h-0.973v2.959h-2.959v0.938h2.959v2.959h0.973v-2.959h2.959
			V14.86H23.88z"/>
	</g>
</g>
</svg>
