<?xml version="1.0" encoding="utf-8"?>
<!-- Generator: Adobe Illustrator 15.1.0, SVG Export Plug-In  -->
<!DOCTYPE svg PUBLIC "-//W3C//DTD SVG 1.1//EN" "http://www.w3.org/Graphics/SVG/1.1/DTD/svg11.dtd" [
	<!ENTITY ns_flows "http://ns.adobe.com/Flows/1.0/">
]>
<svg version="1.1"
	 xmlns="http://www.w3.org/2000/svg" xmlns:xlink="http://www.w3.org/1999/xlink" xmlns:a="http://ns.adobe.com/AdobeSVGViewerExtensions/3.0/"
	 x="0px" y="0px" width="17px" height="28px" viewBox="0 0 17 28" enable-background="new 0 0 17 28" xml:space="preserve">
<defs>
</defs>
<path fill="#FFFFFF" d="M3.512,0c0.938,0,1.82,0.371,2.484,1.045l9.974,10.324c0.681,0.69,1.053,1.585,1.024,2.564
	c0.028,0.981-0.344,2.001-1.024,2.692L5.996,26.919c-0.664,0.674-1.546,1.045-2.484,1.045c-0.939,0-1.79-0.34-2.453-1.014
	c-1.37-1.393-1.401-3.688-0.031-5.08l7.487-7.873L1.027,6.095c-1.37-1.392-1.37-3.657,0-5.049C1.691,0.371,2.573,0,3.512,0z"/>
<path d="M3.889,25.433c0.356,0,0.69-0.141,0.942-0.396l9.146-10.009c0.264-0.268,0.35-0.627,0.35-1.008c0-0.016,0-0.046,0-0.046
	s-0.086-0.74-0.35-1.009L4.889,3.023C4.637,2.768,4.338,2.627,3.982,2.627c-0.356,0-0.673,0.141-0.925,0.396
	c-0.52,0.528-0.51,1.386,0.009,1.914l8.289,8.637c0.23,0.235,0.233,0.616,0.002,0.851l-8.411,8.697
	c-0.519,0.528-0.519,1.387,0.001,1.914C3.198,25.292,3.533,25.433,3.889,25.433z"/>
<path d="M3.889,25.433c0.356,0,0.69-0.141,0.942-0.396l9.146-10.009c0.264-0.268,0.35-0.627,0.35-1.008c0-0.016,0-0.046,0-0.046
	s-0.086-0.74-0.35-1.009L4.889,3.023C4.637,2.768,4.338,2.627,3.982,2.627c-0.356,0-0.673,0.141-0.925,0.396
	c-0.52,0.528-0.51,1.386,0.009,1.914l8.289,8.637c0.23,0.235,0.233,0.616,0.002,0.851l-8.411,8.697
	c-0.519,0.528-0.519,1.387,0.001,1.914C3.198,25.292,3.533,25.433,3.889,25.433z"/>
</svg>
