<?xml version="1.0" encoding="utf-8"?>
<!DOCTYPE svg PUBLIC "-//W3C//DTD SVG 1.1//EN" "http://www.w3.org/Graphics/SVG/1.1/DTD/svg11.dtd">
<svg version="1.1" id="Слой_1" xmlns="http://www.w3.org/2000/svg" xmlns:xlink="http://www.w3.org/1999/xlink" x="0px" y="0px"
	 width="25.908px" height="22.994px" viewBox="0 0 25.908 22.994" enable-background="new 0 0 25.908 22.994" xml:space="preserve">
<path d="M23.958,12.592l-1.326,8.348c-0.17,1.172-1.207,2.055-2.412,2.055H5.927c-1.196,0-2.207-0.842-2.404-2l-1.557-8.4
	C0.989,12.52,0,11.715,0,10.736V8.797c0-1.025,0.85-1.861,1.895-1.861h2.292c0.01-0.012,0.019-0.023,0.029-0.033l6.414-6.668
	c0.317-0.313,0.832-0.313,1.148,0c0.318,0.313,0.318,0.816,0,1.129L6.48,6.936h12.948l-5.205-5.572
	c-0.318-0.313-0.318-0.816,0-1.129c0.316-0.313,0.832-0.313,1.148,0l6.32,6.668c0.01,0.01,0.02,0.021,0.029,0.033h2.291
	c1.045,0,1.896,0.836,1.896,1.861v1.939C25.909,11.709,24.927,12.512,23.958,12.592z M5.373,20.396
	c0.061,0.357,0.371,0.584,0.738,0.584h13.997c0.369,0,0.688-0.24,0.74-0.6l1.191-7.475H10.036H4.994H3.98L5.373,20.396z
	 M23.993,9.201c0-0.143-0.119-0.26-0.264-0.26H2.217c-0.145,0-0.263,0.117-0.263,0.26v1.525c0,0.143,0.118,0.26,0.263,0.26
	c0.097,0,1.311,0,2.748,0c0.116,0,2.239,0,5.017,0c5.506,0,13.588,0,13.748,0c0.145,0,0.264-0.117,0.264-0.26V9.201z M8.987,13.979
	c0.552,0,1,0.438,1,0.902v4.105c0,0.465-0.479,0.998-1.031,0.998c-0.553,0-0.969-0.533-0.969-0.998v-4.105
	C7.987,14.416,8.435,13.979,8.987,13.979z M13.026,13.947c0.443,0,0.928,0.381,0.928,0.854v4.174c0,0.471-0.516,1.01-0.959,1.01
	c-0.441,0-0.988-0.539-0.988-1.01v-4.174C12.007,14.328,12.585,13.947,13.026,13.947z M16.983,13.947c0.553,0,1,0.531,1,0.996v4.076
	c0,0.463-0.447,0.996-1,0.996s-1-0.533-1-0.996v-4.076C15.983,14.479,16.431,13.947,16.983,13.947z" fill="#c80000"/>
</svg>
