<svg xmlns="http://www.w3.org/2000/svg" viewBox="0 0 22.4 20.98"><defs><style>.cls-1{fill:#fff;}</style></defs><title>bonus_icon</title><g id="Слой_2" data-name="Слой 2"><g id="Слой_1-2" data-name="Слой 1"><path class="cls-1" d="M1.4,11.18v8.4A1.4,1.4,0,0,0,2.8,21h7v-9.8Z"/><path class="cls-1" d="M21,5.57H16.57A5,5,0,0,0,17.35,5a2.93,2.93,0,0,0,0-4.12,3,3,0,0,0-4.1,0c-.61.61-2.22,3.09-2,4.74h-.1c.22-1.65-1.39-4.13-2-4.74a3,3,0,0,0-4.11,0A2.93,2.93,0,0,0,5.05,5a5,5,0,0,0,.78.62H1.4A1.4,1.4,0,0,0,0,7v2.1a.7.7,0,0,0,.7.71H9.8V7h2.8V9.78h9.1a.7.7,0,0,0,.7-.71V7A1.4,1.4,0,0,0,21,5.57Zm-11.28,0a.53.53,0,0,1-.26,0A6.88,6.88,0,0,1,6,4,1.53,1.53,0,0,1,6,1.82,1.48,1.48,0,0,1,7.1,1.37a1.47,1.47,0,0,1,1.06.45C9.11,2.77,10.05,5.19,9.72,5.53Zm3.22,0c-.2,0-.25,0-.25,0-.33-.34.61-2.76,1.55-3.71A1.51,1.51,0,1,1,16.36,4,6.84,6.84,0,0,1,12.94,5.57Z"/><path class="cls-1" d="M12.6,11.18V21h7a1.4,1.4,0,0,0,1.4-1.4v-8.4Z"/></g></g></svg>