<?xml version="1.0" encoding="utf-8"?>
<!DOCTYPE svg PUBLIC "-//W3C//DTD SVG 1.1//EN" "http://www.w3.org/Graphics/SVG/1.1/DTD/svg11.dtd">
<svg version="1.1" xmlns="http://www.w3.org/2000/svg" xmlns:xlink="http://www.w3.org/1999/xlink" x="0px" y="0px"
	 width="31.001px" height="20.001px" viewBox="0 0 31.001 20.001" enable-background="new 0 0 31.001 20.001" xml:space="preserve">
<path fill-rule="evenodd" clip-rule="evenodd" fill="#ffffff" d="M29.001,12.001h-27c-1.49,0-1.969-1.083-2-2.021
	c-0.031-0.937,0.475-2.01,2-1.979h27c0.845,0,1.969,0.323,2,2.041C31.033,11.762,29.554,12.001,29.001,12.001z M29.001,4.001h-27
	c-1.49,0-1.969-1.083-2-2.021C-0.03,1.042,0.476-0.03,2.001,0h27c0.845,0,1.969,0.324,2,2.042
	C31.033,3.761,29.554,4.001,29.001,4.001z M2.001,16.001h27c0.845,0,1.969,0.322,2,2.042c0.031,1.719-1.447,1.958-2,1.958h-27
	c-1.49,0-1.969-1.083-2-2.021C-0.03,17.042,0.476,15.97,2.001,16.001z"/>
</svg>
