<?xml version="1.0" encoding="utf-8"?>
<!DOCTYPE svg PUBLIC "-//W3C//DTD SVG 1.1//EN" "http://www.w3.org/Graphics/SVG/1.1/DTD/svg11.dtd">
<svg version="1.1" xmlns="http://www.w3.org/2000/svg" xmlns:xlink="http://www.w3.org/1999/xlink" x="0px" y="0px"
	 width="32.839px" height="29.065px" viewBox="0 0 32.839 29.065" enable-background="new 0 0 32.839 29.065" xml:space="preserve">
<g>
	<path d="M16.419,29.065l-0.379-0.156C15.385,28.64,0,22.199,0,10.637C0,4.772,4.339,0,9.673,0
		c2.46,0,4.864,1.176,6.746,3.267C18.301,1.176,20.705,0,23.165,0c5.334,0,9.674,4.772,9.674,10.637
		c0,11.562-15.386,18.003-16.041,18.271L16.419,29.065z M9.673,2C5.442,2,2,5.875,2,10.637c0,9.302,12.102,15.21,14.418,16.255
		c2.316-1.047,14.42-6.967,14.42-16.255C30.839,5.875,27.396,2,23.165,2c-2.149,0-4.369,1.287-5.938,3.443l-0.809,1.111L15.61,5.443
		C14.042,3.287,11.822,2,9.673,2z" fill="#ffffff"/>
</g>
</svg>
