<?xml version="1.0" encoding="utf-8"?>
<!-- Generator: Adobe Illustrator 15.1.0, SVG Export Plug-In . SVG Version: 6.00 Build 0)  -->
<!DOCTYPE svg PUBLIC "-//W3C//DTD SVG 1.1//EN" "http://www.w3.org/Graphics/SVG/1.1/DTD/svg11.dtd">
<svg version="1.1" id="Слой_1" xmlns="http://www.w3.org/2000/svg" xmlns:xlink="http://www.w3.org/1999/xlink" x="0px" y="0px"
	 width="24.576px" height="21.033px" viewBox="0 0 24.576 21.033" enable-background="new 0 0 24.576 21.033" xml:space="preserve">
<g>
	<circle cx="5.612" cy="18.94" r="2.092" fill="#FFF"/>
	<circle cx="15.03" cy="18.94" r="2.092" fill="#FFF"/>
	<path d="M21.466,0h-0.999l-0.278,1l-0.57,2.052v0.039h-0.973v0.006H0l0.144,0.414l0.152,0.437l3.498,10.05l0.325,0.949h9.03v-0.013
		h4.163l3.872-13.926h3.392V1V0.009V0H21.466z M11.356,3.948h3.771L14.58,6.986h-3.224V3.948z M2.705,7.945L2.692,7.909h0.013V7.945
		z M2.372,6.986L1.314,3.948h3.854l0.549,3.038H3.041H2.705H2.372z M3.795,11.074L2.706,7.948h3.185L6.441,11H3.795V11.074z
		 M4.809,13.987l-0.705-2.023h2.512l0.365,2.023H4.809z M10.356,13.987H7.958l-0.365-2.023h2.764V13.987z M10.356,11H7.419
		L6.868,7.948h3.488V11z M10.356,6.986H6.695L6.146,3.948h4.21V6.986z M13.316,13.987h-1.96v-2.023h2.325L13.316,13.987z M11.356,11
		V7.948h3.05L13.855,11H11.356z M16.578,13.987h-2.284l0.365-2.023h2.481L16.578,13.987z M17.408,11h-0.167h-0.67h-1.738
		l0.551-3.052h2.873L17.408,11z M18.524,6.986h-2.967l0.548-3.038h3.264L18.524,6.986z"  fill="#FFF"/>
</g>
</svg>
