<svg width="18" height="18" viewBox="0 0 18 18" fill="none" xmlns="http://www.w3.org/2000/svg">
<path d="M0.29301 16.2929C-0.0975142 16.6834 -0.0975142 17.3166 0.29301 17.7071C0.683534 18.0976 1.3167 18.0976 1.70722 17.7071L0.29301 16.2929ZM17.7072 1.70711C18.0977 1.31658 18.0977 0.683418 17.7072 0.292894C17.3167 -0.0976307 16.6835 -0.0976307 16.293 0.292894L17.7072 1.70711ZM1.70711 0.292893C1.31658 -0.0976311 0.683417 -0.0976311 0.292893 0.292893C-0.0976311 0.683417 -0.0976311 1.31658 0.292893 1.70711L1.70711 0.292893ZM16.2929 17.7071C16.6834 18.0976 17.3166 18.0976 17.7071 17.7071C18.0976 17.3166 18.0976 16.6834 17.7071 16.2929L16.2929 17.7071ZM1.70722 17.7071L17.7072 1.70711L16.293 0.292894L0.29301 16.2929L1.70722 17.7071ZM0.292893 1.70711L16.2929 17.7071L17.7071 16.2929L1.70711 0.292893L0.292893 1.70711Z" fill="#1A1A1A"/>
</svg>
