<svg width="36" height="36" viewBox="0 0 36 36" fill="none" xmlns="http://www.w3.org/2000/svg">
<path d="M17.9969 2.48885C26.5498 2.48885 33.5074 9.44644 33.5074 17.9981C33.5074 26.5511 26.5498 33.5099 17.9969 33.5099C9.44519 33.5099 2.48761 26.5511 2.48761 17.9981C2.48885 9.44768 9.44519 2.48885 17.9969 2.48885ZM17.9969 0C8.05766 0 0 8.0589 0 17.9994C0 27.9399 8.0589 36 17.9981 36C27.9386 36 35.9975 27.9399 35.9975 17.9994C35.9963 8.0589 27.9386 0 17.9969 0Z" fill="#F31806"/>
<path d="M12.3574 22H6.5918V20.4766H8.43164V15.8652H6.5918V14.4414C6.86133 14.4414 7.12891 14.4238 7.39453 14.3887C7.66016 14.3535 7.87305 14.2969 8.0332 14.2188C8.2207 14.125 8.36523 14 8.4668 13.8438C8.57227 13.6836 8.63281 13.4863 8.64844 13.252H10.5586V20.4766H12.3574V22ZM20.3613 19.5684C20.3613 19.9434 20.2832 20.293 20.127 20.6172C19.9746 20.9375 19.75 21.2148 19.4531 21.4492C19.1562 21.6836 18.793 21.8672 18.3633 22C17.9375 22.1328 17.4492 22.1992 16.8984 22.1992C16.3125 22.1992 15.7988 22.1328 15.3574 22C14.916 21.8633 14.5547 21.6797 14.2734 21.4492C13.9961 21.2188 13.791 20.9473 13.6582 20.6348C13.5254 20.3223 13.459 19.9922 13.459 19.6445C13.459 19.1445 13.5957 18.7285 13.8691 18.3965C14.1465 18.0645 14.5469 17.7871 15.0703 17.5645V17.5293C14.5586 17.2793 14.2012 16.9766 13.998 16.6211C13.7949 16.2656 13.6934 15.8691 13.6934 15.4316C13.6934 15.1113 13.7637 14.8105 13.9043 14.5293C14.0449 14.248 14.2559 13.9961 14.5371 13.7734C14.8027 13.5625 15.1387 13.3945 15.5449 13.2695C15.9551 13.1406 16.4141 13.0762 16.9219 13.0762C17.4609 13.0762 17.9297 13.1348 18.3281 13.252C18.7305 13.3652 19.0605 13.5156 19.3184 13.7031C19.584 13.8945 19.7871 14.127 19.9277 14.4004C20.0684 14.6699 20.1387 14.9629 20.1387 15.2793C20.1387 15.6934 20.0176 16.0684 19.7754 16.4043C19.5371 16.7363 19.1699 17.0156 18.6738 17.2422V17.2773C19.252 17.5117 19.6777 17.8203 19.9512 18.2031C20.2246 18.582 20.3613 19.0371 20.3613 19.5684ZM18.0176 15.5371C18.0176 15.2402 17.9199 15.0039 17.7246 14.8281C17.5293 14.6484 17.2637 14.5586 16.9277 14.5586C16.6074 14.5586 16.3477 14.6387 16.1484 14.7988C15.9531 14.959 15.8555 15.1562 15.8555 15.3906C15.8555 15.625 15.9141 15.8145 16.0312 15.959C16.1523 16.0996 16.3379 16.2305 16.5879 16.3516C16.6973 16.4062 16.8262 16.4629 16.9746 16.5215C17.127 16.5801 17.3281 16.6562 17.5781 16.75C17.7305 16.5508 17.8418 16.3594 17.9121 16.1758C17.9824 15.9883 18.0176 15.7754 18.0176 15.5371ZM18.1992 19.6621C18.1992 19.377 18.1387 19.1582 18.0176 19.0059C17.8965 18.8535 17.6367 18.6816 17.2383 18.4902C17.125 18.4355 16.9609 18.3672 16.7461 18.2852C16.5352 18.2031 16.3477 18.127 16.1836 18.0566C16.0312 18.209 15.8945 18.3984 15.7734 18.625C15.6562 18.8477 15.5977 19.0938 15.5977 19.3633C15.5977 19.7695 15.7266 20.0938 15.9844 20.3359C16.2422 20.5781 16.582 20.6992 17.0039 20.6992C17.1172 20.6992 17.2461 20.6816 17.3906 20.6465C17.5391 20.6074 17.6699 20.5488 17.7832 20.4707C17.9082 20.3809 18.0078 20.2754 18.082 20.1543C18.1602 20.0332 18.1992 19.8691 18.1992 19.6621ZM29.4141 18.9062H26.4141V21.8828H24.8672V18.9062H21.8672V17.3945H24.8672V14.418H26.4141V17.3945H29.4141V18.9062Z" fill="#F31806"/>
</svg>
