<svg width="17" height="18" viewBox="0 0 17 18" fill="none" xmlns="http://www.w3.org/2000/svg">
<path fill-rule="evenodd" clip-rule="evenodd" d="M7.29277 0.292898C6.90225 0.683425 6.90226 1.31659 7.29278 1.70711L14.5858 9L7.29289 16.2929C6.90237 16.6834 6.90237 17.3166 7.29289 17.7071C7.68342 18.0976 8.31658 18.0976 8.70711 17.7071L16.7071 9.70711C16.8946 9.51957 17 9.26521 17 9C17 8.73478 16.8946 8.48042 16.7071 8.29289L8.70699 0.292888C8.31646 -0.0976334 7.68329 -0.0976287 7.29277 0.292898Z" fill="#1A1A1A"/>
<path fill-rule="evenodd" clip-rule="evenodd" d="M0.292771 0.292898C-0.0977497 0.683425 -0.0977449 1.31659 0.292782 1.70711L7.58578 9L0.292893 16.2929C-0.0976305 16.6834 -0.0976305 17.3166 0.292893 17.7071C0.683418 18.0976 1.31658 18.0976 1.70711 17.7071L9.70711 9.70711C9.89464 9.51957 10 9.26521 10 9C10 8.73478 9.89464 8.48042 9.7071 8.29289L1.70699 0.292888C1.31646 -0.0976334 0.683293 -0.0976287 0.292771 0.292898Z" fill="#1A1A1A"/>
</svg>
