<?xml version="1.0" encoding="utf-8"?>
<!-- Generator: Adobe Illustrator 22.1.0, SVG Export Plug-In . SVG Version: 6.00 Build 0)  -->
<svg version="1.1" id="Слой_1" xmlns="http://www.w3.org/2000/svg" xmlns:xlink="http://www.w3.org/1999/xlink" x="0px" y="0px"
	 viewBox="0 0 101.4 87" style="enable-background:new 0 0 101.4 87;" xml:space="preserve">
<style type="text/css">
	.st0{opacity:0.1;fill:#2D2001;}
	.st1{fill:#FFFFFF;}
	.st2{fill:#D5D5D5;}
	.st3{fill:#EEEEEE;}
</style>
<g>
	<polygon class="st0" points="55.5,6.8 0,46.9 55.5,87 96.8,79.5 96.8,14.5 	"/>
	<polygon class="st1" points="60,0 4.5,40.1 60,80.3 101.4,72.7 101.4,7.7 	"/>
	<polygon class="st2" points="59.8,16.7 27.2,40.1 31,42.8 59.8,22.1 86.5,27.1 86.5,21.7 	"/>
	<polygon class="st3" points="31,42.8 59.8,63.6 86.5,58.6 86.5,52.9 86.5,47.5 86.5,47.1 86.5,45.7 86.5,45.4 86.5,44 86.5,41.6 
		86.5,40.3 86.5,40.1 86.5,40 86.5,38.6 86.5,34.7 86.5,27.1 59.8,22.1 	"/>
</g>
</svg>
