<?xml version="1.0" encoding="utf-8"?>
<!-- Generator: Adobe Illustrator 22.1.0, SVG Export Plug-In . SVG Version: 6.00 Build 0)  -->
<svg version="1.1" id="Слой_1" xmlns="http://www.w3.org/2000/svg" xmlns:xlink="http://www.w3.org/1999/xlink" x="0px" y="0px"
	 viewBox="0 0 600.6 625.5" style="enable-background:new 0 0 600.6 625.5;" xml:space="preserve">
<style type="text/css">
	.st0{fill:#FFFFFF;}
	.st1{fill:#FFC107;}
	.st2{opacity:0.15;}
	.st3{fill:#FF5722;}
	.st4{fill:#4CAF50;}
	.st5{fill:#FFA500;}
	.st6{fill:#3F51B5;}
	.st7{opacity:0.15;enable-background:new    ;}
	.st8{fill:#FAFAFA;}
	.st9{opacity:0.1;}
	.st10{opacity:0.1;enable-background:new    ;}
	.st11{fill:#E3E3E3;}
	.st12{fill:#F5F5F5;}
	.st13{fill:#AFAFAF;}
	.st14{fill:#FFFEFD;}
	.st15{font-family:'Roboto-Bold';}
	.st16{font-size:23.912px;}
</style>
<g>
	<path class="st0" d="M299,15.6C137.1,15.6,5.9,146.8,5.9,308.7c0,161.9,131.2,293.1,293.1,293.1c161.9,0,293.1-131.2,293.1-293.1
		C592.1,146.8,460.9,15.6,299,15.6z M2,308.7C2,144.6,135,11.7,299,11.7c164.1,0,297.1,133,297.1,297.1c0,164.1-133,297-297.1,297
		C135,605.8,2,472.8,2,308.7z"/>
	<path class="st1" d="M2,310.7v-2c-0.2-62.8,19.7-123.9,56.7-174.6l1.2-1.6l245.2,178.2H2z"/>
	<path class="st0" d="M60.3,135.3L299,308.7H3.9C3.8,246.4,23.6,185.6,60.3,135.3z M59.4,129.8l-2.3,3.2C19.8,184-0.2,245.5,0,308.7
		v3.9h311.1l-9.8-7.1L62.6,132.1L59.4,129.8z"/>
	<g class="st2">
		<path d="M3.9,308.7h1.3C7.9,251.1,27.4,195.6,61.3,149L281,308.7h18L60.3,135.3C23.6,185.6,3.8,246.4,3.9,308.7z"/>
	</g>
	<path class="st3" d="M58.7,483.3C21.7,432.6,1.8,371.5,2,308.7v-2h303.1L59.9,484.9L58.7,483.3z"/>
	<path class="st0" d="M299,308.7L60.3,482.2C23.6,431.8,3.8,371,3.9,308.7H299z M311.1,304.8H0v3.9c-0.2,63.2,19.8,124.7,57.1,175.8
		l2.3,3.2l3.2-2.3l238.7-173.4L311.1,304.8L311.1,304.8z"/>
	<g class="st2">
		<path d="M60.3,482.2l1.1-0.8c-31.8-48.1-48.6-104.5-48.6-162.1h271.7l14.6-10.6H3.9C3.8,371,23.6,431.8,60.3,482.2z"/>
	</g>
	<path class="st4" d="M207.2,591.2c-59.7-19.2-111.8-57-148.5-107.9l-1.2-1.6l245.2-178.2l-93.7,288.3L207.2,591.2z"/>
	<path class="st0" d="M299,308.7l-91.2,280.6c-59.3-19.2-111-56.7-147.5-107.2L299,308.7z M306.5,298.4l-9.8,7.1L58,479l-3.2,2.3
		l2.3,3.2c37,51.2,89.4,89.2,149.5,108.6l3.7,1.2l1.2-3.7l91.2-280.6L306.5,298.4L306.5,298.4z"/>
	<g class="st2">
		<path d="M207.8,589.3l0.4-1.2c-54-20.3-100.8-55.9-134.6-102.6l219.8-159.7l5.6-17.1L60.3,482.2
			C96.9,532.6,148.5,570.2,207.8,589.3z"/>
	</g>
	<path class="st5" d="M299.2,605.8c-31.2,0-62.1-4.9-91.7-14.6l-1.9-0.6l93.6-288.3l93.7,288.3l-1.9,0.6
		C361.3,600.9,330.4,605.8,299.2,605.8z"/>
	<path class="st0" d="M299,308.7l91.2,280.6c-59.3,19.4-123.1,19.4-182.4,0L299,308.7z M299,296l-3.7,11.5l-91.2,280.7l-1.2,3.7
		l3.7,1.2c60,19.6,124.8,19.6,184.8,0l3.7-1.2l-1.2-3.7l-91.2-280.7L299,296z"/>
	<g class="st2">
		<path d="M390.2,589.3l-0.4-1.2c-55.6,15.3-114.4,14-169.2-3.9l83.9-258.4l-5.5-17.1l-91.2,280.7
			C267.1,608.7,331,608.7,390.2,589.3z"/>
	</g>
	<path class="st6" d="M295.3,303.6l245.2,178.2l-1.2,1.6c-36.8,50.9-88.8,88.7-148.5,107.9l-1.9,0.6L295.3,303.6z"/>
	<path class="st0" d="M299,308.7l238.7,173.4c-36.6,50.5-88.2,88-147.5,107.2L299,308.7z M291.5,298.4l3.7,11.5l91.2,280.7l1.2,3.7
		l3.7-1.2c60.1-19.4,112.5-57.4,149.5-108.6l2.3-3.2l-3.2-2.3L301.3,305.5L291.5,298.4L291.5,298.4z"/>
	<g class="st2">
		<path d="M537.8,482.2l-1.1-0.8c-35.9,45.1-84.3,78.5-139.2,96.3l-84-258.4L299,308.7l91.2,280.7
			C449.5,570.2,501.2,532.6,537.8,482.2z"/>
	</g>
	<path class="st1" d="M293,306.7h303.1v2c0.2,62.8-19.7,123.9-56.7,174.6l-1.2,1.6L293,306.7z"/>
	<path class="st0" d="M594.1,308.7c0.1,62.3-19.6,123.1-56.3,173.4L299,308.7H594.1z M598.1,304.8H286.9l9.8,7.1l238.7,173.4
		l3.2,2.3l2.3-3.2c37.3-51,57.3-112.6,57.1-175.8V304.8z"/>
	<g class="st2">
		<path d="M594.1,308.7h-1.3c-2.6,57.6-22.1,113.1-56,159.7L317,308.7h-18l238.7,173.4C574.5,431.8,594.2,371,594.1,308.7z"/>
	</g>
	<path class="st3" d="M538.2,132.5l1.2,1.6c37,50.7,56.9,111.8,56.7,174.6v2H293L538.2,132.5z"/>
	<path class="st0" d="M537.8,135.3c36.7,50.4,56.4,111.1,56.4,173.4H299L537.8,135.3z M538.6,129.8l-3.2,2.3L296.7,305.5l-9.8,7.1
		H598v-3.9c0.2-63.2-19.9-124.7-57.1-175.8L538.6,129.8L538.6,129.8z"/>
	<g class="st2">
		<path d="M537.8,135.3l-1.1,0.8c31.7,48.1,48.6,104.5,48.6,162.1H313.6L299,308.7h295.1C594.2,246.4,574.5,185.6,537.8,135.3z"/>
	</g>
	<path class="st4" d="M388.9,25.6l1.9,0.6c59.7,19.2,111.8,57,148.5,107.9l1.2,1.6L295.3,313.9L388.9,25.6z"/>
	<path class="st0" d="M390.2,28.1c59.3,19.2,111,56.7,147.5,107.2L299,308.7L390.2,28.1z M387.7,23.1l-1.2,3.7l-91.2,280.6
		l-3.7,11.5l9.8-7.1l238.7-173.5l3.2-2.3l-2.3-3.2c-37-51.2-89.4-89.2-149.5-108.6L387.7,23.1L387.7,23.1z"/>
	<path class="st7" d="M390.2,28.1l-0.4,1.3c54,20.3,100.8,55.9,134.6,102.6L304.6,291.6l-5.6,17.1l238.7-173.5
		C501.2,84.8,449.5,47.2,390.2,28.1z"/>
	<path class="st5" d="M205.4,26.8l1.9-0.6c59.6-19.5,123.9-19.5,183.6,0l1.9,0.6L299,315.1L205.4,26.8z"/>
	<path class="st0" d="M299.1,13.5c31,0,61.7,4.9,91.1,14.5L299,308.7L207.8,28.1C237.3,18.5,268.1,13.6,299.1,13.5z M299.1,9.6
		c-31.4,0-62.6,5-92.5,14.8l-3.7,1.2l1.2,3.7l91.2,280.6l3.7,11.5l3.7-11.5l91.2-280.7l1.2-3.7l-3.7-1.2
		C361.6,14.6,330.4,9.6,299.1,9.6z"/>
	<g class="st2">
		<path d="M207.8,28.1l0.4,1.2c55.6-15.3,114.4-14,169.2,3.9l-84,258.4l5.6,17.1l91.2-280.7C331,8.7,267.1,8.7,207.8,28.1z"/>
	</g>
	<path class="st6" d="M57.5,135.7l1.2-1.6c36.8-50.9,88.8-88.7,148.5-107.9l1.9-0.6l93.7,288.3L57.5,135.7z"/>
	<path class="st0" d="M207.8,28L299,308.7L60.3,135.3C96.9,84.8,148.5,47.2,207.8,28L207.8,28z M210.4,23.1l-3.7,1.2
		C146.5,43.7,94.1,81.8,57.1,133l-2.3,3.2l3.2,2.3l238.7,173.4l9.8,7.1l-3.7-11.5L211.6,26.8L210.4,23.1L210.4,23.1z"/>
	<g class="st2">
		<path d="M60.3,135.3l1.1,0.8C97.3,91,145.7,57.5,200.5,39.8l84,258.4l14.5,10.6L207.8,28.1C148.5,47.2,96.8,84.8,60.3,135.3z"/>
	</g>
	<path class="st8" d="M300.6,18.5c-160.3,0-290.2,129.9-290.2,290.2c0,160.3,129.9,290.2,290.2,290.2
		c160.3,0,290.2-129.9,290.2-290.2C590.7,148.5,460.8,18.5,300.6,18.5z M0.6,308.7c0-165.7,134.3-300,300-300
		c165.7,0,300,134.3,300,300c0,165.7-134.3,300-300,300C134.9,608.7,0.6,474.4,0.6,308.7z"/>
	<path class="st0" d="M299,377.6c38,0,68.9-30.8,68.9-68.9c0-38-30.8-68.9-68.9-68.9c-38,0-68.9,30.8-68.9,68.9
		C230.2,346.7,261,377.6,299,377.6z"/>
	<g class="st9">
		<path class="st10" d="M299,349c19,0,34.4-15.4,34.4-34.4c0-19-15.4-34.4-34.4-34.4s-34.4,15.4-34.4,34.4
			C264.6,333.6,280,349,299,349z"/>
	</g>
	<path class="st11" d="M326.6,288.1c2,4.3,3.1,9.1,3.1,14.2c0,19-15.4,34.4-34.4,34.4c-11.3,0-21.3-5.4-27.6-13.9
		c5.4,11.9,17.4,20.2,31.4,20.2c19,0,34.4-15.4,34.4-34.4C333.5,301,330.9,293.9,326.6,288.1z"/>
	<path class="st12" d="M295.3,336.8c19,0,34.4-15.4,34.4-34.4c0-5.1-1.1-9.9-3.1-14.2c-6.3-8.4-16.3-13.9-27.6-13.9
		c-19,0-34.4,15.4-34.4,34.4c0,5.1,1.1,9.9,3.1,14.2C274,331.3,284,336.8,295.3,336.8z"/>
	<g>
		<polygon class="st8" points="572.9,416.1 560.5,396.7 582.9,390.3 594.3,409.7 		"/>
		<polygon class="st8" points="12.4,234.9 0,215.5 22.4,209.1 33.8,228.5 		"/>
	</g>
	<g>
		<polygon class="st8" points="580.8,233.2 559.3,224.9 573.6,206.5 594.2,215.4 		"/>
		<polygon class="st8" points="21.5,418 0,409.7 14.3,391.3 34.9,400.2 		"/>
	</g>
	<g>
		<polygon class="st8" points="481.5,82.9 459.2,88.6 460.1,65.4 482.1,60.6 		"/>
		<polygon class="st8" points="134.5,558.8 112.2,564.6 113.1,541.3 135,536.5 		"/>
	</g>
	<polygon class="st8" points="314.8,18.2 300.4,36.2 287.2,17 301.9,0 	"/>
	<polygon class="st8" points="313,607.6 298.6,625.5 285.4,606.3 300.1,589.4 	"/>
	<g>
		<polygon class="st8" points="134.4,67.1 133.1,90.1 111.2,82.2 113.3,59.8 		"/>
		<polygon class="st8" points="482.3,542.4 481,565.4 459.1,557.5 461.2,535.1 		"/>
	</g>
	<circle class="st13" cx="587.4" cy="373.5" r="2.7"/>
	<circle class="st13" cx="588.3" cy="249.7" r="2.7"/>
	<circle class="st13" cx="8.4" cy="255.7" r="2.7"/>
	<circle class="st13" cx="11.3" cy="373.5" r="2.7"/>
	<circle class="st13" cx="568.7" cy="189.9" r="2.7"/>
	<circle class="st13" cx="495.8" cy="89.8" r="2.7"/>
	<circle class="st13" cx="30.3" cy="431.9" r="2.7"/>
	<circle class="st13" cx="103.6" cy="529.9" r="2.7"/>
	<g>
		<circle class="st13" cx="448.9" cy="55.3" r="2.7"/>
		<circle class="st13" cx="331.4" cy="16.1" r="2.7"/>
		<circle class="st13" cx="151.7" cy="564.3" r="2.7"/>
		<circle class="st13" cx="269.7" cy="601.8" r="2.7"/>
	</g>
	<circle class="st13" cx="269.5" cy="16.6" r="2.7"/>
	<circle class="st13" cx="151.7" cy="54.7" r="2.7"/>
	<circle class="st13" cx="332.2" cy="601.6" r="2.7"/>
	<circle class="st13" cx="444.4" cy="565.8" r="2.7"/>
	<circle class="st13" cx="96.7" cy="93.9" r="2.7"/>
	<circle class="st13" cx="28.3" cy="192.7" r="2.7"/>
	<circle class="st13" cx="493.8" cy="531" r="2.7"/>
	<circle class="st13" cx="567.7" cy="430.1" r="2.7"/>
	<text transform="matrix(0.5887 -0.8083 0.8083 0.5887 371.3921 201.0367)"><tspan x="0" y="0" class="st14 st15 st16">Скидка </tspan><tspan x="19.5" y="28.7" class="st14 st15 st16">10%</tspan></text>
	<text transform="matrix(-0.5887 0.8083 -0.8083 -0.5887 223.1971 429.5016)"><tspan x="0" y="0" class="st14 st15 st16">Скидка </tspan><tspan x="19.5" y="28.7" class="st14 st15 st16">10%</tspan></text>
	<g>
		<g>
			<g>
				<circle class="st0" cx="287.9" cy="487.7" r="3.7"/>
			</g>
			<g>
				<circle class="st0" cx="313.3" cy="487.7" r="3.7"/>
			</g>
		</g>
		<g>
			<path class="st0" d="M320.3,511c-0.8,0-1.6-0.4-2-1.1c-4.1-5.8-10.7-9.3-17.8-9.3c-7,0-13.5,3.4-17.6,9c-0.8,1.1-2.4,1.4-3.5,0.6
				c-1.1-0.8-1.4-2.4-0.6-3.5c5-7,13.1-11.1,21.7-11.1c8.7,0,16.9,4.3,21.9,11.4c0.8,1.1,0.5,2.7-0.6,3.5
				C321.3,510.9,320.8,511,320.3,511z"/>
		</g>
	</g>
	<g>
		<g>
			<g>
				<circle class="st0" cx="313.3" cy="137.4" r="3.7"/>
			</g>
			<g>
				<circle class="st0" cx="287.9" cy="137.4" r="3.7"/>
			</g>
		</g>
		<g>
			<path class="st0" d="M280.8,114.2c0.8,0,1.6,0.4,2,1.1c4.1,5.8,10.7,9.3,17.8,9.3c7,0,13.5-3.4,17.6-9c0.8-1.1,2.4-1.4,3.5-0.6
				c1.1,0.8,1.4,2.4,0.6,3.5c-5,7-13.1,11.1-21.7,11.1c-8.7,0-16.9-4.3-21.9-11.4c-0.8-1.1-0.5-2.7,0.6-3.5
				C279.8,114.3,280.3,114.2,280.8,114.2z"/>
		</g>
	</g>
	<text transform="matrix(0.9484 -0.3171 0.3171 0.9484 422.7318 263.1104)"><tspan x="0" y="0" class="st14 st15 st16">Скидка </tspan><tspan x="19.5" y="28.7" class="st14 st15 st16">30%</tspan></text>
	<text transform="matrix(-0.9484 0.3171 -0.3171 -0.9484 169.5082 363.2896)"><tspan x="0" y="0" class="st14 st15 st16">Скидка </tspan><tspan x="19.5" y="28.7" class="st14 st15 st16">30%</tspan></text>
	<text transform="matrix(0.9516 0.3073 -0.3073 0.9516 428.5101 345.7052)"><tspan x="0" y="0" class="st14 st15 st16">Скидка </tspan><tspan x="19.5" y="28.7" class="st14 st15 st16">15%</tspan></text>
	<text transform="matrix(-0.9516 -0.3073 0.3073 -0.9516 165.2206 276.157)"><tspan x="0" y="0" class="st14 st15 st16">Скидка </tspan><tspan x="19.5" y="28.7" class="st14 st15 st16">15%</tspan></text>
	<text transform="matrix(0.593 0.8052 -0.8052 0.593 384.0883 413.9637)"><tspan x="0" y="0" class="st14 st15 st16">Скидка </tspan><tspan x="19.5" y="28.7" class="st14 st15 st16">20%</tspan></text>
	<text transform="matrix(-0.593 -0.8052 0.8052 -0.593 210.9811 203.7459)"><tspan x="0" y="0" class="st14 st15 st16">Скидка </tspan><tspan x="19.5" y="28.7" class="st14 st15 st16">20%</tspan></text>
</g>
<rect x="102.2" y="-220.2" style="fill:none;" width="2" height="16"/>
<text transform="matrix(1 0 0 1 103.2364 -211.1535)" class="st15" style="font-size:12px;"> </text>
<g>
	<text transform="matrix(0.5887 -0.8083 0.8083 0.5887 371.3921 201.0367)"><tspan x="0" y="0" class="st14 st15 st16">Скидка </tspan><tspan x="19.5" y="28.7" class="st14 st15 st16">10%</tspan></text>
	<text transform="matrix(-0.5887 0.8083 -0.8083 -0.5887 223.1971 429.5016)"><tspan x="0" y="0" class="st14 st15 st16">Скидка </tspan><tspan x="19.5" y="28.7" class="st14 st15 st16">10%</tspan></text>
	<text transform="matrix(0.9484 -0.3171 0.3171 0.9484 422.7318 263.1104)"><tspan x="0" y="0" class="st14 st15 st16">Скидка </tspan><tspan x="19.5" y="28.7" class="st14 st15 st16">30%</tspan></text>
	<text transform="matrix(-0.9484 0.3171 -0.3171 -0.9484 169.5082 363.2896)"><tspan x="0" y="0" class="st14 st15 st16">Скидка </tspan><tspan x="19.5" y="28.7" class="st14 st15 st16">30%</tspan></text>
	<text transform="matrix(0.9516 0.3073 -0.3073 0.9516 428.5101 345.7052)"><tspan x="0" y="0" class="st14 st15 st16">Скидка </tspan><tspan x="19.5" y="28.7" class="st14 st15 st16">15%</tspan></text>
	<text transform="matrix(-0.9516 -0.3073 0.3073 -0.9516 165.2206 276.157)"><tspan x="0" y="0" class="st14 st15 st16">Скидка </tspan><tspan x="19.5" y="28.7" class="st14 st15 st16">15%</tspan></text>
	<text transform="matrix(0.593 0.8052 -0.8052 0.593 384.0883 413.9637)"><tspan x="0" y="0" class="st14 st15 st16">Скидка </tspan><tspan x="19.5" y="28.7" class="st14 st15 st16">20%</tspan></text>
	<text transform="matrix(-0.593 -0.8052 0.8052 -0.593 210.9811 203.7459)"><tspan x="0" y="0" class="st14 st15 st16">Скидка </tspan><tspan x="19.5" y="28.7" class="st14 st15 st16">20%</tspan></text>
</g>
</svg>
