<?xml version="1.0" encoding="utf-8"?>
<!-- Generator: Adobe Illustrator 22.1.0, SVG Export Plug-In . SVG Version: 6.00 Build 0)  -->
<svg version="1.1" id="Слой_1" xmlns="http://www.w3.org/2000/svg" xmlns:xlink="http://www.w3.org/1999/xlink" x="0px" y="0px"
	 viewBox="0 0 600 600" style="enable-background:new 0 0 600 600;" xml:space="preserve">
<style type="text/css">
	.st0{fill:none;}
	.st1{fill:#FFFFFF;}
	.st2{fill:#FFC107;}
	.st3{opacity:0.15;}
	.st4{fill:#FF5722;}
	.st5{fill:#4CAF50;}
	.st6{fill:#FFA500;}
	.st7{fill:#3F51B5;}
	.st8{opacity:0.15;enable-background:new    ;}
	.st9{fill:#FAFAFA;}
	.st10{fill:#FFFEFD;}
	.st11{fill:#AFAFAF;}
	.st12{fill:#E3E3E3;}
	.st13{fill:#F5F5F5;}
</style>
<rect x="-535.6" y="-309" class="st0" width="2" height="16"/>
<text transform="matrix(1 0 0 1 -534.5892 -300)" style="font-family:'Roboto-Bold'; font-size:12px;"> </text>
<g>
	<path class="st1" d="M300,19.7c-154.8,0-280.3,125.4-280.3,280.2s125.5,280.2,280.2,280.2c154.8,0,280.2-125.5,280.2-280.2
		C580.2,145.1,454.8,19.7,300,19.7z M16,299.9c0-156.9,127.2-284,284-284c156.9,0,284,127.2,284,284c0,156.9-127.2,284-284,284
		C143.1,583.9,16,456.8,16,299.9z"/>
	<path class="st2" d="M16,301.8v-1.9c-0.2-60,18.8-118.5,54.2-166.9l1.1-1.5l234.5,170.3H16z"/>
	<path class="st1" d="M71.7,134.1L300,299.9H17.9C17.8,240.3,36.6,182.3,71.7,134.1z M70.9,128.8l-2.2,3
		c-35.6,48.8-54.7,107.6-54.6,168v3.8h297.5l-9.4-6.8L73.9,131L70.9,128.8z"/>
	<g class="st3">
		<path d="M17.9,299.9h1.3c2.5-55,21.1-108.1,53.6-152.7l210.1,152.7h17.2L71.7,134.1C36.6,182.3,17.8,240.3,17.9,299.9z"/>
	</g>
	<path class="st4" d="M70.2,466.9C34.8,418.4,15.8,360,16,300v-1.9h289.8L71.3,468.4L70.2,466.9z"/>
	<path class="st1" d="M300,299.9L71.7,465.8c-35.1-48.2-54-106.2-53.9-165.8H300V299.9z M311.6,296.2H14.1v3.8
		c-0.2,60.4,19,119.3,54.6,168l2.2,3l3-2.2L302.2,303L311.6,296.2L311.6,296.2z"/>
	<g class="st3">
		<path d="M71.7,465.8l1-0.7c-30.4-46-46.5-99.9-46.4-155H286l13.9-10.1h-282C17.8,359.5,36.6,417.6,71.7,465.8z"/>
	</g>
	<path class="st5" d="M212.2,570c-57.1-18.4-106.9-54.5-142-103.2l-1.1-1.5l234.4-170.4L214,570.5L212.2,570z"/>
	<path class="st1" d="M300,299.9l-87.2,268.3C156.1,549.9,106.7,514,71.7,465.7L300,299.9z M307.1,290.1l-9.4,6.8L69.5,462.7l-3,2.2
		l2.2,3c35.4,48.9,85.5,85.3,142.9,103.8l3.6,1.2l1.2-3.6L303.6,301L307.1,290.1L307.1,290.1z"/>
	<g class="st3">
		<path d="M212.8,568.3l0.4-1.2c-51.6-19.4-96.3-53.5-128.7-98.1l210.1-152.7l5.3-16.3L71.7,465.8
			C106.7,514,156.1,549.9,212.8,568.3z"/>
	</g>
	<path class="st6" d="M300.1,584c-29.8,0-59.4-4.7-87.7-14l-1.8-0.6l89.5-275.6l89.6,275.6l-1.8,0.6C359.6,579.3,330,584,300.1,584z
		"/>
	<path class="st1" d="M300,299.9l87.2,268.4c-56.6,18.5-117.7,18.5-174.4,0L300,299.9z M300,287.8l-3.6,11l-87.2,268.3l-1.2,3.6
		l3.6,1.2c57.4,18.7,119.3,18.7,176.7,0l3.6-1.2l-1.2-3.6l-87.1-268.3L300,287.8z"/>
	<g class="st3">
		<path d="M387.2,568.3l-0.4-1.2c-53.1,14.6-109.4,13.3-161.8-3.8l80.3-247L300,300l-87.2,268.3
			C269.5,586.8,330.5,586.8,387.2,568.3z"/>
	</g>
	<path class="st7" d="M296.4,295l234.4,170.3l-1.1,1.5c-35.1,48.6-84.9,84.8-142,103.2l-1.8,0.6L296.4,295z"/>
	<path class="st1" d="M300,299.9l228.2,165.9c-35,48.3-84.4,84.2-141.1,102.5L300,299.9z M292.8,290.1l3.6,11l87.2,268.3l1.2,3.6
		l3.6-1.2c57.5-18.5,107.6-54.9,142.9-103.9l2.2-3l-3-2.2L302.2,296.9L292.8,290.1L292.8,290.1z"/>
	<g class="st3">
		<path d="M528.2,465.8l-1-0.7c-34.4,43.1-80.6,75.1-133.1,92l-80.3-247L299.9,300l87.3,268.3C443.9,549.9,493.3,514,528.2,465.8z"
			/>
	</g>
	<path class="st2" d="M294.2,298H584v1.9c0.2,60-18.8,118.5-54.2,166.9l-1.1,1.5L294.2,298z"/>
	<path class="st1" d="M582.1,299.9c0.1,59.6-18.8,117.7-53.9,165.8L300,299.9H582.1z M585.9,296.2H288.4l9.4,6.8l228.3,165.8l3,2.2
		l2.2-3c35.6-48.8,54.7-107.6,54.6-168V296.2z"/>
	<g class="st3">
		<path d="M582.1,299.9h-1.3c-2.5,55-21.1,108.1-53.6,152.7l-210-152.7H300l228.2,165.9C563.3,417.6,582.2,359.5,582.1,299.9z"/>
	</g>
	<path class="st4" d="M528.6,131.5l1.1,1.5c35.4,48.5,54.4,106.9,54.2,166.9v1.9H294.2L528.6,131.5z"/>
	<path class="st1" d="M528.2,134.1c35.1,48.2,54,106.2,53.9,165.8H300L528.2,134.1z M529.1,128.8l-3,2.2L297.8,296.9l-9.4,6.8h297.5
		v-3.8c0.1-60.4-19-119.3-54.6-168L529.1,128.8L529.1,128.8z"/>
	<g class="st3">
		<path d="M528.2,134.1l-1,0.7c30.4,46,46.5,99.9,46.4,155H313.9L300,299.9h282.1C582.2,240.3,563.3,182.3,528.2,134.1z"/>
	</g>
	<path class="st5" d="M386,29.2l1.8,0.6c57.1,18.4,106.9,54.5,142,103.2l1.1,1.5L296.4,304.9L386,29.2z"/>
	<path class="st1" d="M387.2,31.6c56.7,18.3,106.1,54.2,141,102.5L300,299.9L387.2,31.6z M384.8,26.9l-1.2,3.6l-87.2,268.3l-3.6,11
		l9.4-6.8l228.2-165.8l3-2.2l-2.2-3c-35.4-48.9-85.5-85.3-142.9-103.8L384.8,26.9L384.8,26.9z"/>
	<path class="st8" d="M387.2,31.6l-0.4,1.2c51.6,19.4,96.3,53.5,128.7,98.1L305.3,283.6l-5.3,16.3l228.2-165.8
		C493.3,85.8,443.9,49.9,387.2,31.6z"/>
	<path class="st6" d="M210.4,30.4l1.8-0.6c57-18.6,118.5-18.6,175.5,0l1.8,0.6L300,306L210.4,30.4z"/>
	<path class="st1" d="M300,17.7c29.6,0,59,4.7,87.1,13.9l-87.2,268.3L212.8,31.6C241,22.4,270.4,17.7,300,17.7z M300,14
		c-30,0-59.9,4.8-88.4,14.1l-3.6,1.2l1.2,3.5l87.2,268.3l3.6,11l3.6-11l87.1-268.3l1.2-3.6l-3.6-1.2C359.8,18.7,330,14,300,14z"/>
	<g class="st3">
		<path d="M212.8,31.6l0.4,1.2c53.1-14.7,109.4-13.3,161.8,3.8l-80.3,247l5.3,16.3l87.2-268.3C330.5,13.1,269.5,13.1,212.8,31.6z"/>
	</g>
	<path class="st7" d="M69.1,134.5l1.1-1.5c35.2-48.6,84.9-84.8,142-103.2l1.8-0.6l89.5,275.6L69.1,134.5z"/>
	<path class="st1" d="M212.8,31.6L300,299.9L71.7,134.1C106.7,85.8,156.1,49.9,212.8,31.6L212.8,31.6z M215.2,26.9l-3.6,1.2
		C154.1,46.6,104.1,83,68.7,131.9l-2.2,3l3,2.2l228.3,165.8l9.4,6.8l-3.6-11L216.4,30.4L215.2,26.9L215.2,26.9z"/>
	<g class="st3">
		<path d="M71.7,134.1l1,0.7c34.4-43,80.7-75,133.1-92l80.3,247l13.9,10.1L212.8,31.6C156.1,49.9,106.7,85.8,71.7,134.1z"/>
	</g>
	<path class="st9" d="M499.9,100.1C446.5,46.7,375.5,17.3,300,17.3c-75.5,0-146.5,29.4-199.9,82.8C46.7,153.5,17.3,224.5,17.3,300
		c0,75.5,29.4,146.5,82.8,199.9c53.4,53.4,124.4,82.8,199.9,82.8c75.5,0,146.5-29.4,199.9-82.8s82.8-124.4,82.8-199.9
		C582.7,224.5,553.3,153.5,499.9,100.1z M405,548.5c-33.2,14.1-68.6,21.2-105,21.2s-71.7-7.1-105-21.2c-32.1-13.6-61-33-85.7-57.8
		c-24.8-24.8-44.2-53.6-57.8-85.7c-14.1-33.2-21.2-68.6-21.2-105s7.1-71.7,21.2-105c13.6-32.1,33-61,57.8-85.7
		c24.8-24.8,53.6-44.2,85.7-57.8c33.2-14.1,68.6-21.2,105-21.2c36.4,0,71.7,7.1,105,21.2c32.1,13.6,61,33,85.7,57.8
		c24.8,24.8,44.2,53.6,57.8,85.7c14.1,33.2,21.2,68.6,21.2,105c0,36.4-7.1,71.7-21.2,105c-13.6,32.1-33,61-57.8,85.7
		C465.9,515.5,437.1,534.9,405,548.5z"/>
</g>
<path class="st9" d="M499.9,100.1C446.5,46.7,375.5,17.3,300,17.3c-75.5,0-146.5,29.4-199.9,82.8C46.7,153.5,17.3,224.5,17.3,300
	c0,75.5,29.4,146.5,82.8,199.9c53.4,53.4,124.4,82.8,199.9,82.8c75.5,0,146.5-29.4,199.9-82.8s82.8-124.4,82.8-199.9
	C582.7,224.5,553.3,153.5,499.9,100.1z M405,548.5c-33.2,14.1-68.6,21.2-105,21.2s-71.7-7.1-105-21.2c-32.1-13.6-61-33-85.7-57.8
	c-24.8-24.8-44.2-53.6-57.8-85.7c-14.1-33.2-21.2-68.6-21.2-105s7.1-71.7,21.2-105c13.6-32.1,33-61,57.8-85.7
	c24.8-24.8,53.6-44.2,85.7-57.8c33.2-14.1,68.6-21.2,105-21.2c36.4,0,71.7,7.1,105,21.2c32.1,13.6,61,33,85.7,57.8
	c24.8,24.8,44.2,53.6,57.8,85.7c14.1,33.2,21.2,68.6,21.2,105c0,36.4-7.1,71.7-21.2,105c-13.6,32.1-33,61-57.8,85.7
	C465.9,515.5,437.1,534.9,405,548.5z"/>
<circle class="st1" cx="300" cy="300" r="62.7"/>
<g>
	<g>
		<g>
			<g>
				<circle class="st1" cx="291.2" cy="467.3" r="3.5"/>
			</g>
			<g>
				<circle class="st1" cx="315.4" cy="467.3" r="3.5"/>
			</g>
		</g>
		<g>
			<path class="st1" d="M322.2,489.6c-0.8,0-1.5-0.4-2-1c-3.9-5.5-10.2-8.9-17-8.9c-6.7,0-13,3.2-16.8,8.6c-0.8,1.1-2.3,1.3-3.3,0.5
				c-1.1-0.8-1.3-2.3-0.5-3.3c4.8-6.7,12.5-10.6,20.7-10.6c8.3,0,16.1,4.1,20.9,10.9c0.8,1.1,0.5,2.6-0.6,3.3
				C323.1,489.4,322.6,489.6,322.2,489.6z"/>
		</g>
	</g>
	<g>
		<g>
			<g>
				<circle class="st1" cx="315.4" cy="132.4" r="3.5"/>
			</g>
			<g>
				<circle class="st1" cx="291.2" cy="132.4" r="3.5"/>
			</g>
		</g>
		<g>
			<path class="st1" d="M284.4,110.1c0.8,0,1.5,0.4,2,1c3.9,5.5,10.2,8.9,17,8.9c6.7,0,13-3.2,16.8-8.6c0.8-1.1,2.3-1.3,3.3-0.5
				c1.1,0.8,1.3,2.3,0.5,3.3c-4.8,6.7-12.5,10.6-20.7,10.6c-8.3,0-16.1-4.1-20.9-10.9c-0.8-1.1-0.5-2.6,0.6-3.3
				C283.4,110.3,283.9,110.1,284.4,110.1z"/>
		</g>
	</g>
	<g>
		<path class="st10" d="M375,176.5c1.3,1.1,2.1,2.5,2.2,4s-0.4,3.1-1.5,4.6c-1.2,1.7-2.8,2.6-4.6,2.7c-1.8,0.1-3.7-0.5-5.7-2
			l-0.8-0.6c-1.3-0.9-2.2-2-2.9-3.1c-0.6-1.1-0.9-2.3-0.8-3.5s0.5-2.3,1.3-3.4c1.1-1.5,2.4-2.4,3.9-2.8s3,0,4.6,0.9l-2,2.7
			c-0.9-0.6-1.7-0.8-2.4-0.6c-0.7,0.1-1.3,0.6-1.9,1.4c-0.7,0.9-0.8,1.8-0.5,2.7s1.2,1.9,2.5,2.9l1,0.7c1.4,1,2.6,1.6,3.6,1.6
			s1.8-0.4,2.5-1.3c0.6-0.8,0.9-1.6,0.8-2.3s-0.5-1.4-1.3-2L375,176.5z"/>
		<path class="st10" d="M379.7,171.6l-0.8,1l3.6,2.6l-1.9,2.6l-9.8-7.1l1.9-2.6l3.7,2.7l0.7-0.9l-2.1-4.8l2.4-3.3l2.3,6.6l7.7,0.2
			l-2.5,3.5L379.7,171.6z"/>
		<path class="st10" d="M382.6,154.7l1.9-2.6l9.8,7.1l-1.9,2.6l-6-4.4l3.6,7.7l-1.9,2.6l-9.8-7.1l1.9-2.6l6,4.4L382.6,154.7z"/>
		<path class="st10" d="M393.8,155.5c-0.2-1-0.5-1.9-1-2.6c-0.5-0.7-1.2-1.4-2.4-2.3l-3.1-2.4l5.2-7.2l7.7,5.6l1-1.4l5,3.7l-1.9,2.6
			l-2.9-2.1l-4.2,5.8l2.9,2.1l-1.9,2.7l-5-3.7L393.8,155.5z M396,152.4l2.3-3.1l-5.5-4l-1.5,2l1.2,0.9
			C394.2,149.5,395.4,151,396,152.4z"/>
		<path class="st10" d="M403.4,139.1l-0.8,1l3.6,2.6l-1.9,2.6l-9.8-7.1l1.9-2.6l3.7,2.7l0.7-0.9l-2.1-4.8l2.4-3.3l2.3,6.6l7.7,0.2
			l-2.5,3.5L403.4,139.1z"/>
		<path class="st10" d="M415.9,129.5c-0.3-0.1-0.7-0.2-1.1-0.4c0.2,1.1,0,2.2-0.7,3.2s-1.6,1.5-2.6,1.8c-1,0.2-1.9,0-2.8-0.6
			c-1-0.8-1.5-1.7-1.5-2.9s0.5-2.5,1.6-3.9l0.9-1.2l-0.6-0.4c-0.5-0.3-0.9-0.5-1.3-0.4c-0.4,0-0.8,0.3-1.2,0.8
			c-0.3,0.4-0.5,0.9-0.4,1.3c0,0.4,0.2,0.7,0.6,1l-1.9,2.6c-0.6-0.4-1-1-1.2-1.7s-0.2-1.5-0.1-2.3c0.2-0.8,0.6-1.7,1.2-2.4
			c0.9-1.2,1.9-1.9,3-2.2s2.2,0,3.3,0.8l4.2,3.1c0.9,0.7,1.7,1,2.4,1.1l0.2,0.1L415.9,129.5z M412.5,130.3c0.3-0.4,0.5-0.8,0.5-1.3
			c0.1-0.5,0-0.9-0.2-1.2l-1.7-1.2l-0.7,1c-1,1.3-1,2.3-0.2,3.1l0.1,0.1c0.3,0.2,0.7,0.3,1.1,0.2S412.3,130.7,412.5,130.3z"/>
		<path class="st10" d="M409.4,185l-1.9,2.6l-10.1-7.3l-1.3,3.8l-2.1-1.5l2-6.9l0.2-0.3L409.4,185z"/>
		<path class="st10" d="M413.5,168c1.8,1.3,2.9,2.7,3.3,4.2s0.1,2.9-1,4.4c-1,1.4-2.3,2.2-3.8,2.3s-3.1-0.5-4.9-1.8l-2.4-1.8
			c-1.8-1.3-2.9-2.7-3.3-4.2s-0.1-2.9,1-4.3c1-1.4,2.3-2.2,3.8-2.3s3.1,0.5,4.9,1.8L413.5,168z M409,168.7c-1.1-0.8-2-1.2-2.7-1.3
			s-1.3,0.2-1.8,0.9c-0.4,0.6-0.5,1.2-0.3,1.9s0.9,1.3,1.9,2.1l3.2,2.3c1.1,0.8,2,1.2,2.7,1.3s1.3-0.2,1.8-0.8s0.6-1.3,0.3-1.9
			c-0.3-0.6-0.9-1.3-2-2.1L409,168.7z"/>
		<path class="st10" d="M409.6,162.5c-0.8-0.6-1.3-1.3-1.4-2.2s0.1-1.8,0.7-2.6c0.6-0.9,1.4-1.4,2.3-1.5c0.9-0.2,1.7,0.1,2.6,0.7
			l0.6,0.5c0.8,0.6,1.3,1.3,1.4,2.2s-0.1,1.7-0.8,2.6c-0.6,0.9-1.4,1.4-2.3,1.5c-0.9,0.2-1.7-0.1-2.6-0.7L409.6,162.5z M411.5,161.3
			c0.4,0.3,0.7,0.4,1.1,0.3c0.4,0,0.7-0.2,0.9-0.6c0.2-0.3,0.3-0.7,0.3-1c-0.1-0.4-0.3-0.7-0.7-0.9l-0.7-0.5
			c-0.4-0.3-0.7-0.4-1.1-0.3c-0.4,0-0.7,0.2-0.9,0.6c-0.2,0.3-0.3,0.7-0.3,1c0.1,0.4,0.3,0.7,0.7,1L411.5,161.3z M421.7,166.1
			l-1.6,0.8l-5.6-13.9l1.6-0.8L421.7,166.1z M421.6,161.6c-0.8-0.6-1.3-1.3-1.4-2.2s0.1-1.8,0.8-2.6c0.6-0.9,1.4-1.4,2.2-1.5
			s1.7,0.1,2.6,0.7l0.6,0.5c0.8,0.6,1.3,1.3,1.4,2.2s-0.1,1.7-0.8,2.6c-0.6,0.9-1.4,1.4-2.3,1.5c-0.9,0.2-1.7-0.1-2.6-0.7
			L421.6,161.6z M423.5,160.4c0.3,0.2,0.7,0.3,1.1,0.3s0.7-0.2,0.9-0.6c0.5-0.7,0.4-1.4-0.4-2l-0.7-0.5c-0.4-0.3-0.7-0.4-1.1-0.3
			c-0.4,0-0.7,0.2-0.9,0.6s-0.3,0.7-0.3,1.1c0.1,0.4,0.3,0.7,0.7,1L423.5,160.4z"/>
	</g>
	<g>
		<path class="st10" d="M225.3,424.3c-1.3-1.1-2.1-2.5-2.2-4c-0.1-1.5,0.4-3.1,1.5-4.6c1.2-1.7,2.8-2.6,4.6-2.7s3.7,0.5,5.7,2
			l0.8,0.6c1.3,0.9,2.2,2,2.9,3.1c0.6,1.1,0.9,2.3,0.8,3.5c-0.1,1.2-0.5,2.3-1.3,3.4c-1.1,1.5-2.4,2.4-3.9,2.8s-3,0-4.6-0.9l2-2.7
			c0.9,0.6,1.7,0.8,2.4,0.6c0.7-0.1,1.3-0.6,1.9-1.4c0.7-0.9,0.8-1.8,0.5-2.7c-0.3-0.9-1.2-1.9-2.5-2.9l-1-0.7
			c-1.4-1-2.6-1.6-3.6-1.6s-1.8,0.4-2.5,1.3c-0.6,0.8-0.9,1.6-0.8,2.3c0.1,0.7,0.5,1.4,1.3,2L225.3,424.3z"/>
		<path class="st10" d="M220.6,429.2l0.8-1l-3.6-2.6l1.9-2.6l9.8,7.1l-1.9,2.6l-3.7-2.7l-0.7,0.9l2.1,4.8l-2.4,3.3l-2.3-6.6
			l-7.7-0.2l2.5-3.5L220.6,429.2z"/>
		<path class="st10" d="M217.6,446.1l-1.9,2.6l-9.8-7.1l1.9-2.6l6,4.4l-3.6-7.7l1.9-2.6l9.8,7.1l-1.9,2.6l-6-4.4L217.6,446.1z"/>
		<path class="st10" d="M206.5,445.3c0.2,1,0.5,1.9,1,2.6s1.2,1.4,2.4,2.3l3.1,2.4l-5.2,7.2l-7.7-5.6l-1,1.4l-5-3.7l1.9-2.6l2.9,2.1
			l4.2-5.8l-2.9-2.1l1.9-2.7l5,3.7L206.5,445.3z M204.3,448.4l-2.3,3.1l5.5,4l1.5-2l-1.2-0.9C206.1,451.3,204.9,449.8,204.3,448.4z"
			/>
		<path class="st10" d="M196.9,461.7l0.8-1L194,458l1.9-2.6l9.8,7.1l-1.9,2.6l-3.7-2.7l-0.7,0.9l2.1,4.8l-2.4,3.3l-2.3-6.6l-7.7-0.2
			l2.5-3.5L196.9,461.7z"/>
		<path class="st10" d="M184.3,471.3c0.3,0,0.7,0.2,1.1,0.4c-0.2-1.1,0-2.2,0.7-3.2s1.6-1.5,2.6-1.8c1-0.2,1.9,0,2.8,0.6
			c1,0.8,1.5,1.7,1.5,2.9s-0.5,2.5-1.6,3.9l-0.9,1.2l0.6,0.4c0.5,0.3,0.9,0.5,1.3,0.4c0.4,0,0.8-0.3,1.2-0.8
			c0.3-0.4,0.5-0.9,0.4-1.3c0-0.4-0.2-0.7-0.6-1l1.9-2.6c0.6,0.4,1,1,1.2,1.7s0.2,1.5,0.1,2.3c-0.2,0.8-0.6,1.7-1.2,2.4
			c-0.9,1.2-1.9,1.9-3,2.2s-2.2,0-3.3-0.8l-4.2-3.1c-0.9-0.7-1.7-1-2.4-1.1l-0.2-0.1L184.3,471.3z M187.7,470.5
			c-0.3,0.4-0.5,0.8-0.5,1.3c-0.1,0.5,0,0.9,0.2,1.2l1.7,1.2l0.7-1c1-1.3,1-2.3,0.2-3.1l-0.1-0.1c-0.3-0.2-0.7-0.3-1.1-0.2
			C188.4,469.9,188,470.1,187.7,470.5z"/>
		<path class="st10" d="M190.9,415.8l1.9-2.6l10.1,7.3l1.3-3.8l2.1,1.5l-2,6.9l-0.2,0.3L190.9,415.8z"/>
		<path class="st10" d="M186.8,432.8c-1.8-1.3-2.9-2.7-3.3-4.2c-0.4-1.5-0.1-2.9,1-4.4c1-1.4,2.3-2.2,3.8-2.3
			c1.5-0.1,3.1,0.5,4.9,1.8l2.4,1.8c1.8,1.3,3,2.7,3.3,4.2s0.1,2.9-1,4.3s-2.3,2.2-3.8,2.3c-1.5,0.1-3.1-0.5-4.9-1.8L186.8,432.8z
			 M191.3,432.2c1.1,0.8,2,1.2,2.7,1.3s1.3-0.2,1.8-0.9c0.4-0.6,0.5-1.2,0.3-1.9c-0.3-0.6-0.9-1.3-1.9-2.1l-3.2-2.3
			c-1.1-0.8-2-1.2-2.7-1.3c-0.7-0.1-1.3,0.2-1.8,0.8c-0.5,0.6-0.6,1.3-0.3,1.9s0.9,1.4,2,2.1L191.3,432.2z"/>
		<path class="st10" d="M178.7,439.2c0.8,0.6,1.3,1.3,1.4,2.2c0.1,0.9-0.1,1.8-0.8,2.6c-0.6,0.9-1.4,1.4-2.2,1.5
			c-0.9,0.2-1.7-0.1-2.6-0.7l-0.6-0.5c-0.8-0.6-1.3-1.3-1.4-2.2s0.1-1.7,0.8-2.6c0.6-0.9,1.4-1.4,2.3-1.5c0.9-0.2,1.7,0.1,2.6,0.7
			L178.7,439.2z M176.8,440.4c-0.3-0.2-0.7-0.3-1.1-0.3c-0.4,0-0.7,0.2-0.9,0.6c-0.5,0.7-0.4,1.4,0.4,2l0.7,0.5
			c0.4,0.3,0.7,0.4,1.1,0.3c0.4,0,0.7-0.2,0.9-0.6s0.3-0.7,0.3-1.1c-0.1-0.4-0.3-0.7-0.7-1L176.8,440.4z M178.6,434.7l1.6-0.8
			l5.6,13.9l-1.6,0.8L178.6,434.7z M190.7,438.3c0.8,0.6,1.3,1.3,1.4,2.2c0.1,0.9-0.1,1.8-0.7,2.6c-0.6,0.9-1.4,1.4-2.3,1.5
			c-0.9,0.2-1.7-0.1-2.6-0.7l-0.7-0.5c-0.8-0.6-1.3-1.3-1.4-2.2c-0.1-0.9,0.1-1.7,0.8-2.6c0.6-0.9,1.4-1.4,2.3-1.5
			c0.9-0.2,1.7,0.1,2.6,0.7L190.7,438.3z M188.7,439.6c-0.4-0.3-0.7-0.4-1.1-0.3c-0.4,0-0.7,0.2-0.9,0.6c-0.2,0.3-0.3,0.7-0.3,1
			c0.1,0.4,0.3,0.7,0.7,0.9l0.7,0.5c0.4,0.3,0.7,0.4,1.1,0.3c0.4,0,0.7-0.2,0.9-0.6c0.2-0.3,0.3-0.7,0.3-1c-0.1-0.4-0.3-0.7-0.7-1
			L188.7,439.6z"/>
	</g>
	<g>
		<path class="st10" d="M431.9,240.9c0.4,1.7,0.3,3.2-0.5,4.5s-2.1,2.3-3.9,2.9c-2,0.7-3.8,0.5-5.3-0.4c-1.6-1-2.8-2.6-3.5-4.9
			l-0.3-0.9c-0.5-1.5-0.7-2.9-0.5-4.2c0.1-1.3,0.6-2.4,1.4-3.3c0.8-0.9,1.8-1.6,3.1-2c1.8-0.6,3.4-0.6,4.8,0s2.5,1.7,3.2,3.4
			l-3.2,1.1c-0.4-1-0.9-1.6-1.6-1.9c-0.6-0.3-1.4-0.3-2.4,0.1c-1.1,0.4-1.7,1-2,1.9s-0.1,2.2,0.4,3.8l0.4,1.2c0.6,1.7,1.2,2.8,2,3.4
			c0.8,0.6,1.7,0.7,2.8,0.4c1-0.3,1.6-0.8,2-1.4c0.3-0.6,0.4-1.4,0.1-2.4L431.9,240.9z"/>
		<path class="st10" d="M438.5,239.7l-1.2,0.4l1.4,4.2l-3.1,1l-3.8-11.5l3.1-1l1.4,4.3l1.1-0.4l1.1-5.1l3.9-1.3l-1.9,6.7l6.1,4.6
			l-4.1,1.4L438.5,239.7z"/>
		<path class="st10" d="M450.7,227.5l3.1-1l3.8,11.5l-3.1,1l-2.4-7.1l-1.5,8.4l-3.1,1l-3.8-11.5l3.1-1l2.4,7.1L450.7,227.5z"/>
		<path class="st10" d="M459.3,234.7c0.4-1,0.7-1.9,0.7-2.7s-0.2-1.9-0.6-3.2l-1.2-3.8l8.4-2.8l3,9l1.7-0.6l2,5.9l-3.1,1l-1.2-3.4
			l-6.8,2.3l1.2,3.4l-3.1,1l-2-5.9L459.3,234.7z M462.9,233.5l3.7-1.2l-2.2-6.5l-2.4,0.8l0.4,1.4
			C463.1,230.1,463.3,231.9,462.9,233.5z"/>
		<path class="st10" d="M476.7,226.9l-1.2,0.4l1.4,4.2l-3.1,1L470,221l3.1-1l1.4,4.3l1.1-0.4l1.1-5.1l3.9-1.3l-1.9,6.7l6.1,4.6
			l-4.1,1.4L476.7,226.9z"/>
		<path class="st10" d="M492.5,226.3c-0.2-0.2-0.5-0.5-0.7-0.9c-0.5,1.1-1.3,1.8-2.5,2.2c-1.1,0.4-2.2,0.4-3.1,0
			c-1-0.4-1.6-1.1-1.9-2.1c-0.4-1.2-0.3-2.3,0.4-3.2c0.7-1,1.9-1.7,3.6-2.3l1.4-0.5l-0.2-0.7c-0.2-0.5-0.5-0.9-0.8-1.1
			c-0.4-0.2-0.9-0.2-1.4,0s-0.9,0.4-1.1,0.8c-0.2,0.3-0.2,0.7-0.1,1.2l-3.1,1c-0.2-0.7-0.2-1.3,0-2s0.7-1.3,1.3-1.9
			c0.6-0.6,1.4-1,2.4-1.3c1.4-0.5,2.7-0.5,3.7-0.1c1.1,0.4,1.8,1.3,2.2,2.6l1.7,5c0.4,1.1,0.8,1.9,1.3,2.3l0.1,0.2L492.5,226.3z
			 M489.2,225c0.5-0.2,0.8-0.4,1.1-0.7c0.3-0.3,0.5-0.7,0.6-1.1l-0.7-2l-1.1,0.4c-1.5,0.5-2.2,1.3-1.9,2.4v0.2
			c0.1,0.4,0.4,0.7,0.7,0.8S488.8,225.2,489.2,225z"/>
		<path class="st10" d="M447.6,260.2l1.6-0.5c0.8-0.3,1.3-0.6,1.5-1.2c0.2-0.5,0.3-1.1,0-1.7c-0.2-0.6-0.6-1-1-1.3s-1.1-0.2-1.7,0
			s-1,0.5-1.3,1s-0.3,0.9-0.2,1.5l-3.1,1c-0.3-0.8-0.3-1.6-0.1-2.4c0.2-0.8,0.7-1.5,1.3-2.1c0.7-0.6,1.5-1.1,2.4-1.4
			c1.6-0.5,3-0.6,4.2-0.1s2,1.4,2.5,2.8c0.2,0.7,0.2,1.4,0,2.2s-0.6,1.4-1.2,1.9c1,0,1.8,0.3,2.4,0.7c0.6,0.5,1.1,1.1,1.4,2
			c0.5,1.4,0.3,2.6-0.4,3.8c-0.7,1.2-1.9,2-3.6,2.6c-1.5,0.5-2.9,0.5-4.2,0c-1.2-0.5-2.1-1.4-2.5-2.7l3.1-1c0.2,0.6,0.6,1,1.1,1.2
			c0.6,0.2,1.2,0.2,1.8,0c0.7-0.2,1.2-0.6,1.5-1.1s0.3-1.1,0.1-1.7c-0.5-1.5-1.6-2-3.3-1.5l-1.6,0.5L447.6,260.2z"/>
		<path class="st10" d="M468.2,256.3c0.7,2.1,0.8,3.9,0.3,5.3s-1.6,2.4-3.3,3c-1.7,0.6-3.2,0.4-4.4-0.4s-2.2-2.2-3-4.3l-0.9-2.8
			c-0.7-2.2-0.8-3.9-0.3-5.3c0.5-1.4,1.6-2.4,3.3-3c1.7-0.6,3.1-0.4,4.4,0.4c1.3,0.8,2.2,2.2,3,4.3L468.2,256.3z M464.1,254.2
			c-0.4-1.3-0.9-2.2-1.5-2.6c-0.5-0.5-1.2-0.6-1.9-0.3c-0.7,0.2-1.2,0.7-1.3,1.4c-0.2,0.7,0,1.6,0.3,2.8l1.3,3.7
			c0.4,1.3,0.9,2.1,1.5,2.6c0.5,0.5,1.2,0.6,2,0.4c0.7-0.3,1.2-0.7,1.3-1.4c0.1-0.7,0-1.7-0.4-2.9L464.1,254.2z"/>
		<path class="st10" d="M468.2,249.5c-0.3-0.9-0.3-1.8,0.2-2.6c0.4-0.8,1.1-1.4,2.1-1.7s1.9-0.3,2.7,0.1c0.8,0.4,1.4,1.1,1.7,2.1
			l0.3,0.8c0.3,1,0.3,1.8-0.2,2.6c-0.4,0.8-1.1,1.3-2.1,1.7c-1,0.3-1.9,0.3-2.7-0.1c-0.8-0.4-1.4-1.1-1.7-2L468.2,249.5z
			 M470.5,249.7c0.1,0.4,0.4,0.7,0.7,0.9c0.3,0.2,0.7,0.2,1.1,0.1c0.4-0.1,0.7-0.4,0.8-0.7c0.1-0.3,0.1-0.7,0-1.2l-0.3-0.8
			c-0.1-0.4-0.4-0.7-0.7-0.9c-0.3-0.2-0.7-0.2-1.1-0.1c-0.4,0.1-0.7,0.4-0.8,0.7c-0.2,0.3-0.2,0.7,0,1.2L470.5,249.7z M475.9,259.5
			l-1.8-0.3l3.5-14.6l1.8,0.3L475.9,259.5z M478.4,255.7c-0.3-1-0.3-1.8,0.2-2.6c0.4-0.8,1.1-1.4,2.1-1.7s1.9-0.3,2.7,0
			c0.8,0.4,1.4,1.1,1.7,2.1l0.3,0.8c0.3,0.9,0.3,1.8-0.1,2.6c-0.4,0.8-1.1,1.3-2.1,1.7c-1,0.3-1.9,0.3-2.7-0.1
			c-0.8-0.4-1.4-1.1-1.7-2L478.4,255.7z M480.7,255.9c0.1,0.4,0.4,0.7,0.7,0.9s0.7,0.2,1.1,0.1c0.9-0.3,1.1-0.9,0.8-1.9l-0.3-0.8
			c-0.1-0.4-0.4-0.7-0.7-0.9s-0.7-0.2-1.1-0.1c-0.4,0.1-0.7,0.4-0.8,0.7c-0.2,0.3-0.2,0.7,0,1.2L480.7,255.9z"/>
	</g>
	<g>
		<path class="st10" d="M166.2,356c-0.4-1.7-0.3-3.2,0.5-4.5s2.1-2.3,3.9-2.9c2-0.7,3.8-0.5,5.3,0.4c1.6,1,2.8,2.6,3.5,4.9l0.3,0.9
			c0.5,1.5,0.7,2.9,0.5,4.2c-0.1,1.3-0.6,2.4-1.4,3.3c-0.8,0.9-1.8,1.6-3.1,2c-1.8,0.6-3.4,0.6-4.8,0s-2.5-1.7-3.2-3.4l3.2-1.1
			c0.4,1,0.9,1.6,1.6,1.9c0.6,0.3,1.4,0.3,2.4-0.1c1.1-0.4,1.7-1,2-1.9s0.1-2.2-0.4-3.8l-0.4-1.2c-0.6-1.7-1.2-2.8-2-3.4
			s-1.7-0.7-2.8-0.4c-1,0.3-1.6,0.8-2,1.4c-0.3,0.6-0.4,1.4-0.1,2.4L166.2,356z"/>
		<path class="st10" d="M159.5,357.2l1.2-0.4l-1.4-4.2l3.1-1l3.8,11.5l-3.1,1l-1.4-4.3l-1.1,0.4l-1.1,5.1l-3.9,1.3l1.9-6.7l-6.1-4.6
			l4.1-1.4L159.5,357.2z"/>
		<path class="st10" d="M147.3,369.3l-3.1,1l-3.8-11.5l3.1-1l2.4,7.1l1.5-8.4l3.1-1l3.8,11.5l-3.1,1l-2.4-7.1L147.3,369.3z"/>
		<path class="st10" d="M138.7,362.2c-0.4,1-0.7,1.9-0.7,2.7c0,0.8,0.2,1.9,0.6,3.2l1.2,3.8l-8.4,2.8l-3-9l-1.7,0.6l-2-5.9l3.1-1
			l1.2,3.4l6.8-2.3l-1.2-3.4l3.1-1l2,5.9L138.7,362.2z M135.1,363.4l-3.7,1.2l2.2,6.5l2.4-0.8l-0.4-1.4
			C134.9,366.8,134.8,364.9,135.1,363.4z"/>
		<path class="st10" d="M121.3,369.9l1.2-0.4l-1.4-4.2l3.1-1l3.8,11.5l-3.1,1l-1.4-4.3l-1.1,0.4l-1.1,5.1l-3.9,1.3l1.9-6.7l-6.1-4.6
			l4.1-1.4L121.3,369.9z"/>
		<path class="st10" d="M105.6,370.5c0.2,0.2,0.4,0.5,0.7,0.9c0.5-1.1,1.3-1.8,2.5-2.2c1.1-0.4,2.2-0.4,3.1,0c1,0.4,1.6,1.1,1.9,2.1
			c0.4,1.2,0.3,2.3-0.4,3.2c-0.7,1-1.9,1.7-3.6,2.3l-1.4,0.5l0.2,0.7c0.2,0.5,0.5,0.9,0.8,1.1c0.4,0.2,0.9,0.2,1.4,0
			s0.9-0.4,1.1-0.8c0.2-0.3,0.2-0.7,0.1-1.2l3.1-1c0.2,0.7,0.2,1.3,0,2s-0.7,1.3-1.3,1.9s-1.4,1-2.4,1.3c-1.4,0.5-2.7,0.5-3.7,0.1
			c-1.1-0.4-1.8-1.3-2.2-2.6l-1.7-5c-0.4-1.1-0.8-1.9-1.3-2.3l-0.1-0.2L105.6,370.5z M108.8,371.8c-0.5,0.2-0.8,0.4-1.1,0.7
			c-0.3,0.3-0.5,0.7-0.6,1.1l0.7,2l1.1-0.4c1.5-0.5,2.2-1.3,1.9-2.4v-0.2c-0.1-0.4-0.4-0.7-0.7-0.8
			C109.7,371.6,109.3,371.6,108.8,371.8z"/>
		<path class="st10" d="M150.5,336.7l-1.6,0.5c-0.8,0.3-1.3,0.6-1.5,1.2s-0.3,1.1,0,1.7c0.2,0.6,0.6,1,1,1.3c0.5,0.2,1.1,0.2,1.7,0
			c0.6-0.2,1-0.5,1.3-1s0.3-0.9,0.2-1.5l3.1-1c0.3,0.8,0.3,1.6,0.1,2.4s-0.7,1.5-1.3,2.1c-0.7,0.6-1.5,1.1-2.4,1.4
			c-1.6,0.5-3,0.6-4.2,0.1s-2-1.4-2.5-2.8c-0.2-0.7-0.2-1.4,0-2.2c0.2-0.7,0.6-1.4,1.2-1.9c-1,0-1.8-0.3-2.4-0.7
			c-0.6-0.5-1.1-1.1-1.4-2c-0.5-1.4-0.3-2.6,0.4-3.8c0.7-1.2,1.9-2,3.6-2.6c1.5-0.5,2.9-0.5,4.2,0s2.1,1.4,2.5,2.7l-3.1,1
			c-0.2-0.6-0.6-1-1.1-1.2c-0.6-0.2-1.2-0.2-1.8,0c-0.7,0.2-1.2,0.6-1.5,1.1s-0.3,1.1-0.1,1.7c0.5,1.5,1.6,2,3.3,1.5l1.6-0.5
			L150.5,336.7z"/>
		<path class="st10" d="M129.9,340.6c-0.7-2.1-0.8-3.9-0.3-5.3s1.6-2.4,3.3-3s3.1-0.4,4.4,0.4c1.3,0.8,2.2,2.2,3,4.3l0.9,2.8
			c0.7,2.2,0.8,3.9,0.3,5.3s-1.6,2.4-3.3,3s-3.1,0.4-4.4-0.4c-1.3-0.8-2.2-2.2-3-4.3L129.9,340.6z M134,342.6
			c0.4,1.3,0.9,2.2,1.5,2.6c0.5,0.5,1.2,0.6,1.9,0.3c0.7-0.2,1.2-0.7,1.3-1.4c0.2-0.7,0-1.6-0.3-2.8l-1.3-3.7
			c-0.4-1.3-0.9-2.1-1.4-2.6s-1.2-0.6-2-0.4c-0.7,0.3-1.2,0.7-1.3,1.4c-0.1,0.7,0,1.7,0.4,2.9L134,342.6z"/>
		<path class="st10" d="M119.6,341.1c0.3,1,0.3,1.8-0.2,2.6c-0.4,0.8-1.1,1.3-2.1,1.7c-1,0.3-1.9,0.3-2.7-0.1
			c-0.8-0.4-1.4-1.1-1.7-2.1l-0.3-0.8c-0.3-0.9-0.3-1.8,0.1-2.6c0.4-0.8,1.1-1.3,2.1-1.7c1-0.3,1.9-0.3,2.7,0.1
			c0.8,0.4,1.4,1.1,1.7,2L119.6,341.1z M117.3,341c-0.1-0.4-0.4-0.7-0.7-0.9c-0.3-0.2-0.7-0.2-1.1-0.1c-0.9,0.3-1.1,0.9-0.8,1.9
			l0.3,0.8c0.1,0.4,0.4,0.7,0.7,0.9c0.3,0.2,0.7,0.2,1.1,0.1s0.7-0.4,0.8-0.7c0.2-0.3,0.2-0.7,0-1.2L117.3,341z M122.1,337.3
			l1.8,0.3l-3.5,14.6l-1.8-0.3L122.1,337.3z M129.9,347.3c0.3,0.9,0.3,1.8-0.2,2.6c-0.4,0.8-1.1,1.4-2.1,1.7c-1,0.3-1.9,0.3-2.7-0.1
			c-0.8-0.4-1.4-1.1-1.7-2.1l-0.3-0.8c-0.3-1-0.3-1.8,0.2-2.6s1.1-1.3,2.1-1.7c1-0.3,1.9-0.3,2.7,0.1s1.4,1.1,1.7,2L129.9,347.3z
			 M127.6,347.2c-0.1-0.4-0.4-0.7-0.7-0.9s-0.7-0.2-1.1-0.1s-0.7,0.4-0.8,0.7c-0.1,0.3-0.1,0.7,0,1.2l0.3,0.8
			c0.1,0.4,0.4,0.7,0.7,0.9c0.3,0.2,0.7,0.2,1.1,0.1s0.7-0.4,0.8-0.7c0.2-0.3,0.2-0.7,0-1.2L127.6,347.2z"/>
	</g>
	<g>
		<path class="st10" d="M440.8,328.7c-0.7,1.6-1.7,2.7-3.1,3.3c-1.4,0.6-3,0.6-4.8,0c-2-0.6-3.3-1.8-4-3.5s-0.7-3.7,0.1-6l0.3-0.9
			c0.5-1.5,1.2-2.7,2.1-3.7s1.9-1.6,3.1-1.9s2.4-0.2,3.7,0.2c1.8,0.6,3.1,1.5,3.8,2.8c0.8,1.3,1,2.9,0.6,4.6l-3.2-1
			c0.2-1,0.2-1.8-0.1-2.4s-1-1.1-2-1.4c-1.1-0.3-2-0.2-2.8,0.4s-1.4,1.7-2,3.3l-0.4,1.2c-0.5,1.7-0.7,3-0.4,3.9s0.9,1.6,2,1.9
			c1,0.3,1.8,0.3,2.4,0s1.1-0.9,1.5-1.8L440.8,328.7z"/>
		<path class="st10" d="M446.9,331.7l-1.2-0.4l-1.4,4.2l-3.1-1l3.7-11.5l3.1,1l-1.4,4.3l1.1,0.4l3.9-3.5l3.9,1.3l-5.5,4.3l2.2,7.4
			l-4.1-1.3L446.9,331.7z"/>
		<path class="st10" d="M463.9,329.2l3.1,1l-3.7,11.5l-3.1-1l2.3-7.1l-6.1,5.9l-3.1-1L457,327l3.1,1l-2.3,7.1L463.9,329.2z"/>
		<path class="st10" d="M466.6,340c0.9-0.5,1.6-1.1,2.1-1.7s0.9-1.6,1.4-2.9l1.3-3.7l8.5,2.7l-2.9,9l1.7,0.5l-1.9,5.9l-3.1-1
			l1.1-3.5l-6.8-2.2l-1.1,3.5l-3.1-1l1.9-5.9L466.6,340z M470.2,341.2l3.7,1.2l2.1-6.5l-2.4-0.8l-0.5,1.4
			C472.4,338.6,471.4,340.1,470.2,341.2z"/>
		<path class="st10" d="M485.2,344.1l-1.2-0.4l-1.4,4.2l-3.1-1l3.7-11.5l3.1,1l-1.4,4.3l1.1,0.4l3.9-3.5l3.9,1.3l-5.5,4.3l2.2,7.4
			l-4.1-1.3L485.2,344.1z"/>
		<path class="st10" d="M498.2,353c-0.1-0.3,0-0.7,0-1.1c-1,0.6-2.1,0.7-3.3,0.3c-1.1-0.4-2-1-2.5-1.9s-0.6-1.8-0.3-2.8
			c0.4-1.2,1.1-2,2.3-2.4c1.1-0.4,2.5-0.3,4.2,0.3l1.4,0.5l0.2-0.7c0.2-0.5,0.2-1,0-1.4s-0.5-0.7-1.1-0.9c-0.5-0.2-1-0.2-1.3,0
			c-0.4,0.2-0.6,0.4-0.8,0.9l-3.1-1c0.2-0.7,0.6-1.2,1.2-1.6s1.3-0.7,2.2-0.8s1.7,0,2.7,0.3c1.4,0.5,2.4,1.2,3,2.2s0.7,2.1,0.3,3.4
			l-1.6,5c-0.3,1.1-0.5,2-0.3,2.6l-0.1,0.2L498.2,353z M496.4,350c0.5,0.1,0.9,0.2,1.4,0.1c0.4-0.1,0.8-0.3,1.1-0.5l0.6-2l-1.1-0.4
			c-1.5-0.5-2.5-0.2-3,0.8l-0.1,0.2c-0.1,0.4-0.1,0.7,0.1,1.1C495.6,349.6,495.9,349.9,496.4,350z"/>
		<path class="st10" d="M443.4,364.1l-3.1-1l3.8-11.8h-4l0.8-2.5l7.1-0.2l0.3,0.1L443.4,364.1z"/>
		<path class="st10" d="M451.3,358.2l3.4-7.6l8.7,2.8l-0.8,2.6l-6.2-2l-1.5,3.2c0.9-0.2,1.7-0.1,2.5,0.2c1.5,0.5,2.5,1.3,3,2.5
			s0.5,2.6,0,4.2c-0.3,1-0.8,1.8-1.5,2.5s-1.5,1.1-2.4,1.3c-0.9,0.2-1.9,0.1-3-0.2c-0.9-0.3-1.7-0.8-2.4-1.4
			c-0.7-0.6-1.1-1.4-1.4-2.2c-0.2-0.8-0.2-1.7,0-2.6l3,1c-0.1,0.7-0.1,1.2,0.2,1.7s0.7,0.8,1.3,1c0.7,0.2,1.3,0.1,1.8-0.2
			c0.5-0.4,1-1,1.2-1.9c0.3-0.9,0.3-1.6,0-2.2s-0.8-1-1.6-1.3c-0.7-0.2-1.4-0.2-2,0l-0.4,0.2L451.3,358.2z"/>
		<path class="st10" d="M465.2,369.8l-1.2-1.3l11.5-9.7l1.2,1.3L465.2,369.8z M464.9,357.2c0.3-0.9,0.9-1.6,1.7-2
			c0.8-0.4,1.7-0.4,2.7-0.1s1.7,0.9,2.2,1.7c0.4,0.8,0.5,1.7,0.2,2.7l-0.2,0.8c-0.3,1-0.9,1.6-1.7,2s-1.7,0.4-2.7,0.1
			s-1.7-0.9-2.2-1.7c-0.4-0.8-0.5-1.7-0.2-2.7L464.9,357.2z M466.7,358.7c-0.1,0.4-0.1,0.8,0,1.1c0.2,0.3,0.4,0.6,0.8,0.7
			s0.8,0.1,1.1-0.1c0.3-0.2,0.5-0.5,0.7-0.9l0.3-0.8c0.1-0.4,0.1-0.8,0-1.1c-0.1-0.3-0.4-0.6-0.8-0.7s-0.7-0.1-1.1,0.1
			c-0.3,0.2-0.6,0.5-0.7,1L466.7,358.7z M469.5,368.3c0.3-1,0.9-1.6,1.7-2c0.8-0.4,1.7-0.4,2.7-0.1s1.7,0.9,2.2,1.7
			c0.4,0.8,0.5,1.7,0.2,2.7l-0.2,0.8c-0.3,0.9-0.9,1.6-1.7,2c-0.8,0.4-1.7,0.4-2.7,0.1s-1.7-0.9-2.2-1.7c-0.4-0.8-0.5-1.7-0.2-2.6
			L469.5,368.3z M471.3,369.8c-0.1,0.4-0.1,0.8,0.1,1.1c0.2,0.4,0.4,0.6,0.8,0.7c0.9,0.3,1.5-0.1,1.8-1l0.3-0.8
			c0.1-0.4,0.1-0.8,0-1.1c-0.2-0.3-0.4-0.6-0.8-0.7s-0.8-0.1-1.1,0.1c-0.3,0.2-0.6,0.5-0.7,0.9L471.3,369.8z"/>
	</g>
	<g>
		<path class="st10" d="M158.6,263.8c0.7-1.6,1.7-2.7,3.1-3.3c1.4-0.6,3-0.6,4.8,0c2,0.6,3.3,1.8,4,3.5s0.7,3.7-0.1,6l-0.3,0.9
			c-0.5,1.5-1.2,2.7-2.1,3.7c-0.9,1-1.9,1.6-3.1,1.9c-1.2,0.3-2.4,0.2-3.7-0.2c-1.8-0.6-3.1-1.5-3.9-2.8c-0.8-1.3-1-2.9-0.6-4.6
			l3.2,1c-0.2,1-0.2,1.8,0.1,2.4s1,1.1,2,1.4c1.1,0.3,2,0.2,2.8-0.4s1.4-1.7,2-3.3l0.4-1.2c0.5-1.7,0.7-3,0.4-3.9s-0.9-1.6-2-1.9
			c-1-0.3-1.8-0.3-2.4,0c-0.6,0.3-1.1,0.9-1.5,1.8L158.6,263.8z"/>
		<path class="st10" d="M152.5,260.8l1.2,0.4l1.4-4.2l3.1,1l-3.7,11.5l-3.1-1l1.4-4.3l-1.1-0.4l-3.9,3.5L144,266l5.5-4.3l-2.2-7.3
			l4.1,1.3L152.5,260.8z"/>
		<path class="st10" d="M135.5,263.3l-3.1-1l3.7-11.5l3.1,1l-2.3,7.1l6.1-5.9l3.1,1l-3.7,11.5l-3.1-1l2.3-7.1L135.5,263.3z"/>
		<path class="st10" d="M132.9,252.5c-0.9,0.5-1.6,1.1-2.1,1.7s-0.9,1.6-1.4,2.9l-1.3,3.7l-8.5-2.7l2.9-9l-1.7-0.5l1.9-5.9l3.1,1
			l-1.1,3.5l6.8,2.2l1.1-3.5l3.1,1l-1.9,5.9L132.9,252.5z M129.2,251.3l-3.7-1.2l-2.1,6.5l2.4,0.8l0.5-1.4
			C127.1,253.9,128,252.4,129.2,251.3z"/>
		<path class="st10" d="M114.3,248.4l1.2,0.4l1.4-4.2l3.1,1l-3.7,11.5l-3.1-1l1.4-4.3l-1.1-0.4l-3.9,3.5l-3.9-1.3l5.5-4.3l-2.2-7.4
			l4.1,1.3L114.3,248.4z"/>
		<path class="st10" d="M101.2,239.5c0.1,0.3,0,0.7,0,1.1c1-0.6,2.1-0.7,3.3-0.3c1.1,0.4,2,1,2.5,1.9s0.6,1.8,0.3,2.8
			c-0.4,1.2-1.1,2-2.3,2.4c-1.1,0.4-2.5,0.3-4.2-0.3l-1.4-0.5l-0.2,0.7c-0.2,0.5-0.2,1,0,1.4s0.5,0.7,1.1,0.9c0.5,0.2,1,0.2,1.3,0
			c0.4-0.2,0.6-0.4,0.8-0.9l3.1,1c-0.2,0.7-0.6,1.2-1.2,1.7c-0.6,0.4-1.3,0.7-2.2,0.8s-1.8,0-2.7-0.3c-1.4-0.5-2.4-1.2-3-2.2
			s-0.7-2.1-0.3-3.4l1.6-5c0.3-1.1,0.5-2,0.3-2.6l0.1-0.2L101.2,239.5z M103.1,242.5c-0.5-0.1-0.9-0.2-1.4-0.1s-0.8,0.3-1.1,0.5
			l-0.6,2l1.1,0.4c1.5,0.5,2.5,0.2,3-0.8l0.1-0.2c0.1-0.4,0.1-0.7-0.1-1.1C103.9,242.9,103.5,242.7,103.1,242.5z"/>
		<path class="st10" d="M156,228.4l3.1,1l-3.8,11.8h4l-0.8,2.5l-7.1,0.2l-0.3-0.1L156,228.4z"/>
		<path class="st10" d="M148.1,234.3l-3.4,7.6L136,239l0.8-2.6l6.2,2l1.5-3.2c-0.9,0.2-1.7,0.1-2.5-0.2c-1.5-0.5-2.5-1.3-3-2.5
			s-0.5-2.6,0-4.2c0.3-1,0.8-1.8,1.5-2.5s1.5-1.1,2.4-1.3s1.9-0.1,3,0.2c0.9,0.3,1.7,0.8,2.4,1.4c0.7,0.6,1.1,1.4,1.4,2.2
			c0.2,0.8,0.2,1.7,0,2.6l-3-1c0.1-0.7,0.1-1.2-0.2-1.7s-0.7-0.8-1.3-1c-0.7-0.2-1.3-0.1-1.8,0.2c-0.5,0.4-1,1-1.2,1.9
			c-0.3,0.9-0.3,1.6,0,2.2c0.3,0.6,0.8,1,1.6,1.3c0.7,0.2,1.4,0.2,2,0l0.4-0.2L148.1,234.3z"/>
		<path class="st10" d="M134.2,222.7l1.2,1.3l-11.5,9.7l-1.2-1.3L134.2,222.7z M130,224.2c-0.3,1-0.9,1.6-1.7,2
			c-0.8,0.4-1.7,0.4-2.7,0.1c-1-0.3-1.7-0.9-2.2-1.7c-0.4-0.8-0.5-1.7-0.2-2.7l0.2-0.8c0.3-0.9,0.9-1.6,1.7-2
			c0.8-0.4,1.7-0.4,2.7-0.1c1,0.3,1.7,0.9,2.2,1.7c0.4,0.8,0.5,1.7,0.2,2.6L130,224.2z M128.2,222.7c0.1-0.4,0.1-0.8-0.1-1.1
			c-0.2-0.4-0.4-0.6-0.8-0.7c-0.9-0.3-1.5,0.1-1.8,1l-0.3,0.8c-0.1,0.4-0.1,0.8,0,1.1c0.2,0.3,0.4,0.6,0.8,0.7
			c0.4,0.1,0.8,0.1,1.1-0.1c0.3-0.2,0.6-0.5,0.7-0.9L128.2,222.7z M134.5,235.3c-0.3,0.9-0.9,1.6-1.7,2s-1.7,0.4-2.7,0.1
			c-1-0.3-1.7-0.9-2.2-1.7c-0.4-0.8-0.5-1.7-0.2-2.7l0.2-0.8c0.3-1,0.9-1.6,1.7-2s1.7-0.4,2.7-0.1c1,0.3,1.7,0.9,2.2,1.7
			c0.4,0.8,0.5,1.7,0.2,2.7L134.5,235.3z M132.8,233.8c0.1-0.4,0.1-0.8,0-1.1c-0.2-0.3-0.4-0.6-0.8-0.7s-0.8-0.1-1.1,0.1
			c-0.3,0.2-0.5,0.5-0.7,0.9l-0.3,0.8c-0.1,0.4-0.1,0.8,0,1.1c0.1,0.3,0.4,0.6,0.8,0.7c0.4,0.1,0.7,0.1,1.1-0.1
			c0.3-0.2,0.6-0.5,0.7-1L132.8,233.8z"/>
	</g>
	<g>
		<path class="st10" d="M388.2,404.7c-1.5,0.9-3,1.2-4.5,0.9c-1.5-0.3-2.8-1.3-3.9-2.8c-1.2-1.7-1.6-3.4-1.2-5.2
			c0.4-1.8,1.6-3.4,3.6-4.9l0.8-0.6c1.3-0.9,2.5-1.5,3.8-1.8s2.5-0.2,3.6,0.3c1.1,0.5,2.1,1.2,2.9,2.3c1.1,1.5,1.6,3,1.5,4.5
			c-0.1,1.5-0.9,2.9-2.2,4.1l-2-2.7c0.8-0.7,1.2-1.4,1.3-2.1c0.1-0.7-0.2-1.4-0.8-2.3c-0.7-0.9-1.5-1.3-2.5-1.3
			c-1,0-2.1,0.5-3.5,1.5l-1,0.7c-1.4,1-2.3,2-2.6,2.9c-0.3,0.9-0.2,1.8,0.5,2.7c0.6,0.8,1.3,1.3,1.9,1.4c0.7,0.1,1.4-0.1,2.3-0.6
			L388.2,404.7z"/>
		<path class="st10" d="M391.4,410.7l-0.8-1l-3.6,2.6l-1.9-2.6l9.7-7.2l1.9,2.6l-3.7,2.7l0.7,0.9l5.2-0.6l2.4,3.3l-7,0.2l-2.5,7.2
			l-2.5-3.5L391.4,410.7z"/>
		<path class="st10" d="M406.6,418.7l1.9,2.6l-9.7,7.2l-1.9-2.6l6-4.4l-8.4,1.2l-1.9-2.6l9.7-7.2l1.9,2.6l-6,4.4L406.6,418.7z"/>
		<path class="st10" d="M402.5,428.9c1.1,0.1,2,0.1,2.7-0.2s1.7-0.8,2.9-1.6l3.2-2.3l5.3,7.2l-7.6,5.6l1,1.4l-5,3.7l-1.9-2.6
			l2.9-2.2l-4.2-5.8l-2.9,2.2l-2-2.7l5-3.7L402.5,428.9z M404.7,432.1l2.3,3.1l5.5-4l-1.5-2l-1.2,0.8
			C408,431.3,406.3,432,404.7,432.1z"/>
		<path class="st10" d="M415.1,443.2l-0.8-1l-3.6,2.6l-1.9-2.6l9.7-7.2l1.9,2.6l-3.7,2.7l0.7,0.9l5.2-0.6l2.4,3.3l-7,0.2l-2.5,7.2
			l-2.5-3.5L415.1,443.2z"/>
		<path class="st10" d="M420.5,458c0.1-0.3,0.4-0.6,0.7-0.9c-1.2-0.1-2.1-0.7-2.9-1.7c-0.7-1-1-1.9-0.9-3c0.1-1,0.6-1.9,1.4-2.5
			c1-0.8,2.1-1,3.2-0.6c1.1,0.4,2.2,1.3,3.3,2.7l0.9,1.2l0.6-0.4c0.4-0.3,0.7-0.7,0.8-1.1c0.1-0.4,0-0.9-0.4-1.4
			c-0.3-0.4-0.7-0.7-1.1-0.8c-0.4-0.1-0.8,0-1.1,0.3l-1.9-2.6c0.6-0.4,1.2-0.6,1.9-0.6c0.7,0,1.5,0.2,2.2,0.6c0.7,0.4,1.4,1,2,1.8
			c0.9,1.2,1.3,2.4,1.2,3.5c-0.1,1.1-0.7,2.1-1.8,2.9l-4.2,3.1c-0.9,0.7-1.5,1.3-1.8,1.9l-0.2,0.1L420.5,458z M420.7,454.6
			c0.3,0.4,0.6,0.7,1,0.9c0.4,0.2,0.8,0.3,1.2,0.2l1.7-1.2l-0.7-1c-1-1.3-1.9-1.7-2.9-1.1l-0.2,0.1c-0.3,0.2-0.5,0.5-0.5,0.9
			C420.3,453.8,420.4,454.2,420.7,454.6z"/>
		<path class="st10" d="M371.4,437.5l-6.6-9l1.8-1.3l7.6,0.9c1.1,0.1,1.9,0.1,2.6,0.1c0.7-0.1,1.2-0.3,1.7-0.6
			c0.6-0.4,0.9-0.9,1-1.5c0.1-0.5,0-1.1-0.4-1.6c-0.4-0.6-1-0.9-1.6-0.9c-0.6,0-1.3,0.2-2,0.7l-1.9-2.6c0.8-0.6,1.7-0.9,2.6-1
			s1.9,0.1,2.7,0.5c0.9,0.4,1.7,1.1,2.3,2c1,1.3,1.4,2.6,1.3,3.9c-0.1,1.2-0.7,2.3-1.9,3.1c-0.6,0.5-1.4,0.8-2.3,1
			c-0.9,0.2-2.1,0.2-3.6,0l-5.3-0.7l4.1,5.6L371.4,437.5z"/>
		<path class="st10" d="M384.5,444c-1.8,1.3-3.5,2-5,1.9c-1.5-0.1-2.8-0.8-3.9-2.2c-1.1-1.4-1.4-2.9-1-4.3c0.4-1.4,1.4-2.8,3.2-4.1
			l2.4-1.8c1.8-1.3,3.5-2,5-1.9c1.5,0.1,2.8,0.8,3.8,2.2c1.1,1.4,1.4,2.9,1,4.3c-0.4,1.4-1.4,2.8-3.2,4.1L384.5,444z M385.2,439.5
			c1.1-0.8,1.8-1.5,2-2.2c0.3-0.7,0.2-1.3-0.3-1.9c-0.5-0.6-1-0.9-1.7-0.8s-1.5,0.4-2.5,1.2l-3.2,2.3c-1.1,0.8-1.8,1.5-2.1,2.2
			c-0.3,0.7-0.2,1.3,0.3,2c0.5,0.6,1.1,0.9,1.8,0.8s1.6-0.5,2.6-1.2L385.2,439.5z"/>
		<path class="st10" d="M383.8,452.4l-0.3-1.8l14.9-1l0.3,1.8L383.8,452.4z M388.2,453.6c0.8-0.6,1.7-0.8,2.5-0.6
			c0.9,0.2,1.6,0.7,2.3,1.5c0.6,0.9,0.9,1.7,0.8,2.6c-0.1,0.9-0.6,1.6-1.4,2.3l-0.6,0.5c-0.8,0.6-1.6,0.8-2.5,0.7
			c-0.9-0.2-1.6-0.7-2.3-1.5c-0.6-0.9-0.9-1.7-0.8-2.6c0.1-0.9,0.6-1.6,1.4-2.2L388.2,453.6z M388.8,455.9c-0.3,0.2-0.5,0.6-0.6,0.9
			c-0.1,0.4,0,0.7,0.2,1.1c0.5,0.7,1.2,0.8,2,0.2l0.7-0.5c0.4-0.3,0.6-0.6,0.6-0.9c0.1-0.4,0-0.7-0.3-1c-0.2-0.3-0.6-0.5-0.9-0.6
			c-0.4,0-0.7,0.1-1.1,0.4L388.8,455.9z M390.9,441.9c0.8-0.6,1.6-0.8,2.5-0.7c0.9,0.2,1.6,0.7,2.3,1.5c0.6,0.9,0.9,1.7,0.8,2.6
			c-0.1,0.9-0.6,1.6-1.4,2.3l-0.6,0.5c-0.8,0.6-1.7,0.8-2.5,0.7c-0.9-0.2-1.6-0.7-2.2-1.5c-0.6-0.9-0.9-1.7-0.8-2.6
			c0.1-0.9,0.6-1.6,1.4-2.3L390.9,441.9z M391.5,444.2c-0.4,0.3-0.6,0.6-0.6,0.9c-0.1,0.4,0,0.7,0.3,1.1c0.2,0.3,0.6,0.5,0.9,0.6
			c0.4,0,0.7-0.1,1.1-0.4l0.7-0.5c0.4-0.3,0.6-0.6,0.7-0.9c0.1-0.4,0-0.7-0.3-1.1c-0.2-0.3-0.5-0.5-0.9-0.6c-0.4,0-0.7,0.1-1.1,0.4
			L391.5,444.2z"/>
	</g>
	<g>
		<path class="st10" d="M202.2,185.1c1.5-0.9,3-1.2,4.5-0.9s2.8,1.3,3.9,2.8c1.2,1.7,1.6,3.4,1.2,5.2c-0.4,1.8-1.6,3.4-3.6,4.9
			l-0.8,0.6c-1.3,0.9-2.5,1.5-3.8,1.8c-1.3,0.3-2.5,0.2-3.6-0.3c-1.1-0.4-2.1-1.2-2.9-2.3c-1.1-1.5-1.6-3-1.5-4.5
			c0.1-1.5,0.9-2.9,2.2-4.1l2,2.7c-0.8,0.7-1.2,1.4-1.3,2.1s0.2,1.4,0.8,2.3c0.7,0.9,1.5,1.3,2.5,1.3c1,0,2.1-0.5,3.5-1.5l1-0.7
			c1.4-1,2.3-2,2.6-2.9s0.2-1.8-0.5-2.7c-0.6-0.8-1.3-1.3-1.9-1.4c-0.7-0.1-1.4,0.1-2.3,0.6L202.2,185.1z"/>
		<path class="st10" d="M199.1,179.1l0.8,1l3.6-2.6l1.9,2.6l-9.7,7.2l-1.9-2.6l3.7-2.7l-0.7-0.9l-5.2,0.6l-2.4-3.3l7-0.2l2.5-7.2
			l2.5,3.5L199.1,179.1z"/>
		<path class="st10" d="M183.8,171.1l-1.9-2.6l9.7-7.2l1.9,2.6l-6,4.4l8.4-1.2l1.9,2.6l-9.7,7.2l-1.9-2.6l6-4.4L183.8,171.1z"/>
		<path class="st10" d="M188,160.9c-1.1-0.1-2-0.1-2.7,0.2c-0.8,0.2-1.7,0.8-2.9,1.6l-3.2,2.3l-5.3-7.2l7.6-5.6l-1-1.4l5-3.7
			l1.9,2.6l-2.9,2.2l4.2,5.8l2.9-2.2l2,2.7l-5,3.7L188,160.9z M185.8,157.8l-2.3-3.1l-5.5,4l1.5,2l1.2-0.8
			C182.5,158.6,184.2,157.9,185.8,157.8z"/>
		<path class="st10" d="M175.3,146.6l0.8,1l3.6-2.6l1.9,2.6l-9.7,7.2l-1.9-2.6l3.7-2.7l-0.7-0.9l-5.2,0.6l-2.4-3.3l7-0.2l2.5-7.2
			l2.5,3.5L175.3,146.6z"/>
		<path class="st10" d="M170,131.8c-0.1,0.3-0.4,0.6-0.7,0.9c1.2,0.1,2.1,0.7,2.9,1.7c0.7,1,1,1.9,0.9,3c-0.1,1-0.6,1.9-1.4,2.5
			c-1,0.8-2.1,1-3.2,0.6c-1.1-0.4-2.2-1.3-3.3-2.7l-0.9-1.2l-0.6,0.4c-0.5,0.3-0.7,0.7-0.8,1.1c-0.1,0.4,0,0.9,0.4,1.4
			c0.3,0.4,0.7,0.7,1.1,0.8c0.4,0.1,0.8,0,1.1-0.3l1.9,2.6c-0.6,0.4-1.2,0.6-1.9,0.6c-0.7,0-1.5-0.2-2.2-0.6c-0.7-0.4-1.4-1-2-1.8
			c-0.9-1.2-1.3-2.4-1.2-3.5c0.1-1.1,0.7-2.1,1.8-2.9l4.2-3.1c0.9-0.7,1.5-1.3,1.8-1.9l0.2-0.1L170,131.8z M169.8,135.3
			c-0.3-0.4-0.6-0.7-1-0.9s-0.8-0.3-1.2-0.2l-1.7,1.2l0.7,1c1,1.3,1.9,1.7,2.9,1.1l0.2-0.1c0.3-0.2,0.5-0.5,0.5-0.9
			C170.1,136.1,170.1,135.7,169.8,135.3z"/>
		<path class="st10" d="M219,152.3l6.6,9l-1.8,1.3l-7.6-0.9c-1.1-0.1-1.9-0.1-2.6-0.1c-0.7,0-1.2,0.3-1.7,0.6
			c-0.6,0.4-0.9,0.9-1,1.5c-0.1,0.6,0,1.1,0.4,1.6c0.4,0.6,1,0.9,1.6,0.9c0.7,0,1.3-0.2,2-0.7l1.9,2.6c-0.8,0.6-1.7,0.9-2.6,1
			c-0.9,0.1-1.9-0.1-2.7-0.5c-0.9-0.4-1.7-1.1-2.3-1.9c-1-1.3-1.4-2.6-1.3-3.9c0.1-1.2,0.7-2.3,1.9-3.1c0.6-0.5,1.4-0.8,2.3-1
			c0.9-0.2,2.1-0.2,3.6,0l5.3,0.7l-4.1-5.6L219,152.3z"/>
		<path class="st10" d="M205.9,145.8c1.8-1.3,3.5-2,5-1.9c1.5,0,2.8,0.8,3.9,2.2c1.1,1.4,1.4,2.9,1,4.3c-0.4,1.4-1.4,2.8-3.2,4.1
			l-2.4,1.8c-1.8,1.3-3.5,2-5,1.9c-1.5-0.1-2.8-0.8-3.8-2.2c-1-1.4-1.4-2.9-1-4.3s1.4-2.8,3.2-4.1L205.9,145.8z M205.2,150.4
			c-1.1,0.8-1.8,1.5-2,2.2c-0.2,0.7-0.2,1.3,0.3,1.9c0.5,0.6,1,0.9,1.7,0.8c0.7-0.1,1.5-0.4,2.5-1.2l3.2-2.3
			c1.1-0.8,1.8-1.5,2.1-2.2c0.3-0.7,0.2-1.3-0.3-2c-0.5-0.6-1.1-0.9-1.8-0.8c-0.7,0.1-1.6,0.5-2.6,1.2L205.2,150.4z"/>
		<path class="st10" d="M206.6,137.5l0.3,1.8l-14.9,1l-0.3-1.8L206.6,137.5z M199.5,147.9c-0.8,0.6-1.6,0.8-2.5,0.7
			c-0.9-0.2-1.6-0.7-2.3-1.5c-0.6-0.9-0.9-1.7-0.8-2.6c0.1-0.9,0.6-1.6,1.4-2.3l0.6-0.5c0.8-0.6,1.7-0.8,2.5-0.7
			c0.8,0.1,1.6,0.7,2.2,1.5c0.6,0.9,0.9,1.7,0.8,2.6c-0.1,0.9-0.6,1.6-1.4,2.3L199.5,147.9z M198.9,145.7c0.4-0.3,0.6-0.6,0.6-0.9
			c0.1-0.4,0-0.7-0.3-1.1c-0.2-0.3-0.6-0.5-0.9-0.6c-0.3-0.1-0.7,0.1-1.1,0.4l-0.7,0.5c-0.4,0.3-0.6,0.6-0.7,0.9
			c-0.1,0.4,0,0.7,0.3,1.1c0.2,0.3,0.5,0.5,0.9,0.6c0.4,0,0.7-0.1,1.1-0.4L198.9,145.7z M202.2,136.2c-0.8,0.6-1.7,0.8-2.5,0.6
			c-0.8-0.2-1.6-0.7-2.3-1.5c-0.6-0.9-0.9-1.7-0.8-2.6c0.1-0.9,0.6-1.6,1.4-2.3l0.6-0.5c0.8-0.6,1.6-0.8,2.5-0.7
			c0.9,0.2,1.6,0.7,2.3,1.5c0.6,0.9,0.9,1.7,0.8,2.6c-0.1,0.9-0.6,1.6-1.4,2.2L202.2,136.2z M201.8,134c0.3-0.2,0.5-0.6,0.6-0.9
			c0.1-0.4,0-0.7-0.2-1.1c-0.5-0.7-1.2-0.8-2-0.2l-0.7,0.5c-0.4,0.3-0.6,0.6-0.6,0.9c-0.1,0.4,0,0.7,0.3,1.1
			c0.2,0.3,0.6,0.5,0.9,0.6c0.4,0,0.7-0.1,1.1-0.4L201.8,134z"/>
	</g>
</g>
<g>
	<g>
		<polygon class="st9" points="563.6,398.8 551.8,380.3 573.2,374.1 584.1,392.6 		"/>
		<polygon class="st9" points="27.8,225.5 15.9,207 37.3,200.9 48.2,219.4 		"/>
	</g>
	<g>
		<polygon class="st9" points="476.3,80.2 455,85.7 455.8,63.5 476.8,58.9 		"/>
		<polygon class="st9" points="144.4,535.3 123.1,540.8 124,518.5 145,513.9 		"/>
	</g>
	<g>
		<g>
			<polygon class="st9" points="571.2,224 550.7,216 564.3,198.4 584.1,206.9 			"/>
			<polygon class="st9" points="36.4,400.7 15.9,392.7 29.6,375.1 49.3,383.6 			"/>
		</g>
		<polygon class="st9" points="316.8,18.4 303.1,35.5 290.4,17.2 304.5,1 		"/>
		<polygon class="st9" points="315.2,581.9 301.4,599 288.8,580.7 302.9,564.5 		"/>
	</g>
	<g>
		<polygon class="st9" points="144.4,65.1 143.1,87.1 122.2,79.5 124.2,58.1 		"/>
		<polygon class="st9" points="477,519.6 475.8,541.6 454.8,534 456.8,512.6 		"/>
	</g>
</g>
<ellipse transform="matrix(0.9999 -1.360850e-02 1.360850e-02 0.9999 -4.7467 7.8192)" class="st11" cx="572.2" cy="352.7" rx="2.6" ry="2.6"/>
<ellipse transform="matrix(0.9999 -1.360850e-02 1.360850e-02 0.9999 -3.214 7.7993)" class="st11" cx="571.5" cy="240.1" rx="2.6" ry="2.6"/>
<circle class="st11" cx="26.4" cy="250.2" r="2.6"/>
<circle class="st11" cx="27.7" cy="355.1" r="2.6"/>
<ellipse transform="matrix(0.9999 -1.360851e-02 1.360851e-02 0.9999 -2.4253 7.5315)" class="st11" cx="552.2" cy="182" rx="2.6" ry="2.6"/>
<circle class="st11" cx="487.4" cy="94.7" r="2.6"/>
<circle class="st11" cx="47.4" cy="415.8" r="2.6"/>
<circle class="st11" cx="113.7" cy="505.1" r="2.6"/>
<circle class="st11" cx="435.6" cy="56.8" r="2.6"/>
<circle class="st11" cx="336.6" cy="24.3" r="2.6"/>
<ellipse transform="matrix(0.9999 -1.360852e-02 1.360852e-02 0.9999 -7.3596 2.3011)" class="st11" cx="165.4" cy="541.9" rx="2.6" ry="2.6"/>
<ellipse transform="matrix(0.9999 -1.360852e-02 1.360852e-02 0.9999 -7.8091 3.741)" class="st11" cx="271" cy="575.7" rx="2.6" ry="2.6"/>
<circle class="st11" cx="269.2" cy="24.7" r="2.6"/>
<circle class="st11" cx="160.8" cy="61" r="2.6"/>
<ellipse transform="matrix(0.9999 -1.360849e-02 1.360849e-02 0.9999 -7.7908 4.6227)" class="st11" cx="335.8" cy="574.8" rx="2.6" ry="2.6"/>
<ellipse transform="matrix(0.9999 -1.360848e-02 1.360848e-02 0.9999 -7.3169 6.0243)" class="st11" cx="439" cy="540.7" rx="2.6" ry="2.6"/>
<circle class="st11" cx="111.5" cy="96.6" r="2.6"/>
<circle class="st11" cx="47.4" cy="183.7" r="2.6"/>
<circle class="st11" cx="489.1" cy="503.1" r="2.6"/>
<ellipse transform="matrix(0.9999 -1.360852e-02 1.360852e-02 0.9999 -5.5859 7.5556)" class="st11" cx="552.4" cy="414.2" rx="2.6" ry="2.6"/>
<path class="st12" d="M326.4,280.3c-6-8-15.6-13.2-26.4-13.2c-18.2,0-32.9,14.7-32.9,32.9c0,4.8,1.1,9.4,2.9,13.6
	c5.2,11.4,16.6,19.3,30,19.3c18.2,0,32.9-14.7,32.9-32.9C332.9,292.6,330.5,285.7,326.4,280.3z"/>
<path class="st13" d="M320.1,285C315.5,279,308.2,275,300,275c-13.8,0-25.1,11.2-25.1,25.1c0,3.7,0.8,7.2,2.2,10.3
	c3.9,8.7,12.7,14.7,22.8,14.7c13.8,0,25.1-11.2,25.1-25.1C325.1,294.3,323.2,289.1,320.1,285z"/>
</svg>
