<svg width="20" height="20" viewBox="0 0 20 20" fill="none" xmlns="http://www.w3.org/2000/svg">
<path d="M18.7588 18.2167L14.0629 13.2651C15.2713 11.8102 15.9319 9.97939 15.9319 8.07368C15.9306 3.6216 12.3588 0 7.96656 0C3.57429 0 0 3.6216 0 8.07493C0 12.527 3.57429 16.1486 7.96656 16.1486C9.6149 16.1486 11.1876 15.6453 12.5311 14.6875L17.2617 19.6766C17.4588 19.8851 17.7252 20 18.0103 20C18.2792 20 18.5358 19.8951 18.7291 19.7053C19.143 19.3032 19.1554 18.635 18.7588 18.2167ZM7.96656 2.10678C11.2124 2.10678 13.8547 4.78427 13.8547 8.07493C13.8547 11.3656 11.2124 14.0443 7.96656 14.0443C4.71946 14.0443 2.0784 11.3656 2.0784 8.07493C2.0784 4.78427 4.71946 2.10678 7.96656 2.10678Z" fill="#080808"/>
</svg>
