<?xml version="1.0" encoding="utf-8"?>
<!-- Generator: Adobe Illustrator 18.1.0, SVG Export Plug-In . SVG Version: 6.00 Build 0)  -->
<svg version="1.1" id="Layer_1" xmlns="http://www.w3.org/2000/svg" xmlns:xlink="http://www.w3.org/1999/xlink" x="0px" y="0px"
	 viewBox="0 0 156 156" enable-background="new 0 0 156 156" xml:space="preserve">
<g>
	
		<image overflow="visible" opacity="0.3" width="739" height="709" xlink:href="EEA9BBD5.png"  transform="matrix(0.24 0 0 0.24 -9.2339 -5.6773)">
	</image>
	<g>
		<path fill-rule="evenodd" clip-rule="evenodd" fill="#FAB72F" d="M78.4,7.3l24.3,44l49.3,9.5l-34.4,36.7l6.2,49.9L78.4,126
			l-45.5,21.3l6.2-49.9L4.8,60.8l49.3-9.5L78.4,7.3"/>
	</g>
</g>
<path display="none" opacity="0.3" fill-rule="evenodd" clip-rule="evenodd" fill="#EF7B17" d="M77.9,14.8l21.8,39.6l44.4,8.5
	l-30.9,33l5.6,44.8l-40.9-19.2L37,140.7l5.6-44.8l-30.9-33l44.4-8.5L77.9,14.8"/>
<g>
	<defs>
		<path id="SVGID_1_" d="M70.2,102.1V95h7.3c3.3,0,6.4-0.4,9.4-1.3c3-0.9,5.6-2.2,7.9-4c2.3-1.8,4.1-4,5.4-6.7c1.3-2.7,2-5.8,2-9.5
			c0-3.5-0.6-6.5-1.7-8.9c-1.2-2.4-2.8-4.3-4.8-5.7c-2.1-1.4-4.5-2.5-7.4-3.1c-2.9-0.6-6-0.9-9.4-0.9H61.5v32.7H57V95h4.5v7.1H57
			v6.2h4.5v13.2h8.7v-13.2h23.4v-6.2H70.2L70.2,102.1z M92.1,80.7c-0.8,1.7-1.9,3.1-3.3,4.1c-1.4,1-3.1,1.8-5.2,2.2
			c-2,0.4-4.3,0.7-6.9,0.7h-6.6V62.6h7.2c2.3,0,4.5,0.1,6.4,0.4c1.9,0.3,3.6,0.8,5,1.7c1.4,0.8,2.5,2,3.3,3.6
			c0.8,1.5,1.2,3.6,1.2,6.1C93.2,76.9,92.8,79,92.1,80.7L92.1,80.7z"/>
	</defs>
	<clipPath id="SVGID_2_">
		<use xlink:href="#SVGID_1_"  overflow="visible"/>
	</clipPath>
	<g clip-path="url(#SVGID_2_)">
		
			<image overflow="visible" width="256" height="256" xlink:href="EEA9BBD7.jpg"  transform="matrix(0.5202 0 0 0.5317 12.9401 13.0261)">
		</image>
	</g>
	<use xlink:href="#SVGID_1_"  overflow="visible" fill="none" stroke="#FFFFFF" stroke-miterlimit="10"/>
</g>
</svg>
