<?xml version="1.0" encoding="utf-8"?>
<!-- Generator: Adobe Illustrator 18.1.0, SVG Export Plug-In . SVG Version: 6.00 Build 0)  -->
<svg version="1.1" id="Layer_1" xmlns="http://www.w3.org/2000/svg" xmlns:xlink="http://www.w3.org/1999/xlink" x="0px" y="0px"
	 viewBox="0 0 156 156" enable-background="new 0 0 156 156" xml:space="preserve">
<g>
	
		<image overflow="visible" opacity="0.3" width="715" height="715" xlink:href="EF0C086.png"  transform="matrix(0.24 0 0 0.24 -5.5653 -4.7293)">
	</image>
	<g>
		<path fill-rule="evenodd" clip-rule="evenodd" fill="#C41718" d="M139.5,84.9l10.3-5.9L139.5,73l8.9-7.8l-11.3-3.8l7.2-9.4
			l-11.8-1.6l5.3-10.7L126,40.5l3.1-11.5l-11.5,3.1l0.8-11.9l-10.7,5.3l-1.6-11.8l-9.4,7.2L92.9,9.6l-7.8,8.9L79.1,8.3l-5.9,10.3
			l-7.8-8.9l-3.8,11.3l-9.4-7.2l-1.6,11.8l-10.7-5.3l0.8,11.9L29.1,29l3.1,11.5l-11.9-0.8l5.3,10.7l-11.8,1.6l7.2,9.4L9.8,65.2
			l8.9,7.8L8.4,79l10.3,5.9l-8.9,7.8l11.3,3.8l-7.2,9.4l11.8,1.6l-5.3,10.7l11.9-0.8L29.1,129l11.5-3.1l-0.8,11.9l10.7-5.3l1.6,11.8
			l9.4-7.2l3.8,11.3l7.8-8.9l5.9,10.3l6-10.3l7.8,8.9l3.8-11.3l9.4,7.2l1.6-11.8l10.7,5.3l-0.8-11.9l11.5,3.1l-3.1-11.5l11.9,0.8
			l-5.3-10.7l11.8-1.6l-7.2-9.4l11.3-3.8L139.5,84.9z"/>
	</g>
</g>
<path fill-rule="evenodd" clip-rule="evenodd" fill="#FFFFFF" d="M42,59.7h77.2v20.5H42V59.7z"/>
<path fill-rule="evenodd" clip-rule="evenodd" fill="#FFFFFF" d="M70.3,56.6h22.1v3.2H70.3V56.6z"/>
<path fill-rule="evenodd" clip-rule="evenodd" fill="#FFFFFF" d="M48.3,84.9h64.6v29.9H48.3V84.9z"/>
<path fill-rule="evenodd" clip-rule="evenodd" fill="#FFFFFF" d="M78.2,53.4c-0.4,6.1-3.4,6.3-9.5,6.3s-13.8-4.9-14.2-11
	c-0.4-6.6,5.8-12.9,12.6-12.6C73.3,36.4,78.7,45.6,78.2,53.4z M67.2,40.8c-4,0-7.9,3.9-7.9,7.9s5.5,5.9,9.5,6.3
	c3.3,0.3,4.9-0.3,4.7-3.2C73.2,47.9,71.2,40.8,67.2,40.8z"/>
<path fill-rule="evenodd" clip-rule="evenodd" fill="#FFFFFF" d="M82.9,53.4c0.4,6.1,3.4,6.3,9.5,6.3c6.1,0,13.8-4.9,14.2-11
	c0.4-6.6-5.8-12.9-12.6-12.6C87.9,36.4,82.5,45.6,82.9,53.4z M94,40.8c4,0,7.9,3.9,7.9,7.9s-5.5,5.9-9.5,6.3
	c-3.3,0.3-4.9-0.3-4.7-3.2C87.9,47.9,90,40.8,94,40.8z"/>
<rect x="78.3" y="59.7" fill-rule="evenodd" clip-rule="evenodd" fill="#C41718" width="4.7" height="55.1"/>
</svg>
