<?xml version="1.0" encoding="utf-8"?>
<!-- Generator: Adobe Illustrator 18.1.0, SVG Export Plug-In . SVG Version: 6.00 Build 0)  -->
<svg version="1.1" id="Layer_1" xmlns="http://www.w3.org/2000/svg" xmlns:xlink="http://www.w3.org/1999/xlink" x="0px" y="0px"
	 viewBox="0 0 156 156" enable-background="new 0 0 156 156" xml:space="preserve">
<g id="Layer_1_1_">
	<g>
		<image overflow="visible" opacity="0.3" width="171" height="171" xlink:href="907FF3DD.png"  transform="matrix(1 0 0 1 -7 -6)">
		</image>
		<g>
			<polygon fill="#E52427" points="136.5,83.4 146.5,77.8 136.5,71.8 145.2,64.2 134.1,60.4 141.1,51.2 129.5,49.6 134.6,39 
				123,39.9 125.9,28.8 115.1,31.7 115.9,20.1 105.4,25.2 103.7,13.6 94.5,20.6 90.7,9.5 83.2,18.2 77.5,8.2 71.8,18.5 64.2,9.8 
				60.4,20.9 51.2,13.9 49.6,25.5 39,20.4 39.8,32 28.7,28.8 31.7,39.9 20.1,39 25.2,49.6 13.6,51.2 20.6,60.4 9.5,64.2 18.5,71.8 
				8.4,77.5 18.5,83.2 9.8,90.8 20.9,94.5 13.9,103.7 25.5,105.4 20.4,115.9 32,115.1 29,126.2 40.1,123.2 39.3,134.9 49.9,129.7 
				51.5,141.4 60.7,134.3 64.5,145.4 72.1,136.8 77.7,146.8 83.4,136.8 91,145.4 94.8,134.3 104,141.4 105.6,129.7 116.2,134.9 
				115.1,123.5 126.2,126.5 123.5,115.1 135.1,115.9 130,105.4 141.6,103.7 134.6,94.5 145.7,90.8 			"/>
			<polygon fill="none" stroke="#FFFFFF" stroke-miterlimit="10" points="136.5,83.4 146.5,77.8 136.5,71.8 145.2,64.2 134.1,60.4 
				141.1,51.2 129.5,49.6 134.6,39 123,39.9 125.9,28.8 115.1,31.7 115.9,20.1 105.4,25.2 103.7,13.6 94.5,20.6 90.7,9.5 83.2,18.2 
				77.5,8.2 71.8,18.5 64.2,9.8 60.4,20.9 51.2,13.9 49.6,25.5 39,20.4 39.8,32 28.7,28.8 31.7,39.9 20.1,39 25.2,49.6 13.6,51.2 
				20.6,60.4 9.5,64.2 18.5,71.8 8.4,77.5 18.5,83.2 9.8,90.8 20.9,94.5 13.9,103.7 25.5,105.4 20.4,115.9 32,115.1 29,126.2 
				40.1,123.2 39.3,134.9 49.9,129.7 51.5,141.4 60.7,134.3 64.5,145.4 72.1,136.8 77.7,146.8 83.4,136.8 91,145.4 94.8,134.3 
				104,141.4 105.6,129.7 116.2,134.9 115.1,123.5 126.2,126.5 123.5,115.1 135.1,115.9 130,105.4 141.6,103.7 134.6,94.5 
				145.7,90.8 			"/>
		</g>
	</g>
</g>
<g id="Layer_2">
	
		<text transform="matrix(0.8134 -0.3486 0.3939 0.9192 38.5974 101.893)" fill="#FFFFFF" font-family="Tahoma-Bold" font-size="42.8309">NEW</text>
</g>
<g id="Layer_3">
	
		<text transform="matrix(0.9192 -0.3939 0.3939 0.9192 46.1537 121.3239)" fill="#FFFFFF" font-family="Tahoma" font-size="22.1737">collection</text>
</g>
</svg>
